<?xml version="1.0" encoding="UTF-8"?>
<svg xmlns="http://www.w3.org/2000/svg" xmlns:xlink="http://www.w3.org/1999/xlink" version="1.2" >
<font id="AdelleSans">
<font-face  font-family="Adelle Sans" units-per-em="1000" ascent="1000" descent="-370" font-style="normal" font-weight="400" font-stretch="normal" cap-height="724" x-height="514" underline-position="-75" underline-thickness="50" />
<missing-glyph  horiz-adv-x="500" d="" />
<glyph glyph-name="space" unicode="&#x20;" horiz-adv-x="214" d="" />
<glyph glyph-name="uni00A0" unicode="&#xa0;" horiz-adv-x="214" d="" />
<glyph glyph-name="quotesingle" unicode="&#x27;" horiz-adv-x="206" d="M58 465 L58 724 L148 724 L148 465 L58 465 Z " />
<glyph glyph-name="quotedbl" unicode="&#x22;" horiz-adv-x="361" d="M213 465 L213 724 L303 724 L303 465 L213 465 Z M58 465 L58 724 L148 724 L148 465 L58 465 Z " />
<glyph glyph-name="numbersign" unicode="&#x23;" horiz-adv-x="607" d="M321 0 L343 144 L222 144 L200 0 L128 0 L149 144 L34 144 L50 213 L160 213 L183 358 L68 358 L82 428 L193 428 L212 559 L285 559 L265 428 L384 428 L403 559 L476 559 L456 428 L571 428 L558 358 L446 358 L425 213 L539 213 L525 144 L415 144 L393 0 L321 0 Z M374 358 L255 358 L232 213 L353 213 L374 358 Z " />
<glyph glyph-name="ampersand" unicode="&#x26;" horiz-adv-x="699" d="M486 561 Q486 539 479.5 515.5 Q473 492 456 469 Q439 446 410 424 Q381 402 336 383 L300 367 Q333 313 384 250 Q431 191 469 150 Q495 187 506.5 236.5 Q518 286 520 343 L601 343 Q600 278 583.5 214.5 Q567 151 527 100 Q549 83 571 73.5 Q593 64 616 64 Q639 64 662 74 L678 6 Q662 -3 642.5 -7 Q623 -11 606 -11 Q564 -11 531.5 3.5 Q499 18 467 42 Q435 17 389 2.5 Q343 -12 282 -12 Q231 -12 189 3 Q147 18 117.5 44 Q88 70 72 106.5 Q56 143 56 186 Q56 259 90.5 305.5 Q125 352 191 386 Q171 422 161.5 457 Q152 492 152 530 Q152 566 165.5 596.5 Q179 627 203.5 649.5 Q228 672 261.5 685 Q295 698 335 698 Q360 698 387 692 Q414 686 436 671 Q458 656 472 629.5 Q486 603 486 561 Z M295 61 Q363 61 410 91 Q377 123 347.5 157.5 Q318 192 295 224 Q274 252 256 277 Q238 302 222 328 Q189 308 168 277.5 Q147 247 147 195 Q147 169 156 145 Q165 121 183 102 Q201 83 229 72 Q257 61 295 61 Z M241 540 Q241 485 271 424 Q271 424 276.5 426 Q282 428 288.5 431 Q295 434 300.5 436 Q306 438 306 438 Q359 461 382.5 490 Q406 519 406 557 Q406 586 387 606.5 Q368 627 330 627 Q292 627 266.5 605 Q241 583 241 540 Z " />
<glyph glyph-name="asterisk" unicode="&#x2a;" horiz-adv-x="471" d="M273 617 L401 649 L414 606 L295 546 L374 426 L340 399 L234 499 L129 396 L95 425 L173 546 L52 605 L66 648 L196 617 L215 755 L257 755 L273 617 Z " />
<glyph glyph-name="comma" unicode="&#x2c;" horiz-adv-x="218" d="M70 106 L171 106 L87 -129 L14 -120 L70 106 Z " />
<glyph glyph-name="hyphen" unicode="&#x2d;" horiz-adv-x="316" d="M20 251 L20 338 L291 338 L291 251 L20 251 Z " />
<glyph glyph-name="period" unicode="&#x2e;" horiz-adv-x="226" d="M181 55 Q181 -12 113 -12 Q45 -12 45 55 Q45 122 113 122 Q181 122 181 55 Z " />
<glyph glyph-name="colon" unicode="&#x3a;" horiz-adv-x="226" d="M181 55 Q181 -12 113 -12 Q45 -12 45 55 Q45 122 113 122 Q181 122 181 55 Z M181 434 Q181 367 113 367 Q45 367 45 434 Q45 501 113 501 Q181 501 181 434 Z " />
<glyph glyph-name="semicolon" unicode="&#x3b;" horiz-adv-x="218" d="M62 106 L163 106 L79 -129 L6 -120 L62 106 Z M193 434 Q193 367 125 367 Q57 367 57 434 Q57 501 125 501 Q193 501 193 434 Z " />
<glyph glyph-name="question" unicode="&#x3f;" horiz-adv-x="508" d="M156 187 L156 366 Q196 369 234 378 Q272 387 301.5 405.5 Q331 424 348.5 453.5 Q366 483 366 528 Q366 564 356.5 587.5 Q347 611 330.5 624.5 Q314 638 291.5 643.5 Q269 649 243 649 Q217 649 195.5 643.5 Q174 638 156.5 625 Q139 612 126 590 Q113 568 106 535 L21 550 Q27 585 42.5 617 Q58 649 85 673.5 Q112 698 152.5 712.5 Q193 727 249 727 Q291 727 329 717.5 Q367 708 396.5 685 Q426 662 443 624.5 Q460 587 460 531 Q460 479 443.5 440.5 Q427 402 398 375 Q369 348 329.5 330.5 Q290 313 244 304 L244 187 L156 187 Z M265 52 Q265 -12 198 -12 Q131 -12 131 52 Q131 117 198 117 Q265 117 265 52 Z " />
<glyph glyph-name="exclam" unicode="&#x21;" horiz-adv-x="266" d="M99 188 L82 724 L184 724 L168 188 L99 188 Z M201 52 Q201 -12 134 -12 Q67 -12 67 52 Q67 117 134 117 Q201 117 201 52 Z " />
<glyph glyph-name="exclamdown" unicode="&#xa1;" horiz-adv-x="266" d="M175.006 324.011 L192.005 -211.956 L90.0112 -211.956 L106.01 324.011 L175.006 324.011 Z M73.0123 460.003 Q73.0123 523.999 140.008 523.999 Q207.004 523.999 207.004 460.003 Q207.004 395.007 140.008 395.007 Q73.0123 395.007 73.0123 460.003 Z " />
<glyph glyph-name="questiondown" unicode="&#xbf;" horiz-adv-x="480" d="M343.01 325.011 L343.01 146.022 Q303.012 143.023 265.014 134.023 Q227.017 125.024 197.518 106.525 Q168.02 88.0259 150.521 58.5277 Q133.022 29.0295 133.022 -15.9678 Q133.022 -51.9656 142.522 -75.4641 Q152.021 -98.9627 168.52 -112.462 Q185.019 -125.961 207.518 -131.461 Q230.016 -136.96 256.015 -136.96 Q282.013 -136.96 303.512 -131.461 Q325.011 -125.961 342.51 -112.962 Q360.008 -99.9626 373.008 -77.964 Q386.007 -55.9653 393.006 -22.9673 L478.001 -37.9664 Q472.002 -72.9643 456.503 -104.962 Q441.004 -136.96 414.005 -161.459 Q387.007 -185.957 346.509 -200.457 Q306.012 -214.956 250.015 -214.956 Q208.018 -214.956 170.02 -205.456 Q132.022 -195.957 102.524 -172.958 Q73.026 -149.96 56.027 -112.462 Q39.0281 -74.9642 39.0281 -18.9676 Q39.0281 33.0292 55.5271 71.5269 Q72.0261 110.025 101.024 137.023 Q130.023 164.021 169.52 181.52 Q209.018 199.019 255.015 208.019 L255.015 325.011 L343.01 325.011 Z M234.016 460.003 Q234.016 523.999 301.012 523.999 Q368.008 523.999 368.008 460.003 Q368.008 395.007 301.012 395.007 Q234.016 395.007 234.016 460.003 Z " />
<glyph glyph-name="at" unicode="&#x40;" horiz-adv-x="842" d="M673 -103 Q631 -140 567 -158 Q503 -176 428 -176 Q348 -176 278.5 -153.5 Q209 -131 158 -85.5 Q107 -40 77.5 28.5 Q48 97 48 189 Q48 275 76.5 346 Q105 417 156.5 467.5 Q208 518 280.5 545.5 Q353 573 442 573 Q518 573 582.5 552.5 Q647 532 694.5 491 Q742 450 769 389.5 Q796 329 796 250 Q796 184 783 136 Q770 88 747 57 Q724 26 692 11 Q660 -4 621 -4 Q579 -4 550 11.5 Q521 27 509 51 Q489 25 458.5 8.5 Q428 -8 389 -8 Q348 -8 320 6.5 Q292 21 275 46 Q258 71 250 105 Q242 139 242 178 Q242 225 254 265 Q266 305 288 334.5 Q310 364 342 380.5 Q374 397 413 397 Q442 397 464.5 387.5 Q487 378 505 361 L510 391 L572 391 L572 137 Q572 120 573.5 105 Q575 90 580 79 Q585 68 596 62 Q607 56 626 56 Q668 56 694 104 Q720 152 720 237 Q720 374 647.5 439.5 Q575 505 435 505 Q361 505 303.5 480.5 Q246 456 206.5 413.5 Q167 371 146.5 314 Q126 257 126 192 Q126 114 149.5 57 Q173 0 214.5 -36.5 Q256 -73 313 -90.5 Q370 -108 437 -108 Q500 -108 551 -91.5 Q602 -75 637 -47 L673 -103 Z M501 305 Q486 318 467.5 326.5 Q449 335 423 335 Q379 335 349 299 Q319 263 319 184 Q319 156 323 132.5 Q327 109 337 91.5 Q347 74 363 64.5 Q379 55 402 55 Q434 55 459 72 Q484 89 501 117 L501 305 Z " />
<glyph glyph-name="A" unicode="A" horiz-adv-x="687" d="M400 724 L652 0 L551 0 L478 215 L200 215 L129 0 L36 0 L280 724 L400 724 Z M339 640 L338 640 L222 294 L455 294 L339 640 Z " />
<glyph glyph-name="B" unicode="B" horiz-adv-x="628" d="M96 0 L96 724 L345 724 Q409 724 451 710.5 Q493 697 518 673 Q543 649 553 616.5 Q563 584 563 547 Q563 509 551.5 480 Q540 451 520.5 430.5 Q501 410 475 397 Q449 384 419 377 L419 375 Q508 364 550 317.5 Q592 271 592 196 Q592 140 572 102.5 Q552 65 516.5 42.5 Q481 20 432 10 Q383 0 324 0 L96 0 Z M311 77 Q350 77 384 81 Q418 85 442.5 98.5 Q467 112 481 136.5 Q495 161 495 202 Q495 238 482.5 262.5 Q470 287 447.5 302.5 Q425 318 395 324.5 Q365 331 331 331 L187 331 L187 77 L311 77 Z M292 407 Q322 407 353.5 412 Q385 417 411 431 Q437 445 453.5 470 Q470 495 470 534 Q470 568 460.5 590 Q451 612 432 625 Q413 638 384.5 643 Q356 648 319 648 L187 648 L187 407 L292 407 Z " />
<glyph glyph-name="C" unicode="C" horiz-adv-x="692" d="M368 -12 Q283 -12 222.5 14 Q162 40 124 88 Q86 136 68 203 Q50 270 50 351 Q50 442 73.5 514 Q97 586 141 635.5 Q185 685 247.5 711 Q310 737 387 737 Q444 737 491.5 723 Q539 709 574.5 679 Q610 649 631 603 Q652 557 656 494 L570 485 Q559 570 517 613.5 Q475 657 386 657 Q273 657 209 583 Q145 509 145 359 Q145 281 160.5 225.5 Q176 170 205 135 Q234 100 277 83.5 Q320 67 374 67 Q460 67 505.5 104.5 Q551 142 568 219 L651 202 Q642 142 614.5 101 Q587 60 548 35 Q509 10 462.5 -1 Q416 -12 368 -12 Z " />
<glyph glyph-name="D" unicode="D" horiz-adv-x="728" d="M96 0 L96 724 L319 724 Q413 724 481 699.5 Q549 675 592.5 629.5 Q636 584 657 519 Q678 454 678 373 Q678 290 655.5 221 Q633 152 587 103 Q541 54 470 27 Q399 0 302 0 L96 0 Z M303 78 Q445 78 514 152.5 Q583 227 583 360 Q583 442 564.5 497 Q546 552 511.5 585 Q477 618 426 632 Q375 646 311 646 L188 646 L188 78 L303 78 Z " />
<glyph glyph-name="E" unicode="E" horiz-adv-x="575" d="M188 80 L532 80 L532 0 L96 0 L96 724 L519 724 L519 644 L188 644 L188 405 L499 405 L499 325 L188 325 L188 80 Z " />
<glyph glyph-name="F" unicode="F" horiz-adv-x="547" d="M188 0 L96 0 L96 724 L519 724 L519 644 L188 644 L188 393 L494 393 L494 313 L188 313 L188 0 Z " />
<glyph glyph-name="G" unicode="G" horiz-adv-x="736" d="M577 98 Q567 75 546 55 Q525 35 496 20 Q467 5 432 -3.5 Q397 -12 359 -12 Q277 -12 218.5 15 Q160 42 122.5 90 Q85 138 67.5 205 Q50 272 50 353 Q50 445 73.5 516.5 Q97 588 140.5 637 Q184 686 247 711.5 Q310 737 389 737 Q446 737 493 724 Q540 711 575 682 Q610 653 631 607 Q652 561 657 496 L569 487 Q560 575 515.5 616 Q471 657 386 657 Q271 657 208 580 Q145 503 145 361 Q145 277 162.5 220.5 Q180 164 211 129.5 Q242 95 284.5 80.5 Q327 66 377 66 Q426 66 462 81 Q498 96 522 120.5 Q546 145 558 176 Q570 207 570 239 L570 301 L378 301 L378 376 L657 376 L657 0 L590 0 L577 98 Z " />
<glyph glyph-name="H" unicode="H" horiz-adv-x="728" d="M632 0 L540 0 L540 328 L188 328 L188 0 L96 0 L96 724 L188 724 L188 411 L540 411 L540 724 L632 724 L632 0 Z " />
<glyph glyph-name="I" unicode="I" horiz-adv-x="284" d="M188 0 L96 0 L96 724 L188 724 L188 0 Z " />
<glyph glyph-name="J" unicode="J" horiz-adv-x="499" d="M320 724 L412 724 L412 183 Q412 129 398 92 Q384 55 358.5 31.5 Q333 8 296.5 -2 Q260 -12 214 -12 Q125 -12 78.5 27.5 Q32 67 26 157 L114 172 Q117 148 122 128 Q127 108 138 94.5 Q149 81 167.5 73.5 Q186 66 216 66 Q238 66 257 70.5 Q276 75 290 87 Q304 99 312 121 Q320 143 320 179 L320 724 Z " />
<glyph glyph-name="K" unicode="K" horiz-adv-x="644" d="M188 371 L513 724 L616 724 L331 414 L630 0 L522 0 L268 342 L188 257 L188 0 L96 0 L96 724 L188 724 L188 371 Z " />
<glyph glyph-name="L" unicode="L" horiz-adv-x="552" d="M188 81 L514 81 L514 0 L96 0 L96 724 L188 724 L188 81 Z " />
<glyph glyph-name="M" unicode="M" horiz-adv-x="897" d="M801 0 L714 0 L714 625 L713 625 L494 0 L398 0 L183 626 L181 626 L181 0 L96 0 L96 724 L236 724 L449 108 L450 108 L663 724 L801 724 L801 0 Z " />
<glyph glyph-name="N" unicode="N" horiz-adv-x="745" d="M538 0 L182 607 L182 0 L96 0 L96 724 L217 724 L564 123 L564 724 L649 724 L649 0 L538 0 Z " />
<glyph glyph-name="O" unicode="O" horiz-adv-x="759" d="M375 -12 Q291 -12 229.5 16 Q168 44 128.5 93.5 Q89 143 69.5 212 Q50 281 50 362 Q50 443 72 511.5 Q94 580 137 630 Q180 680 243.5 708.5 Q307 737 390 737 Q472 737 532 709 Q592 681 631.5 632 Q671 583 690 517 Q709 451 709 376 Q709 288 688 216.5 Q667 145 625 94 Q583 43 520.5 15.5 Q458 -12 375 -12 Z M380 69 Q431 69 474.5 86.5 Q518 104 549 141 Q580 178 597.5 234 Q615 290 615 367 Q615 439 599 493 Q583 547 553 583 Q523 619 481 637.5 Q439 656 387 656 Q334 656 290 637.5 Q246 619 214 582 Q182 545 164 490 Q146 435 146 363 Q146 289 163 234 Q180 179 210.5 142.5 Q241 106 284 87.5 Q327 69 380 69 Z " />
<glyph glyph-name="P" unicode="P" horiz-adv-x="616" d="M187 0 L96 0 L96 724 L332 724 Q401 724 447.5 706.5 Q494 689 522 659 Q550 629 561.5 589.5 Q573 550 573 507 Q573 442 554.5 396 Q536 350 500.5 320.5 Q465 291 413.5 277 Q362 263 297 263 L187 263 L187 0 Z M290 342 Q329 342 363.5 348 Q398 354 423.5 371.5 Q449 389 463.5 420 Q478 451 478 502 Q478 580 435.5 613 Q393 646 305 646 L187 646 L187 342 L290 342 Z " />
<glyph glyph-name="Q" unicode="Q" horiz-adv-x="759" d="M375 -12 Q292 -12 230.5 16 Q169 44 129 93.5 Q89 143 69.5 212 Q50 281 50 362 Q50 443 72 511.5 Q94 580 137 630 Q180 680 243.5 708.5 Q307 737 390 737 Q472 737 532 709 Q592 681 631.5 632 Q671 583 690 517 Q709 451 709 376 Q709 282 686 210.5 Q663 139 615 87 L704 -9 L650 -60 L558 39 Q521 12 475.5 0 Q430 -12 375 -12 Z M380 67 Q450 67 502 98 L370 237 L427 291 L558 147 Q586 188 601 242 Q616 296 616 367 Q616 439 599.5 493 Q583 547 553 583 Q523 619 481 637.5 Q439 656 387 656 Q334 656 290 637.5 Q246 619 214 582 Q182 545 164 490 Q146 435 146 363 Q146 289 163 234 Q180 179 211 141.5 Q242 104 285 85.5 Q328 67 380 67 Z " />
<glyph glyph-name="R" unicode="R" horiz-adv-x="625" d="M616 0 L516 0 L350 301 L187 301 L187 0 L96 0 L96 724 L344 724 Q411 724 456 707 Q501 690 528 662.5 Q555 635 566.5 599.5 Q578 564 578 527 Q578 445 539.5 396 Q501 347 438 325 L616 0 Z M322 378 Q358 378 387.5 384.5 Q417 391 438 407.5 Q459 424 471 452 Q483 480 483 522 Q483 559 471 583 Q459 607 437 621 Q415 635 383.5 640.5 Q352 646 313 646 L187 646 L187 378 L322 378 Z " />
<glyph glyph-name="S" unicode="S" horiz-adv-x="583" d="M299 659 Q257 659 228.5 650.5 Q200 642 182 626.5 Q164 611 156 590.5 Q148 570 148 546 Q148 513 162.5 491 Q177 469 201 453.5 Q225 438 256 427 Q287 416 321 406 Q361 394 400.5 380.5 Q440 367 471.5 344.5 Q503 322 522.5 287.5 Q542 253 542 201 Q542 144 521 103.5 Q500 63 464.5 37.5 Q429 12 382.5 0 Q336 -12 286 -12 Q173 -12 104.5 36.5 Q36 85 22 197 L110 210 Q116 181 127 155 Q138 129 158 109 Q178 89 209 77.5 Q240 66 287 66 Q316 66 345 71.5 Q374 77 397 91 Q420 105 434 128.5 Q448 152 448 188 Q448 222 434 244.5 Q420 267 396.5 282 Q373 297 342 307.5 Q311 318 278 327 Q238 338 198 351.5 Q158 365 126 387.5 Q94 410 74 445.5 Q54 481 54 537 Q54 583 72.5 620.5 Q91 658 123.5 683.5 Q156 709 200.5 723 Q245 737 298 737 Q346 737 387 727 Q428 717 459 693 Q490 669 510 630 Q530 591 536 533 L450 523 Q446 549 437.5 573.5 Q429 598 412.5 617 Q396 636 368.5 647.5 Q341 659 299 659 Z " />
<glyph glyph-name="T" unicode="T" horiz-adv-x="554" d="M232 0 L232 644 L13 644 L13 724 L541 724 L541 644 L324 644 L324 0 L232 0 Z " />
<glyph glyph-name="U" unicode="U" horiz-adv-x="714" d="M358 68 Q445 68 488.5 108.5 Q532 149 532 251 L532 724 L623 724 L623 243 Q623 112 553 50 Q483 -12 354 -12 Q214 -12 152 53 Q90 118 90 245 L90 724 L182 724 L182 254 Q182 153 226.5 110.5 Q271 68 358 68 Z " />
<glyph glyph-name="V" unicode="V" horiz-adv-x="621" d="M254 0 L10 724 L113 724 L318 89 L319 89 L517 724 L611 724 L379 0 L254 0 Z " />
<glyph glyph-name="W" unicode="W" horiz-adv-x="888" d="M602 0 L448 595 L447 595 L289 0 L175 0 L17 724 L113 724 L237 108 L238 108 L398 724 L500 724 L660 100 L661 100 L780 724 L872 724 L719 0 L602 0 Z " />
<glyph glyph-name="X" unicode="X" horiz-adv-x="625" d="M363 371 L611 0 L505 0 L306 297 L114 0 L14 0 L252 367 L26 724 L130 724 L309 438 L494 724 L591 724 L363 371 Z " />
<glyph glyph-name="Y" unicode="Y" horiz-adv-x="566" d="M334 0 L242 0 L242 280 L-5 724 L99 724 L289 371 L291 371 L476 724 L571 724 L334 282 L334 0 Z " />
<glyph glyph-name="Z" unicode="Z" horiz-adv-x="588" d="M146 80 L547 80 L547 0 L34 0 L34 68 L421 644 L45 644 L45 724 L531 724 L531 654 L146 80 Z " />
<glyph glyph-name="AE" unicode="&#xc6;" horiz-adv-x="1000" d="M605 80 L949 80 L949 0 L512 0 L512 316 L298 316 L126 0 L30 0 L424 724 L936 724 L936 644 L605 644 L605 397 L915 397 L915 318 L605 318 L605 80 Z M512 644 L469 644 L334 394 L512 394 L512 644 Z " />
<glyph glyph-name="IJ" unicode="&#x132;" horiz-adv-x="783" d="M188 0 L96 0 L96 724 L188 724 L188 0 Z M604 724 L696 724 L696 183 Q696 129 682 92 Q668 55 642.5 31.5 Q617 8 580.5 -2 Q544 -12 498 -12 Q409 -12 362.5 27.5 Q316 67 310 157 L398 172 Q401 148 406 128 Q411 108 422 94.5 Q433 81 451.5 73.5 Q470 66 500 66 Q522 66 541 70.5 Q560 75 574 87 Q588 99 596 121 Q604 143 604 179 L604 724 Z " />
<glyph glyph-name="Eng" unicode="&#x14a;" horiz-adv-x="745" d="M483 -223 Q468 -223 451 -221 Q434 -219 418 -215.5 Q402 -212 388 -208 Q374 -204 366 -200 L376 -126 Q396 -132 422 -138 Q448 -144 471 -144 Q511 -144 534.5 -126.5 Q558 -109 558 -63 L558 -13 L182 607 L182 0 L96 0 L96 724 L213 724 L564 143 L564 724 L649 724 L649 -67 Q649 -149 605.5 -186 Q562 -223 483 -223 Z " />
<glyph glyph-name="Eth" unicode="&#xd0;" horiz-adv-x="728" d="M18 404 L96 404 L96 724 L319 724 Q413 724 481 699.5 Q549 675 592.5 629.5 Q636 584 657 519 Q678 454 678 373 Q678 290 655.5 221 Q633 152 587 103 Q541 54 470 27 Q399 0 302 0 L96 0 L96 329 L18 329 L18 404 Z M303 78 Q445 78 514 152.5 Q583 227 583 360 Q583 442 564.5 497 Q546 552 511.5 585 Q477 618 426 632 Q375 646 311 646 L188 646 L188 404 L391 404 L391 329 L188 329 L188 78 L303 78 Z " />
<glyph glyph-name="OE" unicode="&#x152;" horiz-adv-x="1089" d="M621 0 L621 111 Q583 52 521.5 20 Q460 -12 375 -12 Q291 -12 229.5 16 Q168 44 128.5 93.5 Q89 143 69.5 212 Q50 281 50 362 Q50 443 72 511.5 Q94 580 137 630.5 Q180 681 243 709 Q306 737 388 737 Q471 737 528 706.5 Q585 676 621 623 L621 724 L1034 724 L1034 649 L703 649 L703 405 L1013 405 L1013 325 L703 325 L703 80 L1047 80 L1047 0 L621 0 Z M380 69 Q431 69 474 86.5 Q517 104 548 140 Q579 176 597 231.5 Q615 287 615 364 Q615 437 599 491.5 Q583 546 553 582.5 Q523 619 481 637.5 Q439 656 387 656 Q334 656 290 637.5 Q246 619 214 582 Q182 545 164 490 Q146 435 146 363 Q146 290 163 235 Q180 180 210.5 143 Q241 106 284 87.5 Q327 69 380 69 Z " />
<glyph glyph-name="Thorn" unicode="&#xde;" horiz-adv-x="616" d="M187 0 L96 0 L96 724 L187 724 L187 605 L332 605 Q401 605 447.5 587.5 Q494 570 522 540.5 Q550 511 561.5 472.5 Q573 434 573 393 Q573 328 554.5 282.5 Q536 237 500.5 207.5 Q465 178 413.5 164.5 Q362 151 297 151 L187 151 L187 0 Z M290 230 Q329 230 363.5 235.5 Q398 241 423.5 258 Q449 275 463.5 306 Q478 337 478 388 Q478 461 435.5 494 Q393 527 305 527 L187 527 L187 230 L290 230 Z " />
<glyph glyph-name="a" unicode="a" horiz-adv-x="545" d="M457 97 Q457 76 462.5 66.5 Q468 57 488 57 Q499 57 519 63 L523 6 Q491 -10 452 -10 Q414 -10 395.5 8 Q377 26 373 51 Q343 21 302.5 4.5 Q262 -12 208 -12 Q159 -12 129.5 2.5 Q100 17 83.5 38 Q67 59 61.5 83 Q56 107 56 126 Q56 177 77 211 Q98 245 134.5 265 Q171 285 219.5 293 Q268 301 322 301 Q334 301 345 300.5 Q356 300 367 299 L367 349 Q367 373 363 392.5 Q359 412 347.5 425.5 Q336 439 316 446.5 Q296 454 265 454 Q212 454 188 433 Q164 412 156 369 L76 384 Q88 456 135.5 490.5 Q183 525 273 525 Q368 525 412.5 484.5 Q457 444 457 348 L457 97 Z M368 233 Q347 236 316 236 Q289 236 260 233.5 Q231 231 206.5 221.5 Q182 212 166 193 Q150 174 150 141 Q150 124 153.5 109.5 Q157 95 166.5 83.5 Q176 72 193 65.5 Q210 59 236 59 Q276 59 311.5 76.5 Q347 94 368 117 L368 233 Z " />
<glyph glyph-name="b" unicode="b" horiz-adv-x="581" d="M81 0 L81 755 L171 755 L171 457 Q205 487 246.5 506 Q288 525 345 525 Q385 525 419 511.5 Q453 498 478 468 Q503 438 517.5 389 Q532 340 532 269 Q532 194 515 140.5 Q498 87 468.5 53.5 Q439 20 399.5 4 Q360 -12 315 -12 Q269 -12 231.5 5.5 Q194 23 166 45 L165 45 L160 0 L81 0 Z M172 118 Q181 112 194 102.5 Q207 93 224.5 85 Q242 77 262 71 Q282 65 304 65 Q340 65 365.5 79.5 Q391 94 407 120.5 Q423 147 430.5 185 Q438 223 438 270 Q438 362 409 405 Q380 448 316 448 Q295 448 274 442 Q253 436 234 427 Q215 418 199 406.5 Q183 395 172 384 L172 118 Z " />
<glyph glyph-name="c" unicode="c" horiz-adv-x="538" d="M285 -12 Q221 -12 176.5 7.5 Q132 27 103.5 62 Q75 97 62 145.5 Q49 194 49 252 Q49 387 114 456 Q179 525 295 525 Q381 525 434.5 480 Q488 435 493 346 L406 334 Q400 391 372.5 420 Q345 449 291 449 Q263 449 236.5 440.5 Q210 432 189.5 411 Q169 390 156.5 354 Q144 318 144 263 Q144 206 155 167.5 Q166 129 185.5 106 Q205 83 231 73.5 Q257 64 288 64 Q341 64 373.5 90.5 Q406 117 416 174 L496 157 Q490 112 470.5 80 Q451 48 422.5 27.5 Q394 7 359 -2.5 Q324 -12 285 -12 Z " />
<glyph glyph-name="d" unicode="d" horiz-adv-x="577" d="M500 0 L424 0 L417 55 L416 56 Q383 26 342.5 7 Q302 -12 246 -12 Q202 -12 166 2.5 Q130 17 104 48.5 Q78 80 64 129.5 Q50 179 50 249 Q50 325 68 377.5 Q86 430 116 463 Q146 496 185 510.5 Q224 525 267 525 Q312 525 348 512 Q384 499 411 477 L411 755 L500 755 L500 0 Z M410 402 Q392 416 358 431.5 Q324 447 279 447 Q242 447 216 433 Q190 419 174 393 Q158 367 151 330.5 Q144 294 144 249 Q144 155 174.5 109.5 Q205 64 273 64 Q313 64 349.5 83.5 Q386 103 410 127 L410 402 Z " />
<glyph glyph-name="e" unicode="e" horiz-adv-x="546" d="M286 -12 Q218 -12 172.5 10 Q127 32 99.5 69 Q72 106 60.5 154.5 Q49 203 49 256 Q49 326 68 377 Q87 428 120 461 Q153 494 197 509.5 Q241 525 291 525 Q345 525 383.5 508 Q422 491 447 461.5 Q472 432 483.5 391.5 Q495 351 495 303 Q495 288 494 271 Q493 254 491 236 L145 236 Q146 187 157.5 154 Q169 121 188 101 Q207 81 232.5 72.5 Q258 64 289 64 Q344 64 371.5 87.5 Q399 111 410 155 L490 137 Q474 62 419 25 Q364 -12 286 -12 Z M401 308 Q401 377 373.5 414 Q346 451 285 451 Q259 451 235 443 Q211 435 192 417.5 Q173 400 160.5 373 Q148 346 146 308 L401 308 Z " />
<glyph glyph-name="f" unicode="f" horiz-adv-x="327" d="M335 678 Q320 683 300.5 687 Q281 691 263 691 Q228 691 205.5 672.5 Q183 654 183 600 L183 514 L326 514 L326 441 L183 441 L183 0 L92 0 L92 441 L16 441 L16 514 L92 514 L92 597 Q92 682 131.5 723.5 Q171 765 245 765 Q277 765 301.5 759.5 Q326 754 339 748 L335 678 Z " />
<glyph glyph-name="g" unicode="g" horiz-adv-x="552" d="M269 525 Q317 525 354.5 514.5 Q392 504 418 478 Q430 506 450 525.5 Q470 545 499 545 Q511 545 522 543 Q533 541 544 537 L544 464 Q521 466 493.5 462.5 Q466 459 446 453 Q465 431 474.5 402 Q484 373 484 341 Q484 297 468 263 Q452 229 423.5 205.5 Q395 182 356.5 169.5 Q318 157 274 157 Q248 157 225 159.5 Q202 162 182 169 Q171 159 160.5 148 Q150 137 150 121 Q150 106 162.5 95.5 Q175 85 216 82 L359 72 Q399 69 430 62 Q461 55 482.5 40 Q504 25 515.5 0.5 Q527 -24 527 -62 Q527 -109 504 -140.5 Q481 -172 443.5 -191 Q406 -210 358.5 -218 Q311 -226 263 -226 Q191 -226 146 -214.5 Q101 -203 75.5 -185 Q50 -167 41 -144.5 Q32 -122 32 -99 Q32 -55 57.5 -25.5 Q83 4 115 19 L115 20 Q89 31 74 47 Q59 63 59 91 Q59 124 79.5 147.5 Q100 171 127 192 Q92 211 71.5 248.5 Q51 286 51 336 Q51 378 66.5 413 Q82 448 110.5 473 Q139 498 179 511.5 Q219 525 269 525 Z M396 340 Q396 398 363 425 Q330 452 272 452 Q245 452 221.5 446 Q198 440 180 426.5 Q162 413 152 392.5 Q142 372 142 342 Q142 291 171.5 261.5 Q201 232 270 232 Q327 232 361.5 260 Q396 288 396 340 Z M433 -73 Q433 -45 416 -30 Q399 -15 347 -11 L180 -1 Q151 -21 137 -38.5 Q123 -56 123 -82 Q123 -98 130.5 -111.5 Q138 -125 155 -134.5 Q172 -144 201 -149 Q230 -154 274 -154 Q433 -154 433 -73 Z " />
<glyph glyph-name="h" unicode="h" horiz-adv-x="582" d="M509 0 L418 0 L418 335 Q418 389 396.5 417 Q375 445 322 445 Q300 445 277.5 438.5 Q255 432 235 423 Q215 414 198.5 403 Q182 392 172 383 L172 0 L81 0 L81 755 L171 755 L171 456 Q209 485 253.5 505 Q298 525 352 525 Q434 525 471.5 481 Q509 437 509 349 L509 0 Z " />
<glyph glyph-name="i" unicode="i" horiz-adv-x="249" d="M172 0 L81 0 L81 514 L172 514 L172 0 Z M193 679 Q193 647 176 630 Q159 613 128 613 Q97 613 80.5 630 Q64 647 64 679 Q64 744 128 744 Q159 744 176 727.5 Q193 711 193 679 Z " />
<glyph glyph-name="j" unicode="j" horiz-adv-x="247" d="M26 -223 Q1 -223 -28 -217 Q-57 -211 -71 -203 L-61 -129 Q-46 -135 -25.5 -139.5 Q-5 -144 14 -144 Q45 -144 63 -126.5 Q81 -109 81 -63 L81 514 L172 514 L172 -67 Q172 -149 134 -186 Q96 -223 26 -223 Z M193 687 Q193 655 176.5 638 Q160 621 129 621 Q98 621 81 638 Q64 655 64 687 Q64 718 81 735 Q98 752 129 752 Q160 752 176.5 735 Q193 718 193 687 Z " />
<glyph glyph-name="k" unicode="k" horiz-adv-x="531" d="M172 288 L393 514 L496 514 L318 329 L509 0 L409 0 L251 265 L172 187 L172 0 L81 0 L81 755 L172 755 L172 288 Z " />
<glyph glyph-name="l" unicode="l" horiz-adv-x="249" d="M172 0 L81 0 L81 755 L172 755 L172 0 Z " />
<glyph glyph-name="m" unicode="m" horiz-adv-x="866" d="M172 0 L81 0 L81 514 L159 514 L164 456 Q202 485 244 505 Q286 525 339 525 Q390 525 421.5 507.5 Q453 490 468 454 Q506 484 549.5 504.5 Q593 525 646 525 Q727 525 759.5 481 Q792 437 792 350 L792 0 L701 0 L701 337 Q701 389 685.5 417 Q670 445 621 445 Q603 445 583 439.5 Q563 434 544.5 426 Q526 418 510 407.5 Q494 397 483 388 Q484 379 484.5 369.5 Q485 360 485 350 L485 0 L394 0 L394 337 Q394 389 378.5 417 Q363 445 314 445 Q294 445 273.5 439 Q253 433 233.5 424 Q214 415 198 404 Q182 393 172 384 L172 0 Z " />
<glyph glyph-name="n" unicode="n" horiz-adv-x="582" d="M509 0 L418 0 L418 335 Q418 389 396.5 417 Q375 445 322 445 Q300 445 277.5 438.5 Q255 432 235 423 Q215 414 198.5 403 Q182 392 172 383 L172 0 L81 0 L81 514 L161 514 L166 453 Q204 483 250.5 504 Q297 525 351 525 Q434 525 471.5 481 Q509 437 509 349 L509 0 Z " />
<glyph glyph-name="o" unicode="o" horiz-adv-x="578" d="M286 -12 Q219 -12 173.5 8.5 Q128 29 100.5 64.5 Q73 100 61 149 Q49 198 49 255 Q49 317 65 367 Q81 417 112.5 452 Q144 487 190.5 506 Q237 525 299 525 Q360 525 403.5 506 Q447 487 475 453 Q503 419 516 371.5 Q529 324 529 267 Q529 204 515.5 152.5 Q502 101 472.5 64.5 Q443 28 397 8 Q351 -12 286 -12 Z M291 61 Q324 61 350.5 71.5 Q377 82 395.5 106 Q414 130 424 168 Q434 206 434 261 Q434 314 425 350.5 Q416 387 398 409 Q380 431 354 440.5 Q328 450 295 450 Q261 450 233 439.5 Q205 429 185 406 Q165 383 154 346.5 Q143 310 143 259 Q143 156 179.5 108.5 Q216 61 291 61 Z " />
<glyph glyph-name="p" unicode="p" horiz-adv-x="581" d="M81 514 L160 514 L165 455 Q200 487 244 506 Q288 525 343 525 Q383 525 417.5 511.5 Q452 498 477.5 468 Q503 438 517 389 Q531 340 531 269 Q531 194 513.5 140.5 Q496 87 467 53 Q438 19 399 3.5 Q360 -12 317 -12 Q270 -12 233.5 2.5 Q197 17 169 38 L169 -212 L81 -212 L81 514 Z M172 116 Q180 110 193.5 101 Q207 92 224 84 Q241 76 261.5 70.5 Q282 65 304 65 Q341 65 366.5 79.5 Q392 94 408 121 Q424 148 431 186 Q438 224 438 270 Q438 367 408 408 Q378 449 316 449 Q295 449 274 443 Q253 437 234 427.5 Q215 418 199 406.5 Q183 395 172 384 L172 116 Z " />
<glyph glyph-name="q" unicode="q" horiz-adv-x="575" d="M500 -212 L414 -212 L414 51 Q380 24 340.5 6 Q301 -12 246 -12 Q202 -12 166 2.5 Q130 17 104 48.5 Q78 80 64 129.5 Q50 179 50 250 Q50 326 68 378.5 Q86 431 116 463.5 Q146 496 185 510.5 Q224 525 267 525 Q312 525 349 509 Q386 493 413 469 L421 514 L500 514 L500 -212 Z M410 397 Q401 404 387.5 413 Q374 422 357 429.5 Q340 437 320.5 442 Q301 447 279 447 Q242 447 216 433 Q190 419 174 393 Q158 367 151 331 Q144 295 144 250 Q144 156 174 110 Q204 64 273 64 Q313 64 349.5 83.5 Q386 103 410 127 L410 397 Z " />
<glyph glyph-name="r" unicode="r" horiz-adv-x="364" d="M354 430 Q330 433 304.5 430.5 Q279 428 255 420 Q231 412 209.5 400.5 Q188 389 172 374 L172 0 L81 0 L81 514 L157 514 L164 440 Q198 486 239.5 505.5 Q281 525 335 525 Q340 525 344.5 524.5 Q349 524 354 524 L354 430 Z " />
<glyph glyph-name="s" unicode="s" horiz-adv-x="487" d="M248 525 Q294 525 326.5 514.5 Q359 504 381.5 484.5 Q404 465 417 437.5 Q430 410 436 376 L354 358 Q349 380 342.5 397.5 Q336 415 324 427.5 Q312 440 293.5 446.5 Q275 453 247 453 Q191 453 169.5 431.5 Q148 410 148 381 Q148 361 155.5 347.5 Q163 334 178 325 Q193 316 214 310 Q235 304 262 298 Q297 290 330 281.5 Q363 273 388.5 256.5 Q414 240 429.5 213.5 Q445 187 445 144 Q445 70 391.5 29 Q338 -12 244 -12 Q155 -12 103 23.5 Q51 59 39 137 L120 159 Q125 138 133 120 Q141 102 155 88.5 Q169 75 191.5 67.5 Q214 60 248 60 Q294 60 324.5 76.5 Q355 93 355 134 Q355 155 347.5 168.5 Q340 182 325.5 190.5 Q311 199 290 204.5 Q269 210 243 215 Q211 221 178.5 229.5 Q146 238 119 254 Q92 270 75 297.5 Q58 325 58 370 Q58 409 73 438 Q88 467 114 486.5 Q140 506 174.5 515.5 Q209 525 248 525 Z " />
<glyph glyph-name="t" unicode="t" horiz-adv-x="379" d="M368 22 Q349 9 313.5 -1.5 Q278 -12 242 -12 Q170 -12 133.5 22.5 Q97 57 97 135 L97 441 L18 441 L18 514 L97 514 L97 663 L188 677 L188 514 L330 514 L330 441 L188 441 L188 147 Q188 127 191 111 Q194 95 202 84.5 Q210 74 224.5 68.5 Q239 63 262 63 Q285 63 310 71 Q335 79 352 88 L368 22 Z " />
<glyph glyph-name="u" unicode="u" horiz-adv-x="581" d="M79 514 L170 514 L170 179 Q170 125 188 97 Q206 69 263 69 Q285 69 307.5 75.5 Q330 82 349.5 91.5 Q369 101 385.5 112 Q402 123 412 132 L412 514 L503 514 L503 0 L424 0 L418 59 Q380 28 335 9 Q290 -10 236 -10 Q154 -10 116.5 34 Q79 78 79 165 L79 514 Z " />
<glyph glyph-name="v" unicode="v" horiz-adv-x="505" d="M202 0 L6 514 L105 514 L256 91 L257 91 L406 514 L499 514 L306 0 L202 0 Z " />
<glyph glyph-name="w" unicode="w" horiz-adv-x="759" d="M167 0 L6 514 L98 514 L223 96 L336 514 L430 514 L542 98 L543 98 L665 514 L753 514 L593 0 L487 0 L381 405 L380 405 L275 0 L167 0 Z " />
<glyph glyph-name="x" unicode="x" horiz-adv-x="492" d="M294 267 L476 0 L377 0 L240 202 L110 0 L17 0 L190 265 L18 514 L118 514 L244 327 L374 514 L467 514 L294 267 Z " />
<glyph glyph-name="y" unicode="y" horiz-adv-x="485" d="M8 514 L109 514 L245 106 L246 106 L387 514 L480 514 L258 -75 Q243 -116 226 -144 Q209 -172 188.5 -189.5 Q168 -207 143.5 -215 Q119 -223 89 -223 Q60 -223 32.5 -217 Q5 -211 -10 -204 L1 -133 Q15 -138 39 -143.5 Q63 -149 83 -149 Q111 -149 134.5 -132 Q158 -115 175 -69 L199 -6 L8 514 Z " />
<glyph glyph-name="z" unicode="z" horiz-adv-x="459" d="M134 73 L434 73 L434 0 L31 0 L31 62 L319 441 L35 441 L35 514 L422 514 L422 448 L134 73 Z " />
<glyph glyph-name="ae" unicode="&#xe6;" horiz-adv-x="859" d="M598 -12 Q529 -12 485.5 8.5 Q442 29 416 66 Q373 24 319 6 Q265 -12 216 -12 Q165 -12 133.5 2.5 Q102 17 84.5 38 Q67 59 61.5 83 Q56 107 56 126 Q56 177 76 210.5 Q96 244 130.5 264 Q165 284 210.5 292 Q256 300 307 301 Q321 301 337 301 Q353 301 367 300 L367 349 Q367 373 362.5 392.5 Q358 412 346.5 425.5 Q335 439 315 446.5 Q295 454 264 454 Q212 454 188 433 Q164 412 156 369 L76 384 Q88 458 136 491.5 Q184 525 271 525 Q337 525 373 504 Q409 483 427 438 Q459 482 505 503.5 Q551 525 608 525 Q661 525 699 507 Q737 489 761 458 Q785 427 796.5 384.5 Q808 342 808 294 Q808 280 807 263.5 Q806 247 804 232 L458 232 Q459 181 470.5 148.5 Q482 116 501 97.5 Q520 79 546.5 71.5 Q573 64 604 64 Q658 64 684.5 87.5 Q711 111 722 155 L803 137 Q787 62 731.5 25 Q676 -12 598 -12 Z M237 59 Q279 59 317.5 76 Q356 93 385 124 Q376 150 372 177.5 Q368 205 367 236 Q353 237 338 237 Q323 237 308 237 Q277 237 248.5 232.5 Q220 228 198 217.5 Q176 207 163 188.5 Q150 170 150 140 Q150 124 153.5 109.5 Q157 95 166.5 83.5 Q176 72 193 65.5 Q210 59 237 59 Z M714 301 Q716 372 687.5 411.5 Q659 451 597 451 Q571 451 547.5 442 Q524 433 505 415 Q486 397 473.5 368.5 Q461 340 459 301 L714 301 Z " />
<glyph glyph-name="ij" unicode="&#x133;" horiz-adv-x="496" d="M172 0 L81 0 L81 514 L172 514 L172 0 Z M193 679 Q193 647 176 630 Q159 613 128 613 Q97 613 80.5 630 Q64 647 64 679 Q64 744 128 744 Q159 744 176 727.5 Q193 711 193 679 Z M275 -223 Q250 -223 221 -217 Q192 -211 178 -203 L188 -129 Q203 -135 223.5 -139.5 Q244 -144 263 -144 Q294 -144 312 -126.5 Q330 -109 330 -63 L330 514 L421 514 L421 -67 Q421 -149 383 -186 Q345 -223 275 -223 Z M442 687 Q442 655 425.5 638 Q409 621 378 621 Q347 621 330 638 Q313 655 313 687 Q313 718 330 735 Q347 752 378 752 Q409 752 425.5 735 Q442 718 442 687 Z " />
<glyph glyph-name="eng" unicode="&#x14b;" horiz-adv-x="582" d="M509 -67 Q509 -149 471 -186 Q433 -223 363 -223 Q338 -223 309 -217 Q280 -211 266 -203 L276 -129 Q291 -135 311.5 -139.5 Q332 -144 351 -144 Q382 -144 400 -126.5 Q418 -109 418 -63 L418 335 Q418 389 396.5 417 Q375 445 322 445 Q300 445 277.5 438.5 Q255 432 235 423 Q215 414 198.5 403 Q182 392 172 383 L172 0 L81 0 L81 514 L161 514 L166 453 Q204 483 250.5 504 Q297 525 351 525 Q434 525 471.5 481 Q509 437 509 349 L509 -67 Z " />
<glyph glyph-name="eth" unicode="&#xf0;" horiz-adv-x="575" d="M203 615 L276 656 Q220 688 147 698 L177 767 Q283 752 356 702 L460 761 L496 700 L413 653 Q473 589 499.5 501 Q526 413 526 315 Q526 257 515 199 Q504 141 476 94 Q448 47 401 17.5 Q354 -12 281 -12 Q219 -12 175 6.5 Q131 25 103 59 Q75 93 62 141.5 Q49 190 49 250 Q49 302 63.5 347.5 Q78 393 106.5 427.5 Q135 462 178.5 482 Q222 502 279 502 Q314 502 351.5 493 Q389 484 421 463 Q407 507 386 544 Q365 581 336 610 L240 555 L203 615 Z M143 252 Q143 213 149 178 Q155 143 171 117 Q187 91 213.5 75.5 Q240 60 282 60 Q325 60 354.5 80.5 Q384 101 402 135 Q420 169 428 214 Q436 259 436 308 Q436 341 433 374 Q414 397 374.5 413.5 Q335 430 292 430 Q217 430 180 384 Q143 338 143 252 Z " />
<glyph glyph-name="oe" unicode="&#x153;" horiz-adv-x="925" d="M668 -12 Q590 -12 544.5 17.5 Q499 47 477 92 Q451 43 404.5 15.5 Q358 -12 284 -12 Q218 -12 173 8.5 Q128 29 100.5 64.5 Q73 100 61 148.5 Q49 197 49 254 Q49 317 65 367 Q81 417 112 452 Q143 487 189.5 506 Q236 525 296 525 Q368 525 412.5 497.5 Q457 470 482 421 Q511 473 560.5 498.5 Q610 524 673 524 Q726 524 764 507 Q802 490 826.5 460.5 Q851 431 862.5 390 Q874 349 874 301 Q874 287 873 269 Q872 251 870 236 L524 236 Q525 186 536.5 152.5 Q548 119 567.5 99.5 Q587 80 613.5 72 Q640 64 671 64 Q722 64 750 87 Q778 110 789 155 L869 137 Q861 100 842.5 72 Q824 44 797.5 25.5 Q771 7 738 -2.5 Q705 -12 668 -12 Z M291 61 Q358 61 396 106 Q434 151 434 261 Q434 315 425 351.5 Q416 388 398 409.5 Q380 431 354 440.5 Q328 450 295 450 Q261 450 233 439.5 Q205 429 185 406 Q165 383 154 346.5 Q143 310 143 258 Q143 156 179.5 108.5 Q216 61 291 61 Z M780 308 Q780 377 752.5 414 Q725 451 663 451 Q637 451 613 442.5 Q589 434 569.5 416.5 Q550 399 538 372 Q526 345 525 308 L780 308 Z " />
<glyph glyph-name="thorn" unicode="&#xfe;" horiz-adv-x="581" d="M81 -212 L81 755 L171 755 L171 457 Q205 487 246.5 506 Q288 525 345 525 Q385 525 419 511.5 Q453 498 478 468 Q503 438 517.5 389 Q532 340 532 269 Q532 194 515 140.5 Q498 87 468.5 53.5 Q439 20 399.5 4 Q360 -12 315 -12 Q269 -12 233 3 Q197 18 170 40 L169 40 L169 -212 L81 -212 Z M172 118 Q181 112 194 102.5 Q207 93 224.5 85 Q242 77 262 71 Q282 65 304 65 Q340 65 365.5 79.5 Q391 94 407 120.5 Q423 147 430.5 185 Q438 223 438 270 Q438 362 409 405 Q380 448 316 448 Q295 448 274 442 Q253 436 234 427 Q215 418 199 406.5 Q183 395 172 384 L172 118 Z " />
<glyph glyph-name="germandbls" unicode="&#xdf;" horiz-adv-x="660" d="M81 0 L81 539 Q81 601 99 644.5 Q117 688 148.5 715 Q180 742 224 754.5 Q268 767 321 767 Q430 767 487 720 Q544 673 544 587 Q544 551 534.5 524 Q525 497 509.5 477 Q494 457 473 443 Q452 429 429 419 L429 416 Q467 409 500 395 Q533 381 558 357 Q583 333 597 297 Q611 261 611 210 Q611 161 597.5 120.5 Q584 80 557.5 50.5 Q531 21 492.5 5 Q454 -11 405 -11 Q339 -11 291 20 Q243 51 230 117 L290 150 Q301 112 323 87 Q345 62 395 62 Q450 62 483.5 97 Q517 132 517 205 Q517 252 502.5 283.5 Q488 315 463 333.5 Q438 352 404.5 360 Q371 368 333 368 L293 368 L293 438 L308 438 Q348 438 376 449 Q404 460 420.5 479 Q437 498 444.5 522.5 Q452 547 452 574 Q452 639 415 667.5 Q378 696 312 696 Q280 696 254 688.5 Q228 681 210 663 Q192 645 182 613.5 Q172 582 172 534 L172 0 L81 0 Z " />
<glyph glyph-name="dotlessi" unicode="&#x131;" horiz-adv-x="249" d="M172 0 L81 0 L81 514 L172 514 L172 0 Z " />
<glyph glyph-name="kgreenlandic" unicode="&#x138;" horiz-adv-x="531" d="M172 288 L393 514 L496 514 L318 329 L509 0 L409 0 L251 265 L172 187 L172 0 L81 0 L81 514 L172 514 L172 288 Z " />
<glyph glyph-name="longs" unicode="&#x17f;" horiz-adv-x="295" d="M324 678 Q309 683 289.5 687 Q270 691 252 691 Q217 691 194.5 672.5 Q172 654 172 600 L172 0 L81 0 L81 597 Q81 682 120.5 723.5 Q160 765 234 765 Q266 765 290.5 759.5 Q315 754 328 748 L324 678 Z " />
<glyph glyph-name="dotlessj" unicode="&#x237;" horiz-adv-x="247" d="M26 -223 Q1 -223 -28 -217 Q-57 -211 -71 -203 L-61 -129 Q-46 -135 -25.5 -139.5 Q-5 -144 14 -144 Q45 -144 63 -126.5 Q81 -109 81 -63 L81 514 L172 514 L172 -67 Q172 -149 134 -186 Q96 -223 26 -223 Z " />
<glyph glyph-name="bracketleft" unicode="&#x5b;" horiz-adv-x="272" d="M64 -143 L64 724 L233 724 L233 660 L150 660 L150 -79 L233 -79 L233 -143 L64 -143 Z " />
<glyph glyph-name="bracketright" unicode="&#x5d;" horiz-adv-x="272" d="M208.004 -143 L208.004 724 L39.0142 724 L39.0142 660 L122.009 660 L122.009 -79 L39.0142 -79 L39.0142 -143 L208.004 -143 Z " />
<glyph glyph-name="parenleft" unicode="&#x28;" horiz-adv-x="317" d="M198 -152 Q171 -111 145 -64 Q119 -17 99 37 Q79 91 66.5 151.5 Q54 212 54 280 Q54 347 67 409 Q80 471 101.5 527 Q123 583 150.5 632.5 Q178 682 207 724 L301 724 Q231 615 190 508 Q149 401 149 282 Q149 214 160 156 Q171 98 190.5 45 Q210 -8 235.5 -56.5 Q261 -105 291 -153 L198 -152 Z " />
<glyph glyph-name="parenright" unicode="&#x29;" horiz-adv-x="317" d="M108.012 -152 Q135.01 -111 161.009 -64 Q187.007 -17 207.006 37 Q227.005 91 239.504 151.5 Q252.003 212 252.003 280 Q252.003 347 239.004 409 Q226.005 471 204.506 527 Q183.008 583 155.509 632.5 Q128.011 682 99.0126 724 L5.01837 724 Q75.0141 615 116.012 508 Q157.009 401 157.009 282 Q157.009 214 146.01 156 Q135.01 98 115.512 45 Q96.0128 -8 70.5144 -56.5 Q45.0159 -105 15.0178 -153 L108.012 -152 Z " />
<glyph glyph-name="braceleft" unicode="&#x7b;" horiz-adv-x="306" d="M275 -145 L221 -145 Q148 -145 116 -114.5 Q84 -84 84 -29 Q84 19 90.5 71 Q97 123 97 171 Q97 219 77 238 Q57 257 22 257 L4 257 L4 324 L21 324 Q97 324 97 409 Q97 433 95 461.5 Q93 490 90.5 518.5 Q88 547 86 573.5 Q84 600 84 621 Q84 737 220 737 L275 737 L275 666 L236 666 Q203 666 190 652.5 Q177 639 177 613 Q177 591 179 565 Q181 539 183.5 511.5 Q186 484 188 456.5 Q190 429 190 405 Q190 376 184 356.5 Q178 337 168 324.5 Q158 312 144.5 304 Q131 296 116 290 Q131 284 144.5 276.5 Q158 269 168 256 Q178 243 184 223.5 Q190 204 190 176 Q190 126 183.5 76.5 Q177 27 177 -15 Q177 -44 191 -60.5 Q205 -77 247 -77 L275 -77 L275 -145 Z " />
<glyph glyph-name="braceright" unicode="&#x7d;" horiz-adv-x="306" d="M31 737 L85 737 Q158 737 190 706.5 Q222 676 222 621 Q222 573 215.5 521 Q209 469 209 421 Q209 373 229 354 Q249 335 284 335 L302 335 L302 268 L285 268 Q209 268 209 183 Q209 159 211 130.5 Q213 102 215.5 73.5 Q218 45 220 18.5 Q222 -8 222 -29 Q222 -145 86 -145 L31 -145 L31 -74 L70 -74 Q103 -74 116 -60.5 Q129 -47 129 -21 Q129 1 127 27 Q125 53 122.5 80.5 Q120 108 118 135.5 Q116 163 116 187 Q116 216 122 235.5 Q128 255 138 267.5 Q148 280 161.5 288 Q175 296 190 302 Q175 308 161.5 315.5 Q148 323 138 336 Q128 349 122 368.5 Q116 388 116 416 Q116 466 122.5 515.5 Q129 565 129 607 Q129 636 115 652.5 Q101 669 59 669 L31 669 L31 737 Z " />
<glyph glyph-name="backslash" unicode="&#x5c;" horiz-adv-x="380" d="M290 -92 L10 755 L92 755 L373 -92 L290 -92 Z " />
<glyph glyph-name="slash" unicode="&#x2f;" horiz-adv-x="379" d="M7 -92 L288 755 L370 755 L90 -92 L7 -92 Z " />
<glyph glyph-name="brokenbar" unicode="&#xa6;" horiz-adv-x="280" d="M99 -143 L99 245 L181 245 L181 -143 L99 -143 Z M99 412 L99 755 L181 755 L181 412 L99 412 Z " />
<glyph glyph-name="bar" unicode="&#x7c;" horiz-adv-x="280" d="M99 -143 L99 755 L181 755 L181 -143 L99 -143 Z " />
<glyph glyph-name="section" unicode="&#xa7;" horiz-adv-x="548" d="M47 248 Q47 292 72 329.5 Q97 367 142 396 Q116 417 99.5 448 Q83 479 83 527 Q83 572 99.5 606 Q116 640 145 663 Q174 686 212.5 697.5 Q251 709 295 709 Q384 709 439.5 663.5 Q495 618 500 528 L415 517 Q409 573 381.5 604.5 Q354 636 292 636 Q232 636 202 608.5 Q172 581 172 538 Q172 506 186.5 485 Q201 464 224.5 450.5 Q248 437 278.5 427.5 Q309 418 340.5 408.5 Q372 399 402.5 388 Q433 377 456.5 359 Q480 341 494.5 314 Q509 287 509 247 Q509 204 484 165.5 Q459 127 415 98 Q441 78 457.5 47 Q474 16 474 -32 Q474 -77 457.5 -111 Q441 -145 412 -168 Q383 -191 344.5 -202.5 Q306 -214 262 -214 Q172 -214 117 -169 Q62 -124 56 -33 L142 -22 Q147 -78 175.5 -109.5 Q204 -141 266 -141 Q325 -141 355 -113 Q385 -85 385 -40 Q385 2 360 25 Q335 48 297.5 62 Q260 76 216 86.5 Q172 97 134.5 115 Q97 133 72 163.5 Q47 194 47 248 Z M134 263 Q134 229 154.5 210 Q175 191 206.5 178.5 Q238 166 276.5 157 Q315 148 351 134 Q383 154 403 178.5 Q423 203 423 233 Q423 266 402.5 285 Q382 304 350 316 Q318 328 279 337.5 Q240 347 204 361 Q172 340 153 316 Q134 292 134 263 Z " />
<glyph glyph-name="copyright" unicode="&#xa9;" horiz-adv-x="771" d="M722 326 Q722 250 697.5 188 Q673 126 628.5 81.5 Q584 37 522 12.5 Q460 -12 385 -12 Q302 -12 239 13 Q176 38 134 81.5 Q92 125 70.5 184 Q49 243 49 312 Q49 391 75.5 453.5 Q102 516 148 559.5 Q194 603 255.5 626 Q317 649 387 649 Q465 649 527 626 Q589 603 632.5 561 Q676 519 699 459 Q722 399 722 326 Z M387 42 Q451 42 502 61 Q553 80 589 116 Q625 152 644 203.5 Q663 255 663 320 Q663 387 642.5 438.5 Q622 490 585.5 524.5 Q549 559 498 576.5 Q447 594 387 594 Q328 594 277 575 Q226 556 189 520 Q152 484 131 432 Q110 380 110 313 Q110 250 129 200 Q148 150 183.5 114.5 Q219 79 270.5 60.5 Q322 42 387 42 Z M544 254 Q539 215 522.5 189.5 Q506 164 483.5 149.5 Q461 135 436 129 Q411 123 389 123 Q341 123 307 138 Q273 153 251.5 180 Q230 207 220 243 Q210 279 210 321 Q210 363 222 399 Q234 435 257 460.5 Q280 486 314 500.5 Q348 515 392 515 Q421 515 447 508 Q473 501 492.5 486 Q512 471 524.5 446.5 Q537 422 539 387 L480 379 Q476 422 455 442.5 Q434 463 390 463 Q367 463 346.5 455.5 Q326 448 310.5 430.5 Q295 413 286 385.5 Q277 358 277 319 Q277 290 283.5 264.5 Q290 239 303.5 219.5 Q317 200 338 189 Q359 178 388 178 Q437 178 458 199.5 Q479 221 488 263 L544 254 Z " />
<glyph glyph-name="registered" unicode="&#xae;" horiz-adv-x="452" d="M412 478 Q412 436 398.5 402 Q385 368 360 343.5 Q335 319 301 305.5 Q267 292 225 292 Q179 292 144.5 305.5 Q110 319 86.5 343 Q63 367 51.5 400 Q40 433 40 471 Q40 514 54.5 549 Q69 584 94.5 608 Q120 632 154 645 Q188 658 227 658 Q313 658 362.5 609 Q412 560 412 478 Z M370 475 Q370 546 329.5 582 Q289 618 227 618 Q197 618 170.5 608 Q144 598 124.5 579.5 Q105 561 94 533.5 Q83 506 83 472 Q83 406 121.5 369 Q160 332 227 332 Q293 332 331.5 370.5 Q370 409 370 475 Z M316 383 L273 383 L229 458 L204 458 L204 383 L165 383 L165 574 L233 574 Q273 574 286 557.5 Q299 541 299 520 Q299 500 289.5 488 Q280 476 265 470 L316 383 Z M217 488 Q235 488 247 493.5 Q259 499 259 518 Q259 534 249.5 539 Q240 544 224 544 L204 544 L204 488 L217 488 Z " />
<glyph glyph-name="trademark" unicode="&#x2122;" horiz-adv-x="832" d="M712 348 L712 615 L605 348 L559 348 L454 616 L454 348 L398 348 L398 724 L469 724 L584 428 L702 724 L767 724 L767 348 L712 348 Z M215 348 L155 348 L155 670 L26 670 L26 724 L344 724 L344 670 L215 670 L215 348 Z " />
<glyph glyph-name="ordfeminine" unicode="&#xaa;" horiz-adv-x="378" d="M316 351 Q316 337 320 331.5 Q324 326 337 326 Q345 326 357 329 L360 288 Q350 283 335.5 280 Q321 277 307 277 Q279 277 265.5 289.5 Q252 302 249 317 Q229 298 202.5 286.5 Q176 275 139 275 Q107 275 87 284.5 Q67 294 56 307.5 Q45 321 41 337 Q37 353 37 365 Q37 397 50 418.5 Q63 440 84.5 453 Q106 466 135.5 471.5 Q165 477 198 479 Q210 479 221 479 Q232 479 242 477 L242 505 Q242 535 230.5 552 Q219 569 181 569 Q149 569 134.5 556.5 Q120 544 115 517 L51 529 Q59 576 91.5 599 Q124 622 187 622 Q253 622 284.5 596 Q316 570 316 507 L316 351 Z M243 430 Q237 431 230.5 431.5 Q224 432 215 432 Q197 432 179 430 Q161 428 146.5 422.5 Q132 417 123 406 Q114 395 114 376 Q114 357 124 343 Q134 329 166 329 Q189 329 210 339 Q231 349 243 361 L243 430 Z " />
<glyph glyph-name="ordmasculine" unicode="&#xba;" horiz-adv-x="399" d="M197 275 Q151 275 120 288 Q89 301 70 324.5 Q51 348 42.5 379.5 Q34 411 34 448 Q34 529 77 575.5 Q120 622 206 622 Q248 622 278.5 610 Q309 598 328 576 Q347 554 356 523.5 Q365 493 365 456 Q365 373 325.5 324 Q286 275 197 275 Z M200 337 Q240 337 263 362 Q286 387 286 452 Q286 514 265 538.5 Q244 563 203 563 Q161 563 137 537.5 Q113 512 113 450 Q113 389 134 363 Q155 337 200 337 Z " />
<glyph glyph-name="guillemotleft" unicode="&#xab;" horiz-adv-x="435" d="M144 103 L57 259 L146 408 L228 408 L144 262 L226 103 L144 103 Z M304 103 L217 259 L306 408 L388 408 L304 262 L386 103 L304 103 Z " />
<glyph glyph-name="guillemotright" unicode="&#xbb;" horiz-adv-x="435" d="M131 408 L219 254 L131 103 L49 103 L133 253 L49 408 L131 408 Z M291 408 L379 254 L291 103 L209 103 L293 253 L209 408 L291 408 Z " />
<glyph glyph-name="guilsinglleft" unicode="&#x2039;" horiz-adv-x="278" d="M144 103 L57 259 L146 408 L228 408 L144 262 L226 103 L144 103 Z " />
<glyph glyph-name="guilsinglright" unicode="&#x203a;" horiz-adv-x="278" d="M131 408 L219 254 L131 103 L49 103 L133 253 L49 408 L131 408 Z " />
<glyph glyph-name="quoteleft" unicode="&#x2018;" horiz-adv-x="189" d="M130 553 L32 553 L114 780 L183 771 L130 553 Z " />
<glyph glyph-name="quoteright" unicode="&#x2019;" horiz-adv-x="189" d="M77.0079 767.034 L175.002 767.034 L93.007 540.048 L24.0112 549.047 L77.0079 767.034 Z " />
<glyph glyph-name="quotesinglbase" unicode="&#x201a;" horiz-adv-x="180" d="M64.0079 88.0338 L162.002 88.0338 L80.007 -138.952 L11.0112 -129.953 L64.0079 88.0338 Z " />
<glyph glyph-name="quotedblleft" unicode="&#x201c;" horiz-adv-x="343" d="M285 553 L187 553 L269 780 L338 771 L285 553 Z M130 553 L32 553 L114 780 L183 771 L130 553 Z " />
<glyph glyph-name="quotedblright" unicode="&#x201d;" horiz-adv-x="343" d="M231.008 767.034 L329.002 767.034 L247.007 540.048 L178.011 549.047 L231.008 767.034 Z M77.0079 767.034 L175.002 767.034 L93.007 540.048 L24.0112 549.047 L77.0079 767.034 Z " />
<glyph glyph-name="quotedblbase" unicode="&#x201e;" horiz-adv-x="335" d="M64.0079 88.0338 L162.002 88.0338 L80.007 -138.952 L11.0112 -129.953 L64.0079 88.0338 Z M218.008 88.0338 L316.002 88.0338 L234.007 -138.952 L165.011 -129.953 L218.008 88.0338 Z " />
<glyph glyph-name="dagger" unicode="&#x2020;" horiz-adv-x="405" d="M235 489 L249 -83 L156 -83 L169 490 L20 479 L20 561 L169 550 L159 724 L246 724 L235 551 L385 561 L385 479 L235 489 Z " />
<glyph glyph-name="daggerdbl" unicode="&#x2021;" horiz-adv-x="421" d="M243 489 L244 151 L393 162 L393 80 L244 91 L254 -83 L167 -83 L178 90 L28 80 L28 162 L178 152 L177 490 L28 479 L28 561 L177 550 L167 724 L254 724 L243 551 L393 561 L393 479 L243 489 Z " />
<glyph glyph-name="bullet" unicode="&#x2022;" horiz-adv-x="392" d="M333 280 Q333 212 297.5 178.5 Q262 145 196 145 Q130 145 94.5 178.5 Q59 212 59 280 Q59 348 94.5 381 Q130 414 196 414 Q262 414 297.5 381 Q333 348 333 280 Z " />
<glyph glyph-name="periodcentered" unicode="&#xb7;" horiz-adv-x="194" d="M163 304 Q163 240 97 240 Q31 240 31 304 Q31 369 97 369 Q163 369 163 304 Z " />
<glyph glyph-name="ellipsis" unicode="&#x2026;" horiz-adv-x="638" d="M388 55 Q388 -12 320 -12 Q252 -12 252 55 Q252 122 320 122 Q388 122 388 55 Z M181 55 Q181 -12 113 -12 Q45 -12 45 55 Q45 122 113 122 Q181 122 181 55 Z M593 55 Q593 -12 525 -12 Q457 -12 457 55 Q457 122 525 122 Q593 122 593 55 Z " />
<glyph glyph-name="paragraph" unicode="&#xb6;" horiz-adv-x="562" d="M472 -133 L394 -133 L394 656 L312 656 L312 -133 L234 -133 L234 249 Q135 257 80 317 Q25 377 25 478 Q25 545 47 592 Q69 639 107 668.5 Q145 698 195.5 711 Q246 724 302 724 L471 724 L472 -133 Z " />
<glyph glyph-name="uni00AD" unicode="&#xad;" horiz-adv-x="311" d="M20 251 L20 338 L291 338 L291 251 L20 251 Z " />
<glyph glyph-name="endash" unicode="&#x2013;" horiz-adv-x="500" d="M0 245 L0 318 L499 318 L499 245 L0 245 Z " />
<glyph glyph-name="emdash" unicode="&#x2014;" horiz-adv-x="1000" d="M0 245 L0 318 L999 318 L999 245 L0 245 Z " />
<glyph glyph-name="zero" unicode="0" horiz-adv-x="562" d="M278 -12 Q204 -12 158 16 Q112 44 86 94 Q60 144 50.5 212 Q41 280 41 361 Q41 441 52.5 510 Q64 579 92.5 629.5 Q121 680 168.5 708.5 Q216 737 289 737 Q363 737 408.5 708.5 Q454 680 479 630.5 Q504 581 512.5 515 Q521 449 521 373 Q521 288 510.5 217.5 Q500 147 473 96 Q446 45 399 16.5 Q352 -12 278 -12 Z M282 63 Q328 63 357 84.5 Q386 106 402 146 Q418 186 424 242 Q430 298 430 366 Q430 433 425 487 Q420 541 404.5 579.5 Q389 618 360.5 639 Q332 660 286 660 Q239 660 209.5 639 Q180 618 162.5 579 Q145 540 138.5 484 Q132 428 132 358 Q132 293 137.5 239 Q143 185 159 146 Q175 107 204.5 85 Q234 63 282 63 Z " />
<glyph glyph-name="one" unicode="1" horiz-adv-x="413" d="M202 0 L202 599 Q189 591 168 585 Q147 579 124 575 Q101 571 80 568.5 Q59 566 47 566 L40 640 Q110 646 157.5 665 Q205 684 240 724 L292 724 L292 0 L202 0 Z " />
<glyph glyph-name="two" unicode="2" horiz-adv-x="523" d="M267 737 Q357 737 411 693 Q465 649 465 557 Q465 516 454.5 480 Q444 444 424 408.5 Q404 373 374.5 335.5 Q345 298 308 254 L161 82 L161 80 L475 80 L475 0 L55 0 L55 76 L225 281 Q263 326 290.5 361.5 Q318 397 336 428 Q354 459 363 488.5 Q372 518 372 553 Q372 611 341.5 635.5 Q311 660 258 660 Q223 660 200 651 Q177 642 163 626 Q149 610 141.5 587.5 Q134 565 130 539 L47 554 Q54 603 73 638 Q92 673 121 695 Q150 717 187 727 Q224 737 267 737 Z " />
<glyph glyph-name="three" unicode="3" horiz-adv-x="541" d="M124 174 Q129 151 136 131 Q143 111 156.5 96.5 Q170 82 192.5 74 Q215 66 251 66 Q278 66 303 74 Q328 82 347 98.5 Q366 115 377 141.5 Q388 168 388 206 Q388 245 377 271 Q366 297 346 313 Q326 329 298 336 Q270 343 236 343 L171 343 L171 420 L217 420 Q293 420 335.5 456.5 Q378 493 378 553 Q378 575 372.5 595 Q367 615 353.5 629.5 Q340 644 318 652.5 Q296 661 264 661 Q232 661 210.5 654 Q189 647 175 634 Q161 621 152 602 Q143 583 136 558 L55 576 Q64 621 84.5 652 Q105 683 133.5 702 Q162 721 198 729 Q234 737 274 737 Q370 737 419.5 690.5 Q469 644 469 566 Q469 525 456 495 Q443 465 422.5 444 Q402 423 377 410 Q352 397 328 391 L328 388 Q399 375 440.5 331.5 Q482 288 482 204 Q482 155 465.5 115.5 Q449 76 418.5 47.5 Q388 19 345 3.5 Q302 -12 249 -12 Q207 -12 170.5 -2.5 Q134 7 106.5 27 Q79 47 61 79 Q43 111 38 156 L124 174 Z " />
<glyph glyph-name="four" unicode="4" horiz-adv-x="553" d="M356 0 L356 178 L22 178 L22 246 L331 724 L445 724 L445 256 L530 256 L530 178 L444 178 L444 0 L356 0 Z M357 256 L357 634 L112 256 L357 256 Z " />
<glyph glyph-name="five" unicode="5" horiz-adv-x="541" d="M99 724 L445 724 L445 644 L170 644 L149 411 Q174 431 208.5 445.5 Q243 460 291 460 Q328 460 363.5 449 Q399 438 426.5 412.5 Q454 387 471 344.5 Q488 302 488 239 Q488 183 471.5 137 Q455 91 423.5 58 Q392 25 347.5 6.5 Q303 -12 246 -12 Q207 -12 171 -2.5 Q135 7 106 27 Q77 47 57 79.5 Q37 112 30 157 L115 178 Q119 157 127 137 Q135 117 150 101.5 Q165 86 188.5 76.5 Q212 67 247 67 Q274 67 300 76 Q326 85 347 105.5 Q368 126 380.5 158 Q393 190 393 236 Q393 276 383 303.5 Q373 331 355.5 348.5 Q338 366 314 374 Q290 382 262 382 Q224 382 191.5 367 Q159 352 133 327 L71 355 L99 724 Z " />
<glyph glyph-name="six" unicode="6" horiz-adv-x="565" d="M428 561 Q421 591 411 611 Q401 631 387 642 Q373 653 356 657.5 Q339 662 319 662 Q269 662 236.5 634 Q204 606 184.5 562.5 Q165 519 157.5 466 Q150 413 149 364 Q162 378 180.5 392 Q199 406 222.5 417 Q246 428 272.5 434.5 Q299 441 327 441 Q422 441 470.5 384 Q519 327 519 233 Q519 174 502.5 128 Q486 82 456.5 51 Q427 20 385.5 4 Q344 -12 293 -12 Q222 -12 177 16.5 Q132 45 106 93 Q80 141 70.5 204.5 Q61 268 61 339 Q61 379 65.5 424.5 Q70 470 81.5 514 Q93 558 112.5 598.5 Q132 639 161.5 670 Q191 701 232 719 Q273 737 328 737 Q363 737 393 729 Q423 721 446 703 Q469 685 485.5 655.5 Q502 626 510 583 L428 561 Z M154 286 Q156 245 162.5 205 Q169 165 184 133 Q199 101 226 81.5 Q253 62 296 62 Q353 62 390 102.5 Q427 143 427 226 Q427 364 309 364 Q287 364 265 357.5 Q243 351 223 340 Q203 329 185.5 315 Q168 301 154 286 Z " />
<glyph glyph-name="seven" unicode="7" horiz-adv-x="512" d="M99 0 L395 644 L35 644 L35 724 L491 724 L491 654 L196 0 L99 0 Z " />
<glyph glyph-name="eight" unicode="8" horiz-adv-x="540" d="M355 383 Q387 369 414.5 352.5 Q442 336 462.5 313.5 Q483 291 494.5 260 Q506 229 506 187 Q506 145 489.5 108.5 Q473 72 441.5 45 Q410 18 365.5 3 Q321 -12 266 -12 Q206 -12 162.5 2.5 Q119 17 91 42.5 Q63 68 49.5 101.5 Q36 135 36 174 Q36 211 47.5 241 Q59 271 79 295 Q99 319 127 337.5 Q155 356 188 371 Q161 383 138 400 Q115 417 97.5 438.5 Q80 460 70 487 Q60 514 60 547 Q60 595 77 630.5 Q94 666 124 689.5 Q154 713 195 725 Q236 737 284 737 Q383 737 438 693 Q493 649 493 571 Q493 505 455.5 460.5 Q418 416 355 383 Z M258 333 Q231 320 207.5 306 Q184 292 166.5 274 Q149 256 139 233 Q129 210 129 180 Q129 155 136.5 134 Q144 113 160.5 97.5 Q177 82 204 73.5 Q231 65 269 65 Q308 65 335 75 Q362 85 379 102 Q396 119 403.5 141 Q411 163 411 187 Q411 218 397 241.5 Q383 265 361 282 Q339 299 311.5 311 Q284 323 258 333 Z M280 416 Q333 443 367 480.5 Q401 518 401 566 Q401 613 372 637.5 Q343 662 279 662 Q220 662 186.5 635.5 Q153 609 153 560 Q153 532 164 510.5 Q175 489 193 472 Q211 455 233.5 441.5 Q256 428 280 416 Z " />
<glyph glyph-name="nine" unicode="9" horiz-adv-x="565" d="M129 170 Q143 110 174.5 86.5 Q206 63 255 63 Q301 63 332.5 86.5 Q364 110 382.5 150 Q401 190 409.5 242.5 Q418 295 419 353 Q406 339 387.5 325 Q369 311 346 300.5 Q323 290 296 283.5 Q269 277 241 277 Q145 277 97.5 335 Q50 393 50 493 Q50 552 67 597.5 Q84 643 114.5 674 Q145 705 187 721 Q229 737 280 737 Q350 737 394.5 708.5 Q439 680 464 632 Q489 584 498 520.5 Q507 457 507 386 Q507 314 497 243 Q487 172 459.5 115.5 Q432 59 381.5 23.5 Q331 -12 250 -12 Q212 -12 178.5 -3.5 Q145 5 118.5 23.5 Q92 42 73.5 72 Q55 102 47 146 L129 170 Z M414 432 Q412 473 406.5 514 Q401 555 386 588 Q371 621 344.5 641.5 Q318 662 273 662 Q216 662 178.5 622 Q141 582 141 496 Q141 426 170 389.5 Q199 353 259 353 Q304 353 345 376 Q386 399 414 432 Z " />
<glyph glyph-name="dollar" unicode="&#x24;" horiz-adv-x="529" d="M393 517 Q385 561 365.5 591.5 Q346 622 303 631 L303 391 Q340 381 373 367.5 Q406 354 431 332 Q456 310 470.5 277.5 Q485 245 485 198 Q485 113 436 64.5 Q387 16 304 5 L304 -81 L229 -81 L229 4 Q191 7 157 17.5 Q123 28 97 50 Q71 72 53.5 107 Q36 142 30 195 L113 212 Q119 180 127 156.5 Q135 133 148.5 116 Q162 99 182.5 89.5 Q203 80 233 77 L233 318 Q199 327 167 340 Q135 353 110 375 Q85 397 70 430 Q55 463 55 512 Q55 555 68.5 589 Q82 623 105.5 647 Q129 671 161 685.5 Q193 700 230 705 L230 792 L306 792 L306 708 Q378 701 422 659.5 Q466 618 477 530 L393 517 Z M395 190 Q395 215 388 232.5 Q381 250 368.5 263 Q356 276 339 284.5 Q322 293 303 299 L303 79 Q344 87 369.5 113 Q395 139 395 190 Z M145 524 Q145 483 164.5 456 Q184 429 233 411 L233 631 Q182 621 163.5 590 Q145 559 145 524 Z " />
<glyph glyph-name="Euro" unicode="&#x20ac;" horiz-adv-x="612" d="M354 -12 Q304 -12 260.5 1.5 Q217 15 182.5 45.5 Q148 76 124.5 126 Q101 176 92 250 L11 250 L22 318 L86 318 L86 351 Q86 363 86 374.5 Q86 386 87 397 L32 397 L43 465 L94 465 Q105 539 131 591 Q157 643 194 675.5 Q231 708 276 722.5 Q321 737 371 737 Q417 737 456 724.5 Q495 712 524 686 Q553 660 570.5 619 Q588 578 592 520 L509 512 Q504 551 495 578.5 Q486 606 469.5 623.5 Q453 641 428.5 649 Q404 657 369 657 Q325 657 293.5 643.5 Q262 630 240 604.5 Q218 579 204.5 543.5 Q191 508 185 465 L410 465 L398 397 L178 397 L178 355 Q178 345 178 336 Q178 327 179 318 L389 318 L377 250 L184 250 Q198 158 239.5 112.5 Q281 67 360 67 Q426 67 461 98.5 Q496 130 510 199 L588 181 Q580 126 557 89 Q534 52 501.5 29.5 Q469 7 431 -2.5 Q393 -12 354 -12 Z " />
<glyph glyph-name="cent" unicode="&#xa2;" horiz-adv-x="516" d="M321 700 L321 600 Q386 592 428.5 551.5 Q471 511 476 436 L393 424 Q388 470 370 493.5 Q352 517 317 523 L317 181 Q355 186 374 209 Q393 232 403 276 L480 260 Q474 224 459.5 197 Q445 170 423.5 151 Q402 132 375 120.5 Q348 109 318 105 L318 0 L245 0 L245 103 Q198 109 163 129.5 Q128 150 105 182.5 Q82 215 70.5 257 Q59 299 59 348 Q59 459 109.5 521.5 Q160 584 245 598 L245 700 L321 700 Z M153 359 Q153 325 157.5 296 Q162 267 173 244 Q184 221 202 205.5 Q220 190 247 183 L247 521 Q227 516 210 505 Q193 494 180 474.5 Q167 455 160 426.5 Q153 398 153 359 Z " />
<glyph glyph-name="sterling" unicode="&#xa3;" horiz-adv-x="561" d="M76 75 Q159 150 159 234 Q159 276 136 322 L32 322 L32 396 L109 396 Q96 419 80 455 Q64 491 64 538 Q64 582 81 618.5 Q98 655 128 681.5 Q158 708 200 722.5 Q242 737 292 737 Q386 737 439 695 Q492 653 504 553 L422 542 Q418 571 410 593.5 Q402 616 387 631.5 Q372 647 348.5 655 Q325 663 290 663 Q229 663 191 634 Q153 605 153 548 Q153 524 158 502.5 Q163 481 170.5 462 Q178 443 186 426.5 Q194 410 201 396 L427 396 L427 322 L226 322 Q245 280 245 236 Q245 147 171 75 L344 75 Q373 75 393 81.5 Q413 88 426 101.5 Q439 115 447 136 Q455 157 460 186 L540 170 Q529 79 482.5 39.5 Q436 0 348 0 L22 0 L22 75 L76 75 Z " />
<glyph glyph-name="yen" unicode="&#xa5;" horiz-adv-x="530" d="M315 200 L315 0 L224 0 L224 200 L92 200 L92 269 L224 269 L224 356 L92 356 L92 424 L188 424 L23 724 L123 724 L272 445 L273 445 L416 724 L509 724 L348 424 L449 424 L449 356 L315 356 L315 269 L449 269 L449 200 L315 200 Z " />
<glyph glyph-name="florin" unicode="&#x192;" horiz-adv-x="535" d="M479 600 Q468 629 452 647 Q436 665 407 665 Q376 665 355 647 Q334 629 325 581 L299 445 L440 445 L428 376 L287 376 L206 -24 Q189 -107 150 -144 Q111 -181 37 -181 Q-18 -181 -56 -154 Q-94 -127 -110 -74 L-33 -44 Q-22 -73 -5.5 -90.5 Q11 -108 43 -108 Q73 -108 92 -90.5 Q111 -73 121 -25 L200 376 L118 376 L131 445 L213 445 L240 579 Q257 662 297 699.5 Q337 737 411 737 Q520 737 555 630 L479 600 Z " />
<glyph glyph-name="percent" unicode="&#x25;" horiz-adv-x="801" d="M188 374 Q143 374 112.5 388.5 Q82 403 63 427 Q44 451 36 483 Q28 515 28 550 Q28 591 38.5 625.5 Q49 660 70 684.5 Q91 709 122.5 723 Q154 737 196 737 Q280 737 317 689.5 Q354 642 354 563 Q354 479 312 426.5 Q270 374 188 374 Z M191 440 Q240 440 257.5 472 Q275 504 275 559 Q275 584 271.5 604.5 Q268 625 258.5 640 Q249 655 233 663.5 Q217 672 193 672 Q168 672 151.5 662.5 Q135 653 125 636.5 Q115 620 111 599 Q107 578 107 556 Q107 530 111 508.5 Q115 487 124.5 472 Q134 457 150 448.5 Q166 440 191 440 Z M589 -12 Q544 -12 513.5 2.5 Q483 17 464 41 Q445 65 437 97 Q429 129 429 164 Q429 205 439.5 239.5 Q450 274 471 298.5 Q492 323 523.5 337 Q555 351 597 351 Q681 351 718 303.5 Q755 256 755 177 Q755 93 713 40.5 Q671 -12 589 -12 Z M592 54 Q641 54 658.5 86 Q676 118 676 173 Q676 198 672.5 218.5 Q669 239 659.5 254 Q650 269 634 277.5 Q618 286 594 286 Q569 286 552.5 276.5 Q536 267 526 250.5 Q516 234 512 213 Q508 192 508 170 Q508 144 512 122.5 Q516 101 525.5 86 Q535 71 551 62.5 Q567 54 592 54 Z M124 -16 L563 724 L644 724 L206 -16 L124 -16 Z " />
<glyph glyph-name="perthousand" unicode="&#x2030;" horiz-adv-x="1011" d="M187 412 Q147 412 120 424.5 Q93 437 76.5 458.5 Q60 480 53 508.5 Q46 537 46 570 Q46 646 83.5 691.5 Q121 737 194 737 Q269 737 302 694 Q335 651 335 579 Q335 502 297.5 457 Q260 412 187 412 Z M75 -16 L514 724 L595 724 L157 -16 L75 -16 Z M190 471 Q231 471 246 500 Q261 529 261 576 Q261 620 247 648.5 Q233 677 193 677 Q172 677 158 668.5 Q144 660 135.5 645.5 Q127 631 123.5 612.5 Q120 594 120 574 Q120 529 134.5 500 Q149 471 190 471 Z M490 -12 Q450 -12 423 0.5 Q396 13 379.5 34.5 Q363 56 356 84.5 Q349 113 349 146 Q349 222 386.5 267.5 Q424 313 497 313 Q572 313 605 270 Q638 227 638 155 Q638 78 600.5 33 Q563 -12 490 -12 Z M493 47 Q534 47 549 76 Q564 105 564 152 Q564 196 549.5 224.5 Q535 253 495 253 Q474 253 460.5 244.5 Q447 236 438.5 221.5 Q430 207 426.5 188.5 Q423 170 423 150 Q423 105 437.5 76 Q452 47 493 47 Z M817 -12 Q777 -12 750 0.5 Q723 13 706.5 34.5 Q690 56 683 84.5 Q676 113 676 146 Q676 222 713.5 267.5 Q751 313 824 313 Q899 313 932 270 Q965 227 965 155 Q965 78 927.5 33 Q890 -12 817 -12 Z M820 47 Q861 47 876 76 Q891 105 891 152 Q891 196 876.5 224.5 Q862 253 822 253 Q801 253 787.5 244.5 Q774 236 765.5 221.5 Q757 207 753.5 188.5 Q750 170 750 150 Q750 105 764.5 76 Q779 47 820 47 Z " />
<glyph glyph-name="afii61352" unicode="&#x2116;" horiz-adv-x="1067" d="M493 0 L186 605 L186 0 L100 0 L100 724 L220 724 L516 122 L516 724 L601 724 L601 0 L493 0 Z M695 336 L991 336 L991 263 L695 263 L695 336 Z M838 381 Q793 381 761.5 394 Q730 407 710 430 Q690 453 681 485.5 Q672 518 672 556 Q672 634 714 681.5 Q756 729 844 729 Q888 729 919 716.5 Q950 704 969.5 681.5 Q989 659 998 628.5 Q1007 598 1007 561 Q1007 479 966.5 430 Q926 381 838 381 Z M840 446 Q883 446 905.5 470.5 Q928 495 928 557 Q928 616 907 641.5 Q886 667 843 667 Q799 667 774.5 642 Q750 617 750 557 Q750 497 773 471.5 Q796 446 840 446 Z " />
<glyph glyph-name="currency" unicode="&#xa4;" horiz-adv-x="570" d="M502 5 L411 94 Q359 57 280 57 Q237 57 203.5 67.5 Q170 78 145 96 Q143 93 129 79 Q115 65 99 49 Q83 33 69.5 19.5 Q56 6 55 5 L-1 63 L93 157 Q77 184 69.5 215.5 Q62 247 62 281 Q62 345 95 398 L2 490 L61 550 L150 462 Q176 482 210.5 493.5 Q245 505 287 505 Q370 505 422 465 L507 549 L562 491 L475 403 Q504 351 504 285 Q504 250 495 217.5 Q486 185 468 156 L562 64 L502 5 Z M285 133 Q317 133 341.5 144.5 Q366 156 382.5 176 Q399 196 407 223 Q415 250 415 281 Q415 349 382 388 Q349 427 282 427 Q217 427 184.5 386 Q152 345 152 281 Q152 250 159.5 223 Q167 196 183 176 Q199 156 224.5 144.5 Q250 133 285 133 Z " />
<glyph glyph-name="Aacute" unicode="&#xc1;" horiz-adv-x="687" d="M400 724 L652 0 L551 0 L478 215 L200 215 L129 0 L36 0 L280 724 L400 724 Z M339 640 L338 640 L222 294 L455 294 L339 640 Z M337 767 L268 779 L367 913 L477 913 L337 767 Z " />
<glyph glyph-name="Abreve" unicode="&#x102;" horiz-adv-x="687" d="M400 724 L652 0 L551 0 L478 215 L200 215 L129 0 L36 0 L280 724 L400 724 Z M339 640 L338 640 L222 294 L455 294 L339 640 Z M344 842 Q379 842 400 857 Q421 872 429 914 L495 908 Q488 844 449 811 Q410 778 341 778 Q275 778 239.5 809.5 Q204 841 198 907 L265 914 Q273 873 291 857.5 Q309 842 344 842 Z " />
<glyph glyph-name="Acircumflex" unicode="&#xc2;" horiz-adv-x="687" d="M400 724 L652 0 L551 0 L478 215 L200 215 L129 0 L36 0 L280 724 L400 724 Z M339 640 L338 640 L222 294 L455 294 L339 640 Z M343 847 L259 767 L189 776 L305 905 L384 905 L498 776 L428 769 L343 847 Z " />
<glyph glyph-name="Adieresis" unicode="&#xc4;" horiz-adv-x="687" d="M400 724 L652 0 L551 0 L478 215 L200 215 L129 0 L36 0 L280 724 L400 724 Z M339 640 L338 640 L222 294 L455 294 L339 640 Z M301 841 Q301 812 284 796 Q267 780 239 780 Q210 780 192.5 796 Q175 812 175 841 Q175 870 192.5 886.5 Q210 903 239 903 Q267 903 284 886.5 Q301 870 301 841 Z M511 841 Q511 812 494 796 Q477 780 448 780 Q419 780 402 796 Q385 812 385 841 Q385 870 402 886.5 Q419 903 448 903 Q477 903 494 886.5 Q511 870 511 841 Z " />
<glyph glyph-name="AEacute" unicode="&#x1fc;" horiz-adv-x="1000" d="M605 80 L949 80 L949 0 L512 0 L512 316 L298 316 L126 0 L30 0 L424 724 L936 724 L936 644 L605 644 L605 397 L915 397 L915 318 L605 318 L605 80 Z M512 644 L469 644 L334 394 L512 394 L512 644 Z M684 767 L615 779 L714 913 L824 913 L684 767 Z " />
<glyph glyph-name="Agrave" unicode="&#xc0;" horiz-adv-x="687" d="M400 724 L652 0 L551 0 L478 215 L200 215 L129 0 L36 0 L280 724 L400 724 Z M339 640 L338 640 L222 294 L455 294 L339 640 Z M213 913 L323 913 L422 779 L353 767 L213 913 Z " />
<glyph glyph-name="Amacron" unicode="&#x100;" horiz-adv-x="687" d="M400 724 L652 0 L551 0 L478 215 L200 215 L129 0 L36 0 L280 724 L400 724 Z M339 640 L338 640 L222 294 L455 294 L339 640 Z M189 793 L189 864 L496 864 L496 793 L189 793 Z " />
<glyph glyph-name="Aogonek" unicode="&#x104;" horiz-adv-x="687" d="M693 -147 Q676 -188 643 -208 Q610 -228 575 -228 Q530 -228 502.5 -205 Q475 -182 475 -139 Q475 -94 499 -60 Q523 -26 551 0 L478 215 L200 215 L129 0 L36 0 L280 724 L400 724 L652 0 Q609 -32 581 -60 Q553 -88 553 -124 Q553 -162 591 -162 Q623 -162 645 -123 L693 -147 Z M339 640 L338 640 L222 294 L455 294 L339 640 Z " />
<glyph glyph-name="Aring" unicode="&#xc5;" horiz-adv-x="687" d="M445 808 Q445 778 433 756 Q421 734 400 722 L652 0 L551 0 L478 215 L200 215 L129 0 L36 0 L279 721 Q235 746 235 803 Q235 855 266 880.5 Q297 906 339 906 Q361 906 380 900 Q399 894 413.5 882 Q428 870 436.5 851.5 Q445 833 445 808 Z M339 640 L338 640 L222 294 L455 294 L339 640 Z M339 756 Q364 756 376 770 Q388 784 388 809 Q388 856 339 856 Q318 856 303.5 843.5 Q289 831 289 806 Q289 756 339 756 Z " />
<glyph glyph-name="Aringacute" unicode="&#x1fa;" horiz-adv-x="687" d="M313 921 L244 933 L343 1067 L453 1067 L313 921 Z M445 808 Q445 778 433 756 Q421 734 400 722 L652 0 L551 0 L478 215 L200 215 L129 0 L36 0 L279 721 Q235 746 235 803 Q235 855 266 880.5 Q297 906 339 906 Q361 906 380 900 Q399 894 413.5 882 Q428 870 436.5 851.5 Q445 833 445 808 Z M339 640 L338 640 L222 294 L455 294 L339 640 Z M339 756 Q364 756 376 770 Q388 784 388 809 Q388 856 339 856 Q318 856 303.5 843.5 Q289 831 289 806 Q289 756 339 756 Z " />
<glyph glyph-name="Atilde" unicode="&#xc3;" horiz-adv-x="687" d="M400 724 L652 0 L551 0 L478 215 L200 215 L129 0 L36 0 L280 724 L400 724 Z M339 640 L338 640 L222 294 L455 294 L339 640 Z M267 904 Q291 904 311 897 Q331 890 349 881.5 Q367 873 384 866 Q401 859 418 859 Q437 859 446.5 868.5 Q456 878 456 910 L511 907 Q519 845 493.5 815.5 Q468 786 427 786 Q403 786 382.5 793 Q362 800 343.5 809 Q325 818 307.5 825 Q290 832 273 832 Q257 832 246.5 821 Q236 810 238 778 L182 781 Q178 813 183.5 836 Q189 859 201 874 Q213 889 230.5 896.5 Q248 904 267 904 Z " />
<glyph glyph-name="Cacute" unicode="&#x106;" horiz-adv-x="692" d="M368 -12 Q283 -12 222.5 14 Q162 40 124 88 Q86 136 68 203 Q50 270 50 351 Q50 442 73.5 514 Q97 586 141 635.5 Q185 685 247.5 711 Q310 737 387 737 Q444 737 491.5 723 Q539 709 574.5 679 Q610 649 631 603 Q652 557 656 494 L570 485 Q559 570 517 613.5 Q475 657 386 657 Q273 657 209 583 Q145 509 145 359 Q145 281 160.5 225.5 Q176 170 205 135 Q234 100 277 83.5 Q320 67 374 67 Q460 67 505.5 104.5 Q551 142 568 219 L651 202 Q642 142 614.5 101 Q587 60 548 35 Q509 10 462.5 -1 Q416 -12 368 -12 Z M379 767 L310 779 L409 913 L519 913 L379 767 Z " />
<glyph glyph-name="Ccaron" unicode="&#x10c;" horiz-adv-x="692" d="M368 -12 Q283 -12 222.5 14 Q162 40 124 88 Q86 136 68 203 Q50 270 50 351 Q50 442 73.5 514 Q97 586 141 635.5 Q185 685 247.5 711 Q310 737 387 737 Q444 737 491.5 723 Q539 709 574.5 679 Q610 649 631 603 Q652 557 656 494 L570 485 Q559 570 517 613.5 Q475 657 386 657 Q273 657 209 583 Q145 509 145 359 Q145 281 160.5 225.5 Q176 170 205 135 Q234 100 277 83.5 Q320 67 374 67 Q460 67 505.5 104.5 Q551 142 568 219 L651 202 Q642 142 614.5 101 Q587 60 548 35 Q509 10 462.5 -1 Q416 -12 368 -12 Z M384 828 L468 908 L538 899 L422 770 L343 770 L229 899 L299 906 L384 828 Z " />
<glyph glyph-name="Ccedilla" unicode="&#xc7;" horiz-adv-x="692" d="M299 -161 Q308 -166 322.5 -171 Q337 -176 353 -176 Q378 -176 390.5 -163.5 Q403 -151 403 -131 Q403 -106 386 -95.5 Q369 -85 330 -84 L339 -11 Q262 -7 207 21 Q152 49 117 96.5 Q82 144 66 208.5 Q50 273 50 351 Q50 442 73.5 514 Q97 586 141 635.5 Q185 685 247.5 711 Q310 737 387 737 Q444 737 491.5 723 Q539 709 574.5 679 Q610 649 631 603 Q652 557 656 494 L570 485 Q559 570 517 613.5 Q475 657 386 657 Q273 657 209 583 Q145 509 145 359 Q145 281 160.5 225.5 Q176 170 205 135 Q234 100 277 83.5 Q320 67 374 67 Q460 67 505.5 104.5 Q551 142 568 219 L651 202 Q642 147 618 108 Q594 69 559.5 43.5 Q525 18 483.5 5 Q442 -8 398 -11 L394 -44 Q425 -50 449 -69.5 Q473 -89 473 -132 Q473 -179 441.5 -205.5 Q410 -232 363 -232 Q336 -232 316.5 -226 Q297 -220 285 -213 L299 -161 Z " />
<glyph glyph-name="Ccircumflex" unicode="&#x108;" horiz-adv-x="692" d="M368 -12 Q283 -12 222.5 14 Q162 40 124 88 Q86 136 68 203 Q50 270 50 351 Q50 442 73.5 514 Q97 586 141 635.5 Q185 685 247.5 711 Q310 737 387 737 Q444 737 491.5 723 Q539 709 574.5 679 Q610 649 631 603 Q652 557 656 494 L570 485 Q559 570 517 613.5 Q475 657 386 657 Q273 657 209 583 Q145 509 145 359 Q145 281 160.5 225.5 Q176 170 205 135 Q234 100 277 83.5 Q320 67 374 67 Q460 67 505.5 104.5 Q551 142 568 219 L651 202 Q642 142 614.5 101 Q587 60 548 35 Q509 10 462.5 -1 Q416 -12 368 -12 Z M385 847 L301 767 L231 776 L347 905 L426 905 L540 776 L470 769 L385 847 Z " />
<glyph glyph-name="Cdotaccent" unicode="&#x10a;" horiz-adv-x="692" d="M368 -12 Q283 -12 222.5 14 Q162 40 124 88 Q86 136 68 203 Q50 270 50 351 Q50 442 73.5 514 Q97 586 141 635.5 Q185 685 247.5 711 Q310 737 387 737 Q444 737 491.5 723 Q539 709 574.5 679 Q610 649 631 603 Q652 557 656 494 L570 485 Q559 570 517 613.5 Q475 657 386 657 Q273 657 209 583 Q145 509 145 359 Q145 281 160.5 225.5 Q176 170 205 135 Q234 100 277 83.5 Q320 67 374 67 Q460 67 505.5 104.5 Q551 142 568 219 L651 202 Q642 142 614.5 101 Q587 60 548 35 Q509 10 462.5 -1 Q416 -12 368 -12 Z M448 845 Q448 814 431.5 797 Q415 780 384 780 Q353 780 336 797 Q319 814 319 845 Q319 877 336 894 Q353 911 384 911 Q415 911 431.5 894 Q448 877 448 845 Z " />
<glyph glyph-name="Dcaron" unicode="&#x10e;" horiz-adv-x="728" d="M96 0 L96 724 L319 724 Q413 724 481 699.5 Q549 675 592.5 629.5 Q636 584 657 519 Q678 454 678 373 Q678 290 655.5 221 Q633 152 587 103 Q541 54 470 27 Q399 0 302 0 L96 0 Z M303 78 Q445 78 514 152.5 Q583 227 583 360 Q583 442 564.5 497 Q546 552 511.5 585 Q477 618 426 632 Q375 646 311 646 L188 646 L188 78 L303 78 Z M326 828 L410 908 L480 899 L364 770 L285 770 L171 899 L241 906 L326 828 Z " />
<glyph glyph-name="Dcroat" unicode="&#x110;" horiz-adv-x="728" d="M18 404 L96 404 L96 724 L319 724 Q413 724 481 699.5 Q549 675 592.5 629.5 Q636 584 657 519 Q678 454 678 373 Q678 290 655.5 221 Q633 152 587 103 Q541 54 470 27 Q399 0 302 0 L96 0 L96 329 L18 329 L18 404 Z M303 78 Q445 78 514 152.5 Q583 227 583 360 Q583 442 564.5 497 Q546 552 511.5 585 Q477 618 426 632 Q375 646 311 646 L188 646 L188 404 L391 404 L391 329 L188 329 L188 78 L303 78 Z " />
<glyph glyph-name="Eacute" unicode="&#xc9;" horiz-adv-x="575" d="M188 80 L532 80 L532 0 L96 0 L96 724 L519 724 L519 644 L188 644 L188 405 L499 405 L499 325 L188 325 L188 80 Z M299 767 L230 779 L329 913 L439 913 L299 767 Z " />
<glyph glyph-name="Ebreve" unicode="&#x114;" horiz-adv-x="575" d="M188 80 L532 80 L532 0 L96 0 L96 724 L519 724 L519 644 L188 644 L188 405 L499 405 L499 325 L188 325 L188 80 Z M306 842 Q341 842 362 857 Q383 872 391 914 L457 908 Q450 844 411 811 Q372 778 303 778 Q237 778 201.5 809.5 Q166 841 160 907 L227 914 Q235 873 253 857.5 Q271 842 306 842 Z " />
<glyph glyph-name="Ecaron" unicode="&#x11a;" horiz-adv-x="575" d="M188 80 L532 80 L532 0 L96 0 L96 724 L519 724 L519 644 L188 644 L188 405 L499 405 L499 325 L188 325 L188 80 Z M304 828 L388 908 L458 899 L342 770 L263 770 L149 899 L219 906 L304 828 Z " />
<glyph glyph-name="Ecircumflex" unicode="&#xca;" horiz-adv-x="575" d="M188 80 L532 80 L532 0 L96 0 L96 724 L519 724 L519 644 L188 644 L188 405 L499 405 L499 325 L188 325 L188 80 Z M305 847 L221 767 L151 776 L267 905 L346 905 L460 776 L390 769 L305 847 Z " />
<glyph glyph-name="Edieresis" unicode="&#xcb;" horiz-adv-x="575" d="M188 80 L532 80 L532 0 L96 0 L96 724 L519 724 L519 644 L188 644 L188 405 L499 405 L499 325 L188 325 L188 80 Z M263 841 Q263 812 246 796 Q229 780 201 780 Q172 780 154.5 796 Q137 812 137 841 Q137 870 154.5 886.5 Q172 903 201 903 Q229 903 246 886.5 Q263 870 263 841 Z M473 841 Q473 812 456 796 Q439 780 410 780 Q381 780 364 796 Q347 812 347 841 Q347 870 364 886.5 Q381 903 410 903 Q439 903 456 886.5 Q473 870 473 841 Z " />
<glyph glyph-name="Edotaccent" unicode="&#x116;" horiz-adv-x="575" d="M188 80 L532 80 L532 0 L96 0 L96 724 L519 724 L519 644 L188 644 L188 405 L499 405 L499 325 L188 325 L188 80 Z M368 845 Q368 814 351.5 797 Q335 780 304 780 Q273 780 256 797 Q239 814 239 845 Q239 877 256 894 Q273 911 304 911 Q335 911 351.5 894 Q368 877 368 845 Z " />
<glyph glyph-name="Egrave" unicode="&#xc8;" horiz-adv-x="575" d="M188 80 L532 80 L532 0 L96 0 L96 724 L519 724 L519 644 L188 644 L188 405 L499 405 L499 325 L188 325 L188 80 Z M175 913 L285 913 L384 779 L315 767 L175 913 Z " />
<glyph glyph-name="Emacron" unicode="&#x112;" horiz-adv-x="575" d="M188 80 L532 80 L532 0 L96 0 L96 724 L519 724 L519 644 L188 644 L188 405 L499 405 L499 325 L188 325 L188 80 Z M151 793 L151 864 L458 864 L458 793 L151 793 Z " />
<glyph glyph-name="Eogonek" unicode="&#x118;" horiz-adv-x="575" d="M540 -147 Q523 -188 490 -208 Q457 -228 422 -228 Q377 -228 349.5 -205 Q322 -182 322 -139 Q322 -117 329 -97 Q336 -77 348 -60 Q360 -43 375 -28 Q390 -13 406 0 L96 0 L96 724 L519 724 L519 644 L188 644 L188 405 L499 405 L499 325 L188 325 L188 80 L532 80 L532 0 L484 0 Q447 -34 423.5 -61.5 Q400 -89 400 -124 Q400 -162 438 -162 Q470 -162 492 -123 L540 -147 Z " />
<glyph glyph-name="Gbreve" unicode="&#x11e;" horiz-adv-x="736" d="M577 98 Q567 75 546 55 Q525 35 496 20 Q467 5 432 -3.5 Q397 -12 359 -12 Q277 -12 218.5 15 Q160 42 122.5 90 Q85 138 67.5 205 Q50 272 50 353 Q50 445 73.5 516.5 Q97 588 140.5 637 Q184 686 247 711.5 Q310 737 389 737 Q446 737 493 724 Q540 711 575 682 Q610 653 631 607 Q652 561 657 496 L569 487 Q560 575 515.5 616 Q471 657 386 657 Q271 657 208 580 Q145 503 145 361 Q145 277 162.5 220.5 Q180 164 211 129.5 Q242 95 284.5 80.5 Q327 66 377 66 Q426 66 462 81 Q498 96 522 120.5 Q546 145 558 176 Q570 207 570 239 L570 301 L378 301 L378 376 L657 376 L657 0 L590 0 L577 98 Z M389 842 Q424 842 445 857 Q466 872 474 914 L540 908 Q533 844 494 811 Q455 778 386 778 Q320 778 284.5 809.5 Q249 841 243 907 L310 914 Q318 873 336 857.5 Q354 842 389 842 Z " />
<glyph glyph-name="Gcircumflex" unicode="&#x11c;" horiz-adv-x="736" d="M577 98 Q567 75 546 55 Q525 35 496 20 Q467 5 432 -3.5 Q397 -12 359 -12 Q277 -12 218.5 15 Q160 42 122.5 90 Q85 138 67.5 205 Q50 272 50 353 Q50 445 73.5 516.5 Q97 588 140.5 637 Q184 686 247 711.5 Q310 737 389 737 Q446 737 493 724 Q540 711 575 682 Q610 653 631 607 Q652 561 657 496 L569 487 Q560 575 515.5 616 Q471 657 386 657 Q271 657 208 580 Q145 503 145 361 Q145 277 162.5 220.5 Q180 164 211 129.5 Q242 95 284.5 80.5 Q327 66 377 66 Q426 66 462 81 Q498 96 522 120.5 Q546 145 558 176 Q570 207 570 239 L570 301 L378 301 L378 376 L657 376 L657 0 L590 0 L577 98 Z M388 847 L304 767 L234 776 L350 905 L429 905 L543 776 L473 769 L388 847 Z " />
<glyph glyph-name="Gcommaaccent" unicode="&#x122;" horiz-adv-x="736" d="M577 98 Q567 75 546 55 Q525 35 496 20 Q467 5 432 -3.5 Q397 -12 359 -12 Q277 -12 218.5 15 Q160 42 122.5 90 Q85 138 67.5 205 Q50 272 50 353 Q50 445 73.5 516.5 Q97 588 140.5 637 Q184 686 247 711.5 Q310 737 389 737 Q446 737 493 724 Q540 711 575 682 Q610 653 631 607 Q652 561 657 496 L569 487 Q560 575 515.5 616 Q471 657 386 657 Q271 657 208 580 Q145 503 145 361 Q145 277 162.5 220.5 Q180 164 211 129.5 Q242 95 284.5 80.5 Q327 66 377 66 Q426 66 462 81 Q498 96 522 120.5 Q546 145 558 176 Q570 207 570 239 L570 301 L378 301 L378 376 L657 376 L657 0 L590 0 L577 98 Z M326 -69 L423 -69 L355 -243 L287 -233 L326 -69 Z " />
<glyph glyph-name="Gdotaccent" unicode="&#x120;" horiz-adv-x="736" d="M577 98 Q567 75 546 55 Q525 35 496 20 Q467 5 432 -3.5 Q397 -12 359 -12 Q277 -12 218.5 15 Q160 42 122.5 90 Q85 138 67.5 205 Q50 272 50 353 Q50 445 73.5 516.5 Q97 588 140.5 637 Q184 686 247 711.5 Q310 737 389 737 Q446 737 493 724 Q540 711 575 682 Q610 653 631 607 Q652 561 657 496 L569 487 Q560 575 515.5 616 Q471 657 386 657 Q271 657 208 580 Q145 503 145 361 Q145 277 162.5 220.5 Q180 164 211 129.5 Q242 95 284.5 80.5 Q327 66 377 66 Q426 66 462 81 Q498 96 522 120.5 Q546 145 558 176 Q570 207 570 239 L570 301 L378 301 L378 376 L657 376 L657 0 L590 0 L577 98 Z M451 845 Q451 814 434.5 797 Q418 780 387 780 Q356 780 339 797 Q322 814 322 845 Q322 877 339 894 Q356 911 387 911 Q418 911 434.5 894 Q451 877 451 845 Z " />
<glyph glyph-name="Hbar" unicode="&#x126;" horiz-adv-x="728" d="M632 598 L711 598 L711 527 L632 527 L632 0 L540 0 L540 328 L188 328 L188 0 L96 0 L96 527 L17 527 L17 598 L96 598 L96 724 L188 724 L188 598 L540 598 L540 724 L632 724 L632 598 Z M540 411 L540 527 L188 527 L188 411 L540 411 Z " />
<glyph glyph-name="Hcircumflex" unicode="&#x124;" horiz-adv-x="728" d="M632 0 L540 0 L540 328 L188 328 L188 0 L96 0 L96 724 L188 724 L188 411 L540 411 L540 724 L632 724 L632 0 Z M365 847 L281 767 L211 776 L327 905 L406 905 L520 776 L450 769 L365 847 Z " />
<glyph glyph-name="Iacute" unicode="&#xcd;" horiz-adv-x="284" d="M188 0 L96 0 L96 724 L188 724 L188 0 Z M138 767 L69 779 L168 913 L278 913 L138 767 Z " />
<glyph glyph-name="Ibreve" unicode="&#x12c;" horiz-adv-x="284" d="M188 0 L96 0 L96 724 L188 724 L188 0 Z M145 842 Q180 842 201 857 Q222 872 230 914 L296 908 Q289 844 250 811 Q211 778 142 778 Q76 778 40.5 809.5 Q5 841 -1 907 L66 914 Q74 873 92 857.5 Q110 842 145 842 Z " />
<glyph glyph-name="Icircumflex" unicode="&#xce;" horiz-adv-x="284" d="M188 0 L96 0 L96 724 L188 724 L188 0 Z M144 847 L60 767 L-10 776 L106 905 L185 905 L299 776 L229 769 L144 847 Z " />
<glyph glyph-name="Idieresis" unicode="&#xcf;" horiz-adv-x="284" d="M188 0 L96 0 L96 724 L188 724 L188 0 Z M102 841 Q102 812 85 796 Q68 780 40 780 Q11 780 -6.5 796 Q-24 812 -24 841 Q-24 870 -6.5 886.5 Q11 903 40 903 Q68 903 85 886.5 Q102 870 102 841 Z M312 841 Q312 812 295 796 Q278 780 249 780 Q220 780 203 796 Q186 812 186 841 Q186 870 203 886.5 Q220 903 249 903 Q278 903 295 886.5 Q312 870 312 841 Z " />
<glyph glyph-name="Idotaccent" unicode="&#x130;" horiz-adv-x="284" d="M188 0 L96 0 L96 724 L188 724 L188 0 Z M207 845 Q207 814 190.5 797 Q174 780 143 780 Q112 780 95 797 Q78 814 78 845 Q78 877 95 894 Q112 911 143 911 Q174 911 190.5 894 Q207 877 207 845 Z " />
<glyph glyph-name="Igrave" unicode="&#xcc;" horiz-adv-x="284" d="M188 0 L96 0 L96 724 L188 724 L188 0 Z M14 913 L124 913 L223 779 L154 767 L14 913 Z " />
<glyph glyph-name="Imacron" unicode="&#x12a;" horiz-adv-x="284" d="M188 0 L96 0 L96 724 L188 724 L188 0 Z M-10 793 L-10 864 L297 864 L297 793 L-10 793 Z " />
<glyph glyph-name="Iogonek" unicode="&#x12e;" horiz-adv-x="284" d="M236 -147 Q219 -188 186 -208 Q153 -228 118 -228 Q73 -228 45.5 -205 Q18 -182 18 -139 Q18 -117 25 -97 Q32 -77 43.5 -60 Q55 -43 68.5 -28 Q82 -13 96 0 L96 724 L188 724 L188 0 Q145 -34 120.5 -61.5 Q96 -89 96 -124 Q96 -162 134 -162 Q166 -162 188 -123 L236 -147 Z " />
<glyph glyph-name="Itilde" unicode="&#x128;" horiz-adv-x="284" d="M188 0 L96 0 L96 724 L188 724 L188 0 Z M68 904 Q92 904 112 897 Q132 890 150 881.5 Q168 873 185 866 Q202 859 219 859 Q238 859 247.5 868.5 Q257 878 257 910 L312 907 Q320 845 294.5 815.5 Q269 786 228 786 Q204 786 183.5 793 Q163 800 144.5 809 Q126 818 108.5 825 Q91 832 74 832 Q58 832 47.5 821 Q37 810 39 778 L-17 781 Q-21 813 -15.5 836 Q-10 859 2 874 Q14 889 31.5 896.5 Q49 904 68 904 Z " />
<glyph glyph-name="Jcircumflex" unicode="&#x134;" horiz-adv-x="499" d="M320 724 L412 724 L412 183 Q412 129 398 92 Q384 55 358.5 31.5 Q333 8 296.5 -2 Q260 -12 214 -12 Q125 -12 78.5 27.5 Q32 67 26 157 L114 172 Q117 148 122 128 Q127 108 138 94.5 Q149 81 167.5 73.5 Q186 66 216 66 Q238 66 257 70.5 Q276 75 290 87 Q304 99 312 121 Q320 143 320 179 L320 724 Z M367 847 L283 767 L213 776 L329 905 L408 905 L522 776 L452 769 L367 847 Z " />
<glyph glyph-name="Kcommaaccent" unicode="&#x136;" horiz-adv-x="644" d="M188 371 L513 724 L616 724 L331 414 L630 0 L522 0 L268 342 L188 257 L188 0 L96 0 L96 724 L188 724 L188 371 Z M295 -69 L392 -69 L324 -243 L256 -233 L295 -69 Z " />
<glyph glyph-name="Lacute" unicode="&#x139;" horiz-adv-x="552" d="M188 81 L514 81 L514 0 L96 0 L96 724 L188 724 L188 81 Z M139 767 L70 779 L169 913 L279 913 L139 767 Z " />
<glyph glyph-name="Lcaron" unicode="&#x13d;" horiz-adv-x="552" d="M188 81 L514 81 L514 0 L96 0 L96 724 L188 724 L188 81 Z M311 725 L406 725 L344 526 L278 534 L311 725 Z " />
<glyph glyph-name="Lcommaaccent" unicode="&#x13b;" horiz-adv-x="552" d="M188 81 L514 81 L514 0 L96 0 L96 724 L188 724 L188 81 Z M268 -69 L365 -69 L297 -243 L229 -233 L268 -69 Z " />
<glyph glyph-name="Ldot" unicode="&#x13f;" horiz-adv-x="552" d="M188 81 L514 81 L514 0 L96 0 L96 724 L188 724 L188 81 Z M475 400 Q475 369 458.5 352 Q442 335 411 335 Q380 335 363 352 Q346 369 346 400 Q346 432 363 449 Q380 466 411 466 Q442 466 458.5 449 Q475 432 475 400 Z " />
<glyph glyph-name="Lslash" unicode="&#x141;" horiz-adv-x="552" d="M188 404 L410 495 L410 416 L188 326 L188 81 L514 81 L514 0 L96 0 L96 289 L11 255 L11 332 L96 366 L96 724 L188 724 L188 404 Z " />
<glyph glyph-name="Nacute" unicode="&#x143;" horiz-adv-x="745" d="M538 0 L182 607 L182 0 L96 0 L96 724 L217 724 L564 123 L564 724 L649 724 L649 0 L538 0 Z M386 767 L317 779 L416 913 L526 913 L386 767 Z " />
<glyph glyph-name="Ncaron" unicode="&#x147;" horiz-adv-x="745" d="M538 0 L182 607 L182 0 L96 0 L96 724 L217 724 L564 123 L564 724 L649 724 L649 0 L538 0 Z M380 828 L464 908 L534 899 L418 770 L339 770 L225 899 L295 906 L380 828 Z " />
<glyph glyph-name="Ncommaaccent" unicode="&#x145;" horiz-adv-x="745" d="M538 0 L182 607 L182 0 L96 0 L96 724 L217 724 L564 123 L564 724 L649 724 L649 0 L538 0 Z M321 -69 L418 -69 L350 -243 L282 -233 L321 -69 Z " />
<glyph glyph-name="Ntilde" unicode="&#xd1;" horiz-adv-x="745" d="M538 0 L182 607 L182 0 L96 0 L96 724 L217 724 L564 123 L564 724 L649 724 L649 0 L538 0 Z M304 904 Q328 904 348 897 Q368 890 386 881.5 Q404 873 421 866 Q438 859 455 859 Q474 859 483.5 868.5 Q493 878 493 910 L548 907 Q556 845 530.5 815.5 Q505 786 464 786 Q440 786 419.5 793 Q399 800 380.5 809 Q362 818 344.5 825 Q327 832 310 832 Q294 832 283.5 821 Q273 810 275 778 L219 781 Q215 813 220.5 836 Q226 859 238 874 Q250 889 267.5 896.5 Q285 904 304 904 Z " />
<glyph glyph-name="Oacute" unicode="&#xd3;" horiz-adv-x="759" d="M375 -12 Q291 -12 229.5 16 Q168 44 128.5 93.5 Q89 143 69.5 212 Q50 281 50 362 Q50 443 72 511.5 Q94 580 137 630 Q180 680 243.5 708.5 Q307 737 390 737 Q472 737 532 709 Q592 681 631.5 632 Q671 583 690 517 Q709 451 709 376 Q709 288 688 216.5 Q667 145 625 94 Q583 43 520.5 15.5 Q458 -12 375 -12 Z M380 69 Q431 69 474.5 86.5 Q518 104 549 141 Q580 178 597.5 234 Q615 290 615 367 Q615 439 599 493 Q583 547 553 583 Q523 619 481 637.5 Q439 656 387 656 Q334 656 290 637.5 Q246 619 214 582 Q182 545 164 490 Q146 435 146 363 Q146 289 163 234 Q180 179 210.5 142.5 Q241 106 284 87.5 Q327 69 380 69 Z M380 767 L311 779 L410 913 L520 913 L380 767 Z " />
<glyph glyph-name="Obreve" unicode="&#x14e;" horiz-adv-x="759" d="M375 -12 Q291 -12 229.5 16 Q168 44 128.5 93.5 Q89 143 69.5 212 Q50 281 50 362 Q50 443 72 511.5 Q94 580 137 630 Q180 680 243.5 708.5 Q307 737 390 737 Q472 737 532 709 Q592 681 631.5 632 Q671 583 690 517 Q709 451 709 376 Q709 288 688 216.5 Q667 145 625 94 Q583 43 520.5 15.5 Q458 -12 375 -12 Z M380 69 Q431 69 474.5 86.5 Q518 104 549 141 Q580 178 597.5 234 Q615 290 615 367 Q615 439 599 493 Q583 547 553 583 Q523 619 481 637.5 Q439 656 387 656 Q334 656 290 637.5 Q246 619 214 582 Q182 545 164 490 Q146 435 146 363 Q146 289 163 234 Q180 179 210.5 142.5 Q241 106 284 87.5 Q327 69 380 69 Z M387 842 Q422 842 443 857 Q464 872 472 914 L538 908 Q531 844 492 811 Q453 778 384 778 Q318 778 282.5 809.5 Q247 841 241 907 L308 914 Q316 873 334 857.5 Q352 842 387 842 Z " />
<glyph glyph-name="Ocircumflex" unicode="&#xd4;" horiz-adv-x="759" d="M375 -12 Q291 -12 229.5 16 Q168 44 128.5 93.5 Q89 143 69.5 212 Q50 281 50 362 Q50 443 72 511.5 Q94 580 137 630 Q180 680 243.5 708.5 Q307 737 390 737 Q472 737 532 709 Q592 681 631.5 632 Q671 583 690 517 Q709 451 709 376 Q709 288 688 216.5 Q667 145 625 94 Q583 43 520.5 15.5 Q458 -12 375 -12 Z M380 69 Q431 69 474.5 86.5 Q518 104 549 141 Q580 178 597.5 234 Q615 290 615 367 Q615 439 599 493 Q583 547 553 583 Q523 619 481 637.5 Q439 656 387 656 Q334 656 290 637.5 Q246 619 214 582 Q182 545 164 490 Q146 435 146 363 Q146 289 163 234 Q180 179 210.5 142.5 Q241 106 284 87.5 Q327 69 380 69 Z M386 847 L302 767 L232 776 L348 905 L427 905 L541 776 L471 769 L386 847 Z " />
<glyph glyph-name="Odieresis" unicode="&#xd6;" horiz-adv-x="759" d="M375 -12 Q291 -12 229.5 16 Q168 44 128.5 93.5 Q89 143 69.5 212 Q50 281 50 362 Q50 443 72 511.5 Q94 580 137 630 Q180 680 243.5 708.5 Q307 737 390 737 Q472 737 532 709 Q592 681 631.5 632 Q671 583 690 517 Q709 451 709 376 Q709 288 688 216.5 Q667 145 625 94 Q583 43 520.5 15.5 Q458 -12 375 -12 Z M380 69 Q431 69 474.5 86.5 Q518 104 549 141 Q580 178 597.5 234 Q615 290 615 367 Q615 439 599 493 Q583 547 553 583 Q523 619 481 637.5 Q439 656 387 656 Q334 656 290 637.5 Q246 619 214 582 Q182 545 164 490 Q146 435 146 363 Q146 289 163 234 Q180 179 210.5 142.5 Q241 106 284 87.5 Q327 69 380 69 Z M344 841 Q344 812 327 796 Q310 780 282 780 Q253 780 235.5 796 Q218 812 218 841 Q218 870 235.5 886.5 Q253 903 282 903 Q310 903 327 886.5 Q344 870 344 841 Z M554 841 Q554 812 537 796 Q520 780 491 780 Q462 780 445 796 Q428 812 428 841 Q428 870 445 886.5 Q462 903 491 903 Q520 903 537 886.5 Q554 870 554 841 Z " />
<glyph glyph-name="Ograve" unicode="&#xd2;" horiz-adv-x="759" d="M375 -12 Q291 -12 229.5 16 Q168 44 128.5 93.5 Q89 143 69.5 212 Q50 281 50 362 Q50 443 72 511.5 Q94 580 137 630 Q180 680 243.5 708.5 Q307 737 390 737 Q472 737 532 709 Q592 681 631.5 632 Q671 583 690 517 Q709 451 709 376 Q709 288 688 216.5 Q667 145 625 94 Q583 43 520.5 15.5 Q458 -12 375 -12 Z M380 69 Q431 69 474.5 86.5 Q518 104 549 141 Q580 178 597.5 234 Q615 290 615 367 Q615 439 599 493 Q583 547 553 583 Q523 619 481 637.5 Q439 656 387 656 Q334 656 290 637.5 Q246 619 214 582 Q182 545 164 490 Q146 435 146 363 Q146 289 163 234 Q180 179 210.5 142.5 Q241 106 284 87.5 Q327 69 380 69 Z M256 913 L366 913 L465 779 L396 767 L256 913 Z " />
<glyph glyph-name="Ohungarumlaut" unicode="&#x150;" horiz-adv-x="759" d="M375 -12 Q291 -12 229.5 16 Q168 44 128.5 93.5 Q89 143 69.5 212 Q50 281 50 362 Q50 443 72 511.5 Q94 580 137 630 Q180 680 243.5 708.5 Q307 737 390 737 Q472 737 532 709 Q592 681 631.5 632 Q671 583 690 517 Q709 451 709 376 Q709 288 688 216.5 Q667 145 625 94 Q583 43 520.5 15.5 Q458 -12 375 -12 Z M380 69 Q431 69 474.5 86.5 Q518 104 549 141 Q580 178 597.5 234 Q615 290 615 367 Q615 439 599 493 Q583 547 553 583 Q523 619 481 637.5 Q439 656 387 656 Q334 656 290 637.5 Q246 619 214 582 Q182 545 164 490 Q146 435 146 363 Q146 289 163 234 Q180 179 210.5 142.5 Q241 106 284 87.5 Q327 69 380 69 Z M343 767 L277 780 L343 913 L450 913 L343 767 Z M472 767 L404 779 L503 917 L613 917 L472 767 Z " />
<glyph glyph-name="Omacron" unicode="&#x14c;" horiz-adv-x="759" d="M375 -12 Q291 -12 229.5 16 Q168 44 128.5 93.5 Q89 143 69.5 212 Q50 281 50 362 Q50 443 72 511.5 Q94 580 137 630 Q180 680 243.5 708.5 Q307 737 390 737 Q472 737 532 709 Q592 681 631.5 632 Q671 583 690 517 Q709 451 709 376 Q709 288 688 216.5 Q667 145 625 94 Q583 43 520.5 15.5 Q458 -12 375 -12 Z M380 69 Q431 69 474.5 86.5 Q518 104 549 141 Q580 178 597.5 234 Q615 290 615 367 Q615 439 599 493 Q583 547 553 583 Q523 619 481 637.5 Q439 656 387 656 Q334 656 290 637.5 Q246 619 214 582 Q182 545 164 490 Q146 435 146 363 Q146 289 163 234 Q180 179 210.5 142.5 Q241 106 284 87.5 Q327 69 380 69 Z M232 793 L232 864 L539 864 L539 793 L232 793 Z " />
<glyph glyph-name="Oslash" unicode="&#xd8;" horiz-adv-x="759" d="M375 -12 Q321 -12 278 0 L249 -72 L159 -72 L201 30 Q123 76 86.5 162.5 Q50 249 50 362 Q50 443 72 511.5 Q94 580 137 630 Q180 680 243.5 708.5 Q307 737 390 737 Q418 737 442.5 733.5 Q467 730 490 724 L520 794 L609 794 L566 690 Q639 644 674 561.5 Q709 479 709 376 Q709 288 688 216.5 Q667 145 625 94 Q583 43 520.5 15.5 Q458 -12 375 -12 Z M146 363 Q146 274 169.5 212.5 Q193 151 237 116 L458 646 Q441 651 423.5 653.5 Q406 656 387 656 Q334 656 290 637.5 Q246 619 214 582 Q182 545 164 490 Q146 435 146 363 Z M380 69 Q431 69 474.5 86.5 Q518 104 549 141 Q580 178 597.5 234 Q615 290 615 367 Q615 451 593 511 Q571 571 531 606 L311 78 Q342 69 380 69 Z " />
<glyph glyph-name="Oslashacute" unicode="&#x1fe;" horiz-adv-x="759" d="M375 -12 Q321 -12 278 0 L249 -72 L159 -72 L201 30 Q123 76 86.5 162.5 Q50 249 50 362 Q50 443 72 511.5 Q94 580 137 630 Q180 680 243.5 708.5 Q307 737 390 737 Q418 737 442.5 733.5 Q467 730 490 724 L520 794 L609 794 L566 690 Q639 644 674 561.5 Q709 479 709 376 Q709 288 688 216.5 Q667 145 625 94 Q583 43 520.5 15.5 Q458 -12 375 -12 Z M146 363 Q146 274 169.5 212.5 Q193 151 237 116 L458 646 Q441 651 423.5 653.5 Q406 656 387 656 Q334 656 290 637.5 Q246 619 214 582 Q182 545 164 490 Q146 435 146 363 Z M380 69 Q431 69 474.5 86.5 Q518 104 549 141 Q580 178 597.5 234 Q615 290 615 367 Q615 451 593 511 Q571 571 531 606 L311 78 Q342 69 380 69 Z M380 767 L311 779 L410 913 L520 913 L380 767 Z " />
<glyph glyph-name="Otilde" unicode="&#xd5;" horiz-adv-x="759" d="M375 -12 Q291 -12 229.5 16 Q168 44 128.5 93.5 Q89 143 69.5 212 Q50 281 50 362 Q50 443 72 511.5 Q94 580 137 630 Q180 680 243.5 708.5 Q307 737 390 737 Q472 737 532 709 Q592 681 631.5 632 Q671 583 690 517 Q709 451 709 376 Q709 288 688 216.5 Q667 145 625 94 Q583 43 520.5 15.5 Q458 -12 375 -12 Z M380 69 Q431 69 474.5 86.5 Q518 104 549 141 Q580 178 597.5 234 Q615 290 615 367 Q615 439 599 493 Q583 547 553 583 Q523 619 481 637.5 Q439 656 387 656 Q334 656 290 637.5 Q246 619 214 582 Q182 545 164 490 Q146 435 146 363 Q146 289 163 234 Q180 179 210.5 142.5 Q241 106 284 87.5 Q327 69 380 69 Z M310 904 Q334 904 354 897 Q374 890 392 881.5 Q410 873 427 866 Q444 859 461 859 Q480 859 489.5 868.5 Q499 878 499 910 L554 907 Q562 845 536.5 815.5 Q511 786 470 786 Q446 786 425.5 793 Q405 800 386.5 809 Q368 818 350.5 825 Q333 832 316 832 Q300 832 289.5 821 Q279 810 281 778 L225 781 Q221 813 226.5 836 Q232 859 244 874 Q256 889 273.5 896.5 Q291 904 310 904 Z " />
<glyph glyph-name="Racute" unicode="&#x154;" horiz-adv-x="625" d="M616 0 L516 0 L350 301 L187 301 L187 0 L96 0 L96 724 L344 724 Q411 724 456 707 Q501 690 528 662.5 Q555 635 566.5 599.5 Q578 564 578 527 Q578 445 539.5 396 Q501 347 438 325 L616 0 Z M322 378 Q358 378 387.5 384.5 Q417 391 438 407.5 Q459 424 471 452 Q483 480 483 522 Q483 559 471 583 Q459 607 437 621 Q415 635 383.5 640.5 Q352 646 313 646 L187 646 L187 378 L322 378 Z M303 767 L234 779 L333 913 L443 913 L303 767 Z " />
<glyph glyph-name="Rcaron" unicode="&#x158;" horiz-adv-x="625" d="M616 0 L516 0 L350 301 L187 301 L187 0 L96 0 L96 724 L344 724 Q411 724 456 707 Q501 690 528 662.5 Q555 635 566.5 599.5 Q578 564 578 527 Q578 445 539.5 396 Q501 347 438 325 L616 0 Z M322 378 Q358 378 387.5 384.5 Q417 391 438 407.5 Q459 424 471 452 Q483 480 483 522 Q483 559 471 583 Q459 607 437 621 Q415 635 383.5 640.5 Q352 646 313 646 L187 646 L187 378 L322 378 Z M308 828 L392 908 L462 899 L346 770 L267 770 L153 899 L223 906 L308 828 Z " />
<glyph glyph-name="Rcommaaccent" unicode="&#x156;" horiz-adv-x="625" d="M616 0 L516 0 L350 301 L187 301 L187 0 L96 0 L96 724 L344 724 Q411 724 456 707 Q501 690 528 662.5 Q555 635 566.5 599.5 Q578 564 578 527 Q578 445 539.5 396 Q501 347 438 325 L616 0 Z M322 378 Q358 378 387.5 384.5 Q417 391 438 407.5 Q459 424 471 452 Q483 480 483 522 Q483 559 471 583 Q459 607 437 621 Q415 635 383.5 640.5 Q352 646 313 646 L187 646 L187 378 L322 378 Z M283 -69 L380 -69 L312 -243 L244 -233 L283 -69 Z " />
<glyph glyph-name="Sacute" unicode="&#x15a;" horiz-adv-x="583" d="M299 659 Q257 659 228.5 650.5 Q200 642 182 626.5 Q164 611 156 590.5 Q148 570 148 546 Q148 513 162.5 491 Q177 469 201 453.5 Q225 438 256 427 Q287 416 321 406 Q361 394 400.5 380.5 Q440 367 471.5 344.5 Q503 322 522.5 287.5 Q542 253 542 201 Q542 144 521 103.5 Q500 63 464.5 37.5 Q429 12 382.5 0 Q336 -12 286 -12 Q173 -12 104.5 36.5 Q36 85 22 197 L110 210 Q116 181 127 155 Q138 129 158 109 Q178 89 209 77.5 Q240 66 287 66 Q316 66 345 71.5 Q374 77 397 91 Q420 105 434 128.5 Q448 152 448 188 Q448 222 434 244.5 Q420 267 396.5 282 Q373 297 342 307.5 Q311 318 278 327 Q238 338 198 351.5 Q158 365 126 387.5 Q94 410 74 445.5 Q54 481 54 537 Q54 583 72.5 620.5 Q91 658 123.5 683.5 Q156 709 200.5 723 Q245 737 298 737 Q346 737 387 727 Q428 717 459 693 Q490 669 510 630 Q530 591 536 533 L450 523 Q446 549 437.5 573.5 Q429 598 412.5 617 Q396 636 368.5 647.5 Q341 659 299 659 Z M292 767 L223 779 L322 913 L432 913 L292 767 Z " />
<glyph glyph-name="Scaron" unicode="&#x160;" horiz-adv-x="583" d="M299 659 Q257 659 228.5 650.5 Q200 642 182 626.5 Q164 611 156 590.5 Q148 570 148 546 Q148 513 162.5 491 Q177 469 201 453.5 Q225 438 256 427 Q287 416 321 406 Q361 394 400.5 380.5 Q440 367 471.5 344.5 Q503 322 522.5 287.5 Q542 253 542 201 Q542 144 521 103.5 Q500 63 464.5 37.5 Q429 12 382.5 0 Q336 -12 286 -12 Q173 -12 104.5 36.5 Q36 85 22 197 L110 210 Q116 181 127 155 Q138 129 158 109 Q178 89 209 77.5 Q240 66 287 66 Q316 66 345 71.5 Q374 77 397 91 Q420 105 434 128.5 Q448 152 448 188 Q448 222 434 244.5 Q420 267 396.5 282 Q373 297 342 307.5 Q311 318 278 327 Q238 338 198 351.5 Q158 365 126 387.5 Q94 410 74 445.5 Q54 481 54 537 Q54 583 72.5 620.5 Q91 658 123.5 683.5 Q156 709 200.5 723 Q245 737 298 737 Q346 737 387 727 Q428 717 459 693 Q490 669 510 630 Q530 591 536 533 L450 523 Q446 549 437.5 573.5 Q429 598 412.5 617 Q396 636 368.5 647.5 Q341 659 299 659 Z M297 828 L381 908 L451 899 L335 770 L256 770 L142 899 L212 906 L297 828 Z " />
<glyph glyph-name="Scedilla" unicode="&#x15e;" horiz-adv-x="583" d="M213 -161 Q222 -166 236.5 -171 Q251 -176 267 -176 Q292 -176 304.5 -163.5 Q317 -151 317 -131 Q317 -106 300 -95.5 Q283 -85 244 -84 L253 -11 Q153 -4 94 44.5 Q35 93 22 197 L110 210 Q116 181 127 155 Q138 129 158 109 Q178 89 209 77.5 Q240 66 287 66 Q316 66 345 71.5 Q374 77 397 91 Q420 105 434 128.5 Q448 152 448 188 Q448 222 434 244.5 Q420 267 396.5 282 Q373 297 342 307.5 Q311 318 278 327 Q238 338 198 351.5 Q158 365 126 387.5 Q94 410 74 445.5 Q54 481 54 537 Q54 583 72.5 620.5 Q91 658 123.5 683.5 Q156 709 200.5 723 Q245 737 298 737 Q346 737 387 727 Q428 717 459 693 Q490 669 510 630 Q530 591 536 533 L450 523 Q446 549 437.5 573.5 Q429 598 412.5 617 Q396 636 368.5 647.5 Q341 659 299 659 Q257 659 228.5 650.5 Q200 642 182 626.5 Q164 611 156 590.5 Q148 570 148 546 Q148 513 162.5 491 Q177 469 201 453.5 Q225 438 256 427 Q287 416 321 406 Q361 394 400.5 380.5 Q440 367 471.5 344.5 Q503 322 522.5 287.5 Q542 253 542 201 Q542 147 523.5 108.5 Q505 70 473.5 44.5 Q442 19 400 5.5 Q358 -8 312 -11 L308 -44 Q339 -50 363 -69.5 Q387 -89 387 -132 Q387 -179 355.5 -205.5 Q324 -232 277 -232 Q250 -232 230.5 -226 Q211 -220 199 -213 L213 -161 Z " />
<glyph glyph-name="Scircumflex" unicode="&#x15c;" horiz-adv-x="583" d="M299 659 Q257 659 228.5 650.5 Q200 642 182 626.5 Q164 611 156 590.5 Q148 570 148 546 Q148 513 162.5 491 Q177 469 201 453.5 Q225 438 256 427 Q287 416 321 406 Q361 394 400.5 380.5 Q440 367 471.5 344.5 Q503 322 522.5 287.5 Q542 253 542 201 Q542 144 521 103.5 Q500 63 464.5 37.5 Q429 12 382.5 0 Q336 -12 286 -12 Q173 -12 104.5 36.5 Q36 85 22 197 L110 210 Q116 181 127 155 Q138 129 158 109 Q178 89 209 77.5 Q240 66 287 66 Q316 66 345 71.5 Q374 77 397 91 Q420 105 434 128.5 Q448 152 448 188 Q448 222 434 244.5 Q420 267 396.5 282 Q373 297 342 307.5 Q311 318 278 327 Q238 338 198 351.5 Q158 365 126 387.5 Q94 410 74 445.5 Q54 481 54 537 Q54 583 72.5 620.5 Q91 658 123.5 683.5 Q156 709 200.5 723 Q245 737 298 737 Q346 737 387 727 Q428 717 459 693 Q490 669 510 630 Q530 591 536 533 L450 523 Q446 549 437.5 573.5 Q429 598 412.5 617 Q396 636 368.5 647.5 Q341 659 299 659 Z M298 847 L214 767 L144 776 L260 905 L339 905 L453 776 L383 769 L298 847 Z " />
<glyph glyph-name="Scommaaccent" unicode="&#x218;" horiz-adv-x="583" d="M299 659 Q257 659 228.5 650.5 Q200 642 182 626.5 Q164 611 156 590.5 Q148 570 148 546 Q148 513 162.5 491 Q177 469 201 453.5 Q225 438 256 427 Q287 416 321 406 Q361 394 400.5 380.5 Q440 367 471.5 344.5 Q503 322 522.5 287.5 Q542 253 542 201 Q542 144 521 103.5 Q500 63 464.5 37.5 Q429 12 382.5 0 Q336 -12 286 -12 Q173 -12 104.5 36.5 Q36 85 22 197 L110 210 Q116 181 127 155 Q138 129 158 109 Q178 89 209 77.5 Q240 66 287 66 Q316 66 345 71.5 Q374 77 397 91 Q420 105 434 128.5 Q448 152 448 188 Q448 222 434 244.5 Q420 267 396.5 282 Q373 297 342 307.5 Q311 318 278 327 Q238 338 198 351.5 Q158 365 126 387.5 Q94 410 74 445.5 Q54 481 54 537 Q54 583 72.5 620.5 Q91 658 123.5 683.5 Q156 709 200.5 723 Q245 737 298 737 Q346 737 387 727 Q428 717 459 693 Q490 669 510 630 Q530 591 536 533 L450 523 Q446 549 437.5 573.5 Q429 598 412.5 617 Q396 636 368.5 647.5 Q341 659 299 659 Z M243 -69 L340 -69 L272 -243 L204 -233 L243 -69 Z " />
<glyph glyph-name="Tbar" unicode="&#x166;" horiz-adv-x="554" d="M232 0 L232 328 L91 328 L91 401 L232 401 L232 644 L13 644 L13 724 L541 724 L541 644 L324 644 L324 401 L463 401 L463 328 L324 328 L324 0 L232 0 Z " />
<glyph glyph-name="Tcaron" unicode="&#x164;" horiz-adv-x="554" d="M232 0 L232 644 L13 644 L13 724 L541 724 L541 644 L324 644 L324 0 L232 0 Z M277 828 L361 908 L431 899 L315 770 L236 770 L122 899 L192 906 L277 828 Z " />
<glyph glyph-name="uni0162" unicode="&#x162;" horiz-adv-x="554" d="M204 -161 Q213 -166 227.5 -171 Q242 -176 258 -176 Q283 -176 295.5 -163.5 Q308 -151 308 -131 Q308 -106 291 -95.5 Q274 -85 235 -84 L246 0 L232 0 L232 644 L13 644 L13 724 L541 724 L541 644 L324 644 L324 0 L305 0 L299 -44 Q330 -50 354 -69.5 Q378 -89 378 -132 Q378 -179 346.5 -205.5 Q315 -232 268 -232 Q241 -232 221.5 -226 Q202 -220 190 -213 L204 -161 Z " />
<glyph glyph-name="uni021A" unicode="&#x21a;" horiz-adv-x="554" d="M232 0 L232 644 L13 644 L13 724 L541 724 L541 644 L324 644 L324 0 L232 0 Z M235 -69 L332 -69 L264 -243 L196 -233 L235 -69 Z " />
<glyph glyph-name="Uacute" unicode="&#xda;" horiz-adv-x="714" d="M358 68 Q445 68 488.5 108.5 Q532 149 532 251 L532 724 L623 724 L623 243 Q623 112 553 50 Q483 -12 354 -12 Q214 -12 152 53 Q90 118 90 245 L90 724 L182 724 L182 254 Q182 153 226.5 110.5 Q271 68 358 68 Z M351 767 L282 779 L381 913 L491 913 L351 767 Z " />
<glyph glyph-name="Ubreve" unicode="&#x16c;" horiz-adv-x="714" d="M358 68 Q445 68 488.5 108.5 Q532 149 532 251 L532 724 L623 724 L623 243 Q623 112 553 50 Q483 -12 354 -12 Q214 -12 152 53 Q90 118 90 245 L90 724 L182 724 L182 254 Q182 153 226.5 110.5 Q271 68 358 68 Z M358 842 Q393 842 414 857 Q435 872 443 914 L509 908 Q502 844 463 811 Q424 778 355 778 Q289 778 253.5 809.5 Q218 841 212 907 L279 914 Q287 873 305 857.5 Q323 842 358 842 Z " />
<glyph glyph-name="Ucircumflex" unicode="&#xdb;" horiz-adv-x="714" d="M358 68 Q445 68 488.5 108.5 Q532 149 532 251 L532 724 L623 724 L623 243 Q623 112 553 50 Q483 -12 354 -12 Q214 -12 152 53 Q90 118 90 245 L90 724 L182 724 L182 254 Q182 153 226.5 110.5 Q271 68 358 68 Z M357 847 L273 767 L203 776 L319 905 L398 905 L512 776 L442 769 L357 847 Z " />
<glyph glyph-name="Udieresis" unicode="&#xdc;" horiz-adv-x="714" d="M358 68 Q445 68 488.5 108.5 Q532 149 532 251 L532 724 L623 724 L623 243 Q623 112 553 50 Q483 -12 354 -12 Q214 -12 152 53 Q90 118 90 245 L90 724 L182 724 L182 254 Q182 153 226.5 110.5 Q271 68 358 68 Z M315 841 Q315 812 298 796 Q281 780 253 780 Q224 780 206.5 796 Q189 812 189 841 Q189 870 206.5 886.5 Q224 903 253 903 Q281 903 298 886.5 Q315 870 315 841 Z M525 841 Q525 812 508 796 Q491 780 462 780 Q433 780 416 796 Q399 812 399 841 Q399 870 416 886.5 Q433 903 462 903 Q491 903 508 886.5 Q525 870 525 841 Z " />
<glyph glyph-name="Ugrave" unicode="&#xd9;" horiz-adv-x="714" d="M358 68 Q445 68 488.5 108.5 Q532 149 532 251 L532 724 L623 724 L623 243 Q623 112 553 50 Q483 -12 354 -12 Q214 -12 152 53 Q90 118 90 245 L90 724 L182 724 L182 254 Q182 153 226.5 110.5 Q271 68 358 68 Z M227 913 L337 913 L436 779 L367 767 L227 913 Z " />
<glyph glyph-name="Uhungarumlaut" unicode="&#x170;" horiz-adv-x="714" d="M358 68 Q445 68 488.5 108.5 Q532 149 532 251 L532 724 L623 724 L623 243 Q623 112 553 50 Q483 -12 354 -12 Q214 -12 152 53 Q90 118 90 245 L90 724 L182 724 L182 254 Q182 153 226.5 110.5 Q271 68 358 68 Z M308 767 L242 780 L308 913 L415 913 L308 767 Z M437 767 L369 779 L468 917 L578 917 L437 767 Z " />
<glyph glyph-name="Umacron" unicode="&#x16a;" horiz-adv-x="714" d="M358 68 Q445 68 488.5 108.5 Q532 149 532 251 L532 724 L623 724 L623 243 Q623 112 553 50 Q483 -12 354 -12 Q214 -12 152 53 Q90 118 90 245 L90 724 L182 724 L182 254 Q182 153 226.5 110.5 Q271 68 358 68 Z M203 793 L203 864 L510 864 L510 793 L203 793 Z " />
<glyph glyph-name="Uogonek" unicode="&#x172;" horiz-adv-x="714" d="M533 -147 Q516 -188 483 -208 Q450 -228 415 -228 Q370 -228 342.5 -205 Q315 -182 315 -139 Q315 -99 336.5 -67.5 Q358 -36 386 -11 Q378 -11 370 -11.5 Q362 -12 354 -12 Q214 -12 152 53 Q90 118 90 245 L90 724 L182 724 L182 254 Q182 153 226.5 110.5 Q271 68 358 68 Q445 68 488.5 108.5 Q532 149 532 251 L532 724 L623 724 L623 243 Q623 197 614 161.5 Q605 126 588.5 98 Q572 70 547.5 48.5 Q523 27 493 8 Q447 -21 420 -54.5 Q393 -88 393 -124 Q393 -162 431 -162 Q463 -162 485 -123 L533 -147 Z " />
<glyph glyph-name="Uring" unicode="&#x16e;" horiz-adv-x="714" d="M358 68 Q445 68 488.5 108.5 Q532 149 532 251 L532 724 L623 724 L623 243 Q623 112 553 50 Q483 -12 354 -12 Q214 -12 152 53 Q90 118 90 245 L90 724 L182 724 L182 254 Q182 153 226.5 110.5 Q271 68 358 68 Z M464 833 Q464 784 434.5 757.5 Q405 731 356 731 Q308 731 279 756.5 Q250 782 250 828 Q250 881 281.5 907 Q313 933 356 933 Q401 933 432.5 908.5 Q464 884 464 833 Z M356 781 Q381 781 393.5 795 Q406 809 406 834 Q406 882 356 882 Q334 882 319.5 869.5 Q305 857 305 831 Q305 781 356 781 Z " />
<glyph glyph-name="Utilde" unicode="&#x168;" horiz-adv-x="714" d="M358 68 Q445 68 488.5 108.5 Q532 149 532 251 L532 724 L623 724 L623 243 Q623 112 553 50 Q483 -12 354 -12 Q214 -12 152 53 Q90 118 90 245 L90 724 L182 724 L182 254 Q182 153 226.5 110.5 Q271 68 358 68 Z M281 904 Q305 904 325 897 Q345 890 363 881.5 Q381 873 398 866 Q415 859 432 859 Q451 859 460.5 868.5 Q470 878 470 910 L525 907 Q533 845 507.5 815.5 Q482 786 441 786 Q417 786 396.5 793 Q376 800 357.5 809 Q339 818 321.5 825 Q304 832 287 832 Q271 832 260.5 821 Q250 810 252 778 L196 781 Q192 813 197.5 836 Q203 859 215 874 Q227 889 244.5 896.5 Q262 904 281 904 Z " />
<glyph glyph-name="Wacute" unicode="&#x1e82;" horiz-adv-x="888" d="M602 0 L448 595 L447 595 L289 0 L175 0 L17 724 L113 724 L237 108 L238 108 L398 724 L500 724 L660 100 L661 100 L780 724 L872 724 L719 0 L602 0 Z M445 767 L376 779 L475 913 L585 913 L445 767 Z " />
<glyph glyph-name="Wcircumflex" unicode="&#x174;" horiz-adv-x="888" d="M602 0 L448 595 L447 595 L289 0 L175 0 L17 724 L113 724 L237 108 L238 108 L398 724 L500 724 L660 100 L661 100 L780 724 L872 724 L719 0 L602 0 Z M449 847 L365 767 L295 776 L411 905 L490 905 L604 776 L534 769 L449 847 Z " />
<glyph glyph-name="Wdieresis" unicode="&#x1e84;" horiz-adv-x="888" d="M602 0 L448 595 L447 595 L289 0 L175 0 L17 724 L113 724 L237 108 L238 108 L398 724 L500 724 L660 100 L661 100 L780 724 L872 724 L719 0 L602 0 Z M407 841 Q407 812 390 796 Q373 780 345 780 Q316 780 298.5 796 Q281 812 281 841 Q281 870 298.5 886.5 Q316 903 345 903 Q373 903 390 886.5 Q407 870 407 841 Z M617 841 Q617 812 600 796 Q583 780 554 780 Q525 780 508 796 Q491 812 491 841 Q491 870 508 886.5 Q525 903 554 903 Q583 903 600 886.5 Q617 870 617 841 Z " />
<glyph glyph-name="Wgrave" unicode="&#x1e80;" horiz-adv-x="888" d="M602 0 L448 595 L447 595 L289 0 L175 0 L17 724 L113 724 L237 108 L238 108 L398 724 L500 724 L660 100 L661 100 L780 724 L872 724 L719 0 L602 0 Z M304 913 L414 913 L513 779 L444 767 L304 913 Z " />
<glyph glyph-name="Yacute" unicode="&#xdd;" horiz-adv-x="566" d="M334 0 L242 0 L242 280 L-5 724 L99 724 L289 371 L291 371 L476 724 L571 724 L334 282 L334 0 Z M283 767 L214 779 L313 913 L423 913 L283 767 Z " />
<glyph glyph-name="Ycircumflex" unicode="&#x176;" horiz-adv-x="566" d="M334 0 L242 0 L242 280 L-5 724 L99 724 L289 371 L291 371 L476 724 L571 724 L334 282 L334 0 Z M289 847 L205 767 L135 776 L251 905 L330 905 L444 776 L374 769 L289 847 Z " />
<glyph glyph-name="Ydieresis" unicode="&#x178;" horiz-adv-x="566" d="M334 0 L242 0 L242 280 L-5 724 L99 724 L289 371 L291 371 L476 724 L571 724 L334 282 L334 0 Z M247 841 Q247 812 230 796 Q213 780 185 780 Q156 780 138.5 796 Q121 812 121 841 Q121 870 138.5 886.5 Q156 903 185 903 Q213 903 230 886.5 Q247 870 247 841 Z M457 841 Q457 812 440 796 Q423 780 394 780 Q365 780 348 796 Q331 812 331 841 Q331 870 348 886.5 Q365 903 394 903 Q423 903 440 886.5 Q457 870 457 841 Z " />
<glyph glyph-name="Ygrave" unicode="&#x1ef2;" horiz-adv-x="566" d="M334 0 L242 0 L242 280 L-5 724 L99 724 L289 371 L291 371 L476 724 L571 724 L334 282 L334 0 Z M151 913 L261 913 L360 779 L291 767 L151 913 Z " />
<glyph glyph-name="Zacute" unicode="&#x179;" horiz-adv-x="588" d="M146 80 L547 80 L547 0 L34 0 L34 68 L421 644 L45 644 L45 724 L531 724 L531 654 L146 80 Z M281 767 L212 779 L311 913 L421 913 L281 767 Z " />
<glyph glyph-name="Zcaron" unicode="&#x17d;" horiz-adv-x="588" d="M146 80 L547 80 L547 0 L34 0 L34 68 L421 644 L45 644 L45 724 L531 724 L531 654 L146 80 Z M286 828 L370 908 L440 899 L324 770 L245 770 L131 899 L201 906 L286 828 Z " />
<glyph glyph-name="Zdotaccent" unicode="&#x17b;" horiz-adv-x="588" d="M146 80 L547 80 L547 0 L34 0 L34 68 L421 644 L45 644 L45 724 L531 724 L531 654 L146 80 Z M350 845 Q350 814 333.5 797 Q317 780 286 780 Q255 780 238 797 Q221 814 221 845 Q221 877 238 894 Q255 911 286 911 Q317 911 333.5 894 Q350 877 350 845 Z " />
<glyph glyph-name="aacute" unicode="&#xe1;" horiz-adv-x="545" d="M457 97 Q457 76 462.5 66.5 Q468 57 488 57 Q499 57 519 63 L523 6 Q491 -10 452 -10 Q414 -10 395.5 8 Q377 26 373 51 Q343 21 302.5 4.5 Q262 -12 208 -12 Q159 -12 129.5 2.5 Q100 17 83.5 38 Q67 59 61.5 83 Q56 107 56 126 Q56 177 77 211 Q98 245 134.5 265 Q171 285 219.5 293 Q268 301 322 301 Q334 301 345 300.5 Q356 300 367 299 L367 349 Q367 373 363 392.5 Q359 412 347.5 425.5 Q336 439 316 446.5 Q296 454 265 454 Q212 454 188 433 Q164 412 156 369 L76 384 Q88 456 135.5 490.5 Q183 525 273 525 Q368 525 412.5 484.5 Q457 444 457 348 L457 97 Z M368 233 Q347 236 316 236 Q289 236 260 233.5 Q231 231 206.5 221.5 Q182 212 166 193 Q150 174 150 141 Q150 124 153.5 109.5 Q157 95 166.5 83.5 Q176 72 193 65.5 Q210 59 236 59 Q276 59 311.5 76.5 Q347 94 368 117 L368 233 Z M255 572 L189 584 L286 747 L395 747 L255 572 Z " />
<glyph glyph-name="abreve" unicode="&#x103;" horiz-adv-x="545" d="M457 97 Q457 76 462.5 66.5 Q468 57 488 57 Q499 57 519 63 L523 6 Q491 -10 452 -10 Q414 -10 395.5 8 Q377 26 373 51 Q343 21 302.5 4.5 Q262 -12 208 -12 Q159 -12 129.5 2.5 Q100 17 83.5 38 Q67 59 61.5 83 Q56 107 56 126 Q56 177 77 211 Q98 245 134.5 265 Q171 285 219.5 293 Q268 301 322 301 Q334 301 345 300.5 Q356 300 367 299 L367 349 Q367 373 363 392.5 Q359 412 347.5 425.5 Q336 439 316 446.5 Q296 454 265 454 Q212 454 188 433 Q164 412 156 369 L76 384 Q88 456 135.5 490.5 Q183 525 273 525 Q368 525 412.5 484.5 Q457 444 457 348 L457 97 Z M368 233 Q347 236 316 236 Q289 236 260 233.5 Q231 231 206.5 221.5 Q182 212 166 193 Q150 174 150 141 Q150 124 153.5 109.5 Q157 95 166.5 83.5 Q176 72 193 65.5 Q210 59 236 59 Q276 59 311.5 76.5 Q347 94 368 117 L368 233 Z M428 727 Q426 652 386.5 612 Q347 572 272 572 Q201 572 164 609 Q127 646 125 724 L192 733 Q197 677 216.5 656.5 Q236 636 275 636 Q316 636 337.5 656.5 Q359 677 363 732 L428 727 Z " />
<glyph glyph-name="acircumflex" unicode="&#xe2;" horiz-adv-x="545" d="M457 97 Q457 76 462.5 66.5 Q468 57 488 57 Q499 57 519 63 L523 6 Q491 -10 452 -10 Q414 -10 395.5 8 Q377 26 373 51 Q343 21 302.5 4.5 Q262 -12 208 -12 Q159 -12 129.5 2.5 Q100 17 83.5 38 Q67 59 61.5 83 Q56 107 56 126 Q56 177 77 211 Q98 245 134.5 265 Q171 285 219.5 293 Q268 301 322 301 Q334 301 345 300.5 Q356 300 367 299 L367 349 Q367 373 363 392.5 Q359 412 347.5 425.5 Q336 439 316 446.5 Q296 454 265 454 Q212 454 188 433 Q164 412 156 369 L76 384 Q88 456 135.5 490.5 Q183 525 273 525 Q368 525 412.5 484.5 Q457 444 457 348 L457 97 Z M368 233 Q347 236 316 236 Q289 236 260 233.5 Q231 231 206.5 221.5 Q182 212 166 193 Q150 174 150 141 Q150 124 153.5 109.5 Q157 95 166.5 83.5 Q176 72 193 65.5 Q210 59 236 59 Q276 59 311.5 76.5 Q347 94 368 117 L368 233 Z M361 577 L272 690 L184 576 L116 583 L228 748 L317 748 L430 583 L361 577 Z " />
<glyph glyph-name="adieresis" unicode="&#xe4;" horiz-adv-x="545" d="M457 97 Q457 76 462.5 66.5 Q468 57 488 57 Q499 57 519 63 L523 6 Q491 -10 452 -10 Q414 -10 395.5 8 Q377 26 373 51 Q343 21 302.5 4.5 Q262 -12 208 -12 Q159 -12 129.5 2.5 Q100 17 83.5 38 Q67 59 61.5 83 Q56 107 56 126 Q56 177 77 211 Q98 245 134.5 265 Q171 285 219.5 293 Q268 301 322 301 Q334 301 345 300.5 Q356 300 367 299 L367 349 Q367 373 363 392.5 Q359 412 347.5 425.5 Q336 439 316 446.5 Q296 454 265 454 Q212 454 188 433 Q164 412 156 369 L76 384 Q88 456 135.5 490.5 Q183 525 273 525 Q368 525 412.5 484.5 Q457 444 457 348 L457 97 Z M368 233 Q347 236 316 236 Q289 236 260 233.5 Q231 231 206.5 221.5 Q182 212 166 193 Q150 174 150 141 Q150 124 153.5 109.5 Q157 95 166.5 83.5 Q176 72 193 65.5 Q210 59 236 59 Q276 59 311.5 76.5 Q347 94 368 117 L368 233 Z M230 672 Q230 643 213 626.5 Q196 610 168 610 Q139 610 121.5 626.5 Q104 643 104 672 Q104 700 121.5 716.5 Q139 733 168 733 Q196 733 213 716.5 Q230 700 230 672 Z M440 672 Q440 643 423 626.5 Q406 610 377 610 Q348 610 331 626.5 Q314 643 314 672 Q314 700 331 716.5 Q348 733 377 733 Q406 733 423 716.5 Q440 700 440 672 Z " />
<glyph glyph-name="aeacute" unicode="&#x1fd;" horiz-adv-x="859" d="M598 -12 Q529 -12 485.5 8.5 Q442 29 416 66 Q373 24 319 6 Q265 -12 216 -12 Q165 -12 133.5 2.5 Q102 17 84.5 38 Q67 59 61.5 83 Q56 107 56 126 Q56 177 76 210.5 Q96 244 130.5 264 Q165 284 210.5 292 Q256 300 307 301 Q321 301 337 301 Q353 301 367 300 L367 349 Q367 373 362.5 392.5 Q358 412 346.5 425.5 Q335 439 315 446.5 Q295 454 264 454 Q212 454 188 433 Q164 412 156 369 L76 384 Q88 458 136 491.5 Q184 525 271 525 Q337 525 373 504 Q409 483 427 438 Q459 482 505 503.5 Q551 525 608 525 Q661 525 699 507 Q737 489 761 458 Q785 427 796.5 384.5 Q808 342 808 294 Q808 280 807 263.5 Q806 247 804 232 L458 232 Q459 181 470.5 148.5 Q482 116 501 97.5 Q520 79 546.5 71.5 Q573 64 604 64 Q658 64 684.5 87.5 Q711 111 722 155 L803 137 Q787 62 731.5 25 Q676 -12 598 -12 Z M237 59 Q279 59 317.5 76 Q356 93 385 124 Q376 150 372 177.5 Q368 205 367 236 Q353 237 338 237 Q323 237 308 237 Q277 237 248.5 232.5 Q220 228 198 217.5 Q176 207 163 188.5 Q150 170 150 140 Q150 124 153.5 109.5 Q157 95 166.5 83.5 Q176 72 193 65.5 Q210 59 237 59 Z M714 301 Q716 372 687.5 411.5 Q659 451 597 451 Q571 451 547.5 442 Q524 433 505 415 Q486 397 473.5 368.5 Q461 340 459 301 L714 301 Z M438 572 L372 584 L469 747 L578 747 L438 572 Z " />
<glyph glyph-name="agrave" unicode="&#xe0;" horiz-adv-x="545" d="M457 97 Q457 76 462.5 66.5 Q468 57 488 57 Q499 57 519 63 L523 6 Q491 -10 452 -10 Q414 -10 395.5 8 Q377 26 373 51 Q343 21 302.5 4.5 Q262 -12 208 -12 Q159 -12 129.5 2.5 Q100 17 83.5 38 Q67 59 61.5 83 Q56 107 56 126 Q56 177 77 211 Q98 245 134.5 265 Q171 285 219.5 293 Q268 301 322 301 Q334 301 345 300.5 Q356 300 367 299 L367 349 Q367 373 363 392.5 Q359 412 347.5 425.5 Q336 439 316 446.5 Q296 454 265 454 Q212 454 188 433 Q164 412 156 369 L76 384 Q88 456 135.5 490.5 Q183 525 273 525 Q368 525 412.5 484.5 Q457 444 457 348 L457 97 Z M368 233 Q347 236 316 236 Q289 236 260 233.5 Q231 231 206.5 221.5 Q182 212 166 193 Q150 174 150 141 Q150 124 153.5 109.5 Q157 95 166.5 83.5 Q176 72 193 65.5 Q210 59 236 59 Q276 59 311.5 76.5 Q347 94 368 117 L368 233 Z M153 747 L262 747 L359 584 L293 572 L153 747 Z " />
<glyph glyph-name="amacron" unicode="&#x101;" horiz-adv-x="545" d="M457 97 Q457 76 462.5 66.5 Q468 57 488 57 Q499 57 519 63 L523 6 Q491 -10 452 -10 Q414 -10 395.5 8 Q377 26 373 51 Q343 21 302.5 4.5 Q262 -12 208 -12 Q159 -12 129.5 2.5 Q100 17 83.5 38 Q67 59 61.5 83 Q56 107 56 126 Q56 177 77 211 Q98 245 134.5 265 Q171 285 219.5 293 Q268 301 322 301 Q334 301 345 300.5 Q356 300 367 299 L367 349 Q367 373 363 392.5 Q359 412 347.5 425.5 Q336 439 316 446.5 Q296 454 265 454 Q212 454 188 433 Q164 412 156 369 L76 384 Q88 456 135.5 490.5 Q183 525 273 525 Q368 525 412.5 484.5 Q457 444 457 348 L457 97 Z M368 233 Q347 236 316 236 Q289 236 260 233.5 Q231 231 206.5 221.5 Q182 212 166 193 Q150 174 150 141 Q150 124 153.5 109.5 Q157 95 166.5 83.5 Q176 72 193 65.5 Q210 59 236 59 Q276 59 311.5 76.5 Q347 94 368 117 L368 233 Z M127 625 L127 696 L418 696 L418 625 L127 625 Z " />
<glyph glyph-name="aogonek" unicode="&#x105;" horiz-adv-x="545" d="M544 -147 Q527 -188 494 -208 Q461 -228 426 -228 Q381 -228 353.5 -205 Q326 -182 326 -139 Q326 -117 333 -97.5 Q340 -78 352 -60.5 Q364 -43 379 -28.5 Q394 -14 409 -1 Q392 7 383.5 20.5 Q375 34 373 51 Q343 21 302.5 4.5 Q262 -12 208 -12 Q159 -12 129.5 2.5 Q100 17 83.5 38 Q67 59 61.5 83 Q56 107 56 126 Q56 177 77 211 Q98 245 134.5 265 Q171 285 219.5 293 Q268 301 322 301 Q334 301 345 300.5 Q356 300 367 299 L367 349 Q367 373 363 392.5 Q359 412 347.5 425.5 Q336 439 316 446.5 Q296 454 265 454 Q212 454 188 433 Q164 412 156 369 L76 384 Q88 456 135.5 490.5 Q183 525 273 525 Q368 525 412.5 484.5 Q457 444 457 348 L457 97 Q457 76 462.5 66.5 Q468 57 488 57 Q499 57 519 63 L523 6 Q500 0 478.5 -14 Q457 -28 440.5 -47 Q424 -66 414 -86 Q404 -106 404 -124 Q404 -162 442 -162 Q474 -162 496 -123 L544 -147 Z M368 233 Q347 236 316 236 Q289 236 260 233.5 Q231 231 206.5 221.5 Q182 212 166 193 Q150 174 150 141 Q150 124 153.5 109.5 Q157 95 166.5 83.5 Q176 72 193 65.5 Q210 59 236 59 Q276 59 311.5 76.5 Q347 94 368 117 L368 233 Z " />
<glyph glyph-name="aring" unicode="&#xe5;" horiz-adv-x="545" d="M457 97 Q457 76 462.5 66.5 Q468 57 488 57 Q499 57 519 63 L523 6 Q491 -10 452 -10 Q414 -10 395.5 8 Q377 26 373 51 Q343 21 302.5 4.5 Q262 -12 208 -12 Q159 -12 129.5 2.5 Q100 17 83.5 38 Q67 59 61.5 83 Q56 107 56 126 Q56 177 77 211 Q98 245 134.5 265 Q171 285 219.5 293 Q268 301 322 301 Q334 301 345 300.5 Q356 300 367 299 L367 349 Q367 373 363 392.5 Q359 412 347.5 425.5 Q336 439 316 446.5 Q296 454 265 454 Q212 454 188 433 Q164 412 156 369 L76 384 Q88 456 135.5 490.5 Q183 525 273 525 Q368 525 412.5 484.5 Q457 444 457 348 L457 97 Z M368 233 Q347 236 316 236 Q289 236 260 233.5 Q231 231 206.5 221.5 Q182 212 166 193 Q150 174 150 141 Q150 124 153.5 109.5 Q157 95 166.5 83.5 Q176 72 193 65.5 Q210 59 236 59 Q276 59 311.5 76.5 Q347 94 368 117 L368 233 Z M379 674 Q379 626 350 599.5 Q321 573 272 573 Q224 573 195.5 598.5 Q167 624 167 670 Q167 722 198.5 747.5 Q230 773 272 773 Q317 773 348 749 Q379 725 379 674 Z M272 623 Q296 623 308.5 637 Q321 651 321 674 Q321 722 272 722 Q251 722 236.5 709.5 Q222 697 222 672 Q222 623 272 623 Z " />
<glyph glyph-name="aringacute" unicode="&#x1fb;" horiz-adv-x="545" d="M457 97 Q457 76 462.5 66.5 Q468 57 488 57 Q499 57 519 63 L523 6 Q491 -10 452 -10 Q414 -10 395.5 8 Q377 26 373 51 Q343 21 302.5 4.5 Q262 -12 208 -12 Q159 -12 129.5 2.5 Q100 17 83.5 38 Q67 59 61.5 83 Q56 107 56 126 Q56 177 77 211 Q98 245 134.5 265 Q171 285 219.5 293 Q268 301 322 301 Q334 301 345 300.5 Q356 300 367 299 L367 349 Q367 373 363 392.5 Q359 412 347.5 425.5 Q336 439 316 446.5 Q296 454 265 454 Q212 454 188 433 Q164 412 156 369 L76 384 Q88 456 135.5 490.5 Q183 525 273 525 Q368 525 412.5 484.5 Q457 444 457 348 L457 97 Z M368 233 Q347 236 316 236 Q289 236 260 233.5 Q231 231 206.5 221.5 Q182 212 166 193 Q150 174 150 141 Q150 124 153.5 109.5 Q157 95 166.5 83.5 Q176 72 193 65.5 Q210 59 236 59 Q276 59 311.5 76.5 Q347 94 368 117 L368 233 Z M379 665 Q379 617 350 590.5 Q321 564 272 564 Q224 564 195.5 589.5 Q167 615 167 661 Q167 713 198.5 738.5 Q230 764 272 764 Q317 764 348 740 Q379 716 379 665 Z M272 614 Q296 614 308.5 628 Q321 642 321 665 Q321 713 272 713 Q251 713 236.5 700.5 Q222 688 222 663 Q222 614 272 614 Z M253 789 L184 801 L283 935 L393 935 L253 789 Z " />
<glyph glyph-name="atilde" unicode="&#xe3;" horiz-adv-x="545" d="M457 97 Q457 76 462.5 66.5 Q468 57 488 57 Q499 57 519 63 L523 6 Q491 -10 452 -10 Q414 -10 395.5 8 Q377 26 373 51 Q343 21 302.5 4.5 Q262 -12 208 -12 Q159 -12 129.5 2.5 Q100 17 83.5 38 Q67 59 61.5 83 Q56 107 56 126 Q56 177 77 211 Q98 245 134.5 265 Q171 285 219.5 293 Q268 301 322 301 Q334 301 345 300.5 Q356 300 367 299 L367 349 Q367 373 363 392.5 Q359 412 347.5 425.5 Q336 439 316 446.5 Q296 454 265 454 Q212 454 188 433 Q164 412 156 369 L76 384 Q88 456 135.5 490.5 Q183 525 273 525 Q368 525 412.5 484.5 Q457 444 457 348 L457 97 Z M368 233 Q347 236 316 236 Q289 236 260 233.5 Q231 231 206.5 221.5 Q182 212 166 193 Q150 174 150 141 Q150 124 153.5 109.5 Q157 95 166.5 83.5 Q176 72 193 65.5 Q210 59 236 59 Q276 59 311.5 76.5 Q347 94 368 117 L368 233 Z M192 716 Q216 716 236 709 Q256 702 274 693 Q292 684 309 677 Q326 670 343 670 Q362 670 371.5 679.5 Q381 689 381 721 L436 719 Q440 688 435 665 Q430 642 418 627 Q406 612 389 604.5 Q372 597 352 597 Q328 597 307.5 604 Q287 611 268.5 620 Q250 629 232.5 636 Q215 643 198 643 Q182 643 171.5 632.5 Q161 622 163 589 L107 592 Q103 623 109 646.5 Q115 670 127 685.5 Q139 701 156 708.5 Q173 716 192 716 Z " />
<glyph glyph-name="cacute" unicode="&#x107;" horiz-adv-x="538" d="M285 -12 Q221 -12 176.5 7.5 Q132 27 103.5 62 Q75 97 62 145.5 Q49 194 49 252 Q49 387 114 456 Q179 525 295 525 Q381 525 434.5 480 Q488 435 493 346 L406 334 Q400 391 372.5 420 Q345 449 291 449 Q263 449 236.5 440.5 Q210 432 189.5 411 Q169 390 156.5 354 Q144 318 144 263 Q144 206 155 167.5 Q166 129 185.5 106 Q205 83 231 73.5 Q257 64 288 64 Q341 64 373.5 90.5 Q406 117 416 174 L496 157 Q490 112 470.5 80 Q451 48 422.5 27.5 Q394 7 359 -2.5 Q324 -12 285 -12 Z M277 572 L211 584 L308 747 L417 747 L277 572 Z " />
<glyph glyph-name="ccaron" unicode="&#x10d;" horiz-adv-x="538" d="M285 -12 Q221 -12 176.5 7.5 Q132 27 103.5 62 Q75 97 62 145.5 Q49 194 49 252 Q49 387 114 456 Q179 525 295 525 Q381 525 434.5 480 Q488 435 493 346 L406 334 Q400 391 372.5 420 Q345 449 291 449 Q263 449 236.5 440.5 Q210 432 189.5 411 Q169 390 156.5 354 Q144 318 144 263 Q144 206 155 167.5 Q166 129 185.5 106 Q205 83 231 73.5 Q257 64 288 64 Q341 64 373.5 90.5 Q406 117 416 174 L496 157 Q490 112 470.5 80 Q451 48 422.5 27.5 Q394 7 359 -2.5 Q324 -12 285 -12 Z M208 742 L295 630 L384 744 L450 737 L338 572 L249 572 L136 737 L208 742 Z " />
<glyph glyph-name="ccedilla" unicode="&#xe7;" horiz-adv-x="538" d="M212 -161 Q221 -166 236 -171 Q251 -176 268 -176 Q291 -176 303.5 -163.5 Q316 -151 316 -131 Q316 -106 299 -95.5 Q282 -85 243 -84 L253 -10 Q198 -6 159.5 15.5 Q121 37 96.5 71.5 Q72 106 60.5 152 Q49 198 49 252 Q49 387 114 456 Q179 525 295 525 Q381 525 434.5 480 Q488 435 493 346 L406 334 Q400 391 372.5 420 Q345 449 291 449 Q263 449 236.5 440.5 Q210 432 189.5 411 Q169 390 156.5 354 Q144 318 144 263 Q144 206 155 167.5 Q166 129 185.5 106 Q205 83 231 73.5 Q257 64 288 64 Q341 64 373.5 90.5 Q406 117 416 174 L496 157 Q490 116 473.5 86 Q457 56 432 35.5 Q407 15 376 3.5 Q345 -8 311 -11 L307 -44 Q338 -50 362 -69.5 Q386 -89 386 -132 Q386 -179 354.5 -205.5 Q323 -232 276 -232 Q249 -232 228 -225.5 Q207 -219 195 -212 L212 -161 Z " />
<glyph glyph-name="ccircumflex" unicode="&#x109;" horiz-adv-x="538" d="M285 -12 Q221 -12 176.5 7.5 Q132 27 103.5 62 Q75 97 62 145.5 Q49 194 49 252 Q49 387 114 456 Q179 525 295 525 Q381 525 434.5 480 Q488 435 493 346 L406 334 Q400 391 372.5 420 Q345 449 291 449 Q263 449 236.5 440.5 Q210 432 189.5 411 Q169 390 156.5 354 Q144 318 144 263 Q144 206 155 167.5 Q166 129 185.5 106 Q205 83 231 73.5 Q257 64 288 64 Q341 64 373.5 90.5 Q406 117 416 174 L496 157 Q490 112 470.5 80 Q451 48 422.5 27.5 Q394 7 359 -2.5 Q324 -12 285 -12 Z M383 577 L294 690 L206 576 L138 583 L250 748 L339 748 L452 583 L383 577 Z " />
<glyph glyph-name="cdotaccent" unicode="&#x10b;" horiz-adv-x="538" d="M285 -12 Q221 -12 176.5 7.5 Q132 27 103.5 62 Q75 97 62 145.5 Q49 194 49 252 Q49 387 114 456 Q179 525 295 525 Q381 525 434.5 480 Q488 435 493 346 L406 334 Q400 391 372.5 420 Q345 449 291 449 Q263 449 236.5 440.5 Q210 432 189.5 411 Q169 390 156.5 354 Q144 318 144 263 Q144 206 155 167.5 Q166 129 185.5 106 Q205 83 231 73.5 Q257 64 288 64 Q341 64 373.5 90.5 Q406 117 416 174 L496 157 Q490 112 470.5 80 Q451 48 422.5 27.5 Q394 7 359 -2.5 Q324 -12 285 -12 Z M358 679 Q358 647 341.5 630 Q325 613 294 613 Q263 613 246 630 Q229 647 229 679 Q229 711 246 727.5 Q263 744 294 744 Q358 744 358 679 Z " />
<glyph glyph-name="dcaron" unicode="&#x10f;" horiz-adv-x="636" d="M500 0 L424 0 L417 55 L416 56 Q383 26 342.5 7 Q302 -12 246 -12 Q202 -12 166 2.5 Q130 17 104 48.5 Q78 80 64 129.5 Q50 179 50 249 Q50 325 68 377.5 Q86 430 116 463 Q146 496 185 510.5 Q224 525 267 525 Q312 525 348 512 Q384 499 411 477 L411 755 L500 755 L500 0 Z M410 402 Q392 416 358 431.5 Q324 447 279 447 Q242 447 216 433 Q190 419 174 393 Q158 367 151 330.5 Q144 294 144 249 Q144 155 174.5 109.5 Q205 64 273 64 Q313 64 349.5 83.5 Q386 103 410 127 L410 402 Z M581 755 L676 755 L614 556 L548 564 L581 755 Z " />
<glyph glyph-name="dcroat" unicode="&#x111;" horiz-adv-x="577" d="M221 644 L411 644 L411 755 L500 755 L500 644 L569 644 L569 576 L500 576 L500 0 L424 0 L417 55 L416 56 Q383 26 342.5 7 Q302 -12 246 -12 Q202 -12 166 2.5 Q130 17 104 47.5 Q78 78 64 126 Q50 174 50 242 Q50 315 68 366 Q86 417 116 448.5 Q146 480 185 494 Q224 508 267 508 Q312 508 348 495 Q384 482 411 460 L411 576 L221 576 L221 644 Z M410 385 Q392 399 358 414.5 Q324 430 279 430 Q205 430 174.5 378.5 Q144 327 144 242 Q144 153 174.5 108.5 Q205 64 273 64 Q313 64 349.5 83.5 Q386 103 410 127 L410 385 Z " />
<glyph glyph-name="eacute" unicode="&#xe9;" horiz-adv-x="546" d="M286 -12 Q218 -12 172.5 10 Q127 32 99.5 69 Q72 106 60.5 154.5 Q49 203 49 256 Q49 326 68 377 Q87 428 120 461 Q153 494 197 509.5 Q241 525 291 525 Q345 525 383.5 508 Q422 491 447 461.5 Q472 432 483.5 391.5 Q495 351 495 303 Q495 288 494 271 Q493 254 491 236 L145 236 Q146 187 157.5 154 Q169 121 188 101 Q207 81 232.5 72.5 Q258 64 289 64 Q344 64 371.5 87.5 Q399 111 410 155 L490 137 Q474 62 419 25 Q364 -12 286 -12 Z M401 308 Q401 377 373.5 414 Q346 451 285 451 Q259 451 235 443 Q211 435 192 417.5 Q173 400 160.5 373 Q148 346 146 308 L401 308 Z M270 572 L204 584 L301 747 L410 747 L270 572 Z " />
<glyph glyph-name="ebreve" unicode="&#x115;" horiz-adv-x="546" d="M286 -12 Q218 -12 172.5 10 Q127 32 99.5 69 Q72 106 60.5 154.5 Q49 203 49 256 Q49 326 68 377 Q87 428 120 461 Q153 494 197 509.5 Q241 525 291 525 Q345 525 383.5 508 Q422 491 447 461.5 Q472 432 483.5 391.5 Q495 351 495 303 Q495 288 494 271 Q493 254 491 236 L145 236 Q146 187 157.5 154 Q169 121 188 101 Q207 81 232.5 72.5 Q258 64 289 64 Q344 64 371.5 87.5 Q399 111 410 155 L490 137 Q474 62 419 25 Q364 -12 286 -12 Z M401 308 Q401 377 373.5 414 Q346 451 285 451 Q259 451 235 443 Q211 435 192 417.5 Q173 400 160.5 373 Q148 346 146 308 L401 308 Z M443 727 Q441 652 401.5 612 Q362 572 287 572 Q216 572 179 609 Q142 646 140 724 L207 733 Q212 677 231.5 656.5 Q251 636 290 636 Q331 636 352.5 656.5 Q374 677 378 732 L443 727 Z " />
<glyph glyph-name="ecaron" unicode="&#x11b;" horiz-adv-x="546" d="M286 -12 Q218 -12 172.5 10 Q127 32 99.5 69 Q72 106 60.5 154.5 Q49 203 49 256 Q49 326 68 377 Q87 428 120 461 Q153 494 197 509.5 Q241 525 291 525 Q345 525 383.5 508 Q422 491 447 461.5 Q472 432 483.5 391.5 Q495 351 495 303 Q495 288 494 271 Q493 254 491 236 L145 236 Q146 187 157.5 154 Q169 121 188 101 Q207 81 232.5 72.5 Q258 64 289 64 Q344 64 371.5 87.5 Q399 111 410 155 L490 137 Q474 62 419 25 Q364 -12 286 -12 Z M401 308 Q401 377 373.5 414 Q346 451 285 451 Q259 451 235 443 Q211 435 192 417.5 Q173 400 160.5 373 Q148 346 146 308 L401 308 Z M201 742 L288 630 L377 744 L443 737 L331 572 L242 572 L129 737 L201 742 Z " />
<glyph glyph-name="ecircumflex" unicode="&#xea;" horiz-adv-x="546" d="M286 -12 Q218 -12 172.5 10 Q127 32 99.5 69 Q72 106 60.5 154.5 Q49 203 49 256 Q49 326 68 377 Q87 428 120 461 Q153 494 197 509.5 Q241 525 291 525 Q345 525 383.5 508 Q422 491 447 461.5 Q472 432 483.5 391.5 Q495 351 495 303 Q495 288 494 271 Q493 254 491 236 L145 236 Q146 187 157.5 154 Q169 121 188 101 Q207 81 232.5 72.5 Q258 64 289 64 Q344 64 371.5 87.5 Q399 111 410 155 L490 137 Q474 62 419 25 Q364 -12 286 -12 Z M401 308 Q401 377 373.5 414 Q346 451 285 451 Q259 451 235 443 Q211 435 192 417.5 Q173 400 160.5 373 Q148 346 146 308 L401 308 Z M376 577 L287 690 L199 576 L131 583 L243 748 L332 748 L445 583 L376 577 Z " />
<glyph glyph-name="edieresis" unicode="&#xeb;" horiz-adv-x="546" d="M286 -12 Q218 -12 172.5 10 Q127 32 99.5 69 Q72 106 60.5 154.5 Q49 203 49 256 Q49 326 68 377 Q87 428 120 461 Q153 494 197 509.5 Q241 525 291 525 Q345 525 383.5 508 Q422 491 447 461.5 Q472 432 483.5 391.5 Q495 351 495 303 Q495 288 494 271 Q493 254 491 236 L145 236 Q146 187 157.5 154 Q169 121 188 101 Q207 81 232.5 72.5 Q258 64 289 64 Q344 64 371.5 87.5 Q399 111 410 155 L490 137 Q474 62 419 25 Q364 -12 286 -12 Z M401 308 Q401 377 373.5 414 Q346 451 285 451 Q259 451 235 443 Q211 435 192 417.5 Q173 400 160.5 373 Q148 346 146 308 L401 308 Z M245 672 Q245 643 228 626.5 Q211 610 183 610 Q154 610 136.5 626.5 Q119 643 119 672 Q119 700 136.5 716.5 Q154 733 183 733 Q211 733 228 716.5 Q245 700 245 672 Z M455 672 Q455 643 438 626.5 Q421 610 392 610 Q363 610 346 626.5 Q329 643 329 672 Q329 700 346 716.5 Q363 733 392 733 Q421 733 438 716.5 Q455 700 455 672 Z " />
<glyph glyph-name="edotaccent" unicode="&#x117;" horiz-adv-x="546" d="M286 -12 Q218 -12 172.5 10 Q127 32 99.5 69 Q72 106 60.5 154.5 Q49 203 49 256 Q49 326 68 377 Q87 428 120 461 Q153 494 197 509.5 Q241 525 291 525 Q345 525 383.5 508 Q422 491 447 461.5 Q472 432 483.5 391.5 Q495 351 495 303 Q495 288 494 271 Q493 254 491 236 L145 236 Q146 187 157.5 154 Q169 121 188 101 Q207 81 232.5 72.5 Q258 64 289 64 Q344 64 371.5 87.5 Q399 111 410 155 L490 137 Q474 62 419 25 Q364 -12 286 -12 Z M401 308 Q401 377 373.5 414 Q346 451 285 451 Q259 451 235 443 Q211 435 192 417.5 Q173 400 160.5 373 Q148 346 146 308 L401 308 Z M351 679 Q351 647 334.5 630 Q318 613 287 613 Q256 613 239 630 Q222 647 222 679 Q222 711 239 727.5 Q256 744 287 744 Q351 744 351 679 Z " />
<glyph glyph-name="egrave" unicode="&#xe8;" horiz-adv-x="546" d="M286 -12 Q218 -12 172.5 10 Q127 32 99.5 69 Q72 106 60.5 154.5 Q49 203 49 256 Q49 326 68 377 Q87 428 120 461 Q153 494 197 509.5 Q241 525 291 525 Q345 525 383.5 508 Q422 491 447 461.5 Q472 432 483.5 391.5 Q495 351 495 303 Q495 288 494 271 Q493 254 491 236 L145 236 Q146 187 157.5 154 Q169 121 188 101 Q207 81 232.5 72.5 Q258 64 289 64 Q344 64 371.5 87.5 Q399 111 410 155 L490 137 Q474 62 419 25 Q364 -12 286 -12 Z M401 308 Q401 377 373.5 414 Q346 451 285 451 Q259 451 235 443 Q211 435 192 417.5 Q173 400 160.5 373 Q148 346 146 308 L401 308 Z M168 747 L277 747 L374 584 L308 572 L168 747 Z " />
<glyph glyph-name="emacron" unicode="&#x113;" horiz-adv-x="546" d="M286 -12 Q218 -12 172.5 10 Q127 32 99.5 69 Q72 106 60.5 154.5 Q49 203 49 256 Q49 326 68 377 Q87 428 120 461 Q153 494 197 509.5 Q241 525 291 525 Q345 525 383.5 508 Q422 491 447 461.5 Q472 432 483.5 391.5 Q495 351 495 303 Q495 288 494 271 Q493 254 491 236 L145 236 Q146 187 157.5 154 Q169 121 188 101 Q207 81 232.5 72.5 Q258 64 289 64 Q344 64 371.5 87.5 Q399 111 410 155 L490 137 Q474 62 419 25 Q364 -12 286 -12 Z M401 308 Q401 377 373.5 414 Q346 451 285 451 Q259 451 235 443 Q211 435 192 417.5 Q173 400 160.5 373 Q148 346 146 308 L401 308 Z M142 625 L142 696 L433 696 L433 625 L142 625 Z " />
<glyph glyph-name="eogonek" unicode="&#x119;" horiz-adv-x="546" d="M429 -147 Q412 -188 379 -208 Q346 -228 311 -228 Q266 -228 238.5 -205 Q211 -182 211 -139 Q211 -99 232 -67.5 Q253 -36 281 -12 Q214 -11 169.5 11 Q125 33 98 70 Q71 107 60 155 Q49 203 49 256 Q49 326 68 377 Q87 428 120 461 Q153 494 197 509.5 Q241 525 291 525 Q345 525 383.5 508 Q422 491 447 461.5 Q472 432 483.5 391.5 Q495 351 495 303 Q495 288 494 271 Q493 254 491 236 L145 236 Q146 187 157.5 154 Q169 121 188 101 Q207 81 232.5 72.5 Q258 64 289 64 Q344 64 371.5 87.5 Q399 111 410 155 L490 137 Q479 86 451 56.5 Q423 27 384 2 Q345 -23 317 -56 Q289 -89 289 -124 Q289 -162 327 -162 Q359 -162 381 -123 L429 -147 Z M401 308 Q401 377 373.5 414 Q346 451 285 451 Q259 451 235 443 Q211 435 192 417.5 Q173 400 160.5 373 Q148 346 146 308 L401 308 Z " />
<glyph glyph-name="gbreve" unicode="&#x11f;" horiz-adv-x="552" d="M269 525 Q317 525 354.5 514.5 Q392 504 418 478 Q430 506 450 525.5 Q470 545 499 545 Q511 545 522 543 Q533 541 544 537 L544 464 Q521 466 493.5 462.5 Q466 459 446 453 Q465 431 474.5 402 Q484 373 484 341 Q484 297 468 263 Q452 229 423.5 205.5 Q395 182 356.5 169.5 Q318 157 274 157 Q248 157 225 159.5 Q202 162 182 169 Q171 159 160.5 148 Q150 137 150 121 Q150 106 162.5 95.5 Q175 85 216 82 L359 72 Q399 69 430 62 Q461 55 482.5 40 Q504 25 515.5 0.5 Q527 -24 527 -62 Q527 -109 504 -140.5 Q481 -172 443.5 -191 Q406 -210 358.5 -218 Q311 -226 263 -226 Q191 -226 146 -214.5 Q101 -203 75.5 -185 Q50 -167 41 -144.5 Q32 -122 32 -99 Q32 -55 57.5 -25.5 Q83 4 115 19 L115 20 Q89 31 74 47 Q59 63 59 91 Q59 124 79.5 147.5 Q100 171 127 192 Q92 211 71.5 248.5 Q51 286 51 336 Q51 378 66.5 413 Q82 448 110.5 473 Q139 498 179 511.5 Q219 525 269 525 Z M396 340 Q396 398 363 425 Q330 452 272 452 Q245 452 221.5 446 Q198 440 180 426.5 Q162 413 152 392.5 Q142 372 142 342 Q142 291 171.5 261.5 Q201 232 270 232 Q327 232 361.5 260 Q396 288 396 340 Z M433 -73 Q433 -45 416 -30 Q399 -15 347 -11 L180 -1 Q151 -21 137 -38.5 Q123 -56 123 -82 Q123 -98 130.5 -111.5 Q138 -125 155 -134.5 Q172 -144 201 -149 Q230 -154 274 -154 Q433 -154 433 -73 Z M424 727 Q422 652 382.5 612 Q343 572 268 572 Q197 572 160 609 Q123 646 121 724 L188 733 Q193 677 212.5 656.5 Q232 636 271 636 Q312 636 333.5 656.5 Q355 677 359 732 L424 727 Z " />
<glyph glyph-name="gcircumflex" unicode="&#x11d;" horiz-adv-x="552" d="M269 525 Q317 525 354.5 514.5 Q392 504 418 478 Q430 506 450 525.5 Q470 545 499 545 Q511 545 522 543 Q533 541 544 537 L544 464 Q521 466 493.5 462.5 Q466 459 446 453 Q465 431 474.5 402 Q484 373 484 341 Q484 297 468 263 Q452 229 423.5 205.5 Q395 182 356.5 169.5 Q318 157 274 157 Q248 157 225 159.5 Q202 162 182 169 Q171 159 160.5 148 Q150 137 150 121 Q150 106 162.5 95.5 Q175 85 216 82 L359 72 Q399 69 430 62 Q461 55 482.5 40 Q504 25 515.5 0.5 Q527 -24 527 -62 Q527 -109 504 -140.5 Q481 -172 443.5 -191 Q406 -210 358.5 -218 Q311 -226 263 -226 Q191 -226 146 -214.5 Q101 -203 75.5 -185 Q50 -167 41 -144.5 Q32 -122 32 -99 Q32 -55 57.5 -25.5 Q83 4 115 19 L115 20 Q89 31 74 47 Q59 63 59 91 Q59 124 79.5 147.5 Q100 171 127 192 Q92 211 71.5 248.5 Q51 286 51 336 Q51 378 66.5 413 Q82 448 110.5 473 Q139 498 179 511.5 Q219 525 269 525 Z M396 340 Q396 398 363 425 Q330 452 272 452 Q245 452 221.5 446 Q198 440 180 426.5 Q162 413 152 392.5 Q142 372 142 342 Q142 291 171.5 261.5 Q201 232 270 232 Q327 232 361.5 260 Q396 288 396 340 Z M433 -73 Q433 -45 416 -30 Q399 -15 347 -11 L180 -1 Q151 -21 137 -38.5 Q123 -56 123 -82 Q123 -98 130.5 -111.5 Q138 -125 155 -134.5 Q172 -144 201 -149 Q230 -154 274 -154 Q433 -154 433 -73 Z M357 577 L268 690 L180 576 L112 583 L224 748 L313 748 L426 583 L357 577 Z " />
<glyph glyph-name="gcommaaccent" unicode="&#x123;" horiz-adv-x="552" d="M269 525 Q317 525 354.5 514.5 Q392 504 418 478 Q430 506 450 525.5 Q470 545 499 545 Q511 545 522 543 Q533 541 544 537 L544 464 Q521 466 493.5 462.5 Q466 459 446 453 Q465 431 474.5 402 Q484 373 484 341 Q484 297 468 263 Q452 229 423.5 205.5 Q395 182 356.5 169.5 Q318 157 274 157 Q248 157 225 159.5 Q202 162 182 169 Q171 159 160.5 148 Q150 137 150 121 Q150 106 162.5 95.5 Q175 85 216 82 L359 72 Q399 69 430 62 Q461 55 482.5 40 Q504 25 515.5 0.5 Q527 -24 527 -62 Q527 -109 504 -140.5 Q481 -172 443.5 -191 Q406 -210 358.5 -218 Q311 -226 263 -226 Q191 -226 146 -214.5 Q101 -203 75.5 -185 Q50 -167 41 -144.5 Q32 -122 32 -99 Q32 -55 57.5 -25.5 Q83 4 115 19 L115 20 Q89 31 74 47 Q59 63 59 91 Q59 124 79.5 147.5 Q100 171 127 192 Q92 211 71.5 248.5 Q51 286 51 336 Q51 378 66.5 413 Q82 448 110.5 473 Q139 498 179 511.5 Q219 525 269 525 Z M396 340 Q396 398 363 425 Q330 452 272 452 Q245 452 221.5 446 Q198 440 180 426.5 Q162 413 152 392.5 Q142 372 142 342 Q142 291 171.5 261.5 Q201 232 270 232 Q327 232 361.5 260 Q396 288 396 340 Z M433 -73 Q433 -45 416 -30 Q399 -15 347 -11 L180 -1 Q151 -21 137 -38.5 Q123 -56 123 -82 Q123 -98 130.5 -111.5 Q138 -125 155 -134.5 Q172 -144 201 -149 Q230 -154 274 -154 Q433 -154 433 -73 Z M310 570 L213 570 L281 744 L349 734 L310 570 Z " />
<glyph glyph-name="gdotaccent" unicode="&#x121;" horiz-adv-x="552" d="M269 525 Q317 525 354.5 514.5 Q392 504 418 478 Q430 506 450 525.5 Q470 545 499 545 Q511 545 522 543 Q533 541 544 537 L544 464 Q521 466 493.5 462.5 Q466 459 446 453 Q465 431 474.5 402 Q484 373 484 341 Q484 297 468 263 Q452 229 423.5 205.5 Q395 182 356.5 169.5 Q318 157 274 157 Q248 157 225 159.5 Q202 162 182 169 Q171 159 160.5 148 Q150 137 150 121 Q150 106 162.5 95.5 Q175 85 216 82 L359 72 Q399 69 430 62 Q461 55 482.5 40 Q504 25 515.5 0.5 Q527 -24 527 -62 Q527 -109 504 -140.5 Q481 -172 443.5 -191 Q406 -210 358.5 -218 Q311 -226 263 -226 Q191 -226 146 -214.5 Q101 -203 75.5 -185 Q50 -167 41 -144.5 Q32 -122 32 -99 Q32 -55 57.5 -25.5 Q83 4 115 19 L115 20 Q89 31 74 47 Q59 63 59 91 Q59 124 79.5 147.5 Q100 171 127 192 Q92 211 71.5 248.5 Q51 286 51 336 Q51 378 66.5 413 Q82 448 110.5 473 Q139 498 179 511.5 Q219 525 269 525 Z M396 340 Q396 398 363 425 Q330 452 272 452 Q245 452 221.5 446 Q198 440 180 426.5 Q162 413 152 392.5 Q142 372 142 342 Q142 291 171.5 261.5 Q201 232 270 232 Q327 232 361.5 260 Q396 288 396 340 Z M433 -73 Q433 -45 416 -30 Q399 -15 347 -11 L180 -1 Q151 -21 137 -38.5 Q123 -56 123 -82 Q123 -98 130.5 -111.5 Q138 -125 155 -134.5 Q172 -144 201 -149 Q230 -154 274 -154 Q433 -154 433 -73 Z M332 679 Q332 647 315.5 630 Q299 613 268 613 Q237 613 220 630 Q203 647 203 679 Q203 711 220 727.5 Q237 744 268 744 Q332 744 332 679 Z " />
<glyph glyph-name="hbar" unicode="&#x127;" horiz-adv-x="582" d="M14 644 L81 644 L81 755 L171 755 L171 644 L367 644 L367 576 L171 576 L171 439 Q209 468 253.5 488 Q298 508 352 508 Q434 508 471.5 464 Q509 420 509 332 L509 0 L418 0 L418 318 Q418 372 396.5 400 Q375 428 322 428 Q300 428 277.5 421.5 Q255 415 235 406 Q215 397 198.5 386 Q182 375 172 366 L172 0 L81 0 L81 576 L14 576 L14 644 Z " />
<glyph glyph-name="hcircumflex" unicode="&#x125;" horiz-adv-x="582" d="M509 0 L418 0 L418 335 Q418 389 396.5 417 Q375 445 322 445 Q300 445 277.5 438.5 Q255 432 235 423 Q215 414 198.5 403 Q182 392 172 383 L172 0 L81 0 L81 755 L171 755 L171 456 Q209 485 253.5 505 Q298 525 352 525 Q434 525 471.5 481 Q509 437 509 349 L509 0 Z M128 867 L44 787 L-26 796 L90 925 L169 925 L283 796 L213 789 L128 867 Z " />
<glyph glyph-name="iacute" unicode="&#xed;" horiz-adv-x="249" d="M172 0 L81 0 L81 514 L172 514 L172 0 Z M110 572 L44 584 L141 747 L250 747 L110 572 Z " />
<glyph glyph-name="ibreve" unicode="&#x12d;" horiz-adv-x="249" d="M172 0 L81 0 L81 514 L172 514 L172 0 Z M283 727 Q281 652 241.5 612 Q202 572 127 572 Q56 572 19 609 Q-18 646 -20 724 L47 733 Q52 677 71.5 656.5 Q91 636 130 636 Q171 636 192.5 656.5 Q214 677 218 732 L283 727 Z " />
<glyph glyph-name="icircumflex" unicode="&#xee;" horiz-adv-x="249" d="M172 0 L81 0 L81 514 L172 514 L172 0 Z M216 577 L127 690 L39 576 L-29 583 L83 748 L172 748 L285 583 L216 577 Z " />
<glyph glyph-name="idieresis" unicode="&#xef;" horiz-adv-x="249" d="M172 0 L81 0 L81 514 L172 514 L172 0 Z M85 672 Q85 643 68 626.5 Q51 610 23 610 Q-6 610 -23.5 626.5 Q-41 643 -41 672 Q-41 700 -23.5 716.5 Q-6 733 23 733 Q51 733 68 716.5 Q85 700 85 672 Z M295 672 Q295 643 278 626.5 Q261 610 232 610 Q203 610 186 626.5 Q169 643 169 672 Q169 700 186 716.5 Q203 733 232 733 Q261 733 278 716.5 Q295 700 295 672 Z " />
<glyph glyph-name="igrave" unicode="&#xec;" horiz-adv-x="249" d="M172 0 L81 0 L81 514 L172 514 L172 0 Z M8 747 L117 747 L214 584 L148 572 L8 747 Z " />
<glyph glyph-name="imacron" unicode="&#x12b;" horiz-adv-x="249" d="M172 0 L81 0 L81 514 L172 514 L172 0 Z M-18 625 L-18 696 L273 696 L273 625 L-18 625 Z " />
<glyph glyph-name="iogonek" unicode="&#x12f;" horiz-adv-x="249" d="M220 -147 Q203 -188 170 -208 Q137 -228 102 -228 Q57 -228 29.5 -205 Q2 -182 2 -139 Q2 -117 9 -97 Q16 -77 27.5 -60 Q39 -43 53 -28 Q67 -13 81 0 L81 514 L172 514 L172 0 Q129 -34 104.5 -61.5 Q80 -89 80 -124 Q80 -162 118 -162 Q150 -162 172 -123 L220 -147 Z M193 679 Q193 647 176 630 Q159 613 128 613 Q97 613 80.5 630 Q64 647 64 679 Q64 744 128 744 Q159 744 176 727.5 Q193 711 193 679 Z " />
<glyph glyph-name="itilde" unicode="&#x129;" horiz-adv-x="249" d="M172 0 L81 0 L81 514 L172 514 L172 0 Z M47 716 Q71 716 91 709 Q111 702 129 693 Q147 684 164 677 Q181 670 198 670 Q217 670 226.5 679.5 Q236 689 236 721 L291 719 Q295 688 290 665 Q285 642 273 627 Q261 612 244 604.5 Q227 597 207 597 Q183 597 162.5 604 Q142 611 123.5 620 Q105 629 87.5 636 Q70 643 53 643 Q37 643 26.5 632.5 Q16 622 18 589 L-38 592 Q-42 623 -36 646.5 Q-30 670 -18 685.5 Q-6 701 11 708.5 Q28 716 47 716 Z " />
<glyph glyph-name="jcircumflex" unicode="&#x135;" horiz-adv-x="247" d="M26 -223 Q1 -223 -28 -217 Q-57 -211 -71 -203 L-61 -129 Q-46 -135 -25.5 -139.5 Q-5 -144 14 -144 Q45 -144 63 -126.5 Q81 -109 81 -63 L81 514 L172 514 L172 -67 Q172 -149 134 -186 Q96 -223 26 -223 Z M216 577 L127 690 L39 576 L-29 583 L83 748 L172 748 L285 583 L216 577 Z " />
<glyph glyph-name="kcommaaccent" unicode="&#x137;" horiz-adv-x="531" d="M172 288 L393 514 L496 514 L318 329 L509 0 L409 0 L251 265 L172 187 L172 0 L81 0 L81 755 L172 755 L172 288 Z M235 -69 L332 -69 L264 -243 L196 -233 L235 -69 Z " />
<glyph glyph-name="lacute" unicode="&#x13a;" horiz-adv-x="249" d="M172 0 L81 0 L81 755 L172 755 L172 0 Z M124 788 L55 800 L154 934 L264 934 L124 788 Z " />
<glyph glyph-name="lcaron" unicode="&#x13e;" horiz-adv-x="308" d="M172 0 L81 0 L81 755 L172 755 L172 0 Z M253 755 L348 755 L286 556 L220 564 L253 755 Z " />
<glyph glyph-name="lcommaaccent" unicode="&#x13c;" horiz-adv-x="249" d="M172 0 L81 0 L81 755 L172 755 L172 0 Z M86 -69 L183 -69 L115 -243 L47 -233 L86 -69 Z " />
<glyph glyph-name="ldot" unicode="&#x140;" horiz-adv-x="305" d="M172 0 L81 0 L81 755 L172 755 L172 0 Z M344 400 Q344 368 327.5 351 Q311 334 280 334 Q249 334 232 351 Q215 368 215 400 Q215 432 232 448.5 Q249 465 280 465 Q344 465 344 400 Z " />
<glyph glyph-name="lslash" unicode="&#x142;" horiz-adv-x="278" d="M183 458 L268 500 L268 420 L183 378 L183 0 L92 0 L92 341 L10 302 L10 382 L92 421 L92 755 L183 755 L183 458 Z " />
<glyph glyph-name="nacute" unicode="&#x144;" horiz-adv-x="582" d="M509 0 L418 0 L418 335 Q418 389 396.5 417 Q375 445 322 445 Q300 445 277.5 438.5 Q255 432 235 423 Q215 414 198.5 403 Q182 392 172 383 L172 0 L81 0 L81 514 L161 514 L166 453 Q204 483 250.5 504 Q297 525 351 525 Q434 525 471.5 481 Q509 437 509 349 L509 0 Z M305 572 L239 584 L336 747 L445 747 L305 572 Z " />
<glyph glyph-name="napostrophe" unicode="&#x149;" horiz-adv-x="582" d="M509 0 L418 0 L418 335 Q418 389 396.5 417 Q375 445 322 445 Q300 445 277.5 438.5 Q255 432 235 423 Q215 414 198.5 403 Q182 392 172 383 L172 0 L81 0 L81 514 L161 514 L166 453 Q204 483 250.5 504 Q297 525 351 525 Q434 525 471.5 481 Q509 437 509 349 L509 0 Z M7.26276 673.985 L102.125 673.985 L35.6238 503.989 L-30.8779 513.759 L7.26276 673.985 Z " />
<glyph glyph-name="ncaron" unicode="&#x148;" horiz-adv-x="582" d="M509 0 L418 0 L418 335 Q418 389 396.5 417 Q375 445 322 445 Q300 445 277.5 438.5 Q255 432 235 423 Q215 414 198.5 403 Q182 392 172 383 L172 0 L81 0 L81 514 L161 514 L166 453 Q204 483 250.5 504 Q297 525 351 525 Q434 525 471.5 481 Q509 437 509 349 L509 0 Z M214 742 L301 630 L390 744 L456 737 L344 572 L255 572 L142 737 L214 742 Z " />
<glyph glyph-name="ncommaaccent" unicode="&#x146;" horiz-adv-x="582" d="M509 0 L418 0 L418 335 Q418 389 396.5 417 Q375 445 322 445 Q300 445 277.5 438.5 Q255 432 235 423 Q215 414 198.5 403 Q182 392 172 383 L172 0 L81 0 L81 514 L161 514 L166 453 Q204 483 250.5 504 Q297 525 351 525 Q434 525 471.5 481 Q509 437 509 349 L509 0 Z M245 -69 L342 -69 L274 -243 L206 -233 L245 -69 Z " />
<glyph glyph-name="ntilde" unicode="&#xf1;" horiz-adv-x="582" d="M509 0 L418 0 L418 335 Q418 389 396.5 417 Q375 445 322 445 Q300 445 277.5 438.5 Q255 432 235 423 Q215 414 198.5 403 Q182 392 172 383 L172 0 L81 0 L81 514 L161 514 L166 453 Q204 483 250.5 504 Q297 525 351 525 Q434 525 471.5 481 Q509 437 509 349 L509 0 Z M218 716 Q242 716 262 709 Q282 702 300 693 Q318 684 335 677 Q352 670 369 670 Q388 670 397.5 679.5 Q407 689 407 721 L462 719 Q466 688 461 665 Q456 642 444 627 Q432 612 415 604.5 Q398 597 378 597 Q354 597 333.5 604 Q313 611 294.5 620 Q276 629 258.5 636 Q241 643 224 643 Q208 643 197.5 632.5 Q187 622 189 589 L133 592 Q129 623 135 646.5 Q141 670 153 685.5 Q165 701 182 708.5 Q199 716 218 716 Z " />
<glyph glyph-name="oacute" unicode="&#xf3;" horiz-adv-x="578" d="M286 -12 Q219 -12 173.5 8.5 Q128 29 100.5 64.5 Q73 100 61 149 Q49 198 49 255 Q49 317 65 367 Q81 417 112.5 452 Q144 487 190.5 506 Q237 525 299 525 Q360 525 403.5 506 Q447 487 475 453 Q503 419 516 371.5 Q529 324 529 267 Q529 204 515.5 152.5 Q502 101 472.5 64.5 Q443 28 397 8 Q351 -12 286 -12 Z M291 61 Q324 61 350.5 71.5 Q377 82 395.5 106 Q414 130 424 168 Q434 206 434 261 Q434 314 425 350.5 Q416 387 398 409 Q380 431 354 440.5 Q328 450 295 450 Q261 450 233 439.5 Q205 429 185 406 Q165 383 154 346.5 Q143 310 143 259 Q143 156 179.5 108.5 Q216 61 291 61 Z M278 572 L212 584 L309 747 L418 747 L278 572 Z " />
<glyph glyph-name="obreve" unicode="&#x14f;" horiz-adv-x="578" d="M286 -12 Q219 -12 173.5 8.5 Q128 29 100.5 64.5 Q73 100 61 149 Q49 198 49 255 Q49 317 65 367 Q81 417 112.5 452 Q144 487 190.5 506 Q237 525 299 525 Q360 525 403.5 506 Q447 487 475 453 Q503 419 516 371.5 Q529 324 529 267 Q529 204 515.5 152.5 Q502 101 472.5 64.5 Q443 28 397 8 Q351 -12 286 -12 Z M291 61 Q324 61 350.5 71.5 Q377 82 395.5 106 Q414 130 424 168 Q434 206 434 261 Q434 314 425 350.5 Q416 387 398 409 Q380 431 354 440.5 Q328 450 295 450 Q261 450 233 439.5 Q205 429 185 406 Q165 383 154 346.5 Q143 310 143 259 Q143 156 179.5 108.5 Q216 61 291 61 Z M451 727 Q449 652 409.5 612 Q370 572 295 572 Q224 572 187 609 Q150 646 148 724 L215 733 Q220 677 239.5 656.5 Q259 636 298 636 Q339 636 360.5 656.5 Q382 677 386 732 L451 727 Z " />
<glyph glyph-name="ocircumflex" unicode="&#xf4;" horiz-adv-x="578" d="M286 -12 Q219 -12 173.5 8.5 Q128 29 100.5 64.5 Q73 100 61 149 Q49 198 49 255 Q49 317 65 367 Q81 417 112.5 452 Q144 487 190.5 506 Q237 525 299 525 Q360 525 403.5 506 Q447 487 475 453 Q503 419 516 371.5 Q529 324 529 267 Q529 204 515.5 152.5 Q502 101 472.5 64.5 Q443 28 397 8 Q351 -12 286 -12 Z M291 61 Q324 61 350.5 71.5 Q377 82 395.5 106 Q414 130 424 168 Q434 206 434 261 Q434 314 425 350.5 Q416 387 398 409 Q380 431 354 440.5 Q328 450 295 450 Q261 450 233 439.5 Q205 429 185 406 Q165 383 154 346.5 Q143 310 143 259 Q143 156 179.5 108.5 Q216 61 291 61 Z M384 577 L295 690 L207 576 L139 583 L251 748 L340 748 L453 583 L384 577 Z " />
<glyph glyph-name="odieresis" unicode="&#xf6;" horiz-adv-x="578" d="M286 -12 Q219 -12 173.5 8.5 Q128 29 100.5 64.5 Q73 100 61 149 Q49 198 49 255 Q49 317 65 367 Q81 417 112.5 452 Q144 487 190.5 506 Q237 525 299 525 Q360 525 403.5 506 Q447 487 475 453 Q503 419 516 371.5 Q529 324 529 267 Q529 204 515.5 152.5 Q502 101 472.5 64.5 Q443 28 397 8 Q351 -12 286 -12 Z M291 61 Q324 61 350.5 71.5 Q377 82 395.5 106 Q414 130 424 168 Q434 206 434 261 Q434 314 425 350.5 Q416 387 398 409 Q380 431 354 440.5 Q328 450 295 450 Q261 450 233 439.5 Q205 429 185 406 Q165 383 154 346.5 Q143 310 143 259 Q143 156 179.5 108.5 Q216 61 291 61 Z M253 672 Q253 643 236 626.5 Q219 610 191 610 Q162 610 144.5 626.5 Q127 643 127 672 Q127 700 144.5 716.5 Q162 733 191 733 Q219 733 236 716.5 Q253 700 253 672 Z M463 672 Q463 643 446 626.5 Q429 610 400 610 Q371 610 354 626.5 Q337 643 337 672 Q337 700 354 716.5 Q371 733 400 733 Q429 733 446 716.5 Q463 700 463 672 Z " />
<glyph glyph-name="ograve" unicode="&#xf2;" horiz-adv-x="578" d="M286 -12 Q219 -12 173.5 8.5 Q128 29 100.5 64.5 Q73 100 61 149 Q49 198 49 255 Q49 317 65 367 Q81 417 112.5 452 Q144 487 190.5 506 Q237 525 299 525 Q360 525 403.5 506 Q447 487 475 453 Q503 419 516 371.5 Q529 324 529 267 Q529 204 515.5 152.5 Q502 101 472.5 64.5 Q443 28 397 8 Q351 -12 286 -12 Z M291 61 Q324 61 350.5 71.5 Q377 82 395.5 106 Q414 130 424 168 Q434 206 434 261 Q434 314 425 350.5 Q416 387 398 409 Q380 431 354 440.5 Q328 450 295 450 Q261 450 233 439.5 Q205 429 185 406 Q165 383 154 346.5 Q143 310 143 259 Q143 156 179.5 108.5 Q216 61 291 61 Z M176 747 L285 747 L382 584 L316 572 L176 747 Z " />
<glyph glyph-name="ohungarumlaut" unicode="&#x151;" horiz-adv-x="578" d="M286 -12 Q219 -12 173.5 8.5 Q128 29 100.5 64.5 Q73 100 61 149 Q49 198 49 255 Q49 317 65 367 Q81 417 112.5 452 Q144 487 190.5 506 Q237 525 299 525 Q360 525 403.5 506 Q447 487 475 453 Q503 419 516 371.5 Q529 324 529 267 Q529 204 515.5 152.5 Q502 101 472.5 64.5 Q443 28 397 8 Q351 -12 286 -12 Z M291 61 Q324 61 350.5 71.5 Q377 82 395.5 106 Q414 130 424 168 Q434 206 434 261 Q434 314 425 350.5 Q416 387 398 409 Q380 431 354 440.5 Q328 450 295 450 Q261 450 233 439.5 Q205 429 185 406 Q165 383 154 346.5 Q143 310 143 259 Q143 156 179.5 108.5 Q216 61 291 61 Z M248 572 L183 585 L256 746 L363 746 L248 572 Z M380 572 L314 584 L414 748 L523 748 L380 572 Z " />
<glyph glyph-name="omacron" unicode="&#x14d;" horiz-adv-x="578" d="M286 -12 Q219 -12 173.5 8.5 Q128 29 100.5 64.5 Q73 100 61 149 Q49 198 49 255 Q49 317 65 367 Q81 417 112.5 452 Q144 487 190.5 506 Q237 525 299 525 Q360 525 403.5 506 Q447 487 475 453 Q503 419 516 371.5 Q529 324 529 267 Q529 204 515.5 152.5 Q502 101 472.5 64.5 Q443 28 397 8 Q351 -12 286 -12 Z M291 61 Q324 61 350.5 71.5 Q377 82 395.5 106 Q414 130 424 168 Q434 206 434 261 Q434 314 425 350.5 Q416 387 398 409 Q380 431 354 440.5 Q328 450 295 450 Q261 450 233 439.5 Q205 429 185 406 Q165 383 154 346.5 Q143 310 143 259 Q143 156 179.5 108.5 Q216 61 291 61 Z M150 625 L150 696 L441 696 L441 625 L150 625 Z " />
<glyph glyph-name="oslash" unicode="&#xf8;" horiz-adv-x="578" d="M286 -12 Q245 -12 214 -5 L185 -72 L99 -72 L142 26 Q91 61 70 120.5 Q49 180 49 255 Q49 317 65 367 Q81 417 112.5 452 Q144 487 190.5 506 Q237 525 299 525 Q331 525 360 519 L390 586 L475 586 L433 490 Q483 458 506 400.5 Q529 343 529 267 Q529 204 515.5 152.5 Q502 101 472.5 64.5 Q443 28 397 8 Q351 -12 286 -12 Z M291 61 Q324 61 350.5 71.5 Q377 82 395.5 106 Q414 130 424 168 Q434 206 434 261 Q434 315 424.5 351 Q415 387 397 409 L246 66 Q256 63 267 62 Q278 61 291 61 Z M143 259 Q143 158 179 109 L328 447 Q313 450 295 450 Q261 450 233 439.5 Q205 429 185 406 Q165 383 154 346.5 Q143 310 143 259 Z " />
<glyph glyph-name="oslashacute" unicode="&#x1ff;" horiz-adv-x="578" d="M286 -12 Q245 -12 214 -5 L185 -72 L99 -72 L142 26 Q91 61 70 120.5 Q49 180 49 255 Q49 317 65 367 Q81 417 112.5 452 Q144 487 190.5 506 Q237 525 299 525 Q331 525 360 519 L390 586 L475 586 L433 490 Q483 458 506 400.5 Q529 343 529 267 Q529 204 515.5 152.5 Q502 101 472.5 64.5 Q443 28 397 8 Q351 -12 286 -12 Z M291 61 Q324 61 350.5 71.5 Q377 82 395.5 106 Q414 130 424 168 Q434 206 434 261 Q434 315 424.5 351 Q415 387 397 409 L246 66 Q256 63 267 62 Q278 61 291 61 Z M143 259 Q143 158 179 109 L328 447 Q313 450 295 450 Q261 450 233 439.5 Q205 429 185 406 Q165 383 154 346.5 Q143 310 143 259 Z M278 572 L212 584 L309 747 L418 747 L278 572 Z " />
<glyph glyph-name="otilde" unicode="&#xf5;" horiz-adv-x="578" d="M286 -12 Q219 -12 173.5 8.5 Q128 29 100.5 64.5 Q73 100 61 149 Q49 198 49 255 Q49 317 65 367 Q81 417 112.5 452 Q144 487 190.5 506 Q237 525 299 525 Q360 525 403.5 506 Q447 487 475 453 Q503 419 516 371.5 Q529 324 529 267 Q529 204 515.5 152.5 Q502 101 472.5 64.5 Q443 28 397 8 Q351 -12 286 -12 Z M291 61 Q324 61 350.5 71.5 Q377 82 395.5 106 Q414 130 424 168 Q434 206 434 261 Q434 314 425 350.5 Q416 387 398 409 Q380 431 354 440.5 Q328 450 295 450 Q261 450 233 439.5 Q205 429 185 406 Q165 383 154 346.5 Q143 310 143 259 Q143 156 179.5 108.5 Q216 61 291 61 Z M215 716 Q239 716 259 709 Q279 702 297 693 Q315 684 332 677 Q349 670 366 670 Q385 670 394.5 679.5 Q404 689 404 721 L459 719 Q463 688 458 665 Q453 642 441 627 Q429 612 412 604.5 Q395 597 375 597 Q351 597 330.5 604 Q310 611 291.5 620 Q273 629 255.5 636 Q238 643 221 643 Q205 643 194.5 632.5 Q184 622 186 589 L130 592 Q126 623 132 646.5 Q138 670 150 685.5 Q162 701 179 708.5 Q196 716 215 716 Z " />
<glyph glyph-name="racute" unicode="&#x155;" horiz-adv-x="364" d="M354 430 Q330 433 304.5 430.5 Q279 428 255 420 Q231 412 209.5 400.5 Q188 389 172 374 L172 0 L81 0 L81 514 L157 514 L164 440 Q198 486 239.5 505.5 Q281 525 335 525 Q340 525 344.5 524.5 Q349 524 354 524 L354 430 Z M212 572 L146 584 L243 747 L352 747 L212 572 Z " />
<glyph glyph-name="rcaron" unicode="&#x159;" horiz-adv-x="364" d="M354 430 Q330 433 304.5 430.5 Q279 428 255 420 Q231 412 209.5 400.5 Q188 389 172 374 L172 0 L81 0 L81 514 L157 514 L164 440 Q198 486 239.5 505.5 Q281 525 335 525 Q340 525 344.5 524.5 Q349 524 354 524 L354 430 Z M132 742 L219 630 L308 744 L374 737 L262 572 L173 572 L60 737 L132 742 Z " />
<glyph glyph-name="rcommaaccent" unicode="&#x157;" horiz-adv-x="364" d="M354 430 Q330 433 304.5 430.5 Q279 428 255 420 Q231 412 209.5 400.5 Q188 389 172 374 L172 0 L81 0 L81 514 L157 514 L164 440 Q198 486 239.5 505.5 Q281 525 335 525 Q340 525 344.5 524.5 Q349 524 354 524 L354 430 Z M83 -69 L180 -69 L112 -243 L44 -233 L83 -69 Z " />
<glyph glyph-name="sacute" unicode="&#x15b;" horiz-adv-x="487" d="M248 525 Q294 525 326.5 514.5 Q359 504 381.5 484.5 Q404 465 417 437.5 Q430 410 436 376 L354 358 Q349 380 342.5 397.5 Q336 415 324 427.5 Q312 440 293.5 446.5 Q275 453 247 453 Q191 453 169.5 431.5 Q148 410 148 381 Q148 361 155.5 347.5 Q163 334 178 325 Q193 316 214 310 Q235 304 262 298 Q297 290 330 281.5 Q363 273 388.5 256.5 Q414 240 429.5 213.5 Q445 187 445 144 Q445 70 391.5 29 Q338 -12 244 -12 Q155 -12 103 23.5 Q51 59 39 137 L120 159 Q125 138 133 120 Q141 102 155 88.5 Q169 75 191.5 67.5 Q214 60 248 60 Q294 60 324.5 76.5 Q355 93 355 134 Q355 155 347.5 168.5 Q340 182 325.5 190.5 Q311 199 290 204.5 Q269 210 243 215 Q211 221 178.5 229.5 Q146 238 119 254 Q92 270 75 297.5 Q58 325 58 370 Q58 409 73 438 Q88 467 114 486.5 Q140 506 174.5 515.5 Q209 525 248 525 Z M231 572 L165 584 L262 747 L371 747 L231 572 Z " />
<glyph glyph-name="scaron" unicode="&#x161;" horiz-adv-x="487" d="M248 525 Q294 525 326.5 514.5 Q359 504 381.5 484.5 Q404 465 417 437.5 Q430 410 436 376 L354 358 Q349 380 342.5 397.5 Q336 415 324 427.5 Q312 440 293.5 446.5 Q275 453 247 453 Q191 453 169.5 431.5 Q148 410 148 381 Q148 361 155.5 347.5 Q163 334 178 325 Q193 316 214 310 Q235 304 262 298 Q297 290 330 281.5 Q363 273 388.5 256.5 Q414 240 429.5 213.5 Q445 187 445 144 Q445 70 391.5 29 Q338 -12 244 -12 Q155 -12 103 23.5 Q51 59 39 137 L120 159 Q125 138 133 120 Q141 102 155 88.5 Q169 75 191.5 67.5 Q214 60 248 60 Q294 60 324.5 76.5 Q355 93 355 134 Q355 155 347.5 168.5 Q340 182 325.5 190.5 Q311 199 290 204.5 Q269 210 243 215 Q211 221 178.5 229.5 Q146 238 119 254 Q92 270 75 297.5 Q58 325 58 370 Q58 409 73 438 Q88 467 114 486.5 Q140 506 174.5 515.5 Q209 525 248 525 Z M162 742 L249 630 L338 744 L404 737 L292 572 L203 572 L90 737 L162 742 Z " />
<glyph glyph-name="scedilla" unicode="&#x15f;" horiz-adv-x="487" d="M175 -161 Q184 -166 199 -171 Q214 -176 231 -176 Q254 -176 266.5 -163.5 Q279 -151 279 -131 Q279 -106 262 -95.5 Q245 -85 206 -84 L216 -11 Q140 -6 95 29.5 Q50 65 39 137 L120 159 Q125 138 133 120 Q141 102 155 88.5 Q169 75 191.5 67.5 Q214 60 248 60 Q294 60 324.5 76.5 Q355 93 355 134 Q355 155 347.5 168.5 Q340 182 325.5 190.5 Q311 199 290 204.5 Q269 210 243 215 Q211 221 178.5 229.5 Q146 238 119 254 Q92 270 75 297.5 Q58 325 58 370 Q58 409 73 438 Q88 467 114 486.5 Q140 506 174.5 515.5 Q209 525 248 525 Q294 525 326.5 514.5 Q359 504 381.5 484.5 Q404 465 417 437.5 Q430 410 436 376 L354 358 Q349 380 342.5 397.5 Q336 415 324 427.5 Q312 440 293.5 446.5 Q275 453 247 453 Q191 453 169.5 431.5 Q148 410 148 381 Q148 361 155.5 347.5 Q163 334 178 325 Q193 316 214 310 Q235 304 262 298 Q297 290 330 281.5 Q363 273 388.5 256.5 Q414 240 429.5 213.5 Q445 187 445 144 Q445 76 400 36 Q355 -4 274 -11 L270 -44 Q301 -50 325 -69.5 Q349 -89 349 -132 Q349 -179 317.5 -205.5 Q286 -232 239 -232 Q212 -232 191 -225.5 Q170 -219 158 -212 L175 -161 Z " />
<glyph glyph-name="scircumflex" unicode="&#x15d;" horiz-adv-x="487" d="M248 525 Q294 525 326.5 514.5 Q359 504 381.5 484.5 Q404 465 417 437.5 Q430 410 436 376 L354 358 Q349 380 342.5 397.5 Q336 415 324 427.5 Q312 440 293.5 446.5 Q275 453 247 453 Q191 453 169.5 431.5 Q148 410 148 381 Q148 361 155.5 347.5 Q163 334 178 325 Q193 316 214 310 Q235 304 262 298 Q297 290 330 281.5 Q363 273 388.5 256.5 Q414 240 429.5 213.5 Q445 187 445 144 Q445 70 391.5 29 Q338 -12 244 -12 Q155 -12 103 23.5 Q51 59 39 137 L120 159 Q125 138 133 120 Q141 102 155 88.5 Q169 75 191.5 67.5 Q214 60 248 60 Q294 60 324.5 76.5 Q355 93 355 134 Q355 155 347.5 168.5 Q340 182 325.5 190.5 Q311 199 290 204.5 Q269 210 243 215 Q211 221 178.5 229.5 Q146 238 119 254 Q92 270 75 297.5 Q58 325 58 370 Q58 409 73 438 Q88 467 114 486.5 Q140 506 174.5 515.5 Q209 525 248 525 Z M337 577 L248 690 L160 576 L92 583 L204 748 L293 748 L406 583 L337 577 Z " />
<glyph glyph-name="scommaaccent" unicode="&#x219;" horiz-adv-x="487" d="M248 525 Q294 525 326.5 514.5 Q359 504 381.5 484.5 Q404 465 417 437.5 Q430 410 436 376 L354 358 Q349 380 342.5 397.5 Q336 415 324 427.5 Q312 440 293.5 446.5 Q275 453 247 453 Q191 453 169.5 431.5 Q148 410 148 381 Q148 361 155.5 347.5 Q163 334 178 325 Q193 316 214 310 Q235 304 262 298 Q297 290 330 281.5 Q363 273 388.5 256.5 Q414 240 429.5 213.5 Q445 187 445 144 Q445 70 391.5 29 Q338 -12 244 -12 Q155 -12 103 23.5 Q51 59 39 137 L120 159 Q125 138 133 120 Q141 102 155 88.5 Q169 75 191.5 67.5 Q214 60 248 60 Q294 60 324.5 76.5 Q355 93 355 134 Q355 155 347.5 168.5 Q340 182 325.5 190.5 Q311 199 290 204.5 Q269 210 243 215 Q211 221 178.5 229.5 Q146 238 119 254 Q92 270 75 297.5 Q58 325 58 370 Q58 409 73 438 Q88 467 114 486.5 Q140 506 174.5 515.5 Q209 525 248 525 Z M205 -69 L302 -69 L234 -243 L166 -233 L205 -69 Z " />
<glyph glyph-name="tbar" unicode="&#x167;" horiz-adv-x="379" d="M368 22 Q349 9 313.5 -1.5 Q278 -12 242 -12 Q170 -12 133.5 22.5 Q97 57 97 135 L97 233 L18 233 L18 302 L97 302 L97 441 L18 441 L18 514 L97 514 L97 663 L188 677 L188 514 L330 514 L330 441 L188 441 L188 302 L330 302 L330 233 L188 233 L188 147 Q188 127 191 111 Q194 95 202 84.5 Q210 74 224.5 68.5 Q239 63 262 63 Q285 63 310 71 Q335 79 352 88 L368 22 Z " />
<glyph glyph-name="tcaron" unicode="&#x165;" horiz-adv-x="379" d="M368 22 Q349 9 313.5 -1.5 Q278 -12 242 -12 Q170 -12 133.5 22.5 Q97 57 97 135 L97 441 L18 441 L18 514 L97 514 L97 663 L188 677 L188 514 L330 514 L330 441 L188 441 L188 147 Q188 127 191 111 Q194 95 202 84.5 Q210 74 224.5 68.5 Q239 63 262 63 Q285 63 310 71 Q335 79 352 88 L368 22 Z M261 755 L356 755 L294 556 L228 564 L261 755 Z " />
<glyph glyph-name="uni0163" unicode="&#x163;" horiz-adv-x="379" d="M148 -161 Q157 -166 172 -171 Q187 -176 204 -176 Q227 -176 239.5 -163.5 Q252 -151 252 -131 Q252 -106 235 -95.5 Q218 -85 179 -84 L190 -6 Q143 5 120 38.5 Q97 72 97 135 L97 441 L18 441 L18 514 L97 514 L97 663 L188 677 L188 514 L330 514 L330 441 L188 441 L188 147 Q188 127 191 111 Q194 95 202 84.5 Q210 74 224.5 68.5 Q239 63 262 63 Q285 63 310 71 Q335 79 352 88 L368 22 Q350 9 316 -0.5 Q282 -10 247 -12 L243 -44 Q274 -50 298 -69.5 Q322 -89 322 -132 Q322 -179 290.5 -205.5 Q259 -232 212 -232 Q185 -232 164 -225.5 Q143 -219 131 -212 L148 -161 Z " />
<glyph glyph-name="uni021B" unicode="&#x21b;" horiz-adv-x="379" d="M368 22 Q349 9 313.5 -1.5 Q278 -12 242 -12 Q170 -12 133.5 22.5 Q97 57 97 135 L97 441 L18 441 L18 514 L97 514 L97 663 L188 677 L188 514 L330 514 L330 441 L188 441 L188 147 Q188 127 191 111 Q194 95 202 84.5 Q210 74 224.5 68.5 Q239 63 262 63 Q285 63 310 71 Q335 79 352 88 L368 22 Z M192 -69 L289 -69 L221 -243 L153 -233 L192 -69 Z " />
<glyph glyph-name="uacute" unicode="&#xfa;" horiz-adv-x="581" d="M79 514 L170 514 L170 179 Q170 125 188 97 Q206 69 263 69 Q285 69 307.5 75.5 Q330 82 349.5 91.5 Q369 101 385.5 112 Q402 123 412 132 L412 514 L503 514 L503 0 L424 0 L418 59 Q380 28 335 9 Q290 -10 236 -10 Q154 -10 116.5 34 Q79 78 79 165 L79 514 Z M276 572 L210 584 L307 747 L416 747 L276 572 Z " />
<glyph glyph-name="ubreve" unicode="&#x16d;" horiz-adv-x="581" d="M79 514 L170 514 L170 179 Q170 125 188 97 Q206 69 263 69 Q285 69 307.5 75.5 Q330 82 349.5 91.5 Q369 101 385.5 112 Q402 123 412 132 L412 514 L503 514 L503 0 L424 0 L418 59 Q380 28 335 9 Q290 -10 236 -10 Q154 -10 116.5 34 Q79 78 79 165 L79 514 Z M449 727 Q447 652 407.5 612 Q368 572 293 572 Q222 572 185 609 Q148 646 146 724 L213 733 Q218 677 237.5 656.5 Q257 636 296 636 Q337 636 358.5 656.5 Q380 677 384 732 L449 727 Z " />
<glyph glyph-name="ucircumflex" unicode="&#xfb;" horiz-adv-x="581" d="M79 514 L170 514 L170 179 Q170 125 188 97 Q206 69 263 69 Q285 69 307.5 75.5 Q330 82 349.5 91.5 Q369 101 385.5 112 Q402 123 412 132 L412 514 L503 514 L503 0 L424 0 L418 59 Q380 28 335 9 Q290 -10 236 -10 Q154 -10 116.5 34 Q79 78 79 165 L79 514 Z M382 577 L293 690 L205 576 L137 583 L249 748 L338 748 L451 583 L382 577 Z " />
<glyph glyph-name="udieresis" unicode="&#xfc;" horiz-adv-x="581" d="M79 514 L170 514 L170 179 Q170 125 188 97 Q206 69 263 69 Q285 69 307.5 75.5 Q330 82 349.5 91.5 Q369 101 385.5 112 Q402 123 412 132 L412 514 L503 514 L503 0 L424 0 L418 59 Q380 28 335 9 Q290 -10 236 -10 Q154 -10 116.5 34 Q79 78 79 165 L79 514 Z M251 672 Q251 643 234 626.5 Q217 610 189 610 Q160 610 142.5 626.5 Q125 643 125 672 Q125 700 142.5 716.5 Q160 733 189 733 Q217 733 234 716.5 Q251 700 251 672 Z M461 672 Q461 643 444 626.5 Q427 610 398 610 Q369 610 352 626.5 Q335 643 335 672 Q335 700 352 716.5 Q369 733 398 733 Q427 733 444 716.5 Q461 700 461 672 Z " />
<glyph glyph-name="ugrave" unicode="&#xf9;" horiz-adv-x="581" d="M79 514 L170 514 L170 179 Q170 125 188 97 Q206 69 263 69 Q285 69 307.5 75.5 Q330 82 349.5 91.5 Q369 101 385.5 112 Q402 123 412 132 L412 514 L503 514 L503 0 L424 0 L418 59 Q380 28 335 9 Q290 -10 236 -10 Q154 -10 116.5 34 Q79 78 79 165 L79 514 Z M174 747 L283 747 L380 584 L314 572 L174 747 Z " />
<glyph glyph-name="uhungarumlaut" unicode="&#x171;" horiz-adv-x="581" d="M79 514 L170 514 L170 179 Q170 125 188 97 Q206 69 263 69 Q285 69 307.5 75.5 Q330 82 349.5 91.5 Q369 101 385.5 112 Q402 123 412 132 L412 514 L503 514 L503 0 L424 0 L418 59 Q380 28 335 9 Q290 -10 236 -10 Q154 -10 116.5 34 Q79 78 79 165 L79 514 Z M238 572 L173 585 L246 746 L353 746 L238 572 Z M370 572 L304 584 L404 748 L513 748 L370 572 Z " />
<glyph glyph-name="umacron" unicode="&#x16b;" horiz-adv-x="581" d="M79 514 L170 514 L170 179 Q170 125 188 97 Q206 69 263 69 Q285 69 307.5 75.5 Q330 82 349.5 91.5 Q369 101 385.5 112 Q402 123 412 132 L412 514 L503 514 L503 0 L424 0 L418 59 Q380 28 335 9 Q290 -10 236 -10 Q154 -10 116.5 34 Q79 78 79 165 L79 514 Z M148 625 L148 696 L439 696 L439 625 L148 625 Z " />
<glyph glyph-name="uogonek" unicode="&#x173;" horiz-adv-x="581" d="M558 -147 Q541 -188 508 -208 Q475 -228 440 -228 Q395 -228 367.5 -205 Q340 -182 340 -139 Q340 -117 347 -97 Q354 -77 366 -60 Q378 -43 393 -28 Q408 -13 424 0 L418 59 Q380 28 335 9 Q290 -10 236 -10 Q154 -10 116.5 34 Q79 78 79 165 L79 514 L170 514 L170 179 Q170 125 188 97 Q206 69 263 69 Q285 69 307.5 75.5 Q330 82 349.5 91.5 Q369 101 385.5 112 Q402 123 412 132 L412 514 L503 514 L503 0 Q466 -34 442 -61.5 Q418 -89 418 -124 Q418 -162 456 -162 Q488 -162 510 -123 L558 -147 Z " />
<glyph glyph-name="uring" unicode="&#x16f;" horiz-adv-x="581" d="M79 514 L170 514 L170 179 Q170 125 188 97 Q206 69 263 69 Q285 69 307.5 75.5 Q330 82 349.5 91.5 Q369 101 385.5 112 Q402 123 412 132 L412 514 L503 514 L503 0 L424 0 L418 59 Q380 28 335 9 Q290 -10 236 -10 Q154 -10 116.5 34 Q79 78 79 165 L79 514 Z M400 674 Q400 626 371 599.5 Q342 573 293 573 Q245 573 216.5 598.5 Q188 624 188 670 Q188 722 219.5 747.5 Q251 773 293 773 Q338 773 369 749 Q400 725 400 674 Z M293 623 Q317 623 329.5 637 Q342 651 342 674 Q342 722 293 722 Q272 722 257.5 709.5 Q243 697 243 672 Q243 623 293 623 Z " />
<glyph glyph-name="utilde" unicode="&#x169;" horiz-adv-x="581" d="M79 514 L170 514 L170 179 Q170 125 188 97 Q206 69 263 69 Q285 69 307.5 75.5 Q330 82 349.5 91.5 Q369 101 385.5 112 Q402 123 412 132 L412 514 L503 514 L503 0 L424 0 L418 59 Q380 28 335 9 Q290 -10 236 -10 Q154 -10 116.5 34 Q79 78 79 165 L79 514 Z M213 716 Q237 716 257 709 Q277 702 295 693 Q313 684 330 677 Q347 670 364 670 Q383 670 392.5 679.5 Q402 689 402 721 L457 719 Q461 688 456 665 Q451 642 439 627 Q427 612 410 604.5 Q393 597 373 597 Q349 597 328.5 604 Q308 611 289.5 620 Q271 629 253.5 636 Q236 643 219 643 Q203 643 192.5 632.5 Q182 622 184 589 L128 592 Q124 623 130 646.5 Q136 670 148 685.5 Q160 701 177 708.5 Q194 716 213 716 Z " />
<glyph glyph-name="wacute" unicode="&#x1e83;" horiz-adv-x="759" d="M167 0 L6 514 L98 514 L223 96 L336 514 L430 514 L542 98 L543 98 L665 514 L753 514 L593 0 L487 0 L381 405 L380 405 L275 0 L167 0 Z M371 572 L305 584 L402 747 L511 747 L371 572 Z " />
<glyph glyph-name="wcircumflex" unicode="&#x175;" horiz-adv-x="759" d="M167 0 L6 514 L98 514 L223 96 L336 514 L430 514 L542 98 L543 98 L665 514 L753 514 L593 0 L487 0 L381 405 L380 405 L275 0 L167 0 Z M472 577 L383 690 L295 576 L227 583 L339 748 L428 748 L541 583 L472 577 Z " />
<glyph glyph-name="wdieresis" unicode="&#x1e85;" horiz-adv-x="759" d="M167 0 L6 514 L98 514 L223 96 L336 514 L430 514 L542 98 L543 98 L665 514 L753 514 L593 0 L487 0 L381 405 L380 405 L275 0 L167 0 Z M341 672 Q341 643 324 626.5 Q307 610 279 610 Q250 610 232.5 626.5 Q215 643 215 672 Q215 700 232.5 716.5 Q250 733 279 733 Q307 733 324 716.5 Q341 700 341 672 Z M551 672 Q551 643 534 626.5 Q517 610 488 610 Q459 610 442 626.5 Q425 643 425 672 Q425 700 442 716.5 Q459 733 488 733 Q517 733 534 716.5 Q551 700 551 672 Z " />
<glyph glyph-name="wgrave" unicode="&#x1e81;" horiz-adv-x="759" d="M167 0 L6 514 L98 514 L223 96 L336 514 L430 514 L542 98 L543 98 L665 514 L753 514 L593 0 L487 0 L381 405 L380 405 L275 0 L167 0 Z M243 747 L352 747 L449 584 L383 572 L243 747 Z " />
<glyph glyph-name="yacute" unicode="&#xfd;" horiz-adv-x="485" d="M8 514 L109 514 L245 106 L246 106 L387 514 L480 514 L258 -75 Q243 -116 226 -144 Q209 -172 188.5 -189.5 Q168 -207 143.5 -215 Q119 -223 89 -223 Q60 -223 32.5 -217 Q5 -211 -10 -204 L1 -133 Q15 -138 39 -143.5 Q63 -149 83 -149 Q111 -149 134.5 -132 Q158 -115 175 -69 L199 -6 L8 514 Z M229 572 L163 584 L260 747 L369 747 L229 572 Z " />
<glyph glyph-name="ycircumflex" unicode="&#x177;" horiz-adv-x="485" d="M8 514 L109 514 L245 106 L246 106 L387 514 L480 514 L258 -75 Q243 -116 226 -144 Q209 -172 188.5 -189.5 Q168 -207 143.5 -215 Q119 -223 89 -223 Q60 -223 32.5 -217 Q5 -211 -10 -204 L1 -133 Q15 -138 39 -143.5 Q63 -149 83 -149 Q111 -149 134.5 -132 Q158 -115 175 -69 L199 -6 L8 514 Z M335 577 L246 690 L158 576 L90 583 L202 748 L291 748 L404 583 L335 577 Z " />
<glyph glyph-name="ydieresis" unicode="&#xff;" horiz-adv-x="485" d="M8 514 L109 514 L245 106 L246 106 L387 514 L480 514 L258 -75 Q243 -116 226 -144 Q209 -172 188.5 -189.5 Q168 -207 143.5 -215 Q119 -223 89 -223 Q60 -223 32.5 -217 Q5 -211 -10 -204 L1 -133 Q15 -138 39 -143.5 Q63 -149 83 -149 Q111 -149 134.5 -132 Q158 -115 175 -69 L199 -6 L8 514 Z M204 672 Q204 643 187 626.5 Q170 610 142 610 Q113 610 95.5 626.5 Q78 643 78 672 Q78 700 95.5 716.5 Q113 733 142 733 Q170 733 187 716.5 Q204 700 204 672 Z M414 672 Q414 643 397 626.5 Q380 610 351 610 Q322 610 305 626.5 Q288 643 288 672 Q288 700 305 716.5 Q322 733 351 733 Q380 733 397 716.5 Q414 700 414 672 Z " />
<glyph glyph-name="ygrave" unicode="&#x1ef3;" horiz-adv-x="485" d="M8 514 L109 514 L245 106 L246 106 L387 514 L480 514 L258 -75 Q243 -116 226 -144 Q209 -172 188.5 -189.5 Q168 -207 143.5 -215 Q119 -223 89 -223 Q60 -223 32.5 -217 Q5 -211 -10 -204 L1 -133 Q15 -138 39 -143.5 Q63 -149 83 -149 Q111 -149 134.5 -132 Q158 -115 175 -69 L199 -6 L8 514 Z M106 747 L215 747 L312 584 L246 572 L106 747 Z " />
<glyph glyph-name="zacute" unicode="&#x17a;" horiz-adv-x="459" d="M134 73 L434 73 L434 0 L31 0 L31 62 L319 441 L35 441 L35 514 L422 514 L422 448 L134 73 Z M216 572 L150 584 L247 747 L356 747 L216 572 Z " />
<glyph glyph-name="zcaron" unicode="&#x17e;" horiz-adv-x="459" d="M134 73 L434 73 L434 0 L31 0 L31 62 L319 441 L35 441 L35 514 L422 514 L422 448 L134 73 Z M147 742 L234 630 L323 744 L389 737 L277 572 L188 572 L75 737 L147 742 Z " />
<glyph glyph-name="zdotaccent" unicode="&#x17c;" horiz-adv-x="459" d="M134 73 L434 73 L434 0 L31 0 L31 62 L319 441 L35 441 L35 514 L422 514 L422 448 L134 73 Z M297 679 Q297 647 280.5 630 Q264 613 233 613 Q202 613 185 630 Q168 647 168 679 Q168 711 185 727.5 Q202 744 233 744 Q297 744 297 679 Z " />
<glyph glyph-name="ff" unicode="&#xfb00;" horiz-adv-x="638" d="M330 678 Q314 683 295 686.5 Q276 690 259 690 Q225 690 204 671.5 Q183 653 183 601 L183 514 L404 514 L404 597 Q404 682 443.5 723.5 Q483 765 557 765 Q589 765 613 759.5 Q637 754 650 748 L647 678 Q632 683 612.5 687 Q593 691 575 691 Q540 691 517.5 672.5 Q495 654 495 600 L495 514 L638 514 L638 441 L495 441 L495 0 L404 0 L404 441 L183 441 L183 0 L92 0 L92 441 L16 441 L16 514 L92 514 L92 597 Q92 682 131 723.5 Q170 765 242 765 Q272 765 296.5 759.5 Q321 754 334 748 L330 678 Z " />
<glyph glyph-name="fi" unicode="&#xfb01;" horiz-adv-x="572" d="M495 0 L404 0 L404 441 L183 441 L183 0 L92 0 L92 441 L16 441 L16 514 L92 514 L92 597 Q92 682 131 723.5 Q170 765 242 765 Q270 765 290 760.5 Q310 756 324 750 L321 679 Q307 684 291 687 Q275 690 258 690 Q224 690 203.5 671.5 Q183 653 183 601 L183 514 L495 514 L495 0 Z M515 681 Q515 649 498 632.5 Q481 616 450 616 Q420 616 403 632.5 Q386 649 386 681 Q386 713 403 729.5 Q420 746 450 746 Q481 746 498 729.5 Q515 713 515 681 Z " />
<glyph glyph-name="fl" unicode="&#xfb02;" horiz-adv-x="572" d="M330 678 Q314 683 295 686.5 Q276 690 259 690 Q225 690 204 671.5 Q183 653 183 601 L183 514 L322 514 L322 441 L183 441 L183 0 L92 0 L92 441 L16 441 L16 514 L92 514 L92 597 Q92 682 131 723.5 Q170 765 242 765 Q272 765 296.5 759.5 Q321 754 334 748 L330 678 Z M495 0 L404 0 L404 755 L495 755 L495 0 Z " />
<glyph glyph-name="ffi" unicode="&#xfb03;" horiz-adv-x="884" d="M807 0 L716 0 L716 441 L495 441 L495 0 L404 0 L404 441 L183 441 L183 0 L92 0 L92 441 L16 441 L16 514 L92 514 L92 597 Q92 682 131 723.5 Q170 765 242 765 Q272 765 296.5 759.5 Q321 754 334 748 L330 678 Q314 683 295 686.5 Q276 690 259 690 Q225 690 204 671.5 Q183 653 183 601 L183 514 L404 514 L404 597 Q404 682 443 723.5 Q482 765 554 765 Q582 765 602 760.5 Q622 756 636 750 L633 679 Q619 684 603 687 Q587 690 570 690 Q536 690 515.5 671.5 Q495 653 495 601 L495 514 L807 514 L807 0 Z M827 681 Q827 649 810 632.5 Q793 616 762 616 Q732 616 715 632.5 Q698 649 698 681 Q698 713 715 729.5 Q732 746 762 746 Q793 746 810 729.5 Q827 713 827 681 Z " />
<glyph glyph-name="ffl" unicode="&#xfb04;" horiz-adv-x="884" d="M642 678 Q626 683 607 686.5 Q588 690 571 690 Q537 690 516 671.5 Q495 653 495 601 L495 514 L634 514 L634 441 L495 441 L495 0 L404 0 L404 441 L183 441 L183 0 L92 0 L92 441 L16 441 L16 514 L92 514 L92 597 Q92 682 131 723.5 Q170 765 242 765 Q272 765 296.5 759.5 Q321 754 334 748 L330 678 Q314 683 295 686.5 Q276 690 259 690 Q225 690 204 671.5 Q183 653 183 601 L183 514 L404 514 L404 597 Q404 682 443 723.5 Q482 765 554 765 Q584 765 608.5 759.5 Q633 754 646 748 L642 678 Z M807 0 L716 0 L716 755 L807 755 L807 0 Z " />
<glyph glyph-name="s_t" unicode="&#xfb06;" horiz-adv-x="841" d="M830 22 Q811 9 775 -1.5 Q739 -12 703 -12 Q631 -12 595 22.5 Q559 57 559 135 L559 663 L650 677 L650 514 L791 514 L791 442 L650 442 L650 147 Q650 127 653 111 Q656 95 664 84.5 Q672 74 686.5 68.5 Q701 63 724 63 Q747 63 772 71 Q797 79 813 88 L830 22 Z M248 525 Q294 525 326.5 514.5 Q359 504 381.5 484.5 Q404 465 417 437.5 Q430 410 436 376 L354 358 Q349 380 342.5 397.5 Q336 415 324 427.5 Q312 440 293.5 446.5 Q275 453 247 453 Q191 453 169.5 431.5 Q148 410 148 381 Q148 361 155.5 347.5 Q163 334 178 325 Q193 316 214 310 Q235 304 262 298 Q297 290 330 281.5 Q363 273 388.5 256.5 Q414 240 429.5 213.5 Q445 187 445 144 Q445 70 391.5 29 Q338 -12 244 -12 Q155 -12 103 23.5 Q51 59 39 137 L120 159 Q125 138 133 120 Q141 102 155 88.5 Q169 75 191.5 67.5 Q214 60 248 60 Q294 60 324.5 76.5 Q355 93 355 134 Q355 155 347.5 168.5 Q340 182 325.5 190.5 Q311 199 290 204.5 Q269 210 243 215 Q211 221 178.5 229.5 Q146 238 119 254 Q92 270 75 297.5 Q58 325 58 370 Q58 409 73 438 Q88 467 114 486.5 Q140 506 174.5 515.5 Q209 525 248 525 Z " />
<glyph glyph-name="circumflex" unicode="&#x2c6;" horiz-adv-x="500" d="M339 577 L250 690 L162 576 L94 583 L206 748 L295 748 L408 583 L339 577 Z " />
<glyph glyph-name="caron" unicode="&#x2c7;" horiz-adv-x="500" d="M164 742 L251 630 L340 744 L406 737 L294 572 L205 572 L92 737 L164 742 Z " />
<glyph glyph-name="uni02C9" unicode="&#x2c9;" horiz-adv-x="500" d="M105 617 L105 689 L396 689 L396 617 L105 617 Z " />
<glyph glyph-name="breve" unicode="&#x2d8;" horiz-adv-x="500" d="M406 727 Q404 652 364.5 612 Q325 572 250 572 Q179 572 142 609 Q105 646 103 724 L170 733 Q175 677 194.5 656.5 Q214 636 253 636 Q294 636 315.5 656.5 Q337 677 341 732 L406 727 Z " />
<glyph glyph-name="dieresis" unicode="&#xa8;" horiz-adv-x="500" d="M208 672 Q208 643 191 626.5 Q174 610 146 610 Q117 610 99.5 626.5 Q82 643 82 672 Q82 700 99.5 716.5 Q117 733 146 733 Q174 733 191 716.5 Q208 700 208 672 Z M418 672 Q418 643 401 626.5 Q384 610 355 610 Q326 610 309 626.5 Q292 643 292 672 Q292 700 309 716.5 Q326 733 355 733 Q384 733 401 716.5 Q418 700 418 672 Z " />
<glyph glyph-name="macron" unicode="&#xaf;" horiz-adv-x="500" d="M105 625 L105 696 L396 696 L396 625 L105 625 Z " />
<glyph glyph-name="degree" unicode="&#xb0;" horiz-adv-x="340" d="M182 578 Q208 578 222 594 Q236 610 236 637 Q236 665 222 680 Q208 695 182 695 Q157 695 141.5 679.5 Q126 664 126 634 Q126 608 140.5 593 Q155 578 182 578 Z M293 637 Q293 585 263 555 Q233 525 182 525 Q130 525 99.5 554 Q69 583 69 634 Q69 689 101.5 718.5 Q134 748 182 748 Q230 748 261.5 719.5 Q293 691 293 637 Z " />
<glyph glyph-name="acute" unicode="&#xb4;" horiz-adv-x="500" d="M233 572 L167 584 L264 747 L373 747 L233 572 Z " />
<glyph glyph-name="grave" unicode="&#x60;" horiz-adv-x="500" d="M131 747 L240 747 L337 584 L271 572 L131 747 Z " />
<glyph glyph-name="cedilla" unicode="&#xb8;" horiz-adv-x="500" d="M151 -161 Q160 -166 175 -171 Q190 -176 207 -176 Q230 -176 242.5 -163.5 Q255 -151 255 -131 Q255 -106 238 -95.5 Q221 -85 182 -84 L198 30 L255 22 L246 -44 Q277 -50 301 -69.5 Q325 -89 325 -132 Q325 -179 293.5 -205.5 Q262 -232 215 -232 Q188 -232 167 -225.5 Q146 -219 134 -212 L151 -161 Z " />
<glyph glyph-name="dotaccent" unicode="&#x2d9;" horiz-adv-x="500" d="M314 679 Q314 647 297.5 630 Q281 613 250 613 Q219 613 202 630 Q185 647 185 679 Q185 711 202 727.5 Q219 744 250 744 Q314 744 314 679 Z " />
<glyph glyph-name="ring" unicode="&#x2da;" horiz-adv-x="500" d="M357 674 Q357 626 328 599.5 Q299 573 250 573 Q202 573 173.5 598.5 Q145 624 145 670 Q145 722 176.5 747.5 Q208 773 250 773 Q295 773 326 749 Q357 725 357 674 Z M250 623 Q274 623 286.5 637 Q299 651 299 674 Q299 722 250 722 Q229 722 214.5 709.5 Q200 697 200 672 Q200 623 250 623 Z " />
<glyph glyph-name="ogonek" unicode="&#x2db;" horiz-adv-x="500" d="M369 -147 Q352 -188 319 -208 Q286 -228 251 -228 Q206 -228 178.5 -205 Q151 -182 151 -139 Q151 -112 162 -88.5 Q173 -65 189.5 -45 Q206 -25 226 -8.5 Q246 8 264 22 L321 7 Q281 -30 255 -59 Q229 -88 229 -124 Q229 -162 267 -162 Q299 -162 321 -123 L369 -147 Z " />
<glyph glyph-name="tilde" unicode="&#x2dc;" horiz-adv-x="500" d="M170 716 Q194 716 214 709 Q234 702 252 693 Q270 684 287 677 Q304 670 321 670 Q340 670 349.5 679.5 Q359 689 359 721 L414 719 Q418 688 413 665 Q408 642 396 627 Q384 612 367 604.5 Q350 597 330 597 Q306 597 285.5 604 Q265 611 246.5 620 Q228 629 210.5 636 Q193 643 176 643 Q160 643 149.5 632.5 Q139 622 141 589 L85 592 Q81 623 87 646.5 Q93 670 105 685.5 Q117 701 134 708.5 Q151 716 170 716 Z " />
<glyph glyph-name="hungarumlaut" unicode="&#x2dd;" horiz-adv-x="500" d="M203 572 L138 585 L211 746 L318 746 L203 572 Z M335 572 L269 584 L369 748 L478 748 L335 572 Z " />
<glyph glyph-name="apostrophe" unicode="&#x2bc;" horiz-adv-x="500" d="M215 696 L312 696 L244 522 L176 532 L215 696 Z " />
<glyph glyph-name="zerosuperior" unicode="&#x2070;" horiz-adv-x="406" d="M201 342 Q154 342 123.5 358 Q93 374 74.5 404 Q56 434 48.5 476.5 Q41 519 41 572 Q41 625 50 667.5 Q59 710 79 740 Q99 770 130.5 786 Q162 802 208 802 Q255 802 285.5 786 Q316 770 333.5 740.5 Q351 711 358 669.5 Q365 628 365 577 Q365 522 357 478.5 Q349 435 330 404.5 Q311 374 279.5 358 Q248 342 201 342 Z M204 407 Q250 407 264.5 448.5 Q279 490 279 574 Q279 655 265.5 695.5 Q252 736 206 736 Q159 736 143.5 695.5 Q128 655 128 571 Q128 490 142 448.5 Q156 407 204 407 Z " />
<glyph glyph-name="onesuperior" unicode="&#xb9;" horiz-adv-x="316" d="M143 347 L143 695 Q135 691 121.5 687.5 Q108 684 93.5 681.5 Q79 679 65.5 677.5 Q52 676 44 676 L40 741 Q83 744 115.5 756 Q148 768 171 792 L226 792 L226 347 L143 347 Z " />
<glyph glyph-name="twosuperior" unicode="&#xb2;" horiz-adv-x="386" d="M196 802 Q262 802 296.5 773 Q331 744 331 688 Q331 662 323.5 639.5 Q316 617 301.5 595 Q287 573 266 549 Q245 525 217 497 L147 421 L147 419 L338 419 L338 349 L52 349 L52 417 L155 531 Q179 558 196.5 578.5 Q214 599 225.5 616.5 Q237 634 242 650 Q247 666 247 684 Q247 713 231.5 725.5 Q216 738 188 738 Q153 738 137.5 719.5 Q122 701 117 669 L46 681 Q50 713 63 736 Q76 759 96 773.5 Q116 788 141.5 795 Q167 802 196 802 Z " />
<glyph glyph-name="threesuperior" unicode="&#xb3;" horiz-adv-x="399" d="M112 466 Q117 437 131 421.5 Q145 406 182 406 Q212 406 233.5 422.5 Q255 439 255 478 Q255 519 233.5 534 Q212 549 173 549 L130 549 L130 609 L159 609 Q203 609 226 630 Q249 651 249 684 Q249 708 236.5 723 Q224 738 190 738 Q156 738 141.5 723.5 Q127 709 120 681 L49 695 Q55 725 69 745.5 Q83 766 102.5 778.5 Q122 791 146.5 796.5 Q171 802 198 802 Q263 802 297 773.5 Q331 745 331 696 Q331 672 323 654 Q315 636 302.5 623 Q290 610 274.5 601.5 Q259 593 244 588 L244 587 Q289 578 314.5 551.5 Q340 525 340 476 Q340 413 296.5 377.5 Q253 342 183 342 Q128 342 87 367 Q46 392 38 452 L112 466 Z " />
<glyph glyph-name="foursuperior" unicode="&#x2074;" horiz-adv-x="386" d="M231 349 L231 452 L22 452 L22 509 L210 794 L311 794 L311 517 L364 517 L364 452 L312 452 L312 349 L231 349 Z M231 517 L231 721 L96 517 L231 517 Z " />
<glyph glyph-name="fivesuperior" unicode="&#x2075;" horiz-adv-x="391" d="M75 794 L310 794 L310 726 L136 726 L124 610 L124 601 Q140 614 161.5 623 Q183 632 214 632 Q239 632 261.5 625 Q284 618 301 602 Q318 586 328 560 Q338 534 338 497 Q338 425 293 383.5 Q248 342 176 342 Q149 342 124.5 348 Q100 354 80.5 367 Q61 380 47.5 401 Q34 422 30 452 L102 467 Q107 441 123 423 Q139 405 176 405 Q206 405 230 426 Q254 447 254 493 Q254 536 233.5 553 Q213 570 184 570 Q162 570 144.5 562 Q127 554 113 540 L58 560 L75 794 Z " />
<glyph glyph-name="sixsuperior" unicode="&#x2076;" horiz-adv-x="416" d="M293 682 Q286 716 271 728 Q256 740 233 740 Q207 740 189.5 726.5 Q172 713 161 690 Q150 667 145 637.5 Q140 608 140 576 Q156 593 184.5 607 Q213 621 248 621 Q304 621 336.5 588 Q369 555 369 494 Q369 417 325.5 379.5 Q282 342 215 342 Q169 342 139 359.5 Q109 377 92 406.5 Q75 436 68 475.5 Q61 515 61 559 Q61 597 68.5 640 Q76 683 96 719 Q116 755 150.5 778.5 Q185 802 239 802 Q284 802 319 780 Q354 758 366 700 L293 682 Z M144 523 Q145 500 148 478.5 Q151 457 159 440.5 Q167 424 181.5 414 Q196 404 219 404 Q250 404 268 425 Q286 446 286 488 Q286 525 272 544 Q258 563 226 563 Q203 563 180 550 Q157 537 144 523 Z " />
<glyph glyph-name="sevensuperior" unicode="&#x2077;" horiz-adv-x="355" d="M66 349 L247 726 L35 726 L35 794 L334 794 L334 733 L154 349 L66 349 Z " />
<glyph glyph-name="eightsuperior" unicode="&#x2078;" horiz-adv-x="392" d="M262 589 Q282 580 300 570 Q318 560 331 546 Q344 532 351.5 513.5 Q359 495 359 469 Q359 442 347.5 419 Q336 396 314.5 379 Q293 362 262.5 352 Q232 342 193 342 Q113 342 75 374.5 Q37 407 37 457 Q37 504 63.5 530.5 Q90 557 131 574 Q95 588 73.5 616 Q52 644 52 682 Q52 712 64 734.5 Q76 757 96.5 772 Q117 787 144.5 794.5 Q172 802 204 802 Q272 802 309.5 774.5 Q347 747 347 699 Q347 662 325 635.5 Q303 609 262 589 Z M181 547 Q149 531 132 513 Q115 495 115 466 Q115 437 134 420.5 Q153 404 195 404 Q233 404 252.5 421.5 Q272 439 272 465 Q272 483 264 495.5 Q256 508 243.5 517.5 Q231 527 214.5 534 Q198 541 181 547 Z M210 613 Q236 627 253.5 647 Q271 667 271 693 Q271 743 204 743 Q172 743 154.5 729 Q137 715 137 690 Q137 663 157.5 644.5 Q178 626 210 613 Z " />
<glyph glyph-name="ninesuperior" unicode="&#x2079;" horiz-adv-x="415" d="M121 466 Q128 434 143.5 418.5 Q159 403 188 403 Q237 403 257.5 446 Q278 489 280 561 Q264 545 235.5 532.5 Q207 520 173 520 Q116 520 83 554 Q50 588 50 651 Q50 689 62 717.5 Q74 746 94.5 764.5 Q115 783 143.5 792.5 Q172 802 205 802 Q251 802 280.5 785 Q310 768 327 738 Q344 708 351 668.5 Q358 629 358 584 Q358 542 351.5 499 Q345 456 326 421 Q307 386 273.5 364 Q240 342 185 342 Q160 342 137.5 347.5 Q115 353 96.5 365.5 Q78 378 65.5 398 Q53 418 47 447 L121 466 Z M274 616 Q272 640 269 662 Q266 684 258.5 701.5 Q251 719 237 729.5 Q223 740 200 740 Q169 740 151 718.5 Q133 697 133 655 Q133 619 148 598 Q163 577 195 577 Q218 577 238.5 588 Q259 599 274 616 Z " />
<glyph glyph-name="parenleftsuperior" unicode="&#x207d;" horiz-adv-x="256" d="M147 276 Q129 300 112.5 329 Q96 358 83 391.5 Q70 425 62 462.5 Q54 500 54 542 Q54 625 83.5 692 Q113 759 154 815 L235 815 Q193 753 165.5 688 Q138 623 138 543 Q138 501 145.5 464.5 Q153 428 165.5 395.5 Q178 363 195 333.5 Q212 304 230 276 L147 276 Z " />
<glyph glyph-name="parenrightsuperior" unicode="&#x207e;" horiz-adv-x="257" d="M21 814 Q42 814 62.5 814.5 Q83 815 105 815 Q124 789 141.5 759 Q159 729 172.5 694.5 Q186 660 194.5 622 Q203 584 203 543 Q203 502 195 465 Q187 428 174 394.5 Q161 361 144 331.5 Q127 302 108 276 L24 276 Q43 304 60 333 Q77 362 89.5 394 Q102 426 109.5 463 Q117 500 117 543 Q117 621 90 686 Q63 751 21 814 Z " />
<glyph glyph-name="minussuperior" unicode="&#x207b;" horiz-adv-x="437" d="M97 537 L97 602 L341 602 L341 537 L97 537 Z " />
<glyph glyph-name="plussuperior" unicode="&#x207a;" horiz-adv-x="437" d="M184 446 L184 537 L95 537 L95 602 L184 602 L184 690 L252 690 L252 602 L341 602 L341 537 L252 537 L252 446 L184 446 Z " />
<glyph glyph-name="equalsuperior" unicode="&#x207c;" horiz-adv-x="440" d="M98 459 L98 525 L342 525 L342 459 L98 459 Z M98 573 L98 639 L342 639 L342 573 L98 573 Z " />
<glyph glyph-name="zeroinferior" unicode="&#x2080;" horiz-adv-x="406" d="M201 -153 Q154 -153 123.5 -137 Q93 -121 74.5 -91 Q56 -61 48.5 -18.5 Q41 24 41 77 Q41 130 50 172.5 Q59 215 79 245 Q99 275 130.5 291 Q162 307 208 307 Q255 307 285.5 291 Q316 275 333.5 245.5 Q351 216 358 174.5 Q365 133 365 82 Q365 27 357 -16.5 Q349 -60 330 -90.5 Q311 -121 279.5 -137 Q248 -153 201 -153 Z M204 -88 Q250 -88 264.5 -46.5 Q279 -5 279 79 Q279 160 265.5 200.5 Q252 241 206 241 Q159 241 143.5 200.5 Q128 160 128 76 Q128 -5 142 -46.5 Q156 -88 204 -88 Z " />
<glyph glyph-name="oneinferior" unicode="&#x2081;" horiz-adv-x="316" d="M143 -148 L143 200 Q135 196 121.5 192.5 Q108 189 93.5 186.5 Q79 184 65.5 182.5 Q52 181 44 181 L40 246 Q83 249 115.5 261 Q148 273 171 297 L226 297 L226 -148 L143 -148 Z " />
<glyph glyph-name="twoinferior" unicode="&#x2082;" horiz-adv-x="386" d="M196 307 Q262 307 296.5 278 Q331 249 331 193 Q331 167 323.5 144.5 Q316 122 301.5 100 Q287 78 266 54 Q245 30 217 2 L147 -74 L147 -76 L338 -76 L338 -146 L52 -146 L52 -78 L155 36 Q179 63 196.5 83.5 Q214 104 225.5 121.5 Q237 139 242 155 Q247 171 247 189 Q247 218 231.5 230.5 Q216 243 188 243 Q153 243 137.5 224.5 Q122 206 117 174 L46 186 Q50 218 63 241 Q76 264 96 278.5 Q116 293 141.5 300 Q167 307 196 307 Z " />
<glyph glyph-name="threeinferior" unicode="&#x2083;" horiz-adv-x="399" d="M112 -29 Q117 -58 131 -73.5 Q145 -89 182 -89 Q212 -89 233.5 -72.5 Q255 -56 255 -17 Q255 24 233.5 39 Q212 54 173 54 L130 54 L130 114 L159 114 Q203 114 226 135 Q249 156 249 189 Q249 213 236.5 228 Q224 243 190 243 Q156 243 141.5 228.5 Q127 214 120 186 L49 200 Q55 230 69 250.5 Q83 271 102.5 283.5 Q122 296 146.5 301.5 Q171 307 198 307 Q263 307 297 278.5 Q331 250 331 201 Q331 177 323 159 Q315 141 302.5 128 Q290 115 274.5 106.5 Q259 98 244 93 L244 92 Q289 83 314.5 56.5 Q340 30 340 -19 Q340 -82 296.5 -117.5 Q253 -153 183 -153 Q128 -153 87 -128 Q46 -103 38 -43 L112 -29 Z " />
<glyph glyph-name="fourinferior" unicode="&#x2084;" horiz-adv-x="386" d="M231 -146 L231 -43 L22 -43 L22 14 L210 299 L311 299 L311 22 L364 22 L364 -43 L312 -43 L312 -146 L231 -146 Z M231 22 L231 226 L96 22 L231 22 Z " />
<glyph glyph-name="fiveinferior" unicode="&#x2085;" horiz-adv-x="391" d="M75 299 L310 299 L310 231 L136 231 L124 115 L124 106 Q140 119 161.5 128 Q183 137 214 137 Q239 137 261.5 130 Q284 123 301 107 Q318 91 328 65 Q338 39 338 2 Q338 -70 293 -111.5 Q248 -153 176 -153 Q149 -153 124.5 -147 Q100 -141 80.5 -128 Q61 -115 47.5 -94 Q34 -73 30 -43 L102 -28 Q107 -54 123 -72 Q139 -90 176 -90 Q206 -90 230 -69 Q254 -48 254 -2 Q254 41 233.5 58 Q213 75 184 75 Q162 75 144.5 67 Q127 59 113 45 L58 65 L75 299 Z " />
<glyph glyph-name="sixinferior" unicode="&#x2086;" horiz-adv-x="416" d="M293 187 Q286 221 271 233 Q256 245 233 245 Q207 245 189.5 231.5 Q172 218 161 195 Q150 172 145 142.5 Q140 113 140 81 Q156 98 184.5 112 Q213 126 248 126 Q304 126 336.5 93 Q369 60 369 -1 Q369 -78 325.5 -115.5 Q282 -153 215 -153 Q169 -153 139 -135.5 Q109 -118 92 -88.5 Q75 -59 68 -19.5 Q61 20 61 64 Q61 102 68.5 145 Q76 188 96 224 Q116 260 150.5 283.5 Q185 307 239 307 Q284 307 319 285 Q354 263 366 205 L293 187 Z M144 28 Q145 5 148 -16.5 Q151 -38 159 -54.5 Q167 -71 181.5 -81 Q196 -91 219 -91 Q250 -91 268 -70 Q286 -49 286 -7 Q286 30 272 49 Q258 68 226 68 Q203 68 180 55 Q157 42 144 28 Z " />
<glyph glyph-name="seveninferior" unicode="&#x2087;" horiz-adv-x="355" d="M66 -146 L247 231 L35 231 L35 299 L334 299 L334 238 L154 -146 L66 -146 Z " />
<glyph glyph-name="eightinferior" unicode="&#x2088;" horiz-adv-x="392" d="M262 94 Q282 85 300 75 Q318 65 331 51 Q344 37 351.5 18.5 Q359 0 359 -26 Q359 -53 347.5 -76 Q336 -99 314.5 -116 Q293 -133 262.5 -143 Q232 -153 193 -153 Q113 -153 75 -120.5 Q37 -88 37 -38 Q37 9 63.5 35.5 Q90 62 131 79 Q95 93 73.5 121 Q52 149 52 187 Q52 217 64 239.5 Q76 262 96.5 277 Q117 292 144.5 299.5 Q172 307 204 307 Q272 307 309.5 279.5 Q347 252 347 204 Q347 167 325 140.5 Q303 114 262 94 Z M181 52 Q149 36 132 18 Q115 0 115 -29 Q115 -58 134 -74.5 Q153 -91 195 -91 Q233 -91 252.5 -73.5 Q272 -56 272 -30 Q272 -12 264 0.5 Q256 13 243.5 22.5 Q231 32 214.5 39 Q198 46 181 52 Z M210 118 Q236 132 253.5 152 Q271 172 271 198 Q271 248 204 248 Q172 248 154.5 234 Q137 220 137 195 Q137 168 157.5 149.5 Q178 131 210 118 Z " />
<glyph glyph-name="nineinferior" unicode="&#x2089;" horiz-adv-x="415" d="M121 -29 Q128 -61 143.5 -76.5 Q159 -92 188 -92 Q237 -92 257.5 -49 Q278 -6 280 66 Q264 50 235.5 37.5 Q207 25 173 25 Q116 25 83 59 Q50 93 50 156 Q50 194 62 222.5 Q74 251 94.5 269.5 Q115 288 143.5 297.5 Q172 307 205 307 Q251 307 280.5 290 Q310 273 327 243 Q344 213 351 173.5 Q358 134 358 89 Q358 47 351.5 4 Q345 -39 326 -74 Q307 -109 273.5 -131 Q240 -153 185 -153 Q160 -153 137.5 -147.5 Q115 -142 96.5 -129.5 Q78 -117 65.5 -97 Q53 -77 47 -48 L121 -29 Z M274 121 Q272 145 269 167 Q266 189 258.5 206.5 Q251 224 237 234.5 Q223 245 200 245 Q169 245 151 223.5 Q133 202 133 160 Q133 124 148 103 Q163 82 195 82 Q218 82 238.5 93 Q259 104 274 121 Z " />
<glyph glyph-name="parenleftinferior" unicode="&#x208d;" horiz-adv-x="256" d="M147 -219 Q129 -195 112.5 -166 Q96 -137 83 -103.5 Q70 -70 62 -32.5 Q54 5 54 47 Q54 130 83.5 197 Q113 264 154 320 L235 320 Q193 258 165.5 193 Q138 128 138 48 Q138 6 145.5 -30.5 Q153 -67 165.5 -99.5 Q178 -132 195 -161.5 Q212 -191 230 -219 L147 -219 Z " />
<glyph glyph-name="parenrightinferior" unicode="&#x208e;" horiz-adv-x="257" d="M21 319 Q42 319 62.5 319.5 Q83 320 105 320 Q124 294 141.5 264 Q159 234 172.5 199.5 Q186 165 194.5 127 Q203 89 203 48 Q203 7 195 -30 Q187 -67 174 -100.5 Q161 -134 144 -163.5 Q127 -193 108 -219 L24 -219 Q43 -191 60 -162 Q77 -133 89.5 -101 Q102 -69 109.5 -32 Q117 5 117 48 Q117 126 90 191 Q63 256 21 319 Z " />
<glyph glyph-name="fraction" unicode="&#x2044;" horiz-adv-x="148" d="M-151 -12 L205 724 L289 724 L-65 -12 L-151 -12 Z " />
<glyph glyph-name="onehalf" unicode="&#xbd;" horiz-adv-x="890" d="M190 -12 L546 724 L630 724 L276 -12 L190 -12 Z M166 280 L166 628 Q158 624 144.5 620.5 Q131 617 116.5 614.5 Q102 612 88.5 610.5 Q75 609 67 609 L63 674 Q106 677 138.5 689 Q171 701 194 725 L249 725 L249 280 L166 280 Z M694 454 Q760 454 794.5 425 Q829 396 829 340 Q829 314 821.5 291.5 Q814 269 799.5 247 Q785 225 764 201 Q743 177 715 149 L645 73 L645 71 L836 71 L836 1 L550 1 L550 69 L653 183 Q677 210 694.5 230.5 Q712 251 723.5 268.5 Q735 286 740 302 Q745 318 745 336 Q745 365 729.5 377.5 Q714 390 686 390 Q651 390 635.5 371.5 Q620 353 615 321 L544 333 Q548 365 561 388 Q574 411 594 425.5 Q614 440 639.5 447 Q665 454 694 454 Z " />
<glyph glyph-name="onethird" unicode="&#x2153;" horiz-adv-x="890" d="M177 -12 L533 724 L617 724 L263 -12 L177 -12 Z M139 280 L139 628 Q131 624 117.5 620.5 Q104 617 89.5 614.5 Q75 612 61.5 610.5 Q48 609 40 609 L36 674 Q79 677 111.5 689 Q144 701 167 725 L222 725 L222 280 L139 280 Z M602 118 Q607 89 621 73.5 Q635 58 672 58 Q702 58 723.5 74.5 Q745 91 745 130 Q745 171 723.5 186 Q702 201 663 201 L620 201 L620 261 L649 261 Q693 261 716 282 Q739 303 739 336 Q739 360 726.5 375 Q714 390 680 390 Q646 390 631.5 375.5 Q617 361 610 333 L539 347 Q545 377 559 397.5 Q573 418 592.5 430.5 Q612 443 636.5 448.5 Q661 454 688 454 Q753 454 787 425.5 Q821 397 821 348 Q821 324 813 306 Q805 288 792.5 275 Q780 262 764.5 253.5 Q749 245 734 240 L734 239 Q779 230 804.5 203.5 Q830 177 830 128 Q830 65 786.5 29.5 Q743 -6 673 -6 Q618 -6 577 19 Q536 44 528 104 L602 118 Z " />
<glyph glyph-name="twothirds" unicode="&#x2154;" horiz-adv-x="890" d="M232 -12 L588 724 L672 724 L318 -12 L232 -12 Z M186 735 Q252 735 286.5 706 Q321 677 321 621 Q321 595 313.5 572.5 Q306 550 291.5 528 Q277 506 256 482 Q235 458 207 430 L137 354 L137 352 L328 352 L328 282 L42 282 L42 350 L145 464 Q169 491 186.5 511.5 Q204 532 215.5 549.5 Q227 567 232 583 Q237 599 237 617 Q237 646 221.5 658.5 Q206 671 178 671 Q143 671 127.5 652.5 Q112 634 107 602 L36 614 Q40 646 53 669 Q66 692 86 706.5 Q106 721 131.5 728 Q157 735 186 735 Z M643 118 Q648 89 662 73.5 Q676 58 713 58 Q743 58 764.5 74.5 Q786 91 786 130 Q786 171 764.5 186 Q743 201 704 201 L661 201 L661 261 L690 261 Q734 261 757 282 Q780 303 780 336 Q780 360 767.5 375 Q755 390 721 390 Q687 390 672.5 375.5 Q658 361 651 333 L580 347 Q586 377 600 397.5 Q614 418 633.5 430.5 Q653 443 677.5 448.5 Q702 454 729 454 Q794 454 828 425.5 Q862 397 862 348 Q862 324 854 306 Q846 288 833.5 275 Q821 262 805.5 253.5 Q790 245 775 240 L775 239 Q820 230 845.5 203.5 Q871 177 871 128 Q871 65 827.5 29.5 Q784 -6 714 -6 Q659 -6 618 19 Q577 44 569 104 L643 118 Z " />
<glyph glyph-name="onequarter" unicode="&#xbc;" horiz-adv-x="890" d="M203 -12 L559 724 L643 724 L289 -12 L203 -12 Z M158 280 L158 628 Q150 624 136.5 620.5 Q123 617 108.5 614.5 Q94 612 80.5 610.5 Q67 609 59 609 L55 674 Q98 677 130.5 689 Q163 701 186 725 L241 725 L241 280 L158 280 Z M703 1 L703 104 L494 104 L494 161 L682 446 L783 446 L783 169 L836 169 L836 104 L784 104 L784 1 L703 1 Z M703 169 L703 373 L568 169 L703 169 Z " />
<glyph glyph-name="threequarters" unicode="&#xbe;" horiz-adv-x="890" d="M239 -12 L595 724 L679 724 L325 -12 L239 -12 Z M725 1 L725 104 L516 104 L516 161 L704 446 L805 446 L805 169 L858 169 L858 104 L806 104 L806 1 L725 1 Z M725 169 L725 373 L590 169 L725 169 Z M119 399 Q124 370 138 354.5 Q152 339 189 339 Q219 339 240.5 355.5 Q262 372 262 411 Q262 452 240.5 467 Q219 482 180 482 L137 482 L137 542 L166 542 Q210 542 233 563 Q256 584 256 617 Q256 641 243.5 656 Q231 671 197 671 Q163 671 148.5 656.5 Q134 642 127 614 L56 628 Q62 658 76 678.5 Q90 699 109.5 711.5 Q129 724 153.5 729.5 Q178 735 205 735 Q270 735 304 706.5 Q338 678 338 629 Q338 605 330 587 Q322 569 309.5 556 Q297 543 281.5 534.5 Q266 526 251 521 L251 520 Q296 511 321.5 484.5 Q347 458 347 409 Q347 346 303.5 310.5 Q260 275 190 275 Q135 275 94 300 Q53 325 45 385 L119 399 Z " />
<glyph glyph-name="partialdiff" unicode="&#x2202;" horiz-adv-x="555" d="M407 352 Q408 363 409 376 Q410 389 410 403 Q410 439 404 474 Q398 509 383 536 Q368 563 342 580 Q316 597 277 597 Q235 597 195.5 581.5 Q156 566 127 546 L89 607 Q128 635 180 654 Q232 673 286 673 Q351 673 392.5 648 Q434 623 457.5 582 Q481 541 489.5 489.5 Q498 438 498 386 Q498 345 494 299.5 Q490 254 479.5 209.5 Q469 165 451 125 Q433 85 404.5 54.5 Q376 24 336.5 6 Q297 -12 244 -12 Q145 -12 95.5 40.5 Q46 93 46 183 Q46 234 60 276 Q74 318 100 348 Q126 378 163 395 Q200 412 247 412 Q301 412 341.5 393 Q382 374 407 352 Z M401 276 Q391 286 376.5 297 Q362 308 344 317.5 Q326 327 305 333 Q284 339 260 339 Q226 339 203 326 Q180 313 165.5 292 Q151 271 145 244 Q139 217 139 188 Q139 162 145.5 139 Q152 116 165 99 Q178 82 198 72 Q218 62 246 62 Q290 62 318.5 83.5 Q347 105 364 137 Q381 169 389 206.5 Q397 244 401 276 Z " />
<glyph glyph-name="Omega" unicode="&#x2126;" horiz-adv-x="829" d="M562 80 L741 80 L741 0 L489 0 L489 161 Q515 171 545.5 191 Q576 211 602 242.5 Q628 274 645 317.5 Q662 361 662 418 Q662 539 598.5 597.5 Q535 656 427 656 Q373 656 327.5 640 Q282 624 249 592.5 Q216 561 197.5 513.5 Q179 466 179 402 Q179 351 193 311.5 Q207 272 230 243 Q253 214 284 194 Q315 174 348 161 L348 0 L90 0 L90 80 L274 80 L274 121 Q227 139 191.5 167 Q156 195 132 232 Q108 269 96 313 Q84 357 84 405 Q84 478 108 539.5 Q132 601 176.5 644.5 Q221 688 285 712.5 Q349 737 429 737 Q513 737 575 714 Q637 691 677 650 Q717 609 736.5 552 Q756 495 756 427 Q756 373 740.5 326 Q725 279 698.5 240 Q672 201 637 171 Q602 141 562 121 L562 80 Z " />
<glyph glyph-name="Delta" unicode="&#x2206;" horiz-adv-x="670" d="M24 0 L274 724 L391 724 L646 0 L24 0 Z M138 79 L515 79 L329 636 L327 636 L138 79 Z " />
<glyph glyph-name="product" unicode="&#x220f;" horiz-adv-x="772" d="M650 -161 L558 -161 L558 645 L214 645 L214 -161 L122 -161 L122 724 L650 724 L650 -161 Z " />
<glyph glyph-name="summation" unicode="&#x2211;" horiz-adv-x="627" d="M129 -92 L568 -92 L568 -176 L23 -176 L23 -106 L256 277 L40 660 L40 724 L566 724 L566 644 L155 644 L360 280 L129 -92 Z " />
<glyph glyph-name="uni0394" unicode="&#x394;" horiz-adv-x="670" d="M24 0 L274 724 L391 724 L646 0 L24 0 Z M138 79 L515 79 L329 636 L327 636 L138 79 Z " />
<glyph glyph-name="uni03A9" unicode="&#x3a9;" horiz-adv-x="829" d="M562 80 L741 80 L741 0 L489 0 L489 161 Q515 171 545.5 191 Q576 211 602 242.5 Q628 274 645 317.5 Q662 361 662 418 Q662 539 598.5 597.5 Q535 656 427 656 Q373 656 327.5 640 Q282 624 249 592.5 Q216 561 197.5 513.5 Q179 466 179 402 Q179 351 193 311.5 Q207 272 230 243 Q253 214 284 194 Q315 174 348 161 L348 0 L90 0 L90 80 L274 80 L274 121 Q227 139 191.5 167 Q156 195 132 232 Q108 269 96 313 Q84 357 84 405 Q84 478 108 539.5 Q132 601 176.5 644.5 Q221 688 285 712.5 Q349 737 429 737 Q513 737 575 714 Q637 691 677 650 Q717 609 736.5 552 Q756 495 756 427 Q756 373 740.5 326 Q725 279 698.5 240 Q672 201 637 171 Q602 141 562 121 L562 80 Z " />
<glyph glyph-name="uni03BC" unicode="&#x3bc;" horiz-adv-x="629" d="M100 514 L191 514 L191 180 Q191 120 208 93 Q225 66 273 66 Q297 66 320 73.5 Q343 81 363 93 Q383 105 400.5 120 Q418 135 431 149 L431 514 L522 514 L522 0 L435 0 L435 62 L434 62 Q399 33 357 11.5 Q315 -10 261 -10 Q238 -10 217 -3 Q196 4 185 15 L182 14 L193 -176 L100 -176 L100 514 Z " />
<glyph glyph-name="pi" unicode="&#x3c0;" horiz-adv-x="666" d="M540 0 L449 0 L449 440 L214 440 L214 0 L123 0 L123 514 L541 514 L540 0 Z " />
<glyph glyph-name="mu" unicode="&#xb5;" horiz-adv-x="629" d="M100 514 L191 514 L191 180 Q191 120 208 93 Q225 66 273 66 Q297 66 320 73.5 Q343 81 363 93 Q383 105 400.5 120 Q418 135 431 149 L431 514 L522 514 L522 0 L435 0 L435 62 L434 62 Q399 33 357 11.5 Q315 -10 261 -10 Q238 -10 217 -3 Q196 4 185 15 L182 14 L193 -176 L100 -176 L100 514 Z " />
<glyph glyph-name="uni2215" unicode="&#x2215;" horiz-adv-x="454" d="M30 -17 L343 631 L425 631 L113 -17 L30 -17 Z " />
<glyph glyph-name="uni2219" unicode="&#x2219;" horiz-adv-x="289" d="M215 307 Q215 238 144 238 Q109 238 90.5 255 Q72 272 72 307 Q72 342 90.5 359.5 Q109 377 144 377 Q215 377 215 307 Z " />
<glyph glyph-name="asciicircum" unicode="&#x5e;" horiz-adv-x="571" d="M441 299 L283 581 L128 299 L41 299 L238 664 L331 664 L531 299 L441 299 Z " />
<glyph glyph-name="underscore" unicode="&#x5f;" horiz-adv-x="500" d="M0 -181 L0 -110 L500 -110 L500 -181 L0 -181 Z " />
<glyph glyph-name="asciitilde" unicode="&#x7e;" horiz-adv-x="517" d="M137 420 Q161 420 194.5 413 Q228 406 262 397 Q296 388 326 381 Q356 374 373 374 Q392 374 401 383.5 Q410 393 410 426 L468 423 Q475 361 449 330.5 Q423 300 381 300 Q358 300 324 307 Q290 314 255.5 323 Q221 332 190.5 339 Q160 346 143 346 Q127 346 116.5 335 Q106 324 108 292 L50 294 Q46 325 51.5 349 Q57 373 69.5 388.5 Q82 404 99.5 412 Q117 420 137 420 Z " />
<glyph glyph-name="radical" unicode="&#x221a;" horiz-adv-x="570" d="M258 0 L122 240 Q121 242 118 242 L49 215 L24 274 L162 339 L294 98 L467 744 L543 724 L350 0 L258 0 Z " />
<glyph glyph-name="infinity" unicode="&#x221e;" horiz-adv-x="671" d="M336 269 Q324 256 308.5 241.5 Q293 227 274 214.5 Q255 202 232 193.5 Q209 185 182 185 Q156 185 132 193 Q108 201 89.5 217.5 Q71 234 59.5 259 Q48 284 48 319 Q48 350 59 375.5 Q70 401 89 419 Q108 437 134 447 Q160 457 190 457 Q215 457 236.5 449.5 Q258 442 276.5 430.5 Q295 419 310.5 404 Q326 389 341 374 Q354 388 369.5 402.5 Q385 417 403.5 429 Q422 441 444 449 Q466 457 492 457 Q519 457 542.5 449 Q566 441 584 424 Q602 407 612.5 381 Q623 355 623 319 Q623 289 612.5 264.5 Q602 240 583.5 222 Q565 204 540 194.5 Q515 185 487 185 Q459 185 436.5 193 Q414 201 396 213 Q378 225 363 240 Q348 255 336 269 Z M299 323 Q275 351 249.5 371 Q224 391 189 391 Q158 391 140 370.5 Q122 350 122 323 Q122 310 125.5 297 Q129 284 137 273.5 Q145 263 157 256.5 Q169 250 186 250 Q204 250 220.5 257.5 Q237 265 251 276.5 Q265 288 277.5 300.5 Q290 313 299 323 Z M381 321 Q392 309 403.5 296.5 Q415 284 427 274 Q439 264 453.5 258 Q468 252 485 252 Q516 252 533 274 Q550 296 550 323 Q550 350 535.5 371 Q521 392 488 392 Q456 392 430.5 369.5 Q405 347 381 321 Z " />
<glyph glyph-name="integral" unicode="&#x222b;" horiz-adv-x="418" d="M59 -95 Q78 -104 100.5 -109.5 Q123 -115 141 -115 Q167 -115 184 -100.5 Q201 -86 198 -44 L143 589 Q140 629 151 655.5 Q162 682 181.5 698 Q201 714 226.5 720.5 Q252 727 277 727 Q308 727 329.5 721.5 Q351 716 374 707 L368 631 Q349 641 328.5 646.5 Q308 652 286 652 Q260 652 243 636.5 Q226 621 229 582 L283 -51 Q286 -92 275 -118.5 Q264 -145 244.5 -160.5 Q225 -176 200 -182.5 Q175 -189 150 -189 Q118 -189 97.5 -184 Q77 -179 54 -169 L59 -95 Z " />
<glyph glyph-name="approxequal" unicode="&#x2248;" horiz-adv-x="570" d="M170 337 Q194 337 227.5 330 Q261 323 295 314 Q329 305 359 298 Q389 291 406 291 Q425 291 434 300.5 Q443 310 443 343 L501 340 Q508 278 482 247.5 Q456 217 414 217 Q391 217 357 224 Q323 231 288.5 240 Q254 249 223.5 256 Q193 263 176 263 Q160 263 149.5 252 Q139 241 141 209 L83 211 Q79 242 84.5 266 Q90 290 102.5 305.5 Q115 321 132.5 329 Q150 337 170 337 Z M171 516 Q195 516 228.5 509 Q262 502 296 493 Q330 484 360 477 Q390 470 407 470 Q426 470 435 479.5 Q444 489 444 522 L502 519 Q509 457 483 426.5 Q457 396 415 396 Q392 396 358 403 Q324 410 289.5 419 Q255 428 224.5 435 Q194 442 177 442 Q161 442 150.5 431 Q140 420 142 388 L84 390 Q80 421 85.5 445 Q91 469 103.5 484.5 Q116 500 133.5 508 Q151 516 171 516 Z " />
<glyph glyph-name="notequal" unicode="&#x2260;" horiz-adv-x="570" d="M225 242 L262 321 L98 321 L98 406 L299 406 L344 502 L424 502 L378 406 L472 406 L472 321 L341 321 L304 242 L472 242 L472 157 L268 157 L223 63 L144 63 L189 157 L98 157 L98 242 L225 242 Z " />
<glyph glyph-name="lessequal" unicode="&#x2264;" horiz-adv-x="570" d="M89 252 L89 350 L467 503 L467 421 L170 305 L467 193 L467 108 L89 252 Z M90 0 L90 80 L467 80 L467 0 L90 0 Z " />
<glyph glyph-name="greaterequal" unicode="&#x2265;" horiz-adv-x="570" d="M89 112 L89 193 L386 304 L89 417 L89 503 L467 350 L467 257 L89 112 Z M89 0 L89 80 L466 80 L466 0 L89 0 Z " />
<glyph glyph-name="less" unicode="&#x3c;" horiz-adv-x="570" d="M83 238 L83 336 L462 489 L462 405 L166 290 L462 179 L462 93 L83 238 Z " />
<glyph glyph-name="equal" unicode="&#x3d;" horiz-adv-x="570" d="M98 157 L98 242 L472 242 L472 157 L98 157 Z M98 321 L98 406 L472 406 L472 321 L98 321 Z " />
<glyph glyph-name="greater" unicode="&#x3e;" horiz-adv-x="570" d="M91 98 L91 179 L387 290 L91 403 L91 489 L470 336 L470 242 L91 98 Z " />
<glyph glyph-name="lozenge" unicode="&#x25ca;" horiz-adv-x="570" d="M248 -17 L91 307 L248 631 L322 631 L479 307 L322 -17 L248 -17 Z M399 307 L285 540 L171 307 L285 71 L399 307 Z " />
<glyph glyph-name="plus" unicode="&#x2b;" horiz-adv-x="570" d="M243 128 L243 280 L96 280 L96 363 L243 363 L243 513 L326 513 L326 363 L473 363 L473 280 L326 280 L326 128 L243 128 Z " />
<glyph glyph-name="minus" unicode="&#x2212;" horiz-adv-x="570" d="M97 280 L97 363 L474 363 L474 280 L97 280 Z " />
<glyph glyph-name="plusminus" unicode="&#xb1;" horiz-adv-x="570" d="M96 0 L96 80 L473 80 L473 0 L96 0 Z M243 135 L243 280 L96 280 L96 363 L243 363 L243 513 L326 513 L326 363 L473 363 L473 280 L326 280 L326 135 L243 135 Z " />
<glyph glyph-name="divide" unicode="&#xf7;" horiz-adv-x="570" d="M343 166 Q343 104 279 104 Q215 104 215 166 Q215 195 231.5 211.5 Q248 228 279 228 Q311 228 327 211.5 Q343 195 343 166 Z M96 279 L96 363 L473 363 L473 279 L96 279 Z M343 478 Q343 415 279 415 Q215 415 215 478 Q215 507 231.5 523.5 Q248 540 279 540 Q311 540 327 523.5 Q343 507 343 478 Z " />
<glyph glyph-name="multiply" unicode="&#xd7;" horiz-adv-x="570" d="M284 260 L180 154 L121 215 L227 320 L121 427 L180 487 L284 382 L390 487 L448 427 L343 320 L448 215 L390 154 L284 260 Z " />
<glyph glyph-name="logicalnot" unicode="&#xac;" horiz-adv-x="570" d="M390 190 L390 284 L94 284 L94 367 L471 367 L471 190 L390 190 Z " />
<glyph glyph-name="circle" unicode="&#x25cb;" horiz-adv-x="610" d="M305 119 Q263 119 225.5 135 Q188 151 160 179 Q132 207 116 244.5 Q100 282 100 324 Q100 366 116 403.5 Q132 441 160 469 Q188 497 225.5 513 Q263 529 305 529 Q347 529 384.5 513 Q422 497 450 469 Q478 441 494 403.5 Q510 366 510 324 Q510 282 494 244.5 Q478 207 450 179 Q422 151 384.5 135 Q347 119 305 119 Z " />
<glyph glyph-name="triangle" unicode="&#x25b3;" horiz-adv-x="425" d="M150 203 L150 434 L335 320 L150 203 Z " />
<glyph glyph-name="thinspace" unicode="&#x2009;" horiz-adv-x="125" d="" />
</font>
</svg>
