<?xml version="1.0" encoding="utf-8"?>
<!-- Generator: Adobe Illustrator 25.0.0, SVG Export Plug-In . SVG Version: 6.00 Build 0)  -->
<svg version="1.1" id="Layer_1" xmlns="http://www.w3.org/2000/svg" xmlns:xlink="http://www.w3.org/1999/xlink" x="0px" y="0px"
	 viewBox="0 0 2560 2000" style="enable-background:new 0 0 2560 2000;" xml:space="preserve">
<style type="text/css">
	.st0{opacity:0.5;}
	.st1{fill:#FFFFFF;}
	.st2{fill:#8E5BA6;}
	.st3{fill:#FDB913;}
	.st4{opacity:0.05;fill:#F7941D;}
	.st5{opacity:0.06;fill:#F7941D;}
	.st6{opacity:0.09;fill:#F7941D;}
	.st7{opacity:0.08;fill:#F7941D;}
	.st8{opacity:0.07;fill:#F7941D;}
	.st9{opacity:0.11;fill:#F7941D;}
</style>
<g>
	<g class="st0">
		<circle class="st1" cx="556.05" cy="230.55" r="4.1"/>
	</g>
	<g class="st0">
		<circle class="st2" cx="340" cy="122.82" r="3.28"/>
	</g>
	<g class="st0">
		<circle class="st1" cx="589.44" cy="170.12" r="1.64"/>
	</g>
	<g class="st0">
		<circle class="st1" cx="634.74" cy="228.09" r="2.46"/>
	</g>
	<g class="st0">
		<circle class="st1" cx="264.47" cy="197.33" r="2.87"/>
	</g>
	<g class="st0">
		<circle class="st1" cx="84.31" cy="506.04" r="0.82"/>
	</g>
	<g class="st0">
		<circle class="st2" cx="2088.35" cy="1050.69" r="4.1"/>
	</g>
	<g class="st0">
		<circle class="st1" cx="255.99" cy="1418.41" r="2.87"/>
	</g>
	<g class="st0">
		<circle class="st1" cx="162.48" cy="1383.79" r="4.1"/>
	</g>
	<g class="st0">
		<circle class="st2" cx="315.17" cy="1176.82" r="7.5"/>
	</g>
	<g class="st0">
		<circle class="st3" cx="2163.99" cy="1321.43" r="6.5"/>
	</g>
	<g class="st0">
		<circle class="st2" cx="2021.27" cy="425.7" r="2.46"/>
	</g>
	<g class="st0">
		<circle class="st1" cx="2420.6" cy="265.05" r="4.1"/>
	</g>
	<g class="st0">
		<circle class="st1" cx="2476.9" cy="357.97" r="1.64"/>
	</g>
	<g class="st0">
		<circle class="st1" cx="351.7" cy="1172.72" r="1.64"/>
	</g>
	<g class="st0">
		<circle class="st1" cx="2409.94" cy="281.45" r="1.64"/>
	</g>
	<g class="st0">
		<circle class="st1" cx="2338.46" cy="1523.71" r="2.05"/>
	</g>
	<g class="st0">
		<circle class="st1" cx="2237.28" cy="1445.8" r="1.64"/>
	</g>
	<g class="st0">
		<circle class="st1" cx="2241.25" cy="959.33" r="3.28"/>
	</g>
	<g class="st0">
		
			<ellipse transform="matrix(0.6877 -0.726 0.726 0.6877 556.2645 1809.3645)" class="st1" cx="2381.4" cy="258.06" rx="2.46" ry="2.46"/>
	</g>
	<g class="st0">
		<circle class="st1" cx="2107.78" cy="154.56" r="2.87"/>
	</g>
	<g class="st0">
		<circle class="st3" cx="1920.5" cy="135.97" r="4"/>
	</g>
	<g class="st0">
		<circle class="st1" cx="108.91" cy="500.01" r="2.46"/>
	</g>
	<g class="st0">
		<circle class="st1" cx="2017.8" cy="58.04" r="2.87"/>
	</g>
	<g class="st0">
		<circle class="st3" cx="583.08" cy="736.9" r="4.92"/>
	</g>
	<g class="st0">
		<circle class="st1" cx="219.45" cy="484.84" r="2.46"/>
	</g>
	<g class="st0">
		<circle class="st1" cx="600.19" cy="704.37" r="1.64"/>
	</g>
	<g class="st0">
		
			<ellipse transform="matrix(0.5613 -0.8276 0.8276 0.5613 -360.5477 661.6389)" class="st1" cx="443.78" cy="670.89" rx="4.1" ry="4.1"/>
	</g>
	<g class="st0">
		
			<ellipse transform="matrix(0.5613 -0.8276 0.8276 0.5613 -663.3071 873.0528)" class="st1" cx="491.8" cy="1062.15" rx="2.46" ry="2.46"/>
	</g>
	<g class="st0">
		<circle class="st1" cx="151.13" cy="572.03" r="2.87"/>
	</g>
	<g class="st0">
		<circle class="st3" cx="159.58" cy="461.26" r="5.5"/>
	</g>
	<g class="st0">
		<circle class="st1" cx="2155.24" cy="783.27" r="2.87"/>
	</g>
	<g class="st0">
		<circle class="st1" cx="2113.59" cy="692.67" r="4.1"/>
	</g>
	<g class="st0">
		<circle class="st2" cx="2184.07" cy="654.28" r="4.92"/>
	</g>
	<g class="st0">
		<circle class="st2" cx="1080.47" cy="390.86" r="2.46"/>
	</g>
	<g class="st0">
		<circle class="st1" cx="2212.8" cy="677.21" r="1.64"/>
	</g>
	<g class="st0">
		
			<ellipse transform="matrix(0.7071 -0.7071 0.7071 0.7071 -15.3154 653.1114)" class="st1" cx="780.72" cy="345.04" rx="2.46" ry="2.46"/>
	</g>
	<g class="st0">
		<circle class="st1" cx="892.34" cy="288.98" r="2.87"/>
	</g>
	<g class="st0">
		<circle class="st1" cx="1138.09" cy="383.38" r="3.28"/>
	</g>
	<g class="st0">
		
			<ellipse transform="matrix(0.7071 -0.7071 0.7071 0.7071 237.504 651.7344)" class="st1" cx="905.46" cy="39.17" rx="2.46" ry="2.46"/>
	</g>
</g>
<path class="st4" d="M782.02,125.64c113.16,2.73,226.33,5.46,339.49,8.2c19.82,0.48,43.98,2.77,51.7,14.46
	c9.05,13.71-12.64,26.86-32.59,34.07c-19.95,7.22-43.9,16.91-41.53,31.59c1.15,7.14,8.86,13.39,17.97,17.78
	c25.16,12.12,59.09,12.22,90.27,11.78c110.01-1.56,220.02-3.11,330.03-4.67c27.6-0.39,56.71-1.06,79.76-10.34
	c23.05-9.28,36.28-30.41,20.16-44.9c-6.83-6.14-17.62-10.1-24.99-15.98c-7.38-5.88-9.87-15.71-0.28-19.8
	c3.85-1.64,8.73-1.94,13.39-2.18c126.46-6.61,253.85-7.76,381.01-3.44c9.82,0.33,21.74,1.6,25.5,7.41c2.78,4.3-0.46,9.1,0.42,13.69
	c2.3,12.07,27.94,14.93,47.04,14.48c76.35-1.8,152.7-3.6,229.05-5.39c15.97-0.38,35.82-2.63,39.58-12.42
	c2.46-6.41-3.32-14.35,3.43-19.32c4.53-3.34,12.53-3.48,19.57-3.37c61.17,0.97,122.34,1.93,183.5,2.9
	c26.69,0.42,48.94,3.87,68.29-9.37c13.84-9.47,21.16-23.07,17.88-36.13c-0.91-3.6-2.81-7.42-7.47-9.62
	c-4.42-2.08-10.26-2.23-15.7-2.29c-76.12-0.86-152.24-1.72-228.35-2.58c-15.62-0.18-34.6,0.9-40.98,9.83
	c-2.79,3.9-2.52,8.75-6.91,11.98c-5.09,3.75-14.17,3.76-22.07,3.44c-62.97-2.59-125.75-8.25-187.61-16.91
	c-29.24-4.09-67.69-6.32-80.43,10.53c-2.98,3.94-4.39,8.84-10.3,11.07c-5.37,2.02-12.29,0.98-18.41-0.12
	c-21.7-3.9-43.4-7.8-65.1-11.71c-6.17-1.11-12.74-2.38-16.86-5.52c-8.43-6.41-1.64-16.08,7.37-21.88c9-5.8,20.69-11.05,22.78-19.14
	c4.25-16.5-31.29-24.71-57.76-25.89c-92.4-4.13-185.05-4.77-277.29-1.92c-13.08,0.4-26.73,0.98-37.83,5.23
	c-11.1,4.25-18.58,13.37-13.23,21.04c5.41,7.76,22.4,13.53,18.48,21.49c-55.18,0.24-110.37,0.49-165.55,0.73
	c-17.37,0.08-35.33,0.23-50.95,4.8c-15.62,4.56-28.32,14.81-25.82,25.75c1.44,6.31,7.46,13.28,1.92,18.49
	c-3.86,3.63-11.63,4.45-18.57,4.9c-24.78,1.62-49.7,2.6-74.66,2.92c-5.78,0.08-12.25-0.05-16.45-2.64
	c-6.59-4.06-3.36-11.23-7.67-16.35c-5.05-6-17.78-6.88-28.39-6.97c-135.14-1.1-270.23,0.82-404.91,5.74
	C795.82,109.67,773.81,116.69,782.02,125.64z M1664.35,91.67c23.33-1.51,46.7-2.8,70.05-4.19c-3.55-6.75-18.68-10.82-16.98-17.77
	c1.38-5.68,12.78-7.29,21.85-7.6c48.45-1.67,97.07-2.05,145.68-1.11c4.55,0.09,10.16,0.64,11.76,3.36c1.32,2.23-0.97,4.55-3.14,6.43
	c-10.23,8.85-20.45,17.69-30.68,26.54c-1.82,1.58-3.71,3.19-6.34,4.23c-3.15,1.24-7.02,1.51-10.75,1.71
	c-24.92,1.36-50.05,1.12-75.13,0.88c-35.55-0.34-83.67,4.8-117.87-2.71C1625.41,95.41,1646.12,92.85,1664.35,91.67z M1241.9,153.85
	c9.93-3.41,21.58-4.24,32.92-4.94c72.61-4.46,145.82-5.77,218.97-3.93c6.19,0.16,14.31,1.45,14.72,5.37
	c0.28,2.67-3.5,4.64-6.91,6.15l-13.28,5.87c-3.37,1.49-6.89,3.09-8.6,5.47c-5.06,7.03,8.2,13.96,19.68,16.96
	c11.48,3,25.81,7.6,24.85,15.36c-0.99,8.04-17.27,10.5-29.99,10.85c-55.14,1.53-110.4,1.95-165.67,1.24
	c-32.72-0.42-89.23,1.12-105.55-22.68C1214.23,176.72,1222.87,160.38,1241.9,153.85z"/>
<path class="st5" d="M494.32,351.88c-5.9,0.28-12.7,1-15.87,5.24c-3.44,4.61-0.65,10.6-0.69,16.06
	c-0.08,9.07-8.57,16.84-18.38,20.38c-9.81,3.53-20.77,3.7-31.42,3.81c-64.46,0.68-128.93,1.36-193.39,2.04
	c-3.57,0.04-7.35,0.03-10.39-1.56c-3.26-1.7-4.99-4.84-7.11-7.55c-12.14-15.54-37.56-17.52-59.47-17.95
	c-82.76-1.62-165.52-3.23-248.28-4.85c-41.35-0.81-83.41-1.54-123.26,7.87c27.6,9.37,58.04,10.09,87.74,10.68
	c89.38,1.78,178.77,3.56,268.15,5.34c-14.91,8.3-10.22,29.64,4.23,38.51c14.45,8.87,33.65,8.94,51.46,8.8
	c51.65-0.43,103.31,0.25,154.92,2.05c8.7,0.3,19.72,2.25,21.3,9.54c2.03,9.39-13.31,13.56-24.52,13.77
	c-25.99,0.48-51.97,0.96-77.96,1.43c-21.87,0.4-45.66,1.39-62.28,13.5c4.48,7.41,16.03,8.75,25.8,9.13
	c89.44,3.44,179.1,2.86,268.47-1.73c7.43-0.38,15.49-1.01,20.96-5.31c8.61-6.77,5.99-19.66-2.29-26.74s-20.22-9.83-31.58-12.3
	c20.12-19.2,55.15-17.68,85.29-15.79c30.14,1.89,66.29,0.05,81.97-21.95c3.24-4.54,5.41-9.79,10.02-13.37
	c4.81-3.73,11.48-5.05,17.85-6.15c42.69-7.42,86.14-11.65,129.69-12.62c8.74-0.19,18.15-0.45,25.09-4.97
	c6.94-4.52,8.84-15.09,1.32-18.9c-2.78-1.41-6.15-1.59-9.37-1.7C720.67,342.76,605.97,346.61,494.32,351.88z"/>
<path class="st6" d="M2469,1287.82c-12.83-0.53-27.89-2.25-33.73-10.48c-6.35-8.95,0.82-18.68-27.15-20.42
	c-96.95-6.05-194.32-8.55-291.62-7.47c-16.22,0.18-12.65,6.41-13.13,12.74c-0.97,12.83-23.79,17.39-41.6,18.48
	c-101.09,6.18-86.93,3.17-98.75,14.91c-8.26,8.2-145.85,16.99-159.84,18.23c-82.83,7.36-179.83-7.57-263.04-12.18
	c25.02-12.53,45.88-11.7,190.92-19.57c27.59-1.5,131.78-5.83,170.93-14.9c24.25-5.62,49.22-9.62,74.48-11.94
	c10.35-0.95,24.25-4.97,21.54-12.21c-2.07-5.51-12.19-6.5-20.13-6.39c-41.1,0.58-82.21,1.17-123.31,1.75
	c-31.8,0.45-1.24,16.77-38.45,20.06c-43.89,3.88-88.31,4.63-132.41,2.24c13.24-11.83,38.13-10.67,59.23-10.02
	c21.1,0.65,47.51-3.15,52.87-17.83c2.67-7.34,0.13-11.65,16.49-15.52c88-20.83,184.06,3.15,276.32-2.9
	c2.59-0.17,5.39-0.43,7.22-1.76c2.68-1.93,2.07-5.07,2.4-7.78c1.38-11.29,20-16.51,35.53-18.42c48.38-5.95,97.87-4.26,146.89-2.55
	c142.41,4.97,133.64,4.26,136.6,5.71c4.67,2.28,3.21,7.93-1.31,10.35c-6.72,3.6-4,2.52-161.21,3.12c-8.8,0.03-18.21,0.2-25.43,3.81
	c-7.23,3.61-10.37,12.05-3.8,16.26c5.95,3.81,1.41,2.66,174.66,3.03c48.22,0.1,30.49-9.62,70.25-1.69
	c67.62,13.48,139.93,3.95,209.44,10.82c6.57,0.65,10.76,1.68,11.48,8.18c3.17,28.43-41.62,39.97-73.36,42.32
	C2568.62,1289.45,2518.55,1289.86,2469,1287.82z"/>
<path class="st7" d="M18.46,1141.37c6.26,10.12,16.01,17.48,25.54,24.6c4.3,3.22,8.76,6.51,13.97,7.81
	c5.21,1.3,10.56-1.97,13.69-6.33c95.51-5.24,191.03-10.48,286.54-15.72c5.3-0.29,10.82-0.55,15.71,1.5
	c9.75,4.08,13.69,15.46,20.09,23.87c16.23,21.34,47.32,22.55,74.12,21.83c78.85-2.12,157.71-4.24,236.56-6.36
	c13.15-0.35,27.64-1.24,37.07-10.42c7.46-7.26,9.98-19.14,6.12-28.81c-2.07-5.19-5.76-9.66-7.44-14.99
	c-3.95-12.48,4.58-26.17,16.03-32.51c11.45-6.34,25.05-7.12,38.13-7.76c55.75-2.71,111.51-5.42,167.26-8.13
	c11.97-0.58,25.6-2.01,32.7-11.67c3.39-4.61,4.71-10.49,8.1-15.1c7.75-10.55,23-11.14,36.09-10.94
	c70.35,1.05,140.79-4.2,210.2-15.68c-5.41-11.72-20.5-14.53-33.35-15.71c-79.99-7.34-160.38-10.2-240.69-8.57
	c-7.04,0.14-14.49,0.44-20.41,4.26c-6.43,4.15-9.86,11.7-15.76,16.57c-7.6,6.28-18.11,7.29-27.94,8
	c-45.21,3.28-90.47,5.81-135.76,7.58c-8.62,0.34-18.67-0.01-23.81-6.93c-4.79-6.47-2.92-15.65-5.63-23.23
	c-5.45-15.17-25.45-17.76-41.57-17.78c-61.08-0.08-122.17-0.15-183.25-0.23c-12.21-0.01-25.08,0.14-35.6,6.34
	c-10.52,6.19-17.18,20.69-10.68,31.03c4.93,7.83,15.76,11.2,18.9,19.9c2.86,7.93-2.45,16.94-9.78,21.11
	c-7.33,4.17-16.1,4.7-24.52,5.14c-148.24,7.61-296.47,15.22-444.71,22.83C7.97,1116.89,12.21,1131.25,18.46,1141.37z
	 M488.14,1120.29c3.17-1.95,7.09-2.05,10.81-2.25c18.95-0.98,37.71-5.67,54.9-13.72c2.12-0.99,4.32-2.13,5.58-4.11
	c5.26-8.31-10.64-19.88-4.27-27.37c48.5-4.14,97.17-6.26,145.84-6.35c5.62-0.01,13.24,2,12.82,7.6
	c-0.13,13.8-25.6,18.61-22.59,32.08c1.01,4.52,5.39,8.35,4.48,12.9c-0.94,4.72-6.73,6.38-11.49,7.07
	c-62.68,9.18-128.7,14.8-191.79,6.7c-2.66-0.34-5.6-0.89-7.18-3.05C483.06,1126.78,484.97,1122.23,488.14,1120.29z"/>
<path class="st8" d="M1978.4,565.22c-26.51-4.24-53.86-5.31-81.04-6.36c-105.94-4.1-212.11-8.2-318.11-4.82
	c-17.04,0.54-35.28,1.59-48.55,8.91s-17.35,23.27-3.55,30.11c4.84,2.4,11.57,3.7,13.77,7.5c3.85,6.66-9.42,11.58-19.69,13.03
	c-182.61,25.81-370.43,46.86-554.93,28.35c1.48-10.98-11.39-20.95-26.41-25c-15.02-4.05-31.73-3.53-47.86-2.95
	c-83.69,3-167.38,6.01-251.07,9.01c-19.63,0.7-42.71,2.82-52.03,14.63c85.79,2.08,171.58,4.16,257.38,6.23
	c10.57,0.26,21.56,0.58,30.92,3.95c10.39,3.73,17.32,10.66,25.6,16.35c38.22,26.27,100.16,24.17,154.19,20.91
	c136.53-8.26,273.61-12.3,410.68-12.13c8.2,5.16,4.65,15.17-4.11,19.87s-20.55,5.57-31.66,6.25c-63.45,3.9-126.89,7.8-190.34,11.7
	c1.19,11.5,24.11,14.06,40.96,13.28c116.47-5.4,232.94-10.8,349.41-16.2c15.81-0.73,36.27-4.5,36.9-15.31
	c1.01-17.19-46.58-15.77-53.5-32.31c29.29-12.49,34.88-44.39,10.72-61.23c103.11-4.25,206.54-4.75,309.73-1.5
	c14.69,0.46,29.98,1.12,42.76,6.08c12.78,4.96,22.1,15.6,17.35,25.1c-7.17,14.33-40.47,18.51-41.88,33.62
	c-1.41,15.17,29.09,20.19,51.34,19.81c215.83-3.63,431.67-7.25,647.5-10.88c-189.88-33.14-394.71-0.95-583.97-35.69
	c-0.05-12.61,20.68-20.68,39.11-21.52s37.14,2.68,55.28,0.31c18.65-2.44,34.4-10.79,52.22-15.25c14.93-3.74,31-4.68,46.85-5.6
	c81.29-4.67,162.59-9.35,243.88-14.02c-35.66,2.05-75.77-4.06-111.75-5.1c-38.83-1.12-77.69-1.57-116.55-1.35
	c-37.15,0.22-77.79-1.59-114.43,2.9c-24.83,3.04-41.69,12.17-68.38,10.77C2054.76,584.52,2017.46,571.47,1978.4,565.22z"/>
<path class="st9" d="M1627.47,1488.26c-107.05,1.39-214.1,2.78-321.15,4.16c-7.74,0.1-17.72,2.01-18.93,9.66
	c-1.28,8.07,9.19,15.82,5.41,23.07c-1.92,3.68-6.57,4.79-10.66,5.51c-114.35,20.15-230.43,40.37-345.97,28.81
	c-0.13-15.44-13.08-28.41-27.64-33.57c-14.55-5.17-30.47-4.21-45.88-3.19c-118.98,7.87-237.95,15.74-356.93,23.6
	c-5.73,4.21-3.51,14.05,2.36,18.07c5.87,4.02,13.52,3.92,20.62,3.67c120.73-4.23,241.45-8.46,362.18-12.69
	c-5.31,17.73-9.83,39.28,2.78,52.83c10.19,10.95,27.07,11.43,42.02,11.1c55.52-1.23,111.03-3.07,166.51-5.52
	c-8.71,5.46-6.55,19.91,1.53,26.26c8.08,6.35,19.16,6.85,29.44,6.88c50.08,0.17,100.18-4.18,149.49-12.96
	c7.68-1.37,16.64-3.91,19.16-11.3c4.1-12.02-12.86-25.45-5.96-36.11c2.63-4.07,7.8-5.58,12.59-6.31
	c13.36-2.02,27.02-0.27,40.49-1.44c13.47-1.17,27.77-6.13,34.87-17.63c7.1-11.5,2.35-30.12-10.9-32.79
	c87.44-10.05,175.9-11.21,263.57-3.44c-15.95,5.8-14.79,31.22-1.57,41.87c13.22,10.65,31.77,10.7,48.74,10.25
	c15.98-0.43,31.96-0.85,47.94-1.28c13.49-0.36,28.81-1.59,37.16-12.19c8.36-10.59-1.26-31.51-13.74-26.38
	c-4.21-7.86,7.99-13.97,16.89-14.67c50.66-3.97,101.32-7.93,151.97-11.9c-55.92-16.65-114.98-15.97-172.63-11.79
	c-21.62,1.57-45.38,4.93-67,3.04C1664.73,1500.19,1650.17,1487.96,1627.47,1488.26z"/>
</svg>
