<?xml version="1.0" encoding="utf-8"?>
<!-- Generator: Adobe Illustrator 25.0.0, SVG Export Plug-In . SVG Version: 6.00 Build 0)  -->
<svg version="1.1" id="Background" xmlns="http://www.w3.org/2000/svg" xmlns:xlink="http://www.w3.org/1999/xlink" x="0px" y="0px"
	 viewBox="0 0 1920 1600" style="enable-background:new 0 0 1920 1600;" xml:space="preserve">
<style type="text/css">
	.st0{fill:url(#SVGID_1_);}
	.st1{opacity:0.5;}
	.st2{fill:#FDB913;}
	.st3{fill:#FFFFFF;}
	.st4{fill:#8E5BA6;}
	.st5{clip-path:url(#SVGID_3_);}
	.st6{fill:url(#SVGID_4_);}
	.st7{fill:#E18F19;}
	.st8{fill:#FFE72D;}
	.st9{opacity:0.5;fill:#E18F19;}
	.st10{fill:url(#SVGID_5_);}
	.st11{opacity:0.5;fill:#7A1878;}
	.st12{opacity:0.8;fill:#8E5BA6;}
	.st13{fill:url(#SVGID_6_);}
	.st14{fill:#B5D5E5;}
	.st15{fill:url(#SVGID_7_);}
	.st16{opacity:0.05;fill:#F7941D;}
	.st17{opacity:0.06;fill:#F7941D;}
	.st18{opacity:0.09;fill:#F7941D;}
	.st19{opacity:0.08;fill:#F7941D;}
	.st20{opacity:0.07;fill:#F7941D;}
	.st21{fill:#7B3365;stroke:#FFFFFF;stroke-width:20.2137;stroke-linecap:round;stroke-linejoin:round;stroke-miterlimit:10;}
	.st22{fill:#4A2552;stroke:#FFFFFF;stroke-width:20.2137;stroke-linecap:round;stroke-linejoin:round;stroke-miterlimit:10;}
	.st23{fill:none;stroke:#FFFFFF;stroke-width:20.2137;stroke-linejoin:round;stroke-miterlimit:10;}
	.st24{fill:none;stroke:#FFFFFF;stroke-width:20.2137;stroke-linecap:round;stroke-linejoin:round;stroke-miterlimit:10;}
	.st25{fill:#4A2552;stroke:#FFFFFF;stroke-width:11.3351;stroke-linecap:round;stroke-linejoin:round;stroke-miterlimit:10;}
	.st26{fill:#7B3365;stroke:#FFFFFF;stroke-width:11.3351;stroke-linecap:round;stroke-linejoin:round;stroke-miterlimit:10;}
	.st27{fill:none;stroke:#FFFFFF;stroke-width:11.3351;stroke-linecap:round;stroke-linejoin:round;stroke-miterlimit:10;}
	.st28{fill:none;stroke:#FFFFFF;stroke-width:11.3351;stroke-linejoin:round;stroke-miterlimit:10;}
	.st29{fill:#4A2552;stroke:#FFFFFF;stroke-width:20.0031;stroke-linecap:round;stroke-linejoin:round;stroke-miterlimit:10;}
	.st30{fill:#7B3365;stroke:#FFFFFF;stroke-width:20.0031;stroke-linecap:round;stroke-linejoin:round;stroke-miterlimit:10;}
	.st31{fill:none;stroke:#FFFFFF;stroke-width:20.0031;stroke-linejoin:round;stroke-miterlimit:10;}
	.st32{fill:none;stroke:#FFFFFF;stroke-width:20.0031;stroke-linecap:round;stroke-linejoin:round;stroke-miterlimit:10;}
	.st33{fill:#4A2552;stroke:#FFFFFF;stroke-width:13.3354;stroke-linecap:round;stroke-linejoin:round;stroke-miterlimit:10;}
	.st34{fill:#7B3365;stroke:#FFFFFF;stroke-width:13.3354;stroke-linecap:round;stroke-linejoin:round;stroke-miterlimit:10;}
	.st35{fill:none;stroke:#FFFFFF;stroke-width:13.3354;stroke-linejoin:round;stroke-miterlimit:10;}
	.st36{fill:none;stroke:#FFFFFF;stroke-width:13.3354;stroke-linecap:round;stroke-linejoin:round;stroke-miterlimit:10;}
	.st37{fill:#4A2552;stroke:#FFFFFF;stroke-width:13.5078;stroke-linecap:round;stroke-linejoin:round;stroke-miterlimit:10;}
	.st38{fill:#7B3365;stroke:#FFFFFF;stroke-width:13.5078;stroke-linecap:round;stroke-linejoin:round;stroke-miterlimit:10;}
	.st39{fill:none;stroke:#FFFFFF;stroke-width:13.5078;stroke-linejoin:round;stroke-miterlimit:10;}
	.st40{fill:none;stroke:#FFFFFF;stroke-width:13.5078;stroke-linecap:round;stroke-linejoin:round;stroke-miterlimit:10;}
	.st41{fill:#7B3365;stroke:#FFFFFF;stroke-width:16.1885;stroke-linecap:round;stroke-linejoin:round;stroke-miterlimit:10;}
	.st42{fill:#4A2552;stroke:#FFFFFF;stroke-width:16.1885;stroke-linecap:round;stroke-linejoin:round;stroke-miterlimit:10;}
	.st43{fill:none;stroke:#FFFFFF;stroke-width:16.1885;stroke-linejoin:round;stroke-miterlimit:10;}
	.st44{fill:none;stroke:#FFFFFF;stroke-width:16.1885;stroke-linecap:round;stroke-linejoin:round;stroke-miterlimit:10;}
</style>
<radialGradient id="SVGID_1_" cx="974.2184" cy="1777.9343" r="1630.6798" gradientTransform="matrix(0.9998 0.0199 -0.0149 0.7485 26.6814 427.6831)" gradientUnits="userSpaceOnUse">
	<stop  offset="0" style="stop-color:#4A2552"/>
	<stop  offset="0.0297" style="stop-color:#942972"/>
	<stop  offset="1" style="stop-color:#36133D"/>
</radialGradient>
<rect class="st0" width="1920" height="1600"/>
<g class="st1">
	<circle class="st2" cx="89.78" cy="94.15" r="3.07"/>
</g>
<g class="st1">
	<circle class="st3" cx="1230.86" cy="303.91" r="3.07"/>
</g>
<g class="st1">
	<circle class="st3" cx="1141.01" cy="231.58" r="2.15"/>
</g>
<g class="st1">
	<circle class="st3" cx="1166.98" cy="161.45" r="3.07"/>
</g>
<g class="st1">
	<circle class="st2" cx="434.13" cy="551.58" r="3.07"/>
</g>
<g class="st1">
	<circle class="st4" cx="1224.71" cy="178.46" r="3.69"/>
</g>
<g class="st1">
	<circle class="st3" cx="587.42" cy="82.43" r="2.15"/>
</g>
<g class="st1">
	<circle class="st3" cx="1009.15" cy="464.43" r="3.07"/>
</g>
<g class="st1">
	<circle class="st3" cx="491.42" cy="185.91" r="2.46"/>
</g>
<g class="st1">
	<circle class="st2" cx="985.37" cy="182.77" r="3"/>
</g>
<g class="st1">
	<circle class="st3" cx="1652.66" cy="462" r="3.07"/>
</g>
<g class="st1">
	<circle class="st3" cx="1582.97" cy="504.23" r="1.23"/>
</g>
<g class="st1">
	<circle class="st3" cx="468.98" cy="563.74" r="1.23"/>
</g>
<g class="st1">
	<circle class="st4" cx="1369.22" cy="109.46" r="1.84"/>
</g>
<g class="st1">
	<circle class="st3" cx="1227.79" cy="205.86" r="1.23"/>
</g>
<g class="st1">
	<circle class="st3" cx="105.36" cy="123.36" r="1.54"/>
</g>
<g class="st1">
	<circle class="st3" cx="53.57" cy="121.82" r="1.23"/>
</g>
<g class="st1">
	<circle class="st3" cx="1640.36" cy="454.01" r="1.23"/>
</g>
<g class="st1">
	<circle class="st3" cx="279.31" cy="18.74" r="3.07"/>
</g>
<g class="st1">
	<circle class="st3" cx="1515.95" cy="1288.98" r="3.07"/>
</g>
<g class="st1">
	<circle class="st3" cx="488.96" cy="92.45" r="2.15"/>
</g>
<g class="st1">
	<circle class="st4" cx="1677.99" cy="1369.77" r="2.46"/>
</g>
<g class="st1">
	<circle class="st3" cx="543.34" cy="29.31" r="2.46"/>
</g>
<g class="st1">
	<circle class="st3" cx="1490.91" cy="1334.3" r="1.23"/>
</g>
<g class="st1">
	<circle class="st3" cx="1456.93" cy="1290.83" r="1.84"/>
</g>
<g class="st1">
	<circle class="st3" cx="962.44" cy="520.28" r="1.54"/>
</g>
<g class="st1">
	<circle class="st3" cx="938.38" cy="474.39" r="1.23"/>
</g>
<g class="st1">
	<circle class="st3" cx="114.87" cy="74.16" r="3.07"/>
</g>
<g class="st1">
	<circle class="st3" cx="42.49" cy="102.66" r="2.46"/>
</g>
<g class="st1">
	<circle class="st3" cx="79.62" cy="36.22" r="1.23"/>
</g>
<g class="st1">
	<circle class="st4" cx="131.53" cy="17.51" r="1.84"/>
</g>
<g class="st1">
	<circle class="st3" cx="1273.43" cy="34.26" r="1.84"/>
</g>
<g class="st1">
	<circle class="st3" cx="1362.36" cy="63.72" r="2.15"/>
</g>
<g class="st1">
	<circle class="st3" cx="1403.75" cy="136.04" r="2.46"/>
</g>
<g class="st1">
	<circle class="st3" cx="182.75" cy="234.58" r="3.69"/>
</g>
<g class="st1">
	<circle class="st3" cx="67.95" cy="346.23" r="1.84"/>
</g>
<g class="st1">
	<circle class="st3" cx="171.07" cy="209.61" r="1.23"/>
</g>
<g class="st1">
	
		<ellipse transform="matrix(0.9473 -0.3202 0.3202 0.9473 -87.9717 40.8327)" class="st3" cx="80.17" cy="287.9" rx="3.07" ry="3.07"/>
</g>
<g class="st1">
	
		<ellipse transform="matrix(0.9473 -0.3202 0.3202 0.9473 -117.0279 79.3583)" class="st3" cx="182.78" cy="395.51" rx="1.84" ry="1.84"/>
</g>
<g class="st1">
	<circle class="st4" cx="26.73" cy="371.32" r="2.46"/>
</g>
<g class="st1">
	<circle class="st3" cx="1551.39" cy="550.35" r="2.46"/>
</g>
<g class="st1">
	<circle class="st3" cx="1734.64" cy="1313.89" r="2.15"/>
</g>
<g class="st1">
	<circle class="st2" cx="1733.16" cy="574.85" r="3.69"/>
</g>
<g class="st1">
	<circle class="st3" cx="1755.16" cy="591.46" r="1.23"/>
</g>
<g class="st1">
	
		<ellipse transform="matrix(0.6877 -0.726 0.726 0.6877 203.6421 1338.6412)" class="st3" cx="1657.9" cy="432.6" rx="1.84" ry="1.84"/>
</g>
<g class="st1">
	<circle class="st3" cx="1438.16" cy="1.84" r="1.84"/>
</g>
<g class="st1">
	<circle class="st3" cx="1907.26" cy="1194.86" r="0.61"/>
</g>
<g class="st1">
	<circle class="st4" cx="143.86" cy="971.07" r="3.07"/>
</g>
<g class="st1">
	<circle class="st3" cx="1823.24" cy="792.25" r="2.15"/>
</g>
<g class="st1">
	<circle class="st3" cx="1893.37" cy="818.21" r="3.07"/>
</g>
<g class="st1">
	<circle class="st4" cx="1876.36" cy="875.94" r="5.62"/>
</g>
<g class="st1">
	<circle class="st2" cx="87.13" cy="865.51" r="4.88"/>
</g>
<g class="st1">
	<circle class="st4" cx="447.04" cy="1225.12" r="1.84"/>
</g>
<g class="st1">
	<circle class="st3" cx="117.54" cy="1263.1" r="3.07"/>
</g>
<g class="st1">
	<circle class="st3" cx="75.31" cy="1193.41" r="1.23"/>
</g>
<g class="st1">
	<circle class="st3" cx="1848.96" cy="879.02" r="1.23"/>
</g>
<g class="st1">
	<circle class="st3" cx="125.53" cy="1250.8" r="1.23"/>
</g>
<g class="st1">
	<circle class="st3" cx="31.28" cy="818.8" r="1.54"/>
</g>
<g class="st1">
	<circle class="st3" cx="77.17" cy="794.74" r="1.23"/>
</g>
<g class="st1">
	<circle class="st3" cx="29.19" cy="1039.59" r="2.46"/>
</g>
<g class="st1">
	
		<ellipse transform="matrix(0.6877 -0.726 0.726 0.6877 -874.8753 502.7215)" class="st3" cx="146.94" cy="1268.34" rx="1.84" ry="1.84"/>
</g>
<g class="st1">
	<circle class="st3" cx="352.16" cy="1345.97" r="2.15"/>
</g>
<g class="st1">
	<circle class="st2" cx="492.61" cy="1359.92" r="3"/>
</g>
<g class="st1">
	<circle class="st3" cx="1888.81" cy="1199.38" r="1.84"/>
</g>
<g class="st1">
	<circle class="st3" cx="419.64" cy="1418.36" r="2.15"/>
</g>
<g class="st1">
	<circle class="st2" cx="1615.68" cy="1059.21" r="3.69"/>
</g>
<g class="st1">
	<circle class="st3" cx="1805.9" cy="1210.76" r="1.84"/>
</g>
<g class="st1">
	<circle class="st3" cx="1602.85" cy="1083.62" r="1.23"/>
</g>
<g class="st1">
	
		<ellipse transform="matrix(0.5613 -0.8276 0.8276 0.5613 -162.9211 1910.1202)" class="st3" cx="1720.15" cy="1108.73" rx="3.07" ry="3.07"/>
</g>
<g class="st1">
	
		<ellipse transform="matrix(0.5613 -0.8276 0.8276 0.5613 -31.0252 1865.3545)" class="st3" cx="1743.88" cy="961.94" rx="1.84" ry="1.84"/>
</g>
<g class="st1">
	<circle class="st3" cx="1857.14" cy="1145.37" r="2.15"/>
</g>
<g class="st1">
	<circle class="st2" cx="1850.8" cy="1228.45" r="4.12"/>
</g>
<g>
	<defs>
		<rect id="SVGID_2_" width="1920" height="1440"/>
	</defs>
	<clipPath id="SVGID_3_">
		<use xlink:href="#SVGID_2_"  style="overflow:visible;"/>
	</clipPath>
	<g class="st5">
		<g>
			<circle class="st2" cx="29.61" cy="454.5" r="130.84"/>
			
				<radialGradient id="SVGID_4_" cx="158.0501" cy="379.5121" r="174.431" gradientTransform="matrix(0.9937 -0.1119 0.1119 0.9937 -115.1441 18.3323)" gradientUnits="userSpaceOnUse">
				<stop  offset="0" style="stop-color:#FDB913"/>
				<stop  offset="1" style="stop-color:#E18F19"/>
			</radialGradient>
			<path class="st6" d="M146.66,466.77c-0.9,0.87-1.84,1.67-2.75,2.53l-1.36,1.31l-0.68,0.65c-0.23,0.22-0.47,0.44-0.62,0.6
				c-1.41,1.35-2.64,2.83-3.87,4.45c-1.23,1.62-2.39,3.43-3.57,5.43c-1.17,2.02-2.3,4.25-3.47,6.63c-1.17,2.38-2.37,4.91-3.61,7.53
				c-1.27,2.62-2.59,5.32-3.99,8.02c-1.39,2.71-2.95,5.42-4.58,8.07c-0.81,1.33-1.7,2.63-2.54,3.93c-0.91,1.28-1.8,2.55-2.76,3.78
				c-3.74,4.98-8.02,9.42-12.49,13.45c-2.29,1.96-4.57,3.9-6.97,5.68c-2.34,1.83-4.85,3.51-7.35,5.09
				c-2.52,1.54-5.07,3.03-7.65,4.38c-2.56,1.41-5.16,2.69-7.74,3.99c-10.33,5.13-20.67,9.87-30.05,15.72
				c-2.35,1.45-4.63,2.96-6.84,4.53c-1.11,0.78-2.16,1.63-3.23,2.44c-1.06,0.83-2.07,1.69-3.11,2.53c-2.71,2.34-5.22,4.83-7.48,7.46
				c13.92,1.03,28.24-0.17,42.5-3.87c58.47-15.16,97.39-67.55,97.99-125.19c-0.79,0.54-1.57,1.07-2.34,1.62
				C154.11,460.42,150.35,463.46,146.66,466.77z M22.93,563.09c1.35-0.67,2.69-1.39,4.05-2.02c2.7-1.31,5.4-2.56,8.12-3.71
				c10.86-4.62,21.72-8.32,32.12-12.61c10.35-4.32,20.4-9.15,27.82-17.07c1.8-1.99,3.49-4.07,4.88-6.33
				c0.75-1.09,1.34-2.29,1.98-3.44c0.56-1.2,1.15-2.37,1.61-3.61c0.97-2.45,1.76-4.96,2.33-7.56c0.61-2.58,1.05-5.21,1.42-7.92
				c0.38-2.7,0.7-5.46,1.03-8.3c0.36-2.84,0.75-5.79,1.33-8.82c0.58-3.04,1.35-6.17,2.45-9.38c1.1-3.21,2.59-6.47,4.48-9.61
				c1.9-3.13,4.2-6.15,6.88-8.78c0.34-0.37,0.62-0.62,0.91-0.89l0.88-0.81l1.76-1.61c1.21-1.04,2.45-2.07,3.7-3.07
				c5.06-3.98,10.76-7.38,16.82-9.88c3.68-1.52,7.49-2.7,11.33-3.51c-0.65-4.08-1.49-8.17-2.54-12.25
				c-9.35,2.93-18.53,6.42-27.46,10.39c-12.88,5.75-25.24,12.57-36.7,20.5c-5.71,3.98-11.2,8.22-16.33,12.79
				c-2.58,2.27-5.03,4.65-7.44,7.06c-1.16,1.24-2.37,2.44-3.48,3.71c-0.56,0.63-1.16,1.27-1.68,1.88c-0.51,0.62-1.02,1.19-1.52,1.84
				c-4.04,5.07-7.83,10.98-11.55,17.01L38.88,515.7c-3.87,6.29-7.88,12.63-12.4,18.88c-4.55,6.23-9.52,12.44-15.87,18.16
				c-0.81,0.71-1.59,1.42-2.46,2.1c-0.85,0.68-1.74,1.4-2.49,1.95l-2.35,1.76l-2.39,1.71c-3.21,2.24-6.47,4.38-9.8,6.4
				c-4.57,2.76-9.24,5.31-13.98,7.67c6.55,2.87,13.34,5.21,20.31,6.98c1.93-1.9,3.92-3.71,5.96-5.41c4.95-4.1,10.16-7.63,15.5-10.63
				C20.26,564.55,21.58,563.78,22.93,563.09z M62.44,498.86c7.83-11.77,20.21-17.31,27.65-12.36c7.44,4.95,7.12,18.5-0.71,30.28
				c-7.83,11.77-20.21,17.31-27.65,12.36S54.61,510.63,62.44,498.86z M-72.63,474.52l0.93-0.55l1.87-1.09
				c1.24-0.71,2.49-1.49,3.73-2.11l3.73-1.94c1.25-0.66,2.49-1.19,3.73-1.79c9.95-4.69,19.91-8.06,29.79-10.89
				c4.95-1.37,9.88-2.66,14.75-3.79c4.87-1.13,9.72-2.21,14.33-3.2l3.37-0.76l3.13-0.75l3.29-0.92c1.1-0.31,2.2-0.6,3.29-0.96
				c2.19-0.7,4.41-1.33,6.59-2.12l3.29-1.13l3.27-1.23c8.74-3.31,17.38-7.22,25.75-11.71c16.67-9.07,32.41-20.44,45.17-34.49
				c6.41-7.05,12.23-14.77,17.85-22.78c2.35-3.35,4.66-6.75,7.01-10.17c-5.61-5.62-11.7-10.7-18.19-15.19
				c-1.84,2.27-3.94,4.44-6.21,6.46c-4.79,4.28-10.61,7.58-16.28,9.64c-5.67,2.09-11.11,3.11-15.93,3.98
				c-4.84,0.84-9.2,1.55-13.13,2.61c-1.97,0.54-3.86,1.16-5.68,1.89c-1.81,0.75-3.56,1.66-5.28,2.66c-3.2,1.9-6.2,4.66-8.96,8.05
				c-2.77,3.37-5.27,7.35-7.74,11.5c-2.45,4.17-4.89,8.55-7.61,12.88c-1.39,2.15-2.81,4.32-4.4,6.4c-1.58,2.09-3.32,4.09-5.21,5.97
				c-0.96,0.93-1.93,1.84-2.97,2.69c-0.5,0.44-1.04,0.84-1.58,1.24l-0.8,0.6l-0.78,0.53l-3.13,2.1l-1.55,1.06
				c-0.51,0.36-1.04,0.7-1.58,1.02c-8.47,5.38-17.48,9.78-26.58,13.86c-9.1,4.08-18.36,7.88-27.34,11.89
				c-8.99,4-17.65,8.21-25.87,12.63l-3.08,1.65l-3.02,1.71l-3,1.69l-2.87,1.71c-1.01,0.62-2.02,1.26-3.03,1.89
				c0.65,4.02,1.49,8.05,2.53,12.07c0.42,1.63,0.89,3.25,1.37,4.85c0.68-0.65,1.35-1.3,2.05-1.92c2.11-1.91,4.27-3.74,6.48-5.51
				c4.41-3.51,8.95-6.77,13.62-9.68L-72.63,474.52z M45.6,382.78c13.02-9,28.06-9.81,33.59-1.8c5.53,8-0.54,21.79-13.56,30.79
				c-13.02,9-28.06,9.81-33.59,1.8C26.5,405.56,32.58,391.78,45.6,382.78z M-95.83,448.54c1.24-0.38,2.5-0.7,3.74-1.04
				c9.97-2.77,20.01-4.3,29.78-5.8c9.78-1.49,19.32-3.13,28.46-6.08c1.14-0.38,2.29-0.73,3.41-1.14l3.34-1.3
				c2.25-0.83,4.38-1.9,6.54-2.92c0.54-0.26,1.08-0.51,1.61-0.79l1.56-0.87l3.12-1.76c1.06-0.55,2.02-1.26,3.03-1.9l2.98-1.96
				c1.96-1.35,3.82-2.85,5.71-4.29l0.7-0.54l0.62-0.55c0.42-0.36,0.83-0.73,1.22-1.13c0.8-0.76,1.54-1.59,2.26-2.44
				c1.44-1.7,2.7-3.58,3.84-5.55c1.15-1.97,2.19-4.03,3.13-6.17c1.91-4.27,3.49-8.81,5.2-13.48c0.85-2.34,1.73-4.71,2.71-7.11
				c0.97-2.4,2.05-4.83,3.31-7.25c2.5-4.83,5.79-9.73,10.25-13.93c2.14-2,4.45-3.83,6.89-5.49c2.44-1.64,5.01-3.06,7.59-4.29
				c2.58-1.25,5.17-2.3,7.69-3.19c2.52-0.9,4.96-1.74,7.28-2.47c4.65-1.48,8.71-2.91,12.09-4.55c1.69-0.82,3.18-1.71,4.57-2.68
				c1.38-0.97,2.66-2.01,3.84-3.21c0.14-0.14,0.27-0.28,0.41-0.42c-15.83-6.78-33.06-10.49-50.77-10.57
				c-0.59,0.97-1.19,1.93-1.79,2.9c-0.97,1.46-1.98,2.89-2.98,4.34l-3.18,4.2c-1.1,1.37-2.24,2.7-3.37,4.06
				c-1.16,1.32-2.34,2.62-3.53,3.93c-1.23,1.26-2.45,2.53-3.7,3.77c-10.07,9.87-21.71,18.16-34.17,24.75
				c-12.47,6.58-25.77,11.48-39.4,14.58c-1.71,0.38-3.42,0.72-5.13,1.08c-1.72,0.31-3.43,0.62-5.16,0.89
				c-1.73,0.24-3.45,0.51-5.17,0.73l-5.19,0.55c-0.48,0.03-0.96,0.07-1.44,0.1c-3.4,5.94-6.35,12.15-8.79,18.57
				c3.03-0.94,6.07-1.79,9.12-2.55c6.27-1.58,12.58-2.8,18.9-3.8c1.58-0.26,3.16-0.46,4.74-0.67l4.66-0.62
				c3.03-0.43,6.04-0.9,9.04-1.39c5.97-1.03,11.88-2.18,17.51-3.9c5.64-1.7,11.04-3.95,15.73-7.39c2.35-1.72,4.47-3.76,6.37-6.11
				c1.85-2.37,3.46-5.03,4.81-7.91c-0.24,3.16-0.95,6.35-2.17,9.42c-1.24,3.05-3,5.98-5.16,8.58c-2.17,2.59-4.69,4.93-7.41,6.92
				c-2.71,2.02-5.61,3.72-8.56,5.26c-5.93,3.01-12.1,5.27-18.27,7.12c-3.09,0.95-6.19,1.77-9.28,2.55c-0.77,0.2-1.56,0.38-2.31,0.59
				l-2.22,0.6c-1.48,0.39-2.96,0.8-4.43,1.21c-5.91,1.6-11.74,3.32-17.49,5.16c-2.88,0.9-5.71,1.9-8.53,2.87
				c-2.8,1.03-5.59,2.04-8.32,3.16c-0.86,0.35-1.72,0.71-2.58,1.07c-1.48,7.2-2.35,14.56-2.59,22.02c0.54-0.18,1.09-0.36,1.63-0.54
				L-95.83,448.54z M-65.99,373.27c12.19-5.2,24.06-10.66,35.57-16.75c11.51-6.07,22.65-12.77,33.52-20.13l4.06-2.8
				c1.34-0.95,2.68-1.92,4.05-2.85c1.34-0.97,2.66-1.97,4.02-2.93l4.01-2.99c0.36-0.27,0.71-0.54,1.06-0.82
				c-7.81,0.57-15.69,1.84-23.54,3.88c-30.53,7.92-55.74,25.99-72.94,49.66l0.98-0.4L-65.99,373.27z M-12.03,540.9l2.11-1.35
				l2.08-1.4c0.74-0.48,1.28-0.9,1.86-1.32c0.59-0.4,1.16-0.9,1.74-1.35c4.65-3.79,9.12-8.73,13.36-14.03
				c4.24-5.33,8.29-11.09,12.29-16.99l12.14-18.12c4.2-6.12,8.51-12.31,13.8-18.37c0.64-0.76,1.37-1.51,2.06-2.26
				c0.69-0.74,1.36-1.4,2.05-2.1c1.35-1.4,2.77-2.7,4.15-4.05c2.84-2.61,5.72-5.16,8.7-7.55c5.94-4.83,12.17-9.2,18.56-13.24
				c12.81-8.04,26.31-14.69,40.21-20.16c9.55-3.75,19.28-6.96,29.18-9.59c-5.15-13.94-12.51-26.56-21.55-37.56
				c-2.03,2.55-4.04,5.14-6.04,7.75c-5.98,7.82-11.92,15.85-18.41,23.6c-6.49,7.81-13.57,15.08-20.88,22.08
				c-1.82,1.77-3.69,3.47-5.56,5.18c-1.86,1.73-3.78,3.38-5.68,5.07c-1.89,1.7-3.89,3.26-5.81,4.94c-1.95,1.63-3.94,3.22-5.93,4.83
				c-8,6.34-16.33,12.35-25.13,17.87l-3.31,2.06l-3.38,1.98c-2.24,1.34-4.56,2.57-6.88,3.82c-1.15,0.64-2.34,1.21-3.53,1.8
				l-3.57,1.76c-1.24,0.57-2.58,1.16-3.82,1.69l-3.64,1.51c-4.76,1.96-9.31,3.67-13.82,5.45l-6.7,2.61
				c-2.2,0.88-4.41,1.76-6.57,2.65c-8.67,3.53-17.1,7.17-24.74,11.21c-0.94,0.51-1.94,0.99-2.84,1.53l-2.73,1.59
				c-0.94,0.51-1.74,1.09-2.6,1.64l-1.28,0.82l-0.64,0.41l-0.66,0.46c-3.56,2.44-6.95,4.99-10.12,7.7
				c-1.59,1.36-3.13,2.75-4.61,4.18c-0.75,0.7-1.47,1.44-2.21,2.16c-0.72,0.73-1.42,1.48-2.13,2.22c-1.99,2.14-3.85,4.38-5.67,6.71
				c2.84,4.12,5.9,8.04,9.15,11.77c0.83-0.88,1.66-1.76,2.52-2.61c7.45-7.51,15.87-13.74,24.73-18.77
				c4.43-2.51,8.98-4.73,13.57-6.72c2.3-0.99,4.61-1.93,6.92-2.83l3.46-1.35c1.14-0.47,2.3-0.9,3.38-1.5
				c-0.91,0.85-1.95,1.55-2.95,2.28l-3.05,2.13c-2.03,1.41-4.02,2.85-5.98,4.33c-3.91,2.95-7.66,6.06-11.17,9.36
				c-7.02,6.59-13.08,13.95-17.85,21.87c-0.97,1.59-1.87,3.2-2.73,4.83c2.65,2.4,5.4,4.69,8.23,6.85c3.61-1.2,7.18-2.49,10.71-3.87
				c6.35-2.51,12.53-5.34,18.47-8.52C-17.77,544.38-14.87,542.68-12.03,540.9z"/>
			<path class="st7" d="M-93.65,471.66l3-1.69l3.02-1.71l3.08-1.65c8.21-4.42,16.88-8.63,25.87-12.63
				c8.98-4.01,18.24-7.81,27.34-11.89c9.1-4.09,18.11-8.48,26.58-13.86c0.54-0.31,1.07-0.66,1.58-1.02l1.55-1.06l3.13-2.1l0.78-0.53
				l0.8-0.6c0.54-0.4,1.08-0.8,1.58-1.24c1.04-0.85,2.01-1.76,2.97-2.69c1.89-1.88,3.63-3.88,5.21-5.97c1.58-2.09,3.01-4.25,4.4-6.4
				c2.73-4.33,5.16-8.72,7.61-12.88c2.47-4.16,4.97-8.13,7.74-11.5c2.76-3.39,5.76-6.15,8.96-8.05c1.72-1.01,3.47-1.91,5.28-2.66
				c1.83-0.73,3.71-1.36,5.68-1.89c3.94-1.06,8.3-1.77,13.13-2.61c4.83-0.87,10.26-1.89,15.93-3.98c5.67-2.06,11.49-5.36,16.28-9.64
				c2.26-2.02,4.36-4.19,6.21-6.46c-7.22-4.99-14.92-9.25-23-12.7c-0.14,0.14-0.27,0.28-0.41,0.42c-1.18,1.2-2.46,2.24-3.84,3.21
				c-1.38,0.97-2.87,1.86-4.57,2.68c-3.37,1.63-7.44,3.06-12.09,4.55c-2.32,0.74-4.76,1.57-7.28,2.47c-2.52,0.9-5.11,1.94-7.69,3.19
				c-2.58,1.24-5.15,2.65-7.59,4.29c-2.44,1.66-4.76,3.49-6.89,5.49c-4.46,4.2-7.75,9.09-10.25,13.93
				c-1.26,2.42-2.34,4.85-3.31,7.25c-0.98,2.4-1.87,4.77-2.71,7.11c-1.72,4.67-3.29,9.21-5.2,13.48c-0.93,2.15-1.98,4.21-3.13,6.17
				c-1.14,1.97-2.4,3.84-3.84,5.55c-0.71,0.85-1.46,1.68-2.26,2.44c-0.39,0.4-0.8,0.76-1.22,1.13l-0.62,0.55l-0.7,0.54
				c-1.9,1.43-3.75,2.94-5.71,4.29l-2.98,1.96c-1,0.64-1.97,1.34-3.03,1.9l-3.12,1.76l-1.56,0.87c-0.53,0.27-1.07,0.52-1.61,0.79
				c-2.16,1.02-4.29,2.09-6.54,2.92l-3.34,1.3c-1.12,0.41-2.28,0.76-3.41,1.14c-9.15,2.95-18.69,4.59-28.46,6.08
				c-9.77,1.5-19.81,3.03-29.78,5.8c-1.24,0.35-2.5,0.67-3.74,1.04l-3.7,1.22c-0.55,0.18-1.09,0.36-1.63,0.54
				c-0.26,8.24,0.26,16.59,1.62,24.97c1.01-0.64,2.02-1.27,3.03-1.89L-93.65,471.66z"/>
			<path class="st2" d="M115.24,372.29c-5.61,8.01-11.44,15.73-17.85,22.78c-12.76,14.05-28.5,25.42-45.17,34.49
				c-8.37,4.49-17.01,8.4-25.75,11.71l-3.27,1.23l-3.29,1.13c-2.18,0.79-4.4,1.42-6.59,2.12c-1.09,0.36-2.19,0.66-3.29,0.96
				l-3.29,0.92l-3.13,0.75l-3.37,0.76c-4.6,0.99-9.46,2.07-14.33,3.2c-4.87,1.13-9.8,2.42-14.75,3.79
				c-9.89,2.83-19.85,6.2-29.79,10.89c-1.24,0.6-2.48,1.13-3.73,1.79l-3.73,1.94c-1.24,0.62-2.49,1.4-3.73,2.11l-1.87,1.09
				l-0.93,0.55l-0.87,0.56c-4.67,2.91-9.22,6.16-13.62,9.68c-2.2,1.76-4.36,3.6-6.48,5.51c-0.7,0.62-1.38,1.27-2.05,1.92
				c4,13.34,9.97,25.6,17.5,36.54c1.82-2.33,3.68-4.58,5.67-6.71c0.71-0.74,1.41-1.49,2.13-2.22c0.74-0.72,1.45-1.45,2.21-2.16
				c1.49-1.43,3.02-2.82,4.61-4.18c3.18-2.71,6.57-5.26,10.12-7.7l0.66-0.46l0.64-0.41l1.28-0.82c0.87-0.54,1.67-1.13,2.6-1.64
				l2.73-1.59c0.9-0.54,1.9-1.01,2.84-1.53c7.64-4.04,16.07-7.68,24.74-11.21c2.16-0.9,4.37-1.77,6.57-2.65l6.7-2.61
				c4.5-1.78,9.06-3.5,13.82-5.45l3.64-1.51c1.24-0.52,2.57-1.12,3.82-1.69l3.57-1.76c1.19-0.59,2.38-1.16,3.53-1.8
				c2.32-1.25,4.64-2.48,6.88-3.82l3.38-1.98l3.31-2.06c8.8-5.51,17.13-11.53,25.13-17.87c1.98-1.61,3.97-3.2,5.93-4.83
				c1.92-1.68,3.91-3.24,5.81-4.94c1.9-1.69,3.82-3.34,5.68-5.07c1.87-1.71,3.75-3.41,5.56-5.18c7.31-7,14.4-14.27,20.88-22.08
				c6.49-7.75,12.43-15.78,18.41-23.6c2-2.61,4.01-5.2,6.04-7.75c-2.68-3.26-5.51-6.38-8.48-9.35
				C119.9,365.54,117.58,368.94,115.24,372.29z"/>
			<path class="st8" d="M82.89,438.77c-6.39,4.04-12.62,8.41-18.56,13.24c-2.99,2.39-5.86,4.94-8.7,7.55
				c-1.39,1.34-2.81,2.65-4.15,4.05c-0.68,0.7-1.35,1.36-2.05,2.1c-0.69,0.75-1.42,1.5-2.06,2.26c-5.29,6.06-9.61,12.25-13.8,18.37
				l-12.14,18.12c-4.01,5.9-8.05,11.66-12.29,16.99c-4.24,5.3-8.7,10.24-13.36,14.03c-0.58,0.46-1.16,0.95-1.74,1.35
				c-0.59,0.42-1.12,0.84-1.86,1.32l-2.08,1.4l-2.11,1.35c-2.84,1.77-5.74,3.47-8.71,5.07c-5.95,3.19-12.13,6.02-18.47,8.52
				c-3.52,1.39-7.1,2.67-10.71,3.87c8.35,6.38,17.44,11.75,27.06,15.97c4.74-2.36,9.42-4.91,13.98-7.67c3.33-2.01,6.59-4.16,9.8-6.4
				l2.39-1.71l2.35-1.76c0.75-0.55,1.64-1.27,2.49-1.95c0.87-0.68,1.65-1.4,2.46-2.1c6.34-5.72,11.32-11.92,15.87-18.16
				c4.52-6.25,8.53-12.59,12.4-18.88l11.26-18.61c3.73-6.03,7.51-11.94,11.55-17.01c0.5-0.65,1.02-1.22,1.52-1.84
				c0.52-0.61,1.12-1.25,1.68-1.88c1.11-1.27,2.32-2.48,3.48-3.71c2.41-2.41,4.86-4.8,7.44-7.06c5.13-4.57,10.62-8.81,16.33-12.79
				c11.45-7.92,23.82-14.74,36.7-20.5c8.93-3.98,18.11-7.47,27.46-10.39c-0.02-0.08-0.04-0.17-0.06-0.25
				c-1.12-4.32-2.45-8.54-3.96-12.64c-9.9,2.63-19.63,5.84-29.18,9.59C109.2,424.09,95.7,430.74,82.89,438.77z"/>
			<path class="st8" d="M147.5,437.66c-6.06,2.5-11.76,5.9-16.82,9.88c-1.25,1-2.49,2.03-3.7,3.07l-1.76,1.61l-0.88,0.81
				c-0.29,0.27-0.57,0.52-0.91,0.89c-2.67,2.63-4.98,5.65-6.88,8.78c-1.89,3.15-3.37,6.4-4.48,9.61c-1.1,3.21-1.87,6.35-2.45,9.38
				c-0.58,3.03-0.97,5.98-1.33,8.82c-0.33,2.85-0.65,5.6-1.03,8.3c-0.37,2.71-0.82,5.33-1.42,7.92c-0.58,2.6-1.36,5.11-2.33,7.56
				c-0.46,1.24-1.05,2.41-1.61,3.61c-0.64,1.15-1.23,2.35-1.98,3.44c-1.39,2.27-3.08,4.34-4.88,6.33
				c-7.43,7.91-17.47,12.75-27.82,17.07c-10.4,4.28-21.27,7.98-32.12,12.61c-2.72,1.14-5.42,2.4-8.12,3.71
				c-1.36,0.63-2.7,1.35-4.05,2.02c-1.34,0.7-2.67,1.46-4.01,2.19c-5.34,3-10.56,6.53-15.5,10.63c-2.04,1.7-4.03,3.51-5.96,5.41
				c7.33,1.86,14.85,3.11,22.5,3.67c2.26-2.63,4.76-5.12,7.48-7.46c1.03-0.84,2.05-1.7,3.11-2.53c1.08-0.81,2.12-1.65,3.23-2.44
				c2.21-1.57,4.5-3.08,6.84-4.53c9.39-5.85,19.72-10.58,30.05-15.72c2.58-1.3,5.18-2.58,7.74-3.99c2.58-1.36,5.13-2.84,7.65-4.38
				c2.5-1.58,5-3.26,7.35-5.09c2.39-1.78,4.68-3.72,6.97-5.68c4.47-4.03,8.76-8.47,12.49-13.45c0.96-1.23,1.85-2.5,2.76-3.78
				c0.85-1.3,1.73-2.6,2.54-3.93c1.63-2.65,3.19-5.36,4.58-8.07c1.41-2.71,2.72-5.41,3.99-8.02c1.24-2.62,2.44-5.15,3.61-7.53
				c1.17-2.38,2.31-4.62,3.47-6.63c1.18-2.01,2.34-3.82,3.57-5.43c1.23-1.62,2.46-3.1,3.87-4.45c0.14-0.16,0.39-0.39,0.62-0.6
				l0.68-0.65l1.36-1.31c0.9-0.86,1.85-1.66,2.75-2.53c3.68-3.32,7.45-6.36,11.44-9.21c0.77-0.55,1.55-1.09,2.34-1.62
				c0.08-7.2-0.44-14.49-1.6-21.79C155,434.96,151.19,436.14,147.5,437.66z"/>
			<path class="st8" d="M-87.68,424.06c2.83-0.97,5.65-1.97,8.53-2.87c5.74-1.84,11.58-3.56,17.49-5.16
				c1.47-0.41,2.95-0.83,4.43-1.21l2.22-0.6c0.74-0.21,1.54-0.39,2.31-0.59c3.1-0.78,6.2-1.6,9.28-2.55
				c6.18-1.85,12.34-4.11,18.27-7.12c2.95-1.54,5.85-3.24,8.56-5.26c2.72-1.99,5.24-4.33,7.41-6.92c2.16-2.61,3.92-5.53,5.16-8.58
				c1.23-3.07,1.93-6.26,2.17-9.42c-1.34,2.88-2.95,5.54-4.81,7.91c-1.89,2.35-4.02,4.39-6.37,6.11c-4.69,3.44-10.1,5.69-15.73,7.39
				c-5.64,1.73-11.54,2.87-17.51,3.9c-2.99,0.49-6.01,0.96-9.04,1.39l-4.66,0.62c-1.58,0.21-3.17,0.41-4.74,0.67
				c-6.31,1-12.63,2.22-18.9,3.8c-3.05,0.76-6.09,1.6-9.12,2.55c-2.48,6.53-4.44,13.28-5.86,20.18c0.85-0.36,1.71-0.72,2.58-1.07
				C-93.28,426.1-90.48,425.09-87.68,424.06z"/>
			
				<ellipse transform="matrix(0.8227 -0.5685 0.5685 0.8227 -215.9976 102.0668)" class="st8" cx="55.61" cy="397.27" rx="28.66" ry="17.62"/>
			
				<ellipse transform="matrix(0.5538 -0.8326 0.8326 0.5538 -388.9562 289.7727)" class="st2" cx="75.91" cy="507.82" rx="25.6" ry="16.17"/>
			<path class="st2" d="M-77.3,388.89c1.73-0.22,3.45-0.49,5.17-0.73c1.72-0.27,3.44-0.59,5.16-0.89c1.71-0.35,3.42-0.7,5.13-1.08
				c13.63-3.09,26.92-8,39.4-14.58c12.47-6.59,24.1-14.87,34.17-24.75c1.25-1.24,2.47-2.51,3.7-3.77c1.19-1.31,2.37-2.6,3.53-3.93
				c1.13-1.36,2.27-2.69,3.37-4.06l3.18-4.2c1-1.45,2.01-2.88,2.98-4.34c0.6-0.97,1.2-1.93,1.79-2.9c-3.31-0.01-6.64,0.1-9.97,0.34
				c-0.35,0.27-0.71,0.55-1.06,0.82l-4.01,2.99c-1.36,0.96-2.68,1.96-4.02,2.93c-1.37,0.94-2.71,1.9-4.05,2.85l-4.06,2.8
				c-10.87,7.36-22.01,14.06-33.52,20.13c-11.51,6.09-23.38,11.55-35.57,16.75l-9.2,3.86l-0.98,0.4c-2.8,3.86-5.39,7.87-7.75,12
				c0.48-0.03,0.96-0.07,1.44-0.1L-77.3,388.89z"/>
			<path class="st2" d="M-55.43,546.69c4.77-7.92,10.83-15.27,17.85-21.87c3.51-3.3,7.25-6.4,11.17-9.36
				c1.96-1.47,3.96-2.91,5.98-4.33l3.05-2.13c1-0.73,2.04-1.43,2.95-2.28c-1.08,0.6-2.24,1.03-3.38,1.5l-3.46,1.35
				c-2.31,0.9-4.62,1.84-6.92,2.83c-4.59,1.99-9.14,4.2-13.57,6.72c-8.86,5.02-17.27,11.26-24.73,18.77
				c-0.85,0.85-1.69,1.72-2.52,2.61c3.4,3.9,7.03,7.58,10.85,11.02C-57.29,549.89-56.4,548.27-55.43,546.69z"/>
			<path class="st9" d="M54.19,545.5c-72.26,0-130.84-58.58-130.84-130.84c0-16.79,3.17-32.85,8.93-47.6
				c-20.83,23.17-33.51,53.82-33.51,87.44c0,72.26,58.58,130.84,130.84,130.84c55.47,0,102.87-34.52,121.91-83.24
				C127.56,528.74,92.84,545.5,54.19,545.5z"/>
		</g>
		<g>
			<circle class="st4" cx="1742.78" cy="226.3" r="60.14"/>
			<radialGradient id="SVGID_5_" cx="1715.2994" cy="194.6924" r="67.9255" gradientUnits="userSpaceOnUse">
				<stop  offset="0" style="stop-color:#8E5BA6"/>
				<stop  offset="1" style="stop-color:#7A1878"/>
			</radialGradient>
			<path class="st10" d="M1724.43,177.29c2.52,1.01,5.15,1.9,7.83,2.83l4.03,1.36c1.34,0.45,2.66,0.89,3.99,1.31
				c2.66,0.82,5.28,1.62,7.91,2.25c2.62,0.63,5.26,1.19,7.94,1.58c10.49,1.6,21.43,1.45,32.41,0.66
				c-11.03-12.93-27.44-21.12-45.76-21.12c-9.92,0-19.27,2.4-27.52,6.65c0.64,0.39,1.28,0.77,1.92,1.13
				C1719.48,175.2,1721.9,176.3,1724.43,177.29z M1707.9,193.22c5.9,3.57,12.46,6.29,19.34,8.38c3.44,1.07,6.98,1.95,10.58,2.75
				c3.6,0.8,7.26,1.51,10.96,2.15c3.71,0.62,7.47,1.25,11.23,1.84c3.76,0.59,7.5,1.14,11.22,1.65c7.46,0.98,14.88,1.73,22.28,1.86
				c2.54,0.03,5.09,0,7.63-0.1c-1.48-5.94-3.84-11.54-6.94-16.64c-1.26,0.26-2.53,0.51-3.81,0.74c-2.91,0.54-5.84,0.94-8.78,1.3
				c-2.95,0.33-5.92,0.59-8.91,0.72c-5.98,0.26-12.04,0.08-18.09-0.75c-3.02-0.43-6.04-0.98-9.01-1.74
				c-2.96-0.76-5.85-1.64-8.66-2.65c-1.41-0.5-2.8-1.01-4.17-1.54l-4.08-1.64c-2.71-1.11-5.45-2.33-8.17-3.71
				c-2.71-1.39-5.41-2.98-7.94-4.86c-1.6-1.19-3.09-2.48-4.49-3.81c-3.62,2.56-6.95,5.51-9.92,8.79c0.48,0.45,0.96,0.9,1.45,1.33
				C1702.18,189.46,1704.94,191.46,1707.9,193.22z M1802.65,220.54c-2.91,0.49-5.83,0.86-8.76,1.12
				c-7.96,0.73-15.91,0.66-23.75,0.24c-3.92-0.19-7.82-0.5-11.69-0.85c-3.86-0.35-7.72-0.71-11.62-1.18
				c-3.89-0.47-7.82-1-11.76-1.69c-3.94-0.71-7.89-1.54-11.83-2.6c-3.94-1.03-7.87-2.34-11.73-3.89c-3.86-1.55-7.66-3.35-11.32-5.5
				c-3.66-2.14-7.17-4.63-10.47-7.43c-0.1-0.09-0.2-0.18-0.3-0.27c-1.62,3.1-2.98,6.35-4.04,9.74c1.99,2.44,4.17,4.74,6.56,6.84
				c3.07,2.69,6.5,5.05,10.25,6.92c3.74,1.87,7.8,3.26,12.07,3.95c-4.31,0.32-8.75-0.08-13.09-1.09c-4.34-1.01-8.6-2.64-12.63-4.76
				c-1.78-0.94-3.52-1.98-5.2-3.09c-0.47,3.03-0.72,6.13-0.72,9.29c0,1.39,0.05,2.76,0.14,4.12c13.17,5.67,27.43,8.49,41.79,9.37
				c15.7,1,31.57-0.23,47.25-2.67c1.96-0.32,3.92-0.64,5.87-1c0.98-0.17,1.96-0.34,2.93-0.53c0.97-0.18,1.99-0.37,2.82-0.56
				c1.76-0.39,3.61-0.86,5.46-1.41c1.85-0.53,3.71-1.12,5.56-1.74c2.82-0.95,5.64-1.94,8.4-3.02c0.04-0.85,0.06-1.7,0.06-2.56
				C1802.92,224.35,1802.83,222.44,1802.65,220.54z M1792.54,246.63c-2.06,0.57-4.17,1.08-6.39,1.53c-1.16,0.24-2.15,0.39-3.18,0.57
				c-1.03,0.18-2.05,0.35-3.08,0.51c-2.06,0.32-4.12,0.61-6.19,0.88c-4.13,0.55-8.29,0.99-12.45,1.33
				c-4.17,0.33-8.35,0.53-12.54,0.63c-4.19,0.1-8.39,0.07-12.58-0.13c-4.2-0.19-8.39-0.51-12.58-1c-4.18-0.51-8.35-1.16-12.49-2.01
				c-4.14-0.85-8.24-1.92-12.28-3.17c-4.96-1.54-9.83-3.42-14.53-5.64c0.89,3.79,2.14,7.44,3.71,10.92
				c5.77,3.42,11.67,6.56,17.73,9.29c6.04,2.71,12.21,5.04,18.5,6.75c3.13,0.9,6.3,1.59,9.51,2.17c3.2,0.59,6.44,1.05,9.7,1.4
				c3.26,0.36,6.53,0.63,9.83,0.81c3.29,0.19,6.6,0.31,9.92,0.37c6.24,0.13,12.52,0.07,18.89,0.02c2.94-2.53,5.63-5.35,8.04-8.4
				l-2.22,0.27c-1.12,0.16-2.19,0.24-3.26,0.3c-2.12,0.11-4.19,0.12-6.25,0.09c-8.22-0.15-16.28-0.82-24.36-1.51
				c-8.07-0.69-16.1-1.57-24.16-2.17c8.09-0.24,16.18-0.21,24.25-0.37c8.07-0.16,16.15-0.35,24.08-1.03
				c1.97-0.18,3.94-0.39,5.84-0.7c0.94-0.15,1.88-0.32,2.74-0.54c0.21-0.04,0.45-0.11,0.69-0.19l0.72-0.21l1.44-0.42
				c2-0.59,4-1.2,5.97-1.84c1.87-3.42,3.42-7.04,4.61-10.82c-0.5,0.16-1,0.33-1.5,0.5C1796.65,245.46,1794.61,246.07,1792.54,246.63
				z M1731.6,278.29c-3.37-0.93-6.75-1.99-10.02-3.24c-6.57-2.43-12.85-5.46-18.88-8.83c-3.19-1.79-6.31-3.69-9.36-5.67
				c9.52,13.72,24.6,23.28,41.98,25.43c1.12,0.14,2.25,0.24,3.39,0.32c1.34,0.09,2.7,0.14,4.07,0.14c6.36,0,12.5-0.99,18.25-2.82
				c-6.41-0.72-12.83-1.63-19.23-2.91C1738.39,280.02,1734.98,279.23,1731.6,278.29z"/>
			<g>
				<path class="st4" d="M1720.54,185.83c2.72,1.38,5.46,2.6,8.17,3.71l4.08,1.64c1.37,0.53,2.76,1.04,4.17,1.54
					c2.81,1.01,5.7,1.89,8.66,2.65c2.97,0.76,6,1.31,9.01,1.74c6.05,0.83,12.11,1.02,18.09,0.75c2.99-0.13,5.96-0.39,8.91-0.72
					c2.94-0.36,5.87-0.77,8.78-1.3c1.27-0.23,2.54-0.47,3.81-0.74c-1.68-2.76-3.58-5.38-5.67-7.82
					c-10.98,0.79-21.91,0.95-32.41-0.66c-2.69-0.39-5.32-0.95-7.94-1.58c-2.63-0.64-5.26-1.43-7.91-2.25
					c-1.33-0.42-2.65-0.86-3.99-1.31l-4.03-1.36c-2.68-0.93-5.31-1.82-7.83-2.83c-2.53-0.99-4.95-2.09-7.25-3.36
					c-0.65-0.36-1.29-0.74-1.92-1.13c-2.49,1.28-4.88,2.74-7.16,4.35c1.41,1.33,2.89,2.62,4.49,3.81
					C1715.13,182.85,1717.82,184.43,1720.54,185.83z"/>
				<path class="st4" d="M1700.21,206.19c3.65,2.15,7.46,3.96,11.32,5.5c3.86,1.55,7.79,2.86,11.73,3.89
					c3.94,1.06,7.89,1.89,11.83,2.6c3.94,0.69,7.86,1.22,11.76,1.69c3.9,0.47,7.75,0.83,11.62,1.18c3.87,0.35,7.76,0.66,11.69,0.85
					c7.84,0.42,15.79,0.48,23.75-0.24c2.93-0.27,5.85-0.63,8.76-1.12c-0.29-3-0.79-5.94-1.5-8.8c-2.54,0.11-5.08,0.14-7.63,0.1
					c-7.4-0.12-14.82-0.88-22.28-1.86c-3.73-0.51-7.47-1.06-11.22-1.65c-3.76-0.59-7.53-1.22-11.23-1.84
					c-3.71-0.64-7.37-1.35-10.96-2.15c-3.6-0.79-7.14-1.68-10.58-2.75c-6.89-2.09-13.44-4.81-19.34-8.38
					c-2.96-1.76-5.72-3.76-8.26-5.95c-0.5-0.44-0.97-0.88-1.45-1.33c-3.42,3.78-6.37,8-8.75,12.56c0.1,0.09,0.2,0.18,0.3,0.27
					C1693.04,201.56,1696.55,204.05,1700.21,206.19z"/>
				<path class="st4" d="M1794.46,231.88c-1.85,0.62-3.71,1.21-5.56,1.74c-1.85,0.55-3.7,1.02-5.46,1.41
					c-0.83,0.19-1.85,0.37-2.82,0.56c-0.98,0.19-1.95,0.36-2.93,0.53c-1.95,0.36-3.91,0.69-5.87,1
					c-15.68,2.44-31.55,3.68-47.25,2.67c-14.36-0.89-28.62-3.7-41.79-9.37c0.22,3.32,0.72,6.56,1.46,9.71
					c4.7,2.22,9.57,4.1,14.53,5.64c4.05,1.25,8.15,2.32,12.28,3.17c4.14,0.85,8.31,1.5,12.49,2.01c4.18,0.49,8.38,0.81,12.58,1
					c4.2,0.2,8.4,0.23,12.58,0.13c4.19-0.1,8.37-0.3,12.54-0.63c4.17-0.34,8.32-0.78,12.45-1.33c2.07-0.27,4.13-0.56,6.19-0.88
					c1.03-0.16,2.06-0.33,3.08-0.51c1.03-0.18,2.02-0.34,3.18-0.57c2.22-0.45,4.33-0.96,6.39-1.53c2.07-0.56,4.11-1.16,6.13-1.8
					c0.5-0.16,1-0.33,1.5-0.5c1.54-4.92,2.47-10.11,2.7-15.48C1800.11,229.94,1797.29,230.93,1794.46,231.88z"/>
				<path class="st4" d="M1763.13,271.85c-3.32-0.06-6.63-0.18-9.92-0.37c-3.3-0.18-6.57-0.45-9.83-0.81
					c-3.26-0.35-6.5-0.81-9.7-1.4c-3.21-0.59-6.37-1.28-9.51-2.17c-6.29-1.72-12.46-4.04-18.5-6.75
					c-6.06-2.73-11.96-5.87-17.73-9.29c1.51,3.34,3.32,6.52,5.39,9.5c3.05,1.98,6.17,3.88,9.36,5.67c6.03,3.37,12.31,6.4,18.88,8.83
					c3.27,1.25,6.65,2.31,10.02,3.24c3.38,0.94,6.79,1.73,10.21,2.41c6.39,1.28,12.82,2.19,19.23,2.91
					c7.81-2.48,14.92-6.52,20.99-11.74C1775.65,271.92,1769.38,271.99,1763.13,271.85z"/>
				<path class="st4" d="M1788.14,257.41l-0.72,0.21c-0.24,0.07-0.48,0.14-0.69,0.19c-0.86,0.22-1.8,0.39-2.74,0.54
					c-1.9,0.3-3.86,0.52-5.84,0.7c-7.93,0.69-16.02,0.88-24.08,1.03c-8.07,0.16-16.17,0.13-24.25,0.37
					c8.06,0.6,16.1,1.48,24.16,2.17c8.07,0.69,16.14,1.36,24.36,1.51c2.06,0.03,4.13,0.02,6.25-0.09c1.06-0.06,2.13-0.14,3.26-0.3
					l2.22-0.27c2.05-2.61,3.9-5.39,5.5-8.32c-1.98,0.64-3.97,1.25-5.97,1.84L1788.14,257.41z"/>
				<path class="st4" d="M1701.19,224.86c4.34,1.01,8.78,1.41,13.09,1.09c-4.27-0.69-8.33-2.07-12.07-3.95
					c-3.74-1.87-7.18-4.23-10.25-6.92c-2.39-2.1-4.57-4.4-6.56-6.84c-0.89,2.84-1.58,5.76-2.04,8.76c1.69,1.12,3.42,2.15,5.2,3.09
					C1692.59,222.22,1696.84,223.84,1701.19,224.86z"/>
			</g>
			<path class="st11" d="M1801.93,237.31c-8.16,11.96-20.64,21.02-35.85,24.61c-32.33,7.63-64.72-12.4-72.35-44.72
				c-1.99-8.42-2.09-16.84-0.6-24.84c-9.2,13.47-12.92,30.61-8.88,47.74c7.63,32.33,40.02,52.35,72.35,44.72
				C1780.51,279.18,1797.69,259.99,1801.93,237.31z"/>
			<path class="st12" d="M1744.67,166.26c3.53,0.12,7.05,0.54,10.51,1.28c18.82-8.89,34.57-10.58,41.23-2.89
				c5.29,6.11,3.9,17.04-2.64,29.97c-7.22,14.27-20.72,30.97-38.46,46.33c-17.74,15.36-36.2,26.33-51.36,31.44
				c-13.73,4.63-24.75,4.44-30.04-1.67c-6.66-7.7-2.73-23.03,8.76-40.39c-0.23-3.53-0.15-7.07,0.24-10.58
				c-25.14,30.54-35.53,60.49-23.43,74.46c11.36,13.12,39.51,8.63,70.91-8.96c12.83-7.19,26.2-16.55,39.19-27.81
				c12.99-11.25,24.18-23.14,33.12-34.81c21.9-28.56,30.38-55.78,19.01-68.9C1809.61,139.75,1778.49,145.75,1744.67,166.26z"/>
		</g>
	</g>
</g>
<g>
	<radialGradient id="SVGID_6_" cx="200.9408" cy="305.333" r="25.3073" gradientUnits="userSpaceOnUse">
		<stop  offset="0.0335" style="stop-color:#E1F4FD"/>
		<stop  offset="1" style="stop-color:#C7EAFB"/>
	</radialGradient>
	<circle class="st13" cx="193.33" cy="316.43" r="17.96"/>
	
		<ellipse transform="matrix(0.1616 -0.9869 0.9869 0.1616 -159.1044 441.2301)" class="st14" cx="180.12" cy="314.25" rx="4.93" ry="2.74"/>
	
		<ellipse transform="matrix(0.8372 -0.5469 0.5469 0.8372 -147.6933 151.4178)" class="st14" cx="180.49" cy="323.79" rx="1.56" ry="2.62"/>
	<ellipse transform="matrix(0.5 -0.866 0.866 0.5 -177.3584 340.3354)" class="st14" cx="206.06" cy="323.76" rx="3.7" ry="2.14"/>
	
		<ellipse transform="matrix(0.9394 -0.3429 0.3429 0.9394 -98.4658 83.8395)" class="st14" cx="187.85" cy="320.36" rx="2.87" ry="3.06"/>
	
		<ellipse transform="matrix(0.1616 -0.9869 0.9869 0.1616 -138.0233 470.0587)" class="st14" cx="207.62" cy="316.26" rx="2.37" ry="1.61"/>
</g>
<g>
	
		<radialGradient id="SVGID_7_" cx="1603.8365" cy="2357.6741" r="48.8502" gradientTransform="matrix(-0.8933 0.4494 -0.4494 -0.8933 2550.2925 1987.1243)" gradientUnits="userSpaceOnUse">
		<stop  offset="0.0335" style="stop-color:#E1F4FD"/>
		<stop  offset="1" style="stop-color:#C7EAFB"/>
	</radialGradient>
	<circle class="st15" cx="61.44" cy="576.06" r="34.66"/>
	
		<ellipse transform="matrix(0.9542 -0.2992 0.2992 0.9542 -166.1121 51.8062)" class="st14" cx="86.12" cy="568.36" rx="5.3" ry="9.51"/>
	
		<ellipse transform="matrix(0.5021 -0.8648 0.8648 0.5021 -439.1362 341.7191)" class="st14" cx="77.2" cy="552.23" rx="3.01" ry="5.05"/>
	
		<ellipse transform="matrix(0.0574 -0.9983 0.9983 0.0574 -542.2809 574.5359)" class="st14" cx="33.13" cy="574.46" rx="7.14" ry="4.13"/>
	
		<ellipse transform="matrix(0.685 -0.7285 0.7285 0.685 -390.0077 226.9733)" class="st14" cx="67.49" cy="564.53" rx="5.54" ry="5.9"/>
	
		<ellipse transform="matrix(0.9542 -0.2992 0.2992 0.9542 -174.4688 38.0279)" class="st14" cx="36.95" cy="588.76" rx="3.1" ry="4.58"/>
</g>
<g class="st1">
	<circle class="st3" cx="346.56" cy="1001.94" r="2.15"/>
</g>
<g class="st1">
	<circle class="st3" cx="377.79" cy="1069.89" r="3.07"/>
</g>
<g class="st1">
	<circle class="st4" cx="324.94" cy="1098.68" r="3.69"/>
</g>
<g class="st1">
	<circle class="st4" cx="1122.64" cy="1258.74" r="1.84"/>
</g>
<g class="st1">
	<circle class="st3" cx="303.39" cy="1081.48" r="1.23"/>
</g>
<g class="st1">
	
		<ellipse transform="matrix(0.7071 -0.7071 0.7071 0.7071 -519.7066 1331.5342)" class="st3" cx="1347.45" cy="1293.11" rx="1.84" ry="1.84"/>
</g>
<g class="st1">
	<circle class="st3" cx="1263.73" cy="1335.16" r="2.15"/>
</g>
<g class="st1">
	<circle class="st3" cx="1079.42" cy="1264.36" r="2.46"/>
</g>
<g class="st1">
	
		<ellipse transform="matrix(0.7071 -0.7071 0.7071 0.7071 -645.6815 1306.2065)" class="st3" cx="1253.89" cy="1432.51" rx="1.84" ry="1.84"/>
</g>
<path class="st16" d="M956.17,544.56c77.82,1.88,155.63,3.76,233.45,5.64c13.63,0.33,30.24,1.9,35.55,9.94
	c6.23,9.42-8.69,18.47-22.41,23.43c-13.72,4.96-30.19,11.63-28.56,21.72c0.79,4.91,6.09,9.21,12.36,12.22
	c17.3,8.33,40.63,8.4,62.07,8.1c75.65-1.07,151.29-2.14,226.94-3.21c18.98-0.27,39-0.73,54.85-7.11
	c15.85-6.38,24.95-20.91,13.86-30.88c-4.7-4.22-12.12-6.95-17.19-10.99c-5.07-4.05-6.79-10.81-0.19-13.62c2.64-1.13,6-1.33,9.21-1.5
	c86.96-4.54,174.56-5.34,262-2.37c6.76,0.23,14.95,1.1,17.54,5.1c1.91,2.95-0.31,6.26,0.29,9.41c1.58,8.3,19.22,10.27,32.35,9.96
	c52.5-1.24,105-2.47,157.5-3.71c10.98-0.26,24.63-1.81,27.21-8.54c1.69-4.41-2.28-9.87,2.36-13.28c3.12-2.3,8.62-2.39,13.46-2.32
	c42.06,0.66,84.12,1.33,126.19,1.99c18.35,0.29,33.66,2.66,46.96-6.44c9.52-6.51,14.55-15.86,12.29-24.85
	c-0.62-2.48-1.93-5.1-5.14-6.61c-3.04-1.43-7.06-1.53-10.8-1.57c-52.34-0.59-104.68-1.18-157.03-1.77
	c-10.74-0.12-23.79,0.62-28.18,6.76c-1.92,2.68-1.74,6.01-4.75,8.24c-3.5,2.58-9.74,2.59-15.18,2.36
	c-43.3-1.78-86.47-5.68-129.01-11.63c-20.11-2.81-46.55-4.34-55.31,7.24c-2.05,2.71-3.02,6.08-7.08,7.62
	c-3.69,1.39-8.45,0.67-12.66-0.08c-14.92-2.68-29.84-5.37-44.76-8.05c-4.24-0.76-8.76-1.64-11.6-3.8
	c-5.8-4.41-1.13-11.06,5.07-15.05c6.19-3.99,14.23-7.6,15.66-13.16c2.92-11.34-21.51-16.99-39.72-17.81
	c-63.54-2.84-127.25-3.28-190.68-1.32c-9,0.28-18.38,0.68-26.02,3.6c-7.63,2.92-12.78,9.19-9.1,14.47
	c3.72,5.34,15.41,9.3,12.71,14.78c-37.95,0.17-75.89,0.34-113.84,0.5c-11.94,0.05-24.3,0.16-35.04,3.3
	c-10.74,3.14-19.47,10.18-17.76,17.7c0.99,4.34,5.13,9.13,1.32,12.72c-2.65,2.5-8,3.06-12.77,3.37
	c-17.04,1.12-34.17,1.79-51.34,2.01c-3.97,0.05-8.42-0.03-11.31-1.81c-4.53-2.79-2.31-7.72-5.28-11.24
	c-3.47-4.12-12.23-4.73-19.52-4.79c-92.93-0.75-185.82,0.56-278.44,3.95C965.66,533.58,950.52,538.4,956.17,544.56z M1562.9,521.2
	c16.04-1.04,32.12-1.92,48.17-2.88c-2.44-4.64-12.84-7.44-11.68-12.22c0.95-3.91,8.79-5.01,15.03-5.23
	c33.32-1.15,66.75-1.41,100.18-0.77c3.13,0.06,6.98,0.44,8.09,2.31c0.9,1.53-0.66,3.13-2.16,4.42c-7.03,6.08-14.06,12.16-21.1,18.25
	c-1.25,1.09-2.55,2.2-4.36,2.91c-2.17,0.85-4.83,1.04-7.39,1.18c-17.14,0.93-34.42,0.77-51.66,0.6c-24.45-0.24-57.54,3.3-81.05-1.87
	C1536.12,523.77,1550.36,522.01,1562.9,521.2z M1272.4,563.96c6.83-2.34,14.84-2.92,22.63-3.4c49.93-3.07,100.28-3.97,150.58-2.7
	c4.26,0.11,9.84,1,10.12,3.69c0.19,1.83-2.41,3.19-4.75,4.23l-9.13,4.04c-2.32,1.03-4.74,2.12-5.91,3.76
	c-3.48,4.83,5.64,9.6,13.53,11.66c7.9,2.06,17.74,5.22,17.09,10.56c-0.68,5.53-11.88,7.22-20.62,7.46
	c-37.92,1.05-75.92,1.34-113.93,0.85c-22.5-0.29-61.36,0.77-72.58-15.6C1253.38,579.69,1259.32,568.45,1272.4,563.96z"/>
<path class="st17" d="M286.12,656.24c-4.06,0.19-8.73,0.69-10.91,3.6c-2.37,3.17-0.44,7.29-0.48,11.04
	c-0.05,6.24-5.89,11.58-12.64,14.01c-6.75,2.43-14.28,2.54-21.61,2.62c-44.33,0.47-88.66,0.94-132.99,1.41
	c-2.45,0.03-5.05,0.02-7.14-1.07c-2.24-1.17-3.43-3.33-4.89-5.19c-8.35-10.68-25.83-12.05-40.89-12.34
	c-56.91-1.11-113.82-2.22-170.73-3.33c-28.43-0.56-57.36-1.06-84.76,5.41c18.98,6.45,39.91,6.94,60.34,7.34
	c61.47,1.22,122.93,2.45,184.4,3.67c-10.25,5.71-7.03,20.38,2.91,26.48c9.94,6.1,23.14,6.15,35.39,6.05
	c35.52-0.29,71.04,0.18,106.53,1.41c5.98,0.21,13.56,1.55,14.65,6.56c1.4,6.46-9.15,9.33-16.86,9.47
	c-17.87,0.33-35.74,0.66-53.61,0.99c-15.04,0.28-31.4,0.96-42.83,9.29c3.08,5.09,11.02,6.02,17.74,6.28
	c61.51,2.36,123.16,1.97,184.61-1.19c5.11-0.26,10.65-0.7,14.42-3.65c5.92-4.66,4.12-13.52-1.57-18.39
	c-5.69-4.86-13.9-6.76-21.71-8.46c13.84-13.2,37.93-12.16,58.65-10.86c20.72,1.3,45.59,0.04,56.37-15.09
	c2.23-3.12,3.72-6.73,6.89-9.19c3.3-2.57,7.9-3.47,12.28-4.23c29.35-5.1,59.23-8.01,89.18-8.68c6.01-0.13,12.48-0.31,17.25-3.42
	c4.77-3.11,6.08-10.38,0.91-12.99c-1.91-0.97-4.23-1.09-6.45-1.17C441.77,649.97,362.9,652.61,286.12,656.24z"/>
<path class="st18" d="M1824.91,1296.51c-8.83-0.36-19.18-1.55-23.19-7.21c-4.37-6.15,0.57-12.84-18.67-14.05
	c-66.67-4.16-133.63-5.88-200.53-5.13c-11.15,0.12-8.7,4.41-9.03,8.76c-0.67,8.83-16.36,11.96-28.61,12.71
	c-69.51,4.25-59.77,2.18-67.9,10.25c-5.68,5.64-100.3,11.69-109.91,12.54c-56.96,5.06-123.66-5.21-180.88-8.37
	c17.2-8.61,31.55-8.04,131.29-13.45c18.97-1.03,90.62-4.01,117.54-10.24c16.67-3.86,33.84-6.62,51.22-8.21
	c7.12-0.65,16.68-3.41,14.81-8.4c-1.42-3.79-8.38-4.47-13.84-4.39c-28.26,0.4-56.53,0.8-84.79,1.2
	c-21.87,0.31-0.86,11.53-26.44,13.79c-30.18,2.67-60.73,3.18-91.05,1.54c9.11-8.13,26.22-7.34,40.73-6.89s32.67-2.16,36.35-12.26
	c1.84-5.04,0.09-8.01,11.34-10.67c60.52-14.32,126.57,2.17,190.01-1.99c1.78-0.12,3.71-0.3,4.97-1.21c1.84-1.33,1.43-3.48,1.65-5.35
	c0.95-7.76,13.75-11.35,24.43-12.67c33.27-4.09,67.3-2.93,101.01-1.75c97.93,3.42,91.9,2.93,93.93,3.92
	c3.21,1.56,2.21,5.45-0.9,7.12c-4.62,2.47-2.75,1.73-110.85,2.14c-6.05,0.02-12.52,0.14-17.49,2.62c-4.97,2.48-7.13,8.29-2.61,11.18
	c4.09,2.62,0.97,1.83,120.11,2.09c33.16,0.07,20.97-6.61,48.31-1.16c46.5,9.27,96.22,2.72,144.02,7.44c4.52,0.45,7.4,1.16,7.9,5.63
	c2.18,19.55-28.62,27.48-50.44,29.1C1893.42,1297.63,1858.98,1297.91,1824.91,1296.51z"/>
<path class="st19" d="M-82.18,1205.18c4.3,6.96,11.01,12.02,17.56,16.92c2.96,2.21,6.02,4.48,9.61,5.37s7.26-1.35,9.42-4.35
	c65.68-3.6,131.36-7.2,197.04-10.81c3.65-0.2,7.44-0.38,10.81,1.03c6.7,2.8,9.41,10.63,13.81,16.41
	c11.16,14.67,32.54,15.51,50.97,15.01c54.22-1.46,108.45-2.91,162.67-4.37c9.04-0.24,19.01-0.85,25.49-7.17
	c5.13-4.99,6.87-13.16,4.21-19.81c-1.43-3.57-3.96-6.65-5.12-10.31c-2.71-8.58,3.15-17.99,11.03-22.36
	c7.88-4.36,17.23-4.9,26.22-5.33c38.34-1.86,76.68-3.73,115.02-5.59c8.23-0.4,17.61-1.38,22.49-8.02c2.33-3.17,3.24-7.21,5.57-10.38
	c5.33-7.26,15.82-7.66,24.82-7.53c48.38,0.72,96.81-2.89,144.55-10.78c-3.72-8.06-14.09-9.99-22.93-10.8
	c-55-5.05-110.29-7.02-165.51-5.89c-4.84,0.1-9.97,0.3-14.04,2.93c-4.42,2.85-6.78,8.04-10.83,11.4c-5.22,4.32-12.45,5.01-19.21,5.5
	c-31.09,2.26-62.21,3.99-93.35,5.21c-5.92,0.23-12.84,0-16.37-4.77c-3.29-4.45-2-10.76-3.87-15.97
	c-3.74-10.43-17.5-12.21-28.59-12.23c-42-0.05-84.01-0.1-126.01-0.15c-8.39-0.01-17.25,0.1-24.48,4.36
	c-7.23,4.26-11.81,14.23-7.35,21.34c3.39,5.39,10.84,7.7,13,13.68c1.97,5.45-1.69,11.65-6.73,14.52
	c-5.04,2.87-11.07,3.23-16.86,3.53c-101.93,5.23-203.87,10.47-305.8,15.7C-89.39,1188.34-86.48,1198.22-82.18,1205.18z
	 M240.79,1190.68c2.18-1.34,4.88-1.41,7.43-1.54c13.03-0.67,25.93-3.9,37.75-9.44c1.46-0.68,2.97-1.47,3.83-2.83
	c3.62-5.71-7.31-13.67-2.94-18.82c33.35-2.85,66.82-4.3,100.29-4.36c3.86-0.01,9.1,1.38,8.82,5.23c-0.09,9.49-17.6,12.8-15.54,22.06
	c0.69,3.11,3.71,5.74,3.08,8.87c-0.65,3.24-4.63,4.38-7.9,4.86c-43.1,6.31-88.5,10.17-131.89,4.6c-1.83-0.23-3.85-0.61-4.94-2.1
	C237.3,1195.14,238.61,1192.02,240.79,1190.68z"/>
<path class="st20" d="M1316.73,867.87c-18.23-2.92-37.03-3.65-55.73-4.38c-72.85-2.82-145.86-5.64-218.75-3.32
	c-11.72,0.37-24.26,1.09-33.38,6.12c-9.12,5.03-11.93,16-2.44,20.71c3.33,1.65,7.96,2.54,9.47,5.16c2.65,4.58-6.48,7.96-13.54,8.96
	c-125.57,17.75-254.72,32.22-381.59,19.5c1.02-7.55-7.83-14.41-18.16-17.19s-21.82-2.43-32.91-2.03
	c-57.55,2.06-115.1,4.13-172.65,6.19c-13.5,0.48-29.37,1.94-35.78,10.06c59,1.43,117.99,2.86,176.99,4.29
	c7.27,0.18,14.82,0.4,21.26,2.71c7.15,2.57,11.91,7.33,17.6,11.24c26.28,18.07,68.87,16.62,106.03,14.38
	c93.89-5.68,188.15-8.46,282.41-8.34c5.64,3.55,3.2,10.43-2.83,13.67c-6.03,3.24-14.13,3.83-21.77,4.3
	c-43.63,2.68-87.26,5.36-130.88,8.04c0.82,7.91,16.58,9.67,28.16,9.13c80.09-3.71,160.18-7.43,240.27-11.14
	c10.88-0.5,24.94-3.09,25.37-10.53c0.69-11.82-32.03-10.85-36.79-22.22c20.14-8.59,23.98-30.52,7.37-42.11
	c70.9-2.92,142.03-3.27,212.98-1.03c10.1,0.32,20.62,0.77,29.4,4.18s15.2,10.73,11.93,17.26c-4.93,9.85-27.83,12.73-28.8,23.12
	c-0.97,10.43,20,13.88,35.31,13.62c148.42-2.49,296.83-4.99,445.25-7.48c-130.57-22.79-271.42-0.65-401.57-24.54
	c-0.03-8.67,14.22-14.22,26.9-14.8c12.68-0.57,25.54,1.84,38.01,0.21c12.82-1.68,23.65-7.42,35.91-10.49
	c10.27-2.57,21.32-3.22,32.22-3.85c55.9-3.21,111.8-6.43,167.7-9.64c-24.52,1.41-52.1-2.79-76.84-3.51
	c-26.7-0.77-53.43-1.08-80.15-0.93c-25.55,0.15-53.49-1.09-78.69,1.99c-17.08,2.09-28.67,8.37-47.02,7.4
	C1369.24,881.13,1343.59,872.17,1316.73,867.87z"/>
<g>
	<circle class="st21" cx="1739.51" cy="1258.19" r="41.38"/>
	<circle class="st22" cx="1847.21" cy="1300.01" r="21.79"/>
	<circle class="st22" cx="1640.59" cy="1329.89" r="37.22"/>
	<circle class="st21" cx="1823.07" cy="1438.87" r="37.1"/>
	<circle class="st22" cx="1678.11" cy="1500.29" r="20.03"/>
	<line class="st23" x1="1739.51" y1="1299.56" x2="1739.51" y2="1624.39"/>
	<line class="st24" x1="1698.13" y1="1500.29" x2="1739.51" y2="1500.29"/>
	<line class="st24" x1="1785.97" y1="1438.87" x2="1739.51" y2="1438.87"/>
	<path class="st24" d="M1640.59,1367.11v10.4c0,13.4,10.86,24.26,24.26,24.26h74.66"/>
	<path class="st24" d="M1739.51,1357.16h83.44c13.4,0,24.26-10.86,24.26-24.26v-11.1"/>
</g>
<g>
	<circle class="st25" cx="567.15" cy="1527.45" r="17.53"/>
	<circle class="st26" cx="612.74" cy="1438.29" r="19.64"/>
	<circle class="st25" cx="612.74" cy="1489.07" r="13.31"/>
	<line class="st27" x1="612.74" y1="1457.93" x2="612.74" y2="1475.76"/>
	<line class="st28" x1="612.74" y1="1502.39" x2="612.74" y2="1608.01"/>
	<line class="st27" x1="584.68" y1="1527.45" x2="612.74" y2="1527.45"/>
	<circle class="st26" cx="655.89" cy="1513.55" r="15.08"/>
	<path class="st27" d="M655.89,1528.63v16.48c0,4.47-3.62,8.09-8.09,8.09h-35.06"/>
</g>
<g>
	<circle class="st29" cx="236.36" cy="1305.47" r="35.99"/>
	<circle class="st30" cx="132.22" cy="1335.1" r="38.99"/>
	<circle class="st29" cx="72.37" cy="1439.06" r="27.83"/>
	<circle class="st29" cx="327.3" cy="1397.43" r="37.5"/>
	<circle class="st30" cx="297.3" cy="1528.51" r="32.7"/>
	<path class="st31" d="M132.22,1374.09v19.14c0,9.94,8.06,18,18,18h47.64v241.94"/>
	<path class="st32" d="M236.36,1342.67v78.39c0,9.94-8.06,18-18,18h-20.5"/>
	<path class="st32" d="M72.37,1466.89v19.63c0,9.94,8.06,18,18,18h107.49"/>
	<line class="st32" x1="289.8" y1="1397.43" x2="236.36" y2="1397.43"/>
	<line class="st32" x1="264.61" y1="1528.51" x2="198.57" y2="1528.51"/>
</g>
<g>
	<circle class="st33" cx="473.43" cy="1362.31" r="26.38"/>
	<circle class="st34" cx="516.23" cy="1470.1" r="16.97"/>
	<circle class="st34" cx="417.25" cy="1399.81" r="21.14"/>
	<circle class="st34" cx="534.66" cy="1410.74" r="21.07"/>
	<circle class="st33" cx="422.9" cy="1484.7" r="17.85"/>
	<line class="st35" x1="473.43" y1="1391.77" x2="473.43" y2="1616.27"/>
	<line class="st36" x1="513.59" y1="1410.74" x2="473.43" y2="1410.74"/>
	<path class="st36" d="M417.25,1420.95v5.91c0,7.61,6.17,13.78,13.78,13.78h42.4"/>
	<path class="st36" d="M473.43,1507.15h29.02c7.61,0,13.78-6.17,13.78-13.78v-6.3"/>
	<path class="st36" d="M422.9,1502.54V1515c0,7.61,6.17,13.78,13.78,13.78h36.76"/>
</g>
<g>
	<circle class="st37" cx="1347.93" cy="1519.31" r="13.52"/>
	<circle class="st38" cx="1301.75" cy="1479.88" r="18.02"/>
	<circle class="st38" cx="1378.93" cy="1440.72" r="27.37"/>
	<line class="st39" x1="1347.93" y1="1532.82" x2="1347.93" y2="1610.17"/>
	<path class="st40" d="M1301.75,1497.9v12.93c0,4.68,3.79,8.47,8.47,8.47h24.2"/>
	<path class="st40" d="M1378.93,1468.05v42.78c0,4.68-3.79,8.47-8.47,8.47h-9"/>
</g>
<g>
	<circle class="st41" cx="1461.9" cy="1463.64" r="23.87"/>
	<circle class="st42" cx="1526.32" cy="1406.54" r="28.99"/>
	<circle class="st42" cx="1578.37" cy="1471.32" r="17.05"/>
	<polyline class="st43" points="1526.32,1435.53 1526.32,1507.77 1504.41,1507.77 1504.41,1603.34 	"/>
	<polyline class="st44" points="1461.9,1487.51 1461.9,1540.09 1504.41,1540.09 	"/>
	<line class="st44" x1="1561.32" y1="1471.32" x2="1526.32" y2="1471.32"/>
</g>
</svg>
