<?xml version="1.0" encoding="utf-8"?>
<!-- Generator: Adobe Illustrator 24.3.0, SVG Export Plug-In . SVG Version: 6.00 Build 0)  -->
<svg version="1.1" id="Layer_1" xmlns="http://www.w3.org/2000/svg" xmlns:xlink="http://www.w3.org/1999/xlink" x="0px" y="0px"
	 viewBox="0 0 600 600" style="enable-background:new 0 0 600 600;" xml:space="preserve">
<style type="text/css">
	.st0{fill:url(#SVGID_1_);}
	.st1{fill:url(#SVGID_2_);}
	.st2{fill:url(#SVGID_3_);}
	.st3{fill:url(#SVGID_4_);}
	.st4{fill:url(#SVGID_5_);}
	.st5{fill:url(#SVGID_6_);}
	.st6{fill:url(#SVGID_7_);}
	.st7{fill:url(#SVGID_8_);}
	.st8{fill:url(#SVGID_9_);}
	.st9{fill:url(#SVGID_10_);}
	.st10{fill:url(#SVGID_11_);}
	.st11{fill:url(#SVGID_12_);}
	.st12{fill:url(#SVGID_13_);}
	.st13{fill:url(#SVGID_14_);}
	.st14{fill:url(#SVGID_15_);}
	.st15{fill:url(#SVGID_16_);}
	.st16{opacity:0.5;}
	.st17{fill:none;stroke:#9EB3BF;stroke-width:3;stroke-miterlimit:10;}
	.st18{fill:url(#SVGID_17_);}
	.st19{fill:url(#SVGID_18_);}
	.st20{fill:url(#SVGID_19_);}
	.st21{fill:url(#SVGID_20_);}
	.st22{fill:url(#SVGID_21_);}
	.st23{fill:#9EB3BF;}
</style>
<linearGradient id="SVGID_1_" gradientUnits="userSpaceOnUse" x1="96.1907" y1="593.692" x2="145.0215" y2="459.5305">
	<stop  offset="0.1132" style="stop-color:#9EB3BF"/>
	<stop  offset="1" style="stop-color:#C4CED3"/>
</linearGradient>
<path class="st0" d="M204.53,571.5H36.68c-4.52,0-8.19-3.67-8.19-8.19v-73.41c0-4.52,3.67-8.19,8.19-8.19h167.85
	c4.52,0,8.19,3.67,8.19,8.19v73.41C212.72,567.84,209.05,571.5,204.53,571.5z"/>
<radialGradient id="SVGID_2_" cx="24.8068" cy="411.8961" r="6.6508" gradientUnits="userSpaceOnUse">
	<stop  offset="0.3464" style="stop-color:#C4CED3"/>
	<stop  offset="1" style="stop-color:#9EB3BF"/>
</radialGradient>
<circle class="st1" cx="24.81" cy="411.9" r="6.65"/>
<radialGradient id="SVGID_3_" cx="348.1375" cy="411.8961" r="6.6508" gradientUnits="userSpaceOnUse">
	<stop  offset="0.3464" style="stop-color:#C4CED3"/>
	<stop  offset="1" style="stop-color:#9EB3BF"/>
</radialGradient>
<circle class="st2" cx="348.14" cy="411.9" r="6.65"/>
<radialGradient id="SVGID_4_" cx="267.3048" cy="411.8961" r="6.6508" gradientUnits="userSpaceOnUse">
	<stop  offset="0.3464" style="stop-color:#C4CED3"/>
	<stop  offset="1" style="stop-color:#9EB3BF"/>
</radialGradient>
<circle class="st3" cx="267.3" cy="411.9" r="6.65"/>
<radialGradient id="SVGID_5_" cx="186.4722" cy="411.8961" r="6.6508" gradientUnits="userSpaceOnUse">
	<stop  offset="0.3464" style="stop-color:#C4CED3"/>
	<stop  offset="1" style="stop-color:#9EB3BF"/>
</radialGradient>
<circle class="st4" cx="186.47" cy="411.9" r="6.65"/>
<radialGradient id="SVGID_6_" cx="105.6395" cy="411.8961" r="6.6508" gradientUnits="userSpaceOnUse">
	<stop  offset="0.3464" style="stop-color:#C4CED3"/>
	<stop  offset="1" style="stop-color:#9EB3BF"/>
</radialGradient>
<circle class="st5" cx="105.64" cy="411.9" r="6.65"/>
<radialGradient id="SVGID_7_" cx="428.9702" cy="488.2085" r="6.6508" gradientUnits="userSpaceOnUse">
	<stop  offset="0.3464" style="stop-color:#C4CED3"/>
	<stop  offset="1" style="stop-color:#9EB3BF"/>
</radialGradient>
<circle class="st6" cx="428.97" cy="488.21" r="6.65"/>
<radialGradient id="SVGID_8_" cx="40.9753" cy="247.8158" r="6.6508" gradientTransform="matrix(6.123234e-17 1 -1 6.123234e-17 676.786 -10.6413)" gradientUnits="userSpaceOnUse">
	<stop  offset="0.3464" style="stop-color:#C4CED3"/>
	<stop  offset="1" style="stop-color:#9EB3BF"/>
</radialGradient>
<circle class="st7" cx="428.97" cy="30.33" r="6.65"/>
<radialGradient id="SVGID_9_" cx="346.225" cy="247.8158" r="6.6508" gradientTransform="matrix(6.123234e-17 1 -1 6.123234e-17 676.786 -10.6413)" gradientUnits="userSpaceOnUse">
	<stop  offset="0.3464" style="stop-color:#C4CED3"/>
	<stop  offset="1" style="stop-color:#9EB3BF"/>
</radialGradient>
<circle class="st8" cx="428.97" cy="335.58" r="6.65"/>
<radialGradient id="SVGID_10_" cx="269.9126" cy="247.8158" r="6.6508" gradientTransform="matrix(6.123234e-17 1 -1 6.123234e-17 676.786 -10.6413)" gradientUnits="userSpaceOnUse">
	<stop  offset="0.3464" style="stop-color:#C4CED3"/>
	<stop  offset="1" style="stop-color:#9EB3BF"/>
</radialGradient>
<circle class="st9" cx="428.97" cy="259.27" r="6.65"/>
<radialGradient id="SVGID_11_" cx="193.6001" cy="247.8158" r="6.6508" gradientTransform="matrix(6.123234e-17 1 -1 6.123234e-17 676.786 -10.6413)" gradientUnits="userSpaceOnUse">
	<stop  offset="0.3464" style="stop-color:#C4CED3"/>
	<stop  offset="1" style="stop-color:#9EB3BF"/>
</radialGradient>
<circle class="st10" cx="428.97" cy="182.96" r="6.65"/>
<radialGradient id="SVGID_12_" cx="117.2877" cy="247.8158" r="6.6508" gradientTransform="matrix(6.123234e-17 1 -1 6.123234e-17 676.786 -10.6413)" gradientUnits="userSpaceOnUse">
	<stop  offset="0.3464" style="stop-color:#C4CED3"/>
	<stop  offset="1" style="stop-color:#9EB3BF"/>
</radialGradient>
<circle class="st11" cx="428.97" cy="106.65" r="6.65"/>
<radialGradient id="SVGID_13_" cx="422.5374" cy="247.8158" r="6.6508" gradientTransform="matrix(6.123234e-17 1 -1 6.123234e-17 676.786 -10.6413)" gradientUnits="userSpaceOnUse">
	<stop  offset="0.3464" style="stop-color:#C4CED3"/>
	<stop  offset="1" style="stop-color:#9EB3BF"/>
</radialGradient>
<circle class="st12" cx="428.97" cy="411.9" r="6.65"/>
<radialGradient id="SVGID_14_" cx="115.1617" cy="406.8735" r="6.6508" gradientTransform="matrix(-1 0 0 -1 687.4274 666.1447)" gradientUnits="userSpaceOnUse">
	<stop  offset="0.3464" style="stop-color:#C4CED3"/>
	<stop  offset="1" style="stop-color:#9EB3BF"/>
</radialGradient>
<circle class="st13" cx="572.27" cy="259.27" r="6.65"/>
<radialGradient id="SVGID_15_" cx="186.8094" cy="406.8735" r="6.6508" gradientTransform="matrix(-1 0 0 -1 687.4274 666.1447)" gradientUnits="userSpaceOnUse">
	<stop  offset="0.3464" style="stop-color:#C4CED3"/>
	<stop  offset="1" style="stop-color:#9EB3BF"/>
</radialGradient>
<circle class="st14" cx="500.62" cy="259.27" r="6.65"/>
<radialGradient id="SVGID_16_" cx="575.1622" cy="247.8158" r="6.6508" gradientTransform="matrix(6.123234e-17 1 -1 6.123234e-17 676.786 -10.6413)" gradientUnits="userSpaceOnUse">
	<stop  offset="0.3464" style="stop-color:#C4CED3"/>
	<stop  offset="1" style="stop-color:#9EB3BF"/>
</radialGradient>
<circle class="st15" cx="428.97" cy="564.52" r="6.65"/>
<g class="st16">
	<g>
		<line class="st17" x1="465" y1="0" x2="465" y2="600"/>
	</g>
	<line class="st17" x1="465" y1="449.69" x2="0" y2="449.69"/>
	<line class="st17" x1="465" y1="192.41" x2="600" y2="192.41"/>
	<line class="st17" x1="144.85" y1="448.64" x2="144.85" y2="0"/>
</g>
<g>
	
		<radialGradient id="SVGID_17_" cx="40.9753" cy="571.1465" r="6.6508" gradientTransform="matrix(6.123234e-17 1 -1 6.123234e-17 676.786 -10.6413)" gradientUnits="userSpaceOnUse">
		<stop  offset="0.3464" style="stop-color:#C4CED3"/>
		<stop  offset="1" style="stop-color:#9EB3BF"/>
	</radialGradient>
	<circle class="st18" cx="105.64" cy="30.33" r="6.65"/>
	
		<radialGradient id="SVGID_18_" cx="346.225" cy="571.1465" r="6.6508" gradientTransform="matrix(6.123234e-17 1 -1 6.123234e-17 676.786 -10.6413)" gradientUnits="userSpaceOnUse">
		<stop  offset="0.3464" style="stop-color:#C4CED3"/>
		<stop  offset="1" style="stop-color:#9EB3BF"/>
	</radialGradient>
	<circle class="st19" cx="105.64" cy="335.58" r="6.65"/>
	
		<radialGradient id="SVGID_19_" cx="269.9126" cy="571.1465" r="6.6508" gradientTransform="matrix(6.123234e-17 1 -1 6.123234e-17 676.786 -10.6413)" gradientUnits="userSpaceOnUse">
		<stop  offset="0.3464" style="stop-color:#C4CED3"/>
		<stop  offset="1" style="stop-color:#9EB3BF"/>
	</radialGradient>
	<circle class="st20" cx="105.64" cy="259.27" r="6.65"/>
	
		<radialGradient id="SVGID_20_" cx="193.6001" cy="571.1465" r="6.6508" gradientTransform="matrix(6.123234e-17 1 -1 6.123234e-17 676.786 -10.6413)" gradientUnits="userSpaceOnUse">
		<stop  offset="0.3464" style="stop-color:#C4CED3"/>
		<stop  offset="1" style="stop-color:#9EB3BF"/>
	</radialGradient>
	<circle class="st21" cx="105.64" cy="182.96" r="6.65"/>
	
		<radialGradient id="SVGID_21_" cx="117.2877" cy="571.1465" r="6.6508" gradientTransform="matrix(6.123234e-17 1 -1 6.123234e-17 676.786 -10.6413)" gradientUnits="userSpaceOnUse">
		<stop  offset="0.3464" style="stop-color:#C4CED3"/>
		<stop  offset="1" style="stop-color:#9EB3BF"/>
	</radialGradient>
	<circle class="st22" cx="105.64" cy="106.65" r="6.65"/>
</g>
<g class="st16">
	<path class="st23" d="M45.78,557.87L45.78,557.87c-2.76,0-4.99-2.23-4.99-4.99v-52.54c0-2.75,2.23-4.99,4.99-4.99h0
		c2.75,0,4.99,2.23,4.99,4.99v52.54C50.77,555.64,48.54,557.87,45.78,557.87z"/>
	<path class="st23" d="M170.85,557.87L170.85,557.87c-2.76,0-4.99-2.23-4.99-4.99v-52.54c0-2.75,2.23-4.99,4.99-4.99h0
		c2.75,0,4.99,2.23,4.99,4.99v52.54C175.83,555.64,173.6,557.87,170.85,557.87z"/>
	<path class="st23" d="M145.83,557.87L145.83,557.87c-2.76,0-4.99-2.23-4.99-4.99v-52.54c0-2.75,2.23-4.99,4.99-4.99h0
		c2.75,0,4.99,2.23,4.99,4.99v52.54C150.82,555.64,148.59,557.87,145.83,557.87z"/>
	<path class="st23" d="M120.82,557.87L120.82,557.87c-2.76,0-4.99-2.23-4.99-4.99v-52.54c0-2.75,2.23-4.99,4.99-4.99h0
		c2.75,0,4.99,2.23,4.99,4.99v52.54C125.81,555.64,123.58,557.87,120.82,557.87z"/>
	<path class="st23" d="M95.81,557.87L95.81,557.87c-2.76,0-4.99-2.23-4.99-4.99v-52.54c0-2.75,2.23-4.99,4.99-4.99h0
		c2.75,0,4.99,2.23,4.99,4.99v52.54C100.8,555.64,98.56,557.87,95.81,557.87z"/>
	<path class="st23" d="M70.8,557.87L70.8,557.87c-2.76,0-4.99-2.23-4.99-4.99v-52.54c0-2.75,2.23-4.99,4.99-4.99h0
		c2.75,0,4.99,2.23,4.99,4.99v52.54C75.78,555.64,73.55,557.87,70.8,557.87z"/>
	<path class="st23" d="M195.86,557.87L195.86,557.87c-2.76,0-4.99-2.23-4.99-4.99v-52.54c0-2.75,2.23-4.99,4.99-4.99h0
		c2.75,0,4.99,2.23,4.99,4.99v52.54C200.85,555.64,198.61,557.87,195.86,557.87z"/>
</g>
</svg>
