<?xml version="1.0" encoding="utf-8"?>
<!-- Generator: Adobe Illustrator 25.0.0, SVG Export Plug-In . SVG Version: 6.00 Build 0)  -->
<svg version="1.1" id="Layer_1" xmlns="http://www.w3.org/2000/svg" xmlns:xlink="http://www.w3.org/1999/xlink" x="0px" y="0px"
	 viewBox="0 0 65 100" style="enable-background:new 0 0 65 100;" xml:space="preserve">
<style type="text/css">
	.st0{fill:url(#SVGID_1_);}
	.st1{fill:url(#SVGID_2_);}
	.st2{fill:#9E9DB0;}
	.st3{fill:url(#SVGID_3_);}
	.st4{opacity:0.3;fill:#231F20;}
	.st5{fill:#F7941D;}
	.st6{fill:#DCDCE3;}
	.st7{fill:url(#SVGID_4_);}
	.st8{opacity:0.2;}
	.st9{fill:#231F20;}
	.st10{fill:url(#SVGID_5_);}
	.st11{fill:url(#SVGID_6_);}
	.st12{fill:#BAB9C8;}
	.st13{fill:#FFFFFF;}
	.st14{opacity:0.3;}
	.st15{fill:url(#SVGID_7_);}
	.st16{fill:url(#SVGID_8_);}
	.st17{fill:#00ABE6;}
	.st18{opacity:0.5;}
	.st19{fill:url(#SVGID_9_);}
	.st20{fill:url(#SVGID_10_);}
	.st21{fill:url(#SVGID_11_);}
	.st22{fill:url(#SVGID_12_);}
	.st23{opacity:0.6;}
	.st24{fill:url(#SVGID_13_);}
	.st25{fill:url(#SVGID_14_);}
	.st26{fill:url(#SVGID_15_);}
	.st27{fill:url(#SVGID_16_);}
	.st28{fill:url(#SVGID_17_);}
	.st29{fill:url(#SVGID_18_);}
	.st30{fill:url(#SVGID_19_);}
	.st31{fill:url(#SVGID_20_);}
	.st32{opacity:0.4;}
	.st33{opacity:0.9;}
	.st34{fill:url(#SVGID_21_);}
	.st35{fill:#942972;}
	.st36{fill:url(#SVGID_22_);}
	.st37{fill:url(#SVGID_23_);}
	.st38{fill:url(#SVGID_24_);}
</style>
<g>
	
		<linearGradient id="SVGID_1_" gradientUnits="userSpaceOnUse" x1="-421.2819" y1="99.9639" x2="-421.2819" y2="75.1429" gradientTransform="matrix(-1 0 0 1 -394 0)">
		<stop  offset="0" style="stop-color:#F7941D"/>
		<stop  offset="0.1358" style="stop-color:#F99E1C"/>
		<stop  offset="1" style="stop-color:#FFDD00"/>
	</linearGradient>
	<path class="st0" d="M27.28,75.14c2.35,0.01,5.68,3.6,5.38,9.35c-0.27-0.76-0.55-1.19-1.04-1.8c0.29,1.93,0.13,4.01-0.24,5.94
		c-0.04,0.2-0.24-0.41-0.34-0.56c0.01,0.53,0.08,1.59-0.21,2.75c-0.44,1.71-0.66,2.16-1.16,3.28c-0.16-0.68-0.21-1.26-0.58-1.67
		c0.06,3.16-0.64,4.21-1.79,7.46l0,0.08c0-0.01-0.01-0.03-0.01-0.04c0,0.01-0.01,0.03-0.01,0.04l0-0.08
		c-1.16-3.3-2.46-8.4-2.39-11.56c-0.38,0.41-0.61,0.99-0.76,1.67c-1.16-2.56-1.79-3.91-1.17-7.99c-0.57,0.46-0.79,0.89-1.04,1.8
		C21.67,79.39,24.56,75.12,27.28,75.14z"/>
	
		<linearGradient id="SVGID_2_" gradientUnits="userSpaceOnUse" x1="471.2655" y1="91.9761" x2="471.2655" y2="76.0496" gradientTransform="matrix(1 0 0 1 -444 0)">
		<stop  offset="0" style="stop-color:#FFDD00"/>
		<stop  offset="0.6401" style="stop-color:#FFF0B4"/>
		<stop  offset="1" style="stop-color:#FFFFFF"/>
	</linearGradient>
	<path class="st1" d="M30.61,81.71c0.18-3.53-2-5.53-3.35-5.66c-1.34,0.13-3.53,2.21-3.35,5.74c0.25-0.47,0.29-0.82,0.65-1.11
		c-0.39,2.5,0.27,4.8,0.99,6.37c0.1-0.41,0.42-1.53,0.65-1.78c-0.04,1.94,0.33,4.71,1.05,6.7c0,0,1.31-3.89,1.27-5.83
		c0.23,0.25,0.38,0.61,0.47,1.02c0.72-1.57,1.35-4.06,0.97-6.56C30.32,80.89,30.36,81.24,30.61,81.71z"/>
</g>
<polygon class="st2" points="63.56,63.69 63.07,67.59 38.2,71.54 39,65.68 "/>
<linearGradient id="SVGID_3_" gradientUnits="userSpaceOnUse" x1="60.1306" y1="47.617" x2="45.0152" y2="44.4712">
	<stop  offset="0" style="stop-color:#A45486"/>
	<stop  offset="0.9658" style="stop-color:#942972"/>
</linearGradient>
<path class="st3" d="M43.46,20.17c1.3,5.88,3.35,11.22,4.73,15.29c2.37,6.99,15.9,15.6,15.9,27.59c0,0.58,0,1.45,0,1.45L38.4,67.07
	c0.44-5.72,5.06-11.42,5.06-20.72C43.46,38.24,44.26,27.44,43.46,20.17z"/>
<polygon class="st4" points="42.53,62.64 42.05,66.71 42.83,66.63 42.59,70.84 38.2,71.54 40.12,62.55 "/>
<path class="st5" d="M52.91,65.62l3.46-0.35V46.59c-1.18-1.41-2.36-2.76-3.46-4.06V65.62z M50.82,65.83l1.04-0.1V41.27
	c-0.36-0.44-0.71-0.88-1.04-1.31V65.83z M57.43,47.88v17.28l1.04-0.1V49.21C58.12,48.76,57.78,48.32,57.43,47.88z"/>
<g>
	<polygon class="st6" points="64.09,64.49 40.39,67.03 40.31,66.07 	"/>
</g>
<polygon class="st2" points="1.44,63.69 1.93,67.59 26.8,71.54 26,65.68 "/>
<linearGradient id="SVGID_4_" gradientUnits="userSpaceOnUse" x1="26.7688" y1="47.769" x2="3.5203" y2="39.6359">
	<stop  offset="0" style="stop-color:#942972"/>
	<stop  offset="0.0179" style="stop-color:#952B73"/>
	<stop  offset="0.402" style="stop-color:#9D437D"/>
	<stop  offset="0.7419" style="stop-color:#A25083"/>
	<stop  offset="1" style="stop-color:#A45486"/>
</linearGradient>
<path class="st7" d="M21.54,20.17c-1.3,5.88-3.35,11.22-4.73,15.29c-2.37,6.99-15.9,15.6-15.9,27.59c0,0.58,0,1.45,0,1.45
	l25.69,2.58c-0.44-5.72-5.06-11.42-5.06-20.72C21.54,38.24,20.74,27.44,21.54,20.17z"/>
<polygon class="st4" points="22.47,62.64 22.95,66.71 22.17,66.63 22.41,70.84 26.8,71.54 24.88,62.55 "/>
<path class="st5" d="M6.54,65.06l1.04,0.1V47.88c-0.35,0.44-0.7,0.88-1.04,1.33V65.06z M8.63,65.27l3.46,0.35V42.53
	c-1.1,1.3-2.29,2.65-3.46,4.06V65.27z M13.14,41.27v24.45l1.04,0.1V39.96C13.85,40.39,13.5,40.82,13.14,41.27z"/>
<g>
	<polygon class="st6" points="0.91,64.49 24.69,66.07 24.61,67.03 	"/>
</g>
<g class="st8">
	<path class="st9" d="M21.54,46.35c0-8.11-0.8-18.91,0-26.18c-0.63,2.84-1.43,5.56-2.25,8.07c-0.69,13.07,1.08,28.14,1.54,33.53
		c0.04,0.45,0.4,0.82,0.88,0.9c0.92,0.15,2.58,0.39,4.64,0.59C24.94,58.59,21.54,53.73,21.54,46.35z"/>
	<path class="st9" d="M38.4,63.25c2.07-0.2,3.72-0.44,4.64-0.59c0.48-0.08,0.84-0.45,0.88-0.9c0.46-5.38,2.47-20.45,1.78-33.53
		c-0.82-2.51-1.62-5.22-2.25-8.07c0.8,7.27,0,18.07,0,26.18C43.46,53.73,39.82,58.59,38.4,63.25z"/>
</g>
<linearGradient id="SVGID_5_" gradientUnits="userSpaceOnUse" x1="27.4641" y1="74.1325" x2="27.4641" y2="58.7366">
	<stop  offset="0" style="stop-color:#595A5C"/>
	<stop  offset="0.1375" style="stop-color:#4B4A4C"/>
	<stop  offset="0.333" style="stop-color:#3A3839"/>
	<stop  offset="0.5142" style="stop-color:#2E2B2C"/>
	<stop  offset="0.674" style="stop-color:#262223"/>
	<stop  offset="0.7952" style="stop-color:#231F20"/>
</linearGradient>
<path class="st10" d="M22.52,59.87l2.04,12.81c0.06,0.38,0.33,0.68,0.7,0.79c0.81,0.23,2.46,0.59,5.09,0.66
	c0.52,0.01,0.96-0.38,1-0.9c0.21-2.69,0.84-10.57,1.07-13.44c0.05-0.57-0.41-1.06-0.98-1.06h-7.95
	C22.89,58.74,22.43,59.28,22.52,59.87z"/>
<g>
	<g>
		<polygon class="st9" points="25.48,61.76 26.03,72.5 24.45,61.86 		"/>
	</g>
	<g>
		<polygon class="st9" points="30.95,62.3 29.77,72.89 29.91,62.24 		"/>
	</g>
	<g>
		<polygon class="st9" points="28.32,61.71 27.86,72.74 27.28,61.72 		"/>
	</g>
</g>
<linearGradient id="SVGID_6_" gradientUnits="userSpaceOnUse" x1="37.5359" y1="74.1325" x2="37.5359" y2="58.7366">
	<stop  offset="0" style="stop-color:#595A5C"/>
	<stop  offset="0.1375" style="stop-color:#4B4A4C"/>
	<stop  offset="0.333" style="stop-color:#3A3839"/>
	<stop  offset="0.5142" style="stop-color:#2E2B2C"/>
	<stop  offset="0.674" style="stop-color:#262223"/>
	<stop  offset="0.7952" style="stop-color:#231F20"/>
</linearGradient>
<path class="st11" d="M42.48,59.87l-2.04,12.81c-0.06,0.38-0.33,0.68-0.7,0.79c-0.81,0.23-2.46,0.59-5.09,0.66
	c-0.52,0.01-0.96-0.38-1-0.9c-0.21-2.69-0.84-10.57-1.07-13.44c-0.05-0.57,0.41-1.06,0.98-1.06h7.95
	C42.11,58.74,42.57,59.28,42.48,59.87z"/>
<g>
	<g>
		<polygon class="st9" points="40.55,61.86 38.97,72.5 39.52,61.76 		"/>
	</g>
	<g>
		<polygon class="st9" points="35.09,62.24 35.23,72.89 34.05,62.3 		"/>
	</g>
	<g>
		<polygon class="st9" points="37.72,61.72 37.14,72.74 36.68,61.71 		"/>
	</g>
</g>
<path class="st6" d="M21.54,20.17c-1.79,14.03-0.24,35.28,0.26,41.84c0.03,0.45,0.35,0.82,0.78,0.9c0.68,0.12,1.81,0.31,3.23,0.49
	c0.92,3.77,3.53,6.49,6.6,6.49c0.03,0,0.06-0.01,0.1-0.01V0C30.87,0,23.41,5.55,21.54,20.17z"/>
<path class="st12" d="M43.46,20.17C41.59,5.55,34.13,0,32.5,0v50.87h0v19.01c0.03,0,0.06,0.01,0.1,0.01c3.07,0,5.68-2.72,6.6-6.49
	c1.42-0.17,2.55-0.36,3.23-0.49c0.42-0.08,0.74-0.45,0.78-0.9C43.69,55.45,45.25,34.2,43.46,20.17z"/>
<g>
	<polygon class="st13" points="32.5,1.6 33.02,64.29 31.98,64.29 	"/>
</g>
<g class="st14">
	<path class="st2" d="M37.04,7.47c-1.1-0.69-2.06-0.95-4.05-0.95s-2.81,0.29-4.05,0.95c-1.68,0.9-2.41,2.47-2.41,3.67
		c0,1.84,1.07,1.64,2.59,1.02c1.22-0.5,2.25-0.84,3.87-0.84c1.62,0,2.65,0.34,3.87,0.84c1.52,0.63,2.59,0.82,2.59-1.02
		C39.46,9.94,38.67,8.49,37.04,7.47z"/>
</g>
<g>
	<linearGradient id="SVGID_7_" gradientUnits="userSpaceOnUse" x1="33.6353" y1="13.6976" x2="30.809" y2="5.9322">
		<stop  offset="0" style="stop-color:#942972"/>
		<stop  offset="0.9658" style="stop-color:#A45486"/>
	</linearGradient>
	<path class="st15" d="M36.55,6.91c-1.1-0.69-2.06-0.95-4.05-0.95s-2.81,0.29-4.05,0.95c-1.68,0.9-2.41,2.47-2.41,3.67
		c0,1.84,1.07,1.64,2.59,1.02c1.22-0.5,2.25-0.84,3.87-0.84c1.62,0,2.65,0.34,3.87,0.84c1.52,0.63,2.59,0.82,2.59-1.02
		C38.96,9.39,38.18,7.93,36.55,6.91z"/>
</g>
<g>
	<linearGradient id="SVGID_8_" gradientUnits="userSpaceOnUse" x1="34.2399" y1="12.9241" x2="30.4444" y2="6.3501">
		<stop  offset="0" style="stop-color:#00ABE6"/>
		<stop  offset="0.9658" style="stop-color:#90CEF1"/>
	</linearGradient>
	<path class="st16" d="M35.98,7.19c-0.95-0.52-1.77-0.72-3.48-0.72c-1.71,0-2.42,0.22-3.48,0.72c-1.44,0.68-2.07,1.86-2.07,2.77
		c0,1.38,0.92,1.24,2.23,0.77c1.05-0.38,1.93-0.63,3.33-0.63c1.39,0,2.28,0.25,3.33,0.63c1.31,0.47,2.23,0.62,2.23-0.77
		C38.05,9.05,37.38,7.96,35.98,7.19z"/>
</g>
<g>
	<path class="st13" d="M22.17,36.44l0.67,6.78c0.25,2.25,0.46,4.51,0.77,6.75c0.28,2.25,0.59,4.49,0.95,6.73
		c0.17,1.12,0.36,2.24,0.57,3.35c0.19,1.12,0.42,2.23,0.66,3.34c-0.77-2.14-1.3-4.37-1.77-6.59c-0.45-2.23-0.8-4.48-1.1-6.74
		c-0.26-2.26-0.49-4.53-0.61-6.8c-0.07-1.14-0.1-2.27-0.15-3.41C22.17,38.72,22.16,37.58,22.17,36.44z"/>
</g>
<g>
	<path class="st17" d="M29.02,7.86c1.06-0.49,1.77-0.69,3.48-0.69c1.71,0,2.53,0.19,3.48,0.69c1.27,0.67,1.93,1.6,2.05,2.42
		c0.01-0.1,0.02-0.21,0.02-0.33c0-0.9-0.68-2-2.07-2.77c-0.95-0.52-1.77-0.72-3.48-0.72c-1.71,0-2.42,0.22-3.48,0.72
		c-1.44,0.68-2.07,1.86-2.07,2.77c0,0.12,0.01,0.23,0.02,0.32C27.08,9.45,27.72,8.46,29.02,7.86z"/>
</g>
<g class="st18">
	<circle class="st13" cx="29.31" cy="8.03" r="0.74"/>
</g>
<g class="st18">
	<circle class="st13" cx="28.13" cy="8.65" r="0.44"/>
</g>
<g class="st14">
	<ellipse transform="matrix(0.0725 -0.9974 0.9974 0.0725 2.4837 45.6138)" class="st2" cx="25.77" cy="21.47" rx="3.71" ry="1.7"/>
</g>
<g>
	<linearGradient id="SVGID_9_" gradientUnits="userSpaceOnUse" x1="26.0058" y1="24.6612" x2="24.7486" y2="17.5309">
		<stop  offset="0" style="stop-color:#942972"/>
		<stop  offset="0.7232" style="stop-color:#A45486"/>
	</linearGradient>
	<path class="st19" d="M27.07,21.22c-0.15,2.04-1.03,3.64-1.96,3.58c-0.94-0.07-1.57-1.78-1.43-3.82s1.03-3.64,1.96-3.58
		C26.58,17.47,27.22,19.18,27.07,21.22z"/>
</g>
<g>
	<linearGradient id="SVGID_10_" gradientUnits="userSpaceOnUse" x1="25.0083" y1="23.9455" x2="25.3086" y2="18.2149">
		<stop  offset="0" style="stop-color:#00ABE6"/>
		<stop  offset="0.9658" style="stop-color:#90CEF1"/>
	</linearGradient>
	<path class="st20" d="M26.21,21.16c-0.11,1.58-0.68,2.83-1.26,2.79c-0.58-0.04-0.96-1.36-0.84-2.94c0.11-1.58,0.68-2.83,1.26-2.79
		C25.95,18.26,26.33,19.58,26.21,21.16z"/>
</g>
<g>
	<path class="st17" d="M24.48,20.55c0.07-0.98,0.36-1.82,0.74-2.31c-0.53,0.15-1.01,1.32-1.12,2.77c-0.11,1.58,0.26,2.9,0.84,2.94
		c0.22,0.02,0.43-0.15,0.62-0.44C24.86,23.42,24.37,22.11,24.48,20.55z"/>
</g>
<g class="st14">
	
		<ellipse transform="matrix(7.154267e-03 -1 1 7.154267e-03 -5.8146 56.2194)" class="st2" cx="25.4" cy="31.04" rx="3.71" ry="1.7"/>
</g>
<g>
	
		<linearGradient id="SVGID_11_" gradientUnits="userSpaceOnUse" x1="22.1255" y1="35.4468" x2="20.8682" y2="28.3165" gradientTransform="matrix(0.9979 -0.0653 0.0653 0.9979 1.4572 0.2799)">
		<stop  offset="0" style="stop-color:#942972"/>
		<stop  offset="0.7232" style="stop-color:#A45486"/>
	</linearGradient>
	<path class="st21" d="M26.69,30.7c-0.01,2.05-0.79,3.7-1.72,3.7s-1.69-1.67-1.67-3.72c0.01-2.05,0.79-3.7,1.72-3.7
		C25.96,26.99,26.7,28.65,26.69,30.7z"/>
</g>
<g>
	
		<linearGradient id="SVGID_12_" gradientUnits="userSpaceOnUse" x1="21.128" y1="34.731" x2="21.4283" y2="29.0005" gradientTransform="matrix(0.9979 -0.0653 0.0653 0.9979 1.4572 0.2799)">
		<stop  offset="0" style="stop-color:#00ABE6"/>
		<stop  offset="0.9658" style="stop-color:#90CEF1"/>
	</linearGradient>
	<path class="st22" d="M25.83,30.69c-0.01,1.58-0.49,2.87-1.08,2.86c-0.58,0-1.05-1.29-1.03-2.88c0.01-1.58,0.49-2.87,1.08-2.86
		C25.38,27.82,25.84,29.11,25.83,30.69z"/>
</g>
<g>
	<path class="st17" d="M24.06,30.2c0.01-0.98,0.24-1.84,0.59-2.36c-0.52,0.18-0.92,1.38-0.93,2.83c-0.01,1.58,0.45,2.87,1.03,2.88
		c0.22,0,0.42-0.18,0.59-0.48C24.62,33.04,24.05,31.77,24.06,30.2z"/>
</g>
<g class="st23">
	
		<ellipse transform="matrix(0.2861 -0.9582 0.9582 0.2861 -13.1249 47.1312)" class="st13" cx="25.07" cy="32.37" rx="0.91" ry="0.42"/>
</g>
<g class="st23">
	
		<ellipse transform="matrix(0.3453 -0.9385 0.9385 0.3453 -10.7653 41.6018)" class="st13" cx="24.43" cy="28.52" rx="0.54" ry="0.25"/>
</g>
<g class="st14">
	<ellipse transform="matrix(0.9974 -0.072 0.072 0.9974 -2.8543 1.9496)" class="st2" cx="25.62" cy="40.57" rx="1.7" ry="3.71"/>
</g>
<g>
	
		<linearGradient id="SVGID_13_" gradientUnits="userSpaceOnUse" x1="16.4295" y1="45.208" x2="15.1722" y2="38.0777" gradientTransform="matrix(0.9896 -0.1441 0.1441 0.9896 3.5431 1.3237)">
		<stop  offset="0" style="stop-color:#942972"/>
		<stop  offset="0.7232" style="stop-color:#A45486"/>
	</linearGradient>
	<path class="st24" d="M26.87,40.13c0.15,2.04-0.49,3.75-1.43,3.82s-1.81-1.53-1.96-3.58c-0.15-2.04,0.49-3.75,1.43-3.82
		C25.85,36.49,26.73,38.09,26.87,40.13z"/>
</g>
<g>
	
		<linearGradient id="SVGID_14_" gradientUnits="userSpaceOnUse" x1="15.432" y1="44.4922" x2="15.7323" y2="38.7617" gradientTransform="matrix(0.9896 -0.1441 0.1441 0.9896 3.5431 1.3237)">
		<stop  offset="0" style="stop-color:#00ABE6"/>
		<stop  offset="0.9658" style="stop-color:#90CEF1"/>
	</linearGradient>
	<path class="st25" d="M26.01,40.19c0.11,1.58-0.26,2.9-0.85,2.94s-1.14-1.21-1.26-2.79c-0.11-1.58,0.26-2.9,0.85-2.94
		C25.34,37.37,25.9,38.61,26.01,40.19z"/>
</g>
<g>
	<path class="st17" d="M24.22,39.84c-0.07-0.98,0.09-1.85,0.4-2.39c-0.5,0.22-0.81,1.45-0.71,2.9c0.11,1.58,0.68,2.83,1.26,2.79
		c0.22-0.02,0.4-0.21,0.55-0.53C25,42.63,24.33,41.4,24.22,39.84z"/>
</g>
<g class="st14">
	<ellipse transform="matrix(0.9974 -0.0725 0.0725 0.9974 -1.4512 2.9536)" class="st2" cx="39.97" cy="21.47" rx="1.7" ry="3.71"/>
</g>
<g>
	
		<linearGradient id="SVGID_15_" gradientUnits="userSpaceOnUse" x1="27.1437" y1="24.6612" x2="25.8864" y2="17.5309" gradientTransform="matrix(-1 0 0 1 66.1379 0)">
		<stop  offset="0" style="stop-color:#942972"/>
		<stop  offset="0.7232" style="stop-color:#A45486"/>
	</linearGradient>
	<path class="st26" d="M37.93,21.22c0.15,2.04,1.03,3.64,1.96,3.58c0.94-0.07,1.57-1.78,1.43-3.82s-1.03-3.64-1.96-3.58
		S37.78,19.18,37.93,21.22z"/>
</g>
<g>
	
		<linearGradient id="SVGID_16_" gradientUnits="userSpaceOnUse" x1="26.1462" y1="23.9455" x2="26.4465" y2="18.2149" gradientTransform="matrix(-1 0 0 1 66.1379 0)">
		<stop  offset="0" style="stop-color:#00ABE6"/>
		<stop  offset="0.9658" style="stop-color:#90CEF1"/>
	</linearGradient>
	<path class="st27" d="M38.79,21.16c0.11,1.58,0.68,2.83,1.26,2.79c0.58-0.04,0.96-1.36,0.84-2.94s-0.68-2.83-1.26-2.79
		C39.05,18.26,38.67,19.58,38.79,21.16z"/>
</g>
<g>
	<path class="st17" d="M40.52,20.55c-0.07-0.98-0.36-1.82-0.74-2.31c0.53,0.15,1.01,1.32,1.12,2.77c0.11,1.58-0.26,2.9-0.84,2.94
		c-0.22,0.02-0.43-0.15-0.62-0.44C40.14,23.42,40.63,22.11,40.52,20.55z"/>
</g>
<g class="st14">
	
		<ellipse transform="matrix(1 -7.154267e-03 7.154267e-03 1 -0.221 0.2893)" class="st2" cx="40.33" cy="31.04" rx="1.7" ry="3.71"/>
</g>
<g>
	
		<linearGradient id="SVGID_17_" gradientUnits="userSpaceOnUse" x1="23.2609" y1="35.5211" x2="22.0037" y2="28.3908" gradientTransform="matrix(-0.9979 -0.0653 -0.0653 0.9979 64.6807 0.2799)">
		<stop  offset="0" style="stop-color:#942972"/>
		<stop  offset="0.7232" style="stop-color:#A45486"/>
	</linearGradient>
	<path class="st28" d="M38.31,30.7c0.01,2.05,0.79,3.7,1.72,3.7s1.69-1.67,1.67-3.72s-0.79-3.7-1.72-3.7
		C39.04,26.99,38.3,28.65,38.31,30.7z"/>
</g>
<g>
	
		<linearGradient id="SVGID_18_" gradientUnits="userSpaceOnUse" x1="22.2634" y1="34.8054" x2="22.5637" y2="29.0748" gradientTransform="matrix(-0.9979 -0.0653 -0.0653 0.9979 64.6807 0.2799)">
		<stop  offset="0" style="stop-color:#00ABE6"/>
		<stop  offset="0.9658" style="stop-color:#90CEF1"/>
	</linearGradient>
	<path class="st29" d="M39.17,30.69c0.01,1.58,0.49,2.87,1.08,2.86s1.05-1.29,1.03-2.88c-0.01-1.58-0.49-2.87-1.08-2.86
		C39.62,27.82,39.16,29.11,39.17,30.69z"/>
</g>
<g>
	<path class="st17" d="M40.94,30.2c-0.01-0.98-0.24-1.84-0.59-2.36c0.52,0.18,0.92,1.38,0.93,2.83c0.01,1.58-0.45,2.87-1.03,2.88
		c-0.22,0-0.42-0.18-0.59-0.48C40.38,33.04,40.95,31.77,40.94,30.2z"/>
</g>
<g class="st14">
	<ellipse transform="matrix(0.072 -0.9974 0.9974 0.072 -3.2364 77.6627)" class="st2" cx="40.12" cy="40.57" rx="3.71" ry="1.7"/>
</g>
<g>
	
		<linearGradient id="SVGID_19_" gradientUnits="userSpaceOnUse" x1="17.5555" y1="45.372" x2="16.2982" y2="38.2417" gradientTransform="matrix(-0.9896 -0.1441 -0.1441 0.9896 62.5948 1.3237)">
		<stop  offset="0" style="stop-color:#942972"/>
		<stop  offset="0.7232" style="stop-color:#A45486"/>
	</linearGradient>
	<path class="st30" d="M38.13,40.13c-0.15,2.04,0.49,3.75,1.43,3.82s1.81-1.53,1.96-3.58s-0.49-3.75-1.43-3.82
		S38.27,38.09,38.13,40.13z"/>
</g>
<g>
	
		<linearGradient id="SVGID_20_" gradientUnits="userSpaceOnUse" x1="16.558" y1="44.6562" x2="16.8583" y2="38.9256" gradientTransform="matrix(-0.9896 -0.1441 -0.1441 0.9896 62.5948 1.3237)">
		<stop  offset="0" style="stop-color:#00ABE6"/>
		<stop  offset="0.9658" style="stop-color:#90CEF1"/>
	</linearGradient>
	<path class="st31" d="M38.99,40.19c-0.11,1.58,0.26,2.9,0.85,2.94s1.14-1.21,1.26-2.79c0.11-1.58-0.26-2.9-0.85-2.94
		S39.1,38.61,38.99,40.19z"/>
</g>
<g>
	<path class="st17" d="M40.78,39.84c0.07-0.98-0.09-1.85-0.4-2.39c0.5,0.22,0.81,1.45,0.71,2.9c-0.11,1.58-0.68,2.83-1.26,2.79
		c-0.22-0.02-0.4-0.21-0.55-0.53C40,42.63,40.67,41.4,40.78,39.84z"/>
</g>
<g class="st32">
	
		<ellipse transform="matrix(0.2552 -0.9669 0.9669 0.2552 -10.726 70.274)" class="st13" cx="40.25" cy="42.1" rx="0.73" ry="0.32"/>
</g>
<g class="st33">
	
		<ellipse transform="matrix(0.3496 -0.9369 0.9369 0.3496 -4.9966 38.5686)" class="st13" cx="25.28" cy="22.88" rx="0.91" ry="0.42"/>
</g>
<g class="st33">
	
		<ellipse transform="matrix(0.4074 -0.9133 0.9133 0.4074 -2.5835 34.0036)" class="st13" cx="24.91" cy="18.99" rx="0.54" ry="0.25"/>
</g>
<g class="st32">
	
		<ellipse transform="matrix(0.2169 -0.9762 0.9762 0.2169 -21.2633 57.6739)" class="st13" cx="25.32" cy="42.09" rx="0.91" ry="0.42"/>
</g>
<g class="st32">
	
		<ellipse transform="matrix(0.2774 -0.9608 0.9608 0.2774 -19.1467 51.1205)" class="st13" cx="24.41" cy="38.29" rx="0.54" ry="0.25"/>
</g>
<g class="st32">
	
		<ellipse transform="matrix(0.3617 -0.9323 0.9323 0.3617 -4.4168 58.6219)" class="st13" cx="40.6" cy="32.54" rx="0.73" ry="0.32"/>
</g>
<g class="st32">
	<ellipse transform="matrix(0.23 -0.9732 0.9732 0.23 8.6417 56.9286)" class="st13" cx="40.3" cy="23" rx="0.73" ry="0.32"/>
</g>
<g class="st18">
	<circle class="st13" cx="37.21" cy="10.25" r="0.54"/>
</g>
<g>
	<path class="st2" d="M42.83,36.44c0.02,1.14,0,2.27-0.01,3.41c-0.04,1.14-0.08,2.27-0.15,3.41c-0.12,2.27-0.35,4.54-0.61,6.8
		c-0.3,2.26-0.64,4.51-1.1,6.74c-0.47,2.23-1,4.45-1.77,6.59c0.24-1.11,0.47-2.22,0.66-3.34c0.22-1.11,0.4-2.23,0.57-3.35
		c0.36-2.24,0.68-4.48,0.95-6.73c0.31-2.24,0.52-4.5,0.77-6.75L42.83,36.44z"/>
</g>
<linearGradient id="SVGID_21_" gradientUnits="userSpaceOnUse" x1="28.7587" y1="1.6049" x2="36.2413" y2="1.6049">
	<stop  offset="0" style="stop-color:#A45486"/>
	<stop  offset="0.9658" style="stop-color:#942972"/>
</linearGradient>
<path class="st34" d="M28.76,2.58c1.15,0.4,2.41,0.63,3.74,0.63V0C31.88,0,30.43,0.8,28.76,2.58z"/>
<path class="st35" d="M36.24,2.58C34.57,0.8,33.12,0,32.5,0h0v3.21h0C33.83,3.21,35.1,2.98,36.24,2.58z"/>
<linearGradient id="SVGID_22_" gradientUnits="userSpaceOnUse" x1="37.5596" y1="71.012" x2="26.2341" y2="39.8955">
	<stop  offset="0.266" style="stop-color:#942972"/>
	<stop  offset="0.2791" style="stop-color:#952B73"/>
	<stop  offset="0.561" style="stop-color:#9D437D"/>
	<stop  offset="0.8105" style="stop-color:#A25083"/>
	<stop  offset="1" style="stop-color:#A45486"/>
</linearGradient>
<path class="st36" d="M32.21,37.87c-0.5,2.21-1.46,7.31-1.46,13.52v20.28c0,0.46,0.44,0.84,0.98,0.84h0.76V37.63
	C32.37,37.63,32.25,37.71,32.21,37.87z"/>
<path class="st35" d="M34.25,71.66V51.39c0-6.21-0.96-11.31-1.46-13.52c-0.03-0.15-0.16-0.23-0.29-0.23V72.5h0.76
	C33.81,72.5,34.25,72.13,34.25,71.66z"/>
<g>
	
		<linearGradient id="SVGID_23_" gradientUnits="userSpaceOnUse" x1="-379.8672" y1="100" x2="-379.8672" y2="75.1433" gradientTransform="matrix(1 0 0 1 417.8126 0)">
		<stop  offset="0" style="stop-color:#F7941D"/>
		<stop  offset="0.1358" style="stop-color:#F99E1C"/>
		<stop  offset="1" style="stop-color:#FFDD00"/>
	</linearGradient>
	<path class="st37" d="M37.93,75.14c-2.27,0.21-5.57,2.69-5.37,10.1c0.28-0.76,0.32-1.2,0.84-1.81c-0.65,4.08,0.31,6.1,1.53,8.67
		c0.16-0.68,0.22-1.26,0.61-1.67c-0.07,3.17,1.17,6.23,2.38,9.48l0,0.08c0-0.01,0.01-0.03,0.01-0.04c0,0.01,0.01,0.03,0.01,0.04
		l0-0.08c1.22-3.3,2.58-8.16,2.51-11.32c0.39,0.41,0.64,2,0.8,2.68c1.21-2.57,1.88-5.42,1.23-9.51c0.24,0.23,0.64,0.62,0.84,1.3
		C43.63,77.31,40.2,75.35,37.93,75.14z"/>
	
		<linearGradient id="SVGID_24_" gradientUnits="userSpaceOnUse" x1="429.8694" y1="91.2909" x2="429.8694" y2="76.0512" gradientTransform="matrix(-1 0 0 1 467.8126 0)">
		<stop  offset="0" style="stop-color:#FFDD00"/>
		<stop  offset="0.6401" style="stop-color:#FFF0B4"/>
		<stop  offset="1" style="stop-color:#FFFFFF"/>
	</linearGradient>
	<path class="st38" d="M34.43,81.22c-0.19-3.53,2.1-5.04,3.51-5.17c1.41,0.13,3.7,2.21,3.51,5.74c-0.26-0.47-0.31-0.83-0.68-1.11
		c0.41,2.5-0.28,4.81-1.04,6.38c-0.1-0.41-0.19-0.77-0.43-1.02c0.04,1.94-0.6,3.2-1.35,5.2l0,0.05c0-0.01-0.01-0.02-0.01-0.02
		c0,0.01-0.01,0.02-0.01,0.02l0-0.05c-0.33-0.87-0.7-2.25-0.67-3.73c-0.26,0.18-0.47,1.31-0.51,1.18c-0.39-1.33-0.66-3.54-0.64-4.55
		c-0.24,0.25-0.4,0.61-0.5,1.02c-0.76-1.57-0.91-2.55-0.51-5.06C34.74,80.39,34.7,80.74,34.43,81.22z"/>
</g>
</svg>
