<?xml version="1.0" encoding="utf-8"?>
<!-- Generator: Adobe Illustrator 25.0.0, SVG Export Plug-In . SVG Version: 6.00 Build 0)  -->
<svg version="1.1" id="Layer_1" xmlns="http://www.w3.org/2000/svg" xmlns:xlink="http://www.w3.org/1999/xlink" x="0px" y="0px"
	 viewBox="0 0 65 142.95" style="enable-background:new 0 0 65 142.95;" xml:space="preserve">
<style type="text/css">
	.st0{fill:url(#SVGID_1_);}
	.st1{fill:url(#SVGID_2_);}
	.st2{fill:url(#SVGID_3_);}
	.st3{fill:url(#SVGID_4_);}
	.st4{fill:#010101;}
	.st5{fill:url(#SVGID_5_);}
	.st6{fill:url(#SVGID_6_);}
	.st7{fill:url(#SVGID_7_);}
	.st8{fill:url(#SVGID_8_);}
	.st9{fill:url(#SVGID_9_);}
	.st10{fill:url(#SVGID_10_);}
	.st11{fill:url(#SVGID_11_);}
	.st12{fill:url(#SVGID_12_);}
	.st13{fill:#9E9DB0;}
	.st14{fill:url(#SVGID_13_);}
	.st15{opacity:0.3;fill:#231F20;}
	.st16{fill:#F7941D;}
	.st17{fill:#D7D7E1;}
	.st18{fill:url(#SVGID_14_);}
	.st19{opacity:0.2;}
	.st20{fill:url(#SVGID_15_);}
	.st21{fill:#231F20;}
	.st22{fill:url(#SVGID_16_);}
	.st23{fill:#BAB9C8;}
	.st24{fill:#FFFFFF;}
	.st25{opacity:0.3;}
	.st26{fill:url(#SVGID_17_);}
	.st27{fill:url(#SVGID_18_);}
	.st28{fill:#00ABE6;}
	.st29{opacity:0.5;}
	.st30{fill:url(#SVGID_19_);}
	.st31{fill:url(#SVGID_20_);}
	.st32{fill:url(#SVGID_21_);}
	.st33{fill:url(#SVGID_22_);}
	.st34{opacity:0.6;}
	.st35{fill:url(#SVGID_23_);}
	.st36{fill:url(#SVGID_24_);}
	.st37{fill:url(#SVGID_25_);}
	.st38{fill:url(#SVGID_26_);}
	.st39{fill:url(#SVGID_27_);}
	.st40{fill:url(#SVGID_28_);}
	.st41{fill:url(#SVGID_29_);}
	.st42{fill:url(#SVGID_30_);}
	.st43{opacity:0.4;}
	.st44{opacity:0.9;}
	.st45{fill:url(#SVGID_31_);}
	.st46{fill:#942972;}
	.st47{fill:url(#SVGID_32_);}
	.st48{fill:url(#SVGID_33_);}
	.st49{fill:url(#SVGID_34_);}
	.st50{fill:url(#SVGID_35_);}
	.st51{fill:url(#SVGID_36_);}
	.st52{fill:url(#SVGID_37_);}
	.st53{fill:url(#SVGID_38_);}
	.st54{fill:url(#SVGID_39_);}
	.st55{fill:url(#SVGID_40_);}
	.st56{fill:url(#SVGID_41_);}
	.st57{fill:url(#SVGID_42_);}
	.st58{fill:url(#SVGID_43_);}
	.st59{fill:url(#SVGID_44_);}
	.st60{fill:url(#SVGID_45_);}
	.st61{fill:url(#SVGID_46_);}
	.st62{fill:url(#SVGID_47_);}
	.st63{fill:url(#SVGID_48_);}
	.st64{fill:none;stroke:#9E9DB0;stroke-width:0.5;stroke-miterlimit:10;}
</style>
<g>
	
		<linearGradient id="SVGID_1_" gradientUnits="userSpaceOnUse" x1="18.9129" y1="151.99" x2="11.6483" y2="139.4074" gradientTransform="matrix(-1 0 0 1 47.7806 -14.6396)">
		<stop  offset="0" style="stop-color:#9E9DB0"/>
		<stop  offset="1" style="stop-color:#BAB9C8"/>
	</linearGradient>
	<polygon class="st0" points="31.53,138.89 33.47,138.89 33.47,123.23 31.53,123.23 	"/>
	
		<linearGradient id="SVGID_2_" gradientUnits="userSpaceOnUse" x1="18.5413" y1="142.6947" x2="12.1241" y2="131.5797" gradientTransform="matrix(-1 0 0 1.3316 47.7806 -58.136)">
		<stop  offset="0" style="stop-color:#BAB9C8"/>
		<stop  offset="1" style="stop-color:#D7D7E1"/>
	</linearGradient>
	<path class="st1" d="M31.9,133.62h1.21c0.62,0,1.13-0.5,1.13-1.13v-16.52h-3.46v16.52C30.77,133.11,31.27,133.62,31.9,133.62z"/>
	
		<linearGradient id="SVGID_3_" gradientUnits="userSpaceOnUse" x1="16.2625" y1="141.6808" x2="13.6709" y2="137.1922" gradientTransform="matrix(-1 0 0 1 47.4667 0)">
		<stop  offset="0" style="stop-color:#BAB9C8"/>
		<stop  offset="1" style="stop-color:#D7D7E1"/>
	</linearGradient>
	<circle class="st2" cx="32.5" cy="139.44" r="2.59"/>
	
		<linearGradient id="SVGID_4_" gradientUnits="userSpaceOnUse" x1="14.8487" y1="143.0243" x2="15.1764" y2="139.2793" gradientTransform="matrix(-1 0 0 1 47.4667 0)">
		<stop  offset="0" style="stop-color:#595A5C"/>
		<stop  offset="0.2302" style="stop-color:#706E74"/>
		<stop  offset="0.4602" style="stop-color:#84818C"/>
		<stop  offset="0.6719" style="stop-color:#92909E"/>
		<stop  offset="0.8584" style="stop-color:#9B9AAA"/>
		<stop  offset="1" style="stop-color:#9E9DB0"/>
	</linearGradient>
	<path class="st3" d="M27.5,142.6h10v-1.79c0-0.67-0.54-1.21-1.21-1.21h-7.58c-0.67,0-1.21,0.54-1.21,1.21V142.6z"/>
	<circle class="st4" cx="32.5" cy="139.44" r="1.12"/>
</g>
<g>
	
		<linearGradient id="SVGID_5_" gradientUnits="userSpaceOnUse" x1="14.6475" y1="137.2782" x2="7.383" y2="124.6957" gradientTransform="matrix(0.9659 0.2588 -0.2588 0.9659 36.5984 0.0522)">
		<stop  offset="0" style="stop-color:#9E9DB0"/>
		<stop  offset="1" style="stop-color:#BAB9C8"/>
	</linearGradient>
	<polygon class="st5" points="12.25,137.24 10.37,136.73 14.42,121.62 16.3,122.12 	"/>
	
		<linearGradient id="SVGID_6_" gradientUnits="userSpaceOnUse" x1="14.276" y1="131.6461" x2="7.8587" y2="120.5312" gradientTransform="matrix(0.9659 0.2588 -0.3446 1.2862 47.8561 -41.9621)">
		<stop  offset="0" style="stop-color:#BAB9C8"/>
		<stop  offset="1" style="stop-color:#D7D7E1"/>
	</linearGradient>
	<path class="st6" d="M13.26,132.05l-1.17-0.31c-0.6-0.16-0.96-0.78-0.8-1.38l4.28-15.96l3.34,0.9l-4.28,15.96
		C14.48,131.86,13.86,132.22,13.26,132.05z"/>
	<linearGradient id="SVGID_7_" gradientUnits="userSpaceOnUse" x1="12.3375" y1="140.2635" x2="9.746" y2="135.7748">
		<stop  offset="0" style="stop-color:#BAB9C8"/>
		<stop  offset="1" style="stop-color:#D7D7E1"/>
	</linearGradient>
	<circle class="st7" cx="11.04" cy="138.02" r="2.59"/>
	<linearGradient id="SVGID_8_" gradientUnits="userSpaceOnUse" x1="11.0015" y1="141.607" x2="10.6738" y2="137.862">
		<stop  offset="0" style="stop-color:#595A5C"/>
		<stop  offset="0.2302" style="stop-color:#706E74"/>
		<stop  offset="0.4602" style="stop-color:#84818C"/>
		<stop  offset="0.6719" style="stop-color:#92909E"/>
		<stop  offset="0.8584" style="stop-color:#9B9AAA"/>
		<stop  offset="1" style="stop-color:#9E9DB0"/>
	</linearGradient>
	<path class="st8" d="M15.88,141.18h-10v-1.79c0-0.67,0.54-1.21,1.21-1.21h7.58c0.67,0,1.21,0.54,1.21,1.21V141.18z"/>
	<circle class="st4" cx="11.04" cy="138.02" r="1.12"/>
</g>
<g>
	
		<linearGradient id="SVGID_9_" gradientUnits="userSpaceOnUse" x1="-2.2883" y1="141.8162" x2="-9.5529" y2="129.2336" gradientTransform="matrix(-0.9659 0.2588 0.2588 0.9659 10.8683 0.0522)">
		<stop  offset="0" style="stop-color:#9E9DB0"/>
		<stop  offset="1" style="stop-color:#BAB9C8"/>
	</linearGradient>
	<polygon class="st9" points="52.75,137.24 54.63,136.73 50.58,121.62 48.7,122.12 	"/>
	
		<linearGradient id="SVGID_10_" gradientUnits="userSpaceOnUse" x1="-2.6599" y1="135.0542" x2="-9.0771" y2="123.9392" gradientTransform="matrix(-0.9659 0.2588 0.3446 1.2862 -0.3894 -41.9621)">
		<stop  offset="0" style="stop-color:#BAB9C8"/>
		<stop  offset="1" style="stop-color:#D7D7E1"/>
	</linearGradient>
	<path class="st10" d="M51.74,132.05l1.17-0.31c0.6-0.16,0.96-0.78,0.8-1.38l-4.28-15.96l-3.34,0.9l4.28,15.96
		C50.52,131.86,51.14,132.22,51.74,132.05z"/>
	
		<linearGradient id="SVGID_11_" gradientUnits="userSpaceOnUse" x1="-5.1958" y1="140.2635" x2="-7.7873" y2="135.7748" gradientTransform="matrix(-1 0 0 1 47.4667 0)">
		<stop  offset="0" style="stop-color:#BAB9C8"/>
		<stop  offset="1" style="stop-color:#D7D7E1"/>
	</linearGradient>
	<circle class="st11" cx="53.96" cy="138.02" r="2.59"/>
	
		<linearGradient id="SVGID_12_" gradientUnits="userSpaceOnUse" x1="-6.7678" y1="141.607" x2="-6.4401" y2="137.862" gradientTransform="matrix(-1 0 0 1 47.4667 0)">
		<stop  offset="0" style="stop-color:#595A5C"/>
		<stop  offset="0.2302" style="stop-color:#706E74"/>
		<stop  offset="0.4602" style="stop-color:#84818C"/>
		<stop  offset="0.6719" style="stop-color:#92909E"/>
		<stop  offset="0.8584" style="stop-color:#9B9AAA"/>
		<stop  offset="1" style="stop-color:#9E9DB0"/>
	</linearGradient>
	<path class="st12" d="M49.12,141.18h10v-1.79c0-0.67-0.54-1.21-1.21-1.21h-7.58c-0.67,0-1.21,0.54-1.21,1.21V141.18z"/>
	<circle class="st4" cx="53.96" cy="138.02" r="1.12"/>
</g>
<polygon class="st13" points="63.56,124.05 63.07,127.95 38.2,131.9 39,126.04 "/>
<linearGradient id="SVGID_13_" gradientUnits="userSpaceOnUse" x1="60.1306" y1="107.9732" x2="45.0152" y2="104.8274">
	<stop  offset="0" style="stop-color:#A45486"/>
	<stop  offset="0.9658" style="stop-color:#942972"/>
</linearGradient>
<path class="st14" d="M43.46,80.53c1.3,5.88,3.35,11.22,4.73,15.29c2.37,6.99,15.9,15.6,15.9,27.59c0,0.58,0,1.45,0,1.45
	l-25.69,2.58c0.44-5.72,5.06-11.42,5.06-20.72C43.46,98.59,44.26,87.79,43.46,80.53z"/>
<polygon class="st15" points="42.53,123 42.05,127.06 42.83,126.98 42.59,131.2 38.2,131.9 40.12,122.9 "/>
<path class="st16" d="M52.91,125.97l3.46-0.35v-18.68c-1.18-1.41-2.36-2.76-3.46-4.06V125.97z M50.82,126.18l1.04-0.1v-24.45
	c-0.36-0.44-0.71-0.88-1.04-1.31V126.18z M57.43,108.23v17.28l1.04-0.1v-15.85C58.12,109.12,57.78,108.67,57.43,108.23z"/>
<g>
	<polygon class="st17" points="64.09,124.85 40.39,127.38 40.31,126.42 	"/>
</g>
<polygon class="st13" points="1.44,124.05 1.93,127.95 26.8,131.9 26,126.04 "/>
<linearGradient id="SVGID_14_" gradientUnits="userSpaceOnUse" x1="26.7688" y1="108.1252" x2="3.5203" y2="99.9921">
	<stop  offset="0" style="stop-color:#942972"/>
	<stop  offset="0.0179" style="stop-color:#952B73"/>
	<stop  offset="0.402" style="stop-color:#9D437D"/>
	<stop  offset="0.7419" style="stop-color:#A25083"/>
	<stop  offset="1" style="stop-color:#A45486"/>
</linearGradient>
<path class="st18" d="M21.54,80.53c-1.3,5.88-3.35,11.22-4.73,15.29c-2.37,6.99-15.9,15.6-15.9,27.59c0,0.58,0,1.45,0,1.45
	l25.69,2.58c-0.44-5.72-5.06-11.42-5.06-20.72C21.54,98.59,20.74,87.79,21.54,80.53z"/>
<polygon class="st15" points="22.47,123 22.95,127.06 22.17,126.98 22.41,131.2 26.8,131.9 24.88,122.9 "/>
<path class="st16" d="M6.54,125.41l1.04,0.1v-17.28c-0.35,0.44-0.7,0.88-1.04,1.33V125.41z M8.63,125.62l3.46,0.35v-23.09
	c-1.1,1.3-2.29,2.65-3.46,4.06V125.62z M13.14,101.62v24.45l1.04,0.1v-25.87C13.85,100.74,13.5,101.18,13.14,101.62z"/>
<g>
	<polygon class="st17" points="0.91,124.85 24.69,126.42 24.61,127.38 	"/>
</g>
<g class="st19">
	<path class="st4" d="M21.54,106.71c0-8.11-0.8-18.91,0-26.18c-0.63,2.84-1.43,5.56-2.25,8.07c-0.69,13.07,1.08,28.14,1.54,33.53
		c0.04,0.45,0.4,0.82,0.88,0.9c0.92,0.15,2.58,0.39,4.64,0.59C24.94,118.95,21.54,114.08,21.54,106.71z"/>
	<path class="st4" d="M38.4,123.6c2.07-0.2,3.72-0.44,4.64-0.59c0.48-0.08,0.84-0.45,0.88-0.9c0.46-5.38,2.47-20.45,1.78-33.53
		c-0.82-2.51-1.62-5.22-2.25-8.07c0.8,7.27,0,18.07,0,26.18C43.46,114.08,39.82,118.95,38.4,123.6z"/>
</g>
<linearGradient id="SVGID_15_" gradientUnits="userSpaceOnUse" x1="27.4641" y1="134.4887" x2="27.4641" y2="119.0928">
	<stop  offset="0" style="stop-color:#595A5C"/>
	<stop  offset="0.1375" style="stop-color:#4B4A4C"/>
	<stop  offset="0.333" style="stop-color:#3A3839"/>
	<stop  offset="0.5142" style="stop-color:#2E2B2C"/>
	<stop  offset="0.674" style="stop-color:#262223"/>
	<stop  offset="0.7952" style="stop-color:#231F20"/>
</linearGradient>
<path class="st20" d="M22.52,120.23l2.04,12.81c0.06,0.38,0.33,0.68,0.7,0.79c0.81,0.23,2.46,0.59,5.09,0.66
	c0.52,0.01,0.96-0.38,1-0.9c0.21-2.69,0.84-10.57,1.07-13.44c0.05-0.57-0.41-1.06-0.98-1.06h-7.95
	C22.89,119.09,22.43,119.63,22.52,120.23z"/>
<g>
	<g>
		<polygon class="st21" points="25.48,122.11 26.03,132.86 24.45,122.22 		"/>
	</g>
	<g>
		<polygon class="st21" points="30.95,122.66 29.77,133.24 29.91,122.59 		"/>
	</g>
	<g>
		<polygon class="st21" points="28.32,122.07 27.86,133.1 27.28,122.07 		"/>
	</g>
</g>
<linearGradient id="SVGID_16_" gradientUnits="userSpaceOnUse" x1="37.5359" y1="134.4887" x2="37.5359" y2="119.0928">
	<stop  offset="0" style="stop-color:#595A5C"/>
	<stop  offset="0.1375" style="stop-color:#4B4A4C"/>
	<stop  offset="0.333" style="stop-color:#3A3839"/>
	<stop  offset="0.5142" style="stop-color:#2E2B2C"/>
	<stop  offset="0.674" style="stop-color:#262223"/>
	<stop  offset="0.7952" style="stop-color:#231F20"/>
</linearGradient>
<path class="st22" d="M42.48,120.23l-2.04,12.81c-0.06,0.38-0.33,0.68-0.7,0.79c-0.81,0.23-2.46,0.59-5.09,0.66
	c-0.52,0.01-0.96-0.38-1-0.9c-0.21-2.69-0.84-10.57-1.07-13.44c-0.05-0.57,0.41-1.06,0.98-1.06h7.95
	C42.11,119.09,42.57,119.63,42.48,120.23z"/>
<g>
	<g>
		<polygon class="st21" points="40.55,122.22 38.97,132.86 39.52,122.11 		"/>
	</g>
	<g>
		<polygon class="st21" points="35.09,122.59 35.23,133.24 34.05,122.66 		"/>
	</g>
	<g>
		<polygon class="st21" points="37.72,122.07 37.14,133.1 36.68,122.07 		"/>
	</g>
</g>
<path class="st17" d="M21.54,80.53c-1.79,14.03-0.24,35.28,0.26,41.84c0.03,0.45,0.35,0.82,0.78,0.9c0.68,0.12,1.81,0.31,3.23,0.49
	c0.92,3.77,3.53,6.49,6.6,6.49c0.03,0,0.06-0.01,0.1-0.01V60.36C30.87,60.36,23.41,65.9,21.54,80.53z"/>
<path class="st23" d="M43.46,80.53C41.59,65.9,34.13,60.36,32.5,60.36v50.87h0v19.01c0.03,0,0.06,0.01,0.1,0.01
	c3.07,0,5.68-2.72,6.6-6.49c1.42-0.17,2.55-0.36,3.23-0.49c0.42-0.08,0.74-0.45,0.78-0.9C43.69,115.81,45.25,94.56,43.46,80.53z"/>
<g>
	<polygon class="st24" points="32.5,61.96 33.02,124.65 31.98,124.65 	"/>
</g>
<g class="st25">
	<path class="st13" d="M37.04,67.82c-1.1-0.69-2.06-0.95-4.05-0.95s-2.81,0.29-4.05,0.95c-1.68,0.9-2.41,2.47-2.41,3.67
		c0,1.84,1.07,1.64,2.59,1.02c1.22-0.5,2.25-0.84,3.87-0.84c1.62,0,2.65,0.34,3.87,0.84c1.52,0.63,2.59,0.82,2.59-1.02
		C39.46,70.3,38.67,68.84,37.04,67.82z"/>
</g>
<g>
	<linearGradient id="SVGID_17_" gradientUnits="userSpaceOnUse" x1="33.6353" y1="74.0538" x2="30.809" y2="66.2884">
		<stop  offset="0" style="stop-color:#942972"/>
		<stop  offset="0.9658" style="stop-color:#A45486"/>
	</linearGradient>
	<path class="st26" d="M36.55,67.27c-1.1-0.69-2.06-0.95-4.05-0.95s-2.81,0.29-4.05,0.95c-1.68,0.9-2.41,2.47-2.41,3.67
		c0,1.84,1.07,1.64,2.59,1.02c1.22-0.5,2.25-0.84,3.87-0.84c1.62,0,2.65,0.34,3.87,0.84c1.52,0.63,2.59,0.82,2.59-1.02
		C38.96,69.74,38.18,68.29,36.55,67.27z"/>
</g>
<g>
	<linearGradient id="SVGID_18_" gradientUnits="userSpaceOnUse" x1="34.2399" y1="73.2803" x2="30.4444" y2="66.7063">
		<stop  offset="0" style="stop-color:#00ABE6"/>
		<stop  offset="0.9658" style="stop-color:#90CEF1"/>
	</linearGradient>
	<path class="st27" d="M35.98,67.55c-0.95-0.52-1.77-0.72-3.48-0.72c-1.71,0-2.42,0.22-3.48,0.72c-1.44,0.68-2.07,1.86-2.07,2.77
		c0,1.38,0.92,1.24,2.23,0.77c1.05-0.38,1.93-0.63,3.33-0.63c1.39,0,2.28,0.25,3.33,0.63c1.31,0.47,2.23,0.62,2.23-0.77
		C38.05,69.41,37.38,68.31,35.98,67.55z"/>
</g>
<g>
	<path class="st28" d="M29.02,68.22c1.06-0.49,1.77-0.69,3.48-0.69c1.71,0,2.53,0.19,3.48,0.69c1.27,0.67,1.93,1.6,2.05,2.42
		c0.01-0.1,0.02-0.21,0.02-0.33c0-0.9-0.68-2-2.07-2.77c-0.95-0.52-1.77-0.72-3.48-0.72c-1.71,0-2.42,0.22-3.48,0.72
		c-1.44,0.68-2.07,1.86-2.07,2.77c0,0.12,0.01,0.23,0.02,0.32C27.08,69.81,27.72,68.82,29.02,68.22z"/>
</g>
<g class="st29">
	<circle class="st24" cx="29.31" cy="68.38" r="0.74"/>
</g>
<g class="st29">
	<circle class="st24" cx="28.13" cy="69" r="0.44"/>
</g>
<g class="st25">
	
		<ellipse transform="matrix(0.0725 -0.9974 0.9974 0.0725 -57.7138 101.5951)" class="st13" cx="25.77" cy="81.83" rx="3.71" ry="1.7"/>
</g>
<g>
	<linearGradient id="SVGID_19_" gradientUnits="userSpaceOnUse" x1="26.0058" y1="85.0174" x2="24.7486" y2="77.8871">
		<stop  offset="0" style="stop-color:#942972"/>
		<stop  offset="0.7232" style="stop-color:#A45486"/>
	</linearGradient>
	<path class="st30" d="M27.07,81.58c-0.15,2.04-1.03,3.64-1.96,3.58c-0.94-0.07-1.57-1.78-1.43-3.82c0.15-2.04,1.03-3.64,1.96-3.58
		C26.58,77.82,27.22,79.53,27.07,81.58z"/>
</g>
<g>
	<linearGradient id="SVGID_20_" gradientUnits="userSpaceOnUse" x1="25.0083" y1="84.3017" x2="25.3086" y2="78.5711">
		<stop  offset="0" style="stop-color:#00ABE6"/>
		<stop  offset="0.9658" style="stop-color:#90CEF1"/>
	</linearGradient>
	<path class="st31" d="M26.21,81.51c-0.11,1.58-0.68,2.83-1.26,2.79c-0.58-0.04-0.96-1.36-0.84-2.94c0.11-1.58,0.68-2.83,1.26-2.79
		C25.95,78.62,26.33,79.93,26.21,81.51z"/>
</g>
<g>
	<path class="st28" d="M24.48,80.9c0.07-0.98,0.36-1.82,0.74-2.31c-0.53,0.15-1.01,1.32-1.12,2.77c-0.11,1.58,0.26,2.9,0.84,2.94
		c0.22,0.02,0.43-0.15,0.62-0.44C24.86,83.78,24.37,82.47,24.48,80.9z"/>
</g>
<g class="st25">
	
		<ellipse transform="matrix(7.154267e-03 -1 1 7.154267e-03 -66.1692 116.1438)" class="st13" cx="25.4" cy="91.39" rx="3.71" ry="1.7"/>
</g>
<g>
	
		<linearGradient id="SVGID_21_" gradientUnits="userSpaceOnUse" x1="22.1255" y1="95.803" x2="20.8682" y2="88.6727" gradientTransform="matrix(0.9979 -0.0653 0.0653 0.9979 -2.4869 0.4089)">
		<stop  offset="0" style="stop-color:#942972"/>
		<stop  offset="0.7232" style="stop-color:#A45486"/>
	</linearGradient>
	<path class="st32" d="M26.69,91.06c-0.01,2.05-0.79,3.7-1.72,3.7c-0.94-0.01-1.69-1.67-1.67-3.72c0.01-2.05,0.79-3.7,1.72-3.7
		C25.96,87.34,26.7,89.01,26.69,91.06z"/>
</g>
<g>
	
		<linearGradient id="SVGID_22_" gradientUnits="userSpaceOnUse" x1="21.128" y1="95.0872" x2="21.4283" y2="89.3567" gradientTransform="matrix(0.9979 -0.0653 0.0653 0.9979 -2.4869 0.4089)">
		<stop  offset="0" style="stop-color:#00ABE6"/>
		<stop  offset="0.9658" style="stop-color:#90CEF1"/>
	</linearGradient>
	<path class="st33" d="M25.83,91.05c-0.01,1.58-0.49,2.87-1.08,2.86c-0.58,0-1.05-1.29-1.03-2.88s0.49-2.87,1.08-2.86
		C25.38,88.18,25.84,89.47,25.83,91.05z"/>
</g>
<g>
	<path class="st28" d="M24.06,90.56c0.01-0.98,0.24-1.84,0.59-2.36c-0.52,0.18-0.92,1.38-0.93,2.83c-0.01,1.58,0.45,2.87,1.03,2.88
		c0.22,0,0.42-0.18,0.59-0.48C24.62,93.4,24.05,92.12,24.06,90.56z"/>
</g>
<g class="st34">
	
		<ellipse transform="matrix(0.2861 -0.9582 0.9582 0.2861 -70.9586 90.2208)" class="st24" cx="25.07" cy="92.73" rx="0.91" ry="0.42"/>
</g>
<g class="st34">
	
		<ellipse transform="matrix(0.3453 -0.9385 0.9385 0.3453 -67.4097 81.1187)" class="st24" cx="24.43" cy="88.87" rx="0.54" ry="0.25"/>
</g>
<g class="st25">
	<ellipse transform="matrix(0.9974 -0.072 0.072 0.9974 -7.1994 2.1062)" class="st13" cx="25.62" cy="100.93" rx="1.7" ry="3.71"/>
</g>
<g>
	
		<linearGradient id="SVGID_23_" gradientUnits="userSpaceOnUse" x1="16.4295" y1="105.5642" x2="15.1722" y2="98.4339" gradientTransform="matrix(0.9896 -0.1441 0.1441 0.9896 -5.1541 1.9536)">
		<stop  offset="0" style="stop-color:#942972"/>
		<stop  offset="0.7232" style="stop-color:#A45486"/>
	</linearGradient>
	<path class="st35" d="M26.87,100.49c0.15,2.04-0.49,3.75-1.43,3.82c-0.94,0.07-1.81-1.53-1.96-3.58c-0.15-2.04,0.49-3.75,1.43-3.82
		C25.85,96.84,26.73,98.45,26.87,100.49z"/>
</g>
<g>
	
		<linearGradient id="SVGID_24_" gradientUnits="userSpaceOnUse" x1="15.432" y1="104.8484" x2="15.7323" y2="99.1179" gradientTransform="matrix(0.9896 -0.1441 0.1441 0.9896 -5.1541 1.9536)">
		<stop  offset="0" style="stop-color:#00ABE6"/>
		<stop  offset="0.9658" style="stop-color:#90CEF1"/>
	</linearGradient>
	<path class="st36" d="M26.01,100.55c0.11,1.58-0.26,2.9-0.85,2.94s-1.14-1.21-1.26-2.79c-0.11-1.58,0.26-2.9,0.85-2.94
		C25.34,97.72,25.9,98.97,26.01,100.55z"/>
</g>
<g>
	<path class="st28" d="M24.22,100.2c-0.07-0.98,0.09-1.85,0.4-2.39c-0.5,0.22-0.81,1.45-0.71,2.9c0.11,1.58,0.68,2.83,1.26,2.79
		c0.22-0.02,0.4-0.21,0.55-0.53C25,102.99,24.33,101.76,24.22,100.2z"/>
</g>
<g class="st25">
	<ellipse transform="matrix(0.9974 -0.0725 0.0725 0.9974 -5.826 3.1123)" class="st13" cx="39.97" cy="81.83" rx="1.7" ry="3.71"/>
</g>
<g>
	
		<linearGradient id="SVGID_25_" gradientUnits="userSpaceOnUse" x1="27.1437" y1="85.0174" x2="25.8864" y2="77.8871" gradientTransform="matrix(-1 0 0 1 66.1379 0)">
		<stop  offset="0" style="stop-color:#942972"/>
		<stop  offset="0.7232" style="stop-color:#A45486"/>
	</linearGradient>
	<path class="st37" d="M37.93,81.58c0.15,2.04,1.03,3.64,1.96,3.58c0.94-0.07,1.57-1.78,1.43-3.82c-0.15-2.04-1.03-3.64-1.96-3.58
		C38.42,77.82,37.78,79.53,37.93,81.58z"/>
</g>
<g>
	
		<linearGradient id="SVGID_26_" gradientUnits="userSpaceOnUse" x1="26.1462" y1="84.3017" x2="26.4465" y2="78.5711" gradientTransform="matrix(-1 0 0 1 66.1379 0)">
		<stop  offset="0" style="stop-color:#00ABE6"/>
		<stop  offset="0.9658" style="stop-color:#90CEF1"/>
	</linearGradient>
	<path class="st38" d="M38.79,81.51c0.11,1.58,0.68,2.83,1.26,2.79c0.58-0.04,0.96-1.36,0.84-2.94c-0.11-1.58-0.68-2.83-1.26-2.79
		C39.05,78.62,38.67,79.93,38.79,81.51z"/>
</g>
<g>
	<path class="st28" d="M40.52,80.9c-0.07-0.98-0.36-1.82-0.74-2.31c0.53,0.15,1.01,1.32,1.12,2.77c0.11,1.58-0.26,2.9-0.84,2.94
		c-0.22,0.02-0.43-0.15-0.62-0.44C40.14,83.78,40.63,82.47,40.52,80.9z"/>
</g>
<g class="st25">
	
		<ellipse transform="matrix(1 -7.154267e-03 7.154267e-03 1 -0.6528 0.2909)" class="st13" cx="40.33" cy="91.39" rx="1.7" ry="3.71"/>
</g>
<g>
	
		<linearGradient id="SVGID_27_" gradientUnits="userSpaceOnUse" x1="23.2609" y1="95.8773" x2="22.0037" y2="88.747" gradientTransform="matrix(-0.9979 -0.0653 -0.0653 0.9979 68.6247 0.4089)">
		<stop  offset="0" style="stop-color:#942972"/>
		<stop  offset="0.7232" style="stop-color:#A45486"/>
	</linearGradient>
	<path class="st39" d="M38.31,91.06c0.01,2.05,0.79,3.7,1.72,3.7c0.94-0.01,1.69-1.67,1.67-3.72c-0.01-2.05-0.79-3.7-1.72-3.7
		C39.04,87.34,38.3,89.01,38.31,91.06z"/>
</g>
<g>
	
		<linearGradient id="SVGID_28_" gradientUnits="userSpaceOnUse" x1="22.2634" y1="95.1616" x2="22.5637" y2="89.431" gradientTransform="matrix(-0.9979 -0.0653 -0.0653 0.9979 68.6247 0.4089)">
		<stop  offset="0" style="stop-color:#00ABE6"/>
		<stop  offset="0.9658" style="stop-color:#90CEF1"/>
	</linearGradient>
	<path class="st40" d="M39.17,91.05c0.01,1.58,0.49,2.87,1.08,2.86c0.58,0,1.05-1.29,1.03-2.88c-0.01-1.58-0.49-2.87-1.08-2.86
		C39.62,88.18,39.16,89.47,39.17,91.05z"/>
</g>
<g>
	<path class="st28" d="M40.94,90.56c-0.01-0.98-0.24-1.84-0.59-2.36c0.52,0.18,0.92,1.38,0.93,2.83c0.01,1.58-0.45,2.87-1.03,2.88
		c-0.22,0-0.42-0.18-0.59-0.48C40.38,93.4,40.95,92.12,40.94,90.56z"/>
</g>
<g class="st25">
	
		<ellipse transform="matrix(0.072 -0.9974 0.9974 0.072 -63.436 133.6738)" class="st13" cx="40.12" cy="100.93" rx="3.71" ry="1.7"/>
</g>
<g>
	
		<linearGradient id="SVGID_29_" gradientUnits="userSpaceOnUse" x1="17.5555" y1="105.7281" x2="16.2982" y2="98.5979" gradientTransform="matrix(-0.9896 -0.1441 -0.1441 0.9896 71.2919 1.9536)">
		<stop  offset="0" style="stop-color:#942972"/>
		<stop  offset="0.7232" style="stop-color:#A45486"/>
	</linearGradient>
	<path class="st41" d="M38.13,100.49c-0.15,2.04,0.49,3.75,1.43,3.82c0.94,0.07,1.81-1.53,1.96-3.58s-0.49-3.75-1.43-3.82
		S38.27,98.45,38.13,100.49z"/>
</g>
<g>
	
		<linearGradient id="SVGID_30_" gradientUnits="userSpaceOnUse" x1="16.558" y1="105.0124" x2="16.8583" y2="99.2818" gradientTransform="matrix(-0.9896 -0.1441 -0.1441 0.9896 71.2919 1.9536)">
		<stop  offset="0" style="stop-color:#00ABE6"/>
		<stop  offset="0.9658" style="stop-color:#90CEF1"/>
	</linearGradient>
	<path class="st42" d="M38.99,100.55c-0.11,1.58,0.26,2.9,0.85,2.94s1.14-1.21,1.26-2.79c0.11-1.58-0.26-2.9-0.85-2.94
		S39.1,98.97,38.99,100.55z"/>
</g>
<g>
	<path class="st28" d="M40.78,100.2c0.07-0.98-0.09-1.85-0.4-2.39c0.5,0.22,0.81,1.45,0.71,2.9c-0.11,1.58-0.68,2.83-1.26,2.79
		c-0.22-0.02-0.4-0.21-0.55-0.53C40,102.99,40.67,101.76,40.78,100.2z"/>
</g>
<g class="st43">
	
		<ellipse transform="matrix(0.2552 -0.9669 0.9669 0.2552 -69.0844 115.2299)" class="st24" cx="40.25" cy="102.46" rx="0.73" ry="0.32"/>
</g>
<g class="st44">
	
		<ellipse transform="matrix(0.3496 -0.9369 0.9369 0.3496 -61.5436 77.8224)" class="st24" cx="25.28" cy="83.24" rx="0.91" ry="0.42"/>
</g>
<g class="st44">
	
		<ellipse transform="matrix(0.4074 -0.9133 0.9133 0.4074 -57.7046 69.7724)" class="st24" cx="24.91" cy="79.35" rx="0.54" ry="0.25"/>
</g>
<g class="st43">
	
		<ellipse transform="matrix(0.2169 -0.9762 0.9762 0.2169 -80.1825 104.9384)" class="st24" cx="25.32" cy="102.45" rx="0.91" ry="0.42"/>
</g>
<g class="st43">
	
		<ellipse transform="matrix(0.2774 -0.9608 0.9608 0.2774 -77.1349 94.7363)" class="st24" cx="24.41" cy="98.64" rx="0.54" ry="0.25"/>
</g>
<g class="st43">
	
		<ellipse transform="matrix(0.3617 -0.9323 0.9323 0.3617 -60.686 97.1458)" class="st24" cx="40.6" cy="92.89" rx="0.73" ry="0.32"/>
</g>
<g class="st43">
	<ellipse transform="matrix(0.23 -0.9732 0.9732 0.23 -50.0962 103.4018)" class="st24" cx="40.3" cy="83.36" rx="0.73" ry="0.32"/>
</g>
<g class="st29">
	<circle class="st24" cx="37.21" cy="70.6" r="0.54"/>
</g>
<g>
	<path class="st13" d="M42.83,96.8c0.02,1.14,0,2.27-0.01,3.41c-0.04,1.14-0.08,2.27-0.15,3.41c-0.12,2.27-0.35,4.54-0.61,6.8
		c-0.3,2.26-0.64,4.51-1.1,6.74c-0.47,2.23-1,4.45-1.77,6.59c0.24-1.11,0.47-2.22,0.66-3.34c0.22-1.11,0.4-2.23,0.57-3.35
		c0.36-2.24,0.68-4.48,0.95-6.73c0.31-2.24,0.52-4.5,0.77-6.75L42.83,96.8z"/>
</g>
<linearGradient id="SVGID_31_" gradientUnits="userSpaceOnUse" x1="28.7587" y1="61.9611" x2="36.2413" y2="61.9611">
	<stop  offset="0" style="stop-color:#A45486"/>
	<stop  offset="0.9658" style="stop-color:#942972"/>
</linearGradient>
<path class="st45" d="M28.76,62.94c1.15,0.4,2.41,0.63,3.74,0.63v-3.21C31.88,60.36,30.43,61.15,28.76,62.94z"/>
<path class="st46" d="M36.24,62.94c-1.67-1.78-3.12-2.58-3.74-2.58h0v3.21h0C33.83,63.57,35.1,63.34,36.24,62.94z"/>
<linearGradient id="SVGID_32_" gradientUnits="userSpaceOnUse" x1="37.5596" y1="131.3682" x2="26.2341" y2="100.2517">
	<stop  offset="0.266" style="stop-color:#942972"/>
	<stop  offset="0.2791" style="stop-color:#952B73"/>
	<stop  offset="0.561" style="stop-color:#9D437D"/>
	<stop  offset="0.8105" style="stop-color:#A25083"/>
	<stop  offset="1" style="stop-color:#A45486"/>
</linearGradient>
<path class="st47" d="M32.21,98.22c-0.5,2.21-1.46,7.31-1.46,13.52v20.28c0,0.46,0.44,0.84,0.98,0.84h0.76V97.99
	C32.37,97.99,32.25,98.07,32.21,98.22z"/>
<path class="st46" d="M34.25,132.02v-20.28c0-6.21-0.96-11.31-1.46-13.52c-0.03-0.15-0.16-0.23-0.29-0.23v34.87h0.76
	C33.81,132.86,34.25,132.48,34.25,132.02z"/>
<linearGradient id="SVGID_33_" gradientUnits="userSpaceOnUse" x1="47.8323" y1="65.2983" x2="25.2105" y2="3.1453">
	<stop  offset="0.4061" style="stop-color:#942972"/>
	<stop  offset="1" style="stop-color:#A45486"/>
</linearGradient>
<path class="st48" d="M32.47,0.54c-0.63,0.63-9.88,10.3-7.44,30.24c0.94-3.24,3.93-5.61,7.48-5.61c3.49,0,6.44,2.29,7.43,5.45
	C42.29,10.79,33.09,1.17,32.47,0.54z"/>
<linearGradient id="SVGID_34_" gradientUnits="userSpaceOnUse" x1="30.0795" y1="52.2481" x2="13.0611" y2="5.4905">
	<stop  offset="0.4061" style="stop-color:#942972"/>
	<stop  offset="1" style="stop-color:#A45486"/>
</linearGradient>
<path class="st49" d="M32.44,0.52c-0.01-0.01-0.01-0.01-0.01-0.01C15.98,0.54,2.4,12.82,0.32,28.72c1.19-1.38,2.95-2.25,4.92-2.25
	c2.86,0,5.28,1.85,6.15,4.41C11.39,30.88,10.42,4.56,32.44,0.52z"/>
<linearGradient id="SVGID_35_" gradientUnits="userSpaceOnUse" x1="69.9511" y1="72.1979" x2="42.5292" y2="-3.143">
	<stop  offset="0.4061" style="stop-color:#942972"/>
	<stop  offset="1" style="stop-color:#A45486"/>
</linearGradient>
<path class="st50" d="M32.5,0.51c0,0,0,0-0.01,0.01C53.4,4.35,53.58,28.28,53.55,30.68c0.02,0.06,0.04,0.13,0.06,0.2
	c0.87-2.56,3.29-4.41,6.15-4.41c1.97,0,3.73,0.87,4.92,2.25C62.6,12.8,48.99,0.51,32.5,0.51z"/>
<linearGradient id="SVGID_36_" gradientUnits="userSpaceOnUse" x1="32.4673" y1="65.407" x2="32.4673" y2="13.9376">
	<stop  offset="0" style="stop-color:#00ABE6"/>
	<stop  offset="1" style="stop-color:#AEE1F1"/>
</linearGradient>
<path class="st51" d="M32.5,0.51c-0.02,0-0.04,0-0.07,0c0.01,0,0.02,0,0.03,0.01C32.48,0.51,32.49,0.51,32.5,0.51z"/>
<linearGradient id="SVGID_37_" gradientUnits="userSpaceOnUse" x1="32.4831" y1="65.407" x2="32.4831" y2="0.5073">
	<stop  offset="0" style="stop-color:#00ABE6"/>
	<stop  offset="1" style="stop-color:#AEE1F1"/>
</linearGradient>
<path class="st52" d="M32.49,0.52c0.01-0.01,0.01-0.01,0.01-0.01c-0.01,0-0.02,0-0.03,0.01C32.47,0.52,32.48,0.52,32.49,0.52z"/>
<linearGradient id="SVGID_38_" gradientUnits="userSpaceOnUse" x1="32.4831" y1="43.6154" x2="32.4831" y2="-12.2314">
	<stop  offset="0" style="stop-color:#00ABE6"/>
	<stop  offset="1" style="stop-color:#AEE1F1"/>
</linearGradient>
<path class="st53" d="M32.49,0.52c0.01-0.01,0.01-0.01,0.01-0.01c-0.01,0-0.02,0-0.03,0.01C32.47,0.52,32.48,0.52,32.49,0.52z"/>
<linearGradient id="SVGID_39_" gradientUnits="userSpaceOnUse" x1="21.9257" y1="65.407" x2="21.9257" y2="0.5073">
	<stop  offset="0" style="stop-color:#00ABE6"/>
	<stop  offset="1" style="stop-color:#AEE1F1"/>
</linearGradient>
<path class="st54" d="M32.47,0.54c-0.01-0.01-0.02-0.02-0.02-0.02C10.42,4.56,11.39,30.88,11.39,30.88
	c0.89-2.93,3.61-5.06,6.83-5.06c3.18,0,5.88,2.08,6.8,4.96C22.59,10.84,31.84,1.17,32.47,0.54z"/>
<linearGradient id="SVGID_40_" gradientUnits="userSpaceOnUse" x1="26.6765" y1="42.6336" x2="17.569" y2="-9.0174">
	<stop  offset="0.1906" style="stop-color:#F7941D"/>
	<stop  offset="1" style="stop-color:#FFDD00"/>
</linearGradient>
<path class="st55" d="M32.47,0.54c-0.01-0.01-0.02-0.02-0.02-0.02C10.42,4.56,11.39,30.88,11.39,30.88
	c0.89-2.93,3.61-5.06,6.83-5.06c3.18,0,5.88,2.08,6.8,4.96C22.59,10.84,31.84,1.17,32.47,0.54z"/>
<linearGradient id="SVGID_41_" gradientUnits="userSpaceOnUse" x1="3932.3865" y1="2.0728" x2="3932.3865" y2="-1.0574" gradientTransform="matrix(-1 0 0 1 3964.8201 0)">
	<stop  offset="0" style="stop-color:#00ABE6"/>
	<stop  offset="1" style="stop-color:#AEE1F1"/>
</linearGradient>
<polygon class="st56" points="32.43,0.51 32.43,0.51 32.43,0.51 "/>
<linearGradient id="SVGID_42_" gradientUnits="userSpaceOnUse" x1="43.0069" y1="65.407" x2="43.0069" y2="0.5073">
	<stop  offset="0" style="stop-color:#00ABE6"/>
	<stop  offset="1" style="stop-color:#AEE1F1"/>
</linearGradient>
<path class="st57" d="M32.49,0.52c-0.01,0.01-0.01,0.01-0.02,0.02c0.63,0.63,9.83,10.25,7.46,30.08c0.02,0.05,0.03,0.11,0.05,0.16
	c0.92-2.88,3.62-4.96,6.8-4.96c3.15,0,5.82,2.04,6.77,4.86C53.58,28.28,53.4,4.35,32.49,0.52z"/>
<linearGradient id="SVGID_43_" gradientUnits="userSpaceOnUse" x1="3916.1565" y1="45.9136" x2="3926.8481" y2="-14.7218" gradientTransform="matrix(-1 0 0 1 3964.8201 0)">
	<stop  offset="0.1906" style="stop-color:#F7941D"/>
	<stop  offset="1" style="stop-color:#FFDD00"/>
</linearGradient>
<path class="st58" d="M32.49,0.52c-0.01,0.01-0.01,0.01-0.02,0.02c0.63,0.63,9.83,10.25,7.46,30.08c0.02,0.05,0.03,0.11,0.05,0.16
	c0.92-2.88,3.62-4.96,6.8-4.96c3.15,0,5.82,2.04,6.77,4.86C53.58,28.28,53.4,4.35,32.49,0.52z"/>
<linearGradient id="SVGID_44_" gradientUnits="userSpaceOnUse" x1="32.4496" y1="65.407" x2="32.4496" y2="0.5073">
	<stop  offset="0" style="stop-color:#00ABE6"/>
	<stop  offset="1" style="stop-color:#AEE1F1"/>
</linearGradient>
<path class="st59" d="M32.47,0.51c-0.01,0-0.02,0-0.03-0.01c0,0,0,0,0,0c0,0,0,0,0.01,0.01C32.45,0.52,32.46,0.52,32.47,0.51z"/>
<linearGradient id="SVGID_45_" gradientUnits="userSpaceOnUse" x1="3932.3704" y1="43.6154" x2="3932.3704" y2="-12.2314" gradientTransform="matrix(-1 0 0 1 3964.8201 0)">
	<stop  offset="0" style="stop-color:#00ABE6"/>
	<stop  offset="1" style="stop-color:#AEE1F1"/>
</linearGradient>
<path class="st60" d="M32.47,0.51c-0.01,0-0.02,0-0.03-0.01c0,0,0,0,0,0c0,0,0,0,0.01,0.01C32.45,0.52,32.46,0.52,32.47,0.51z"/>
<linearGradient id="SVGID_46_" gradientUnits="userSpaceOnUse" x1="32.4663" y1="65.407" x2="32.4663" y2="0.5073">
	<stop  offset="0" style="stop-color:#00ABE6"/>
	<stop  offset="1" style="stop-color:#AEE1F1"/>
</linearGradient>
<path class="st61" d="M32.44,0.52c0.01,0.01,0.01,0.01,0.02,0.02c0.01-0.01,0.02-0.02,0.02-0.02c-0.01,0-0.02,0-0.02,0
	C32.46,0.52,32.45,0.52,32.44,0.52z"/>
<linearGradient id="SVGID_47_" gradientUnits="userSpaceOnUse" x1="32.4663" y1="43.6154" x2="32.4663" y2="-12.2314">
	<stop  offset="0" style="stop-color:#00ABE6"/>
	<stop  offset="1" style="stop-color:#AEE1F1"/>
</linearGradient>
<path class="st62" d="M32.44,0.52c0.01,0.01,0.01,0.01,0.02,0.02c0.01-0.01,0.02-0.02,0.02-0.02c-0.01,0-0.02,0-0.02,0
	C32.46,0.52,32.45,0.52,32.44,0.52z"/>
<linearGradient id="SVGID_48_" gradientUnits="userSpaceOnUse" x1="3932.3538" y1="43.6154" x2="3932.3538" y2="-12.2314" gradientTransform="matrix(-1 0 0 1 3964.8201 0)">
	<stop  offset="0" style="stop-color:#00ABE6"/>
	<stop  offset="1" style="stop-color:#AEE1F1"/>
</linearGradient>
<path class="st63" d="M32.44,0.52c0.01,0.01,0.01,0.01,0.02,0.02c0.01-0.01,0.02-0.02,0.02-0.02c-0.01,0-0.02,0-0.02,0
	C32.46,0.52,32.45,0.52,32.44,0.52z"/>
<line class="st64" x1="0.32" y1="28.72" x2="32.5" y2="60.36"/>
<line class="st64" x1="64.68" y1="28.72" x2="32.5" y2="60.36"/>
<line class="st64" x1="53.61" y1="30.88" x2="32.5" y2="60.36"/>
<line class="st64" x1="11.39" y1="30.88" x2="32.5" y2="60.36"/>
<line class="st64" x1="25.02" y1="30.78" x2="32.5" y2="60.36"/>
<line class="st64" x1="39.98" y1="30.78" x2="32.5" y2="60.36"/>
<circle class="st13" cx="0.32" cy="28.72" r="0.5"/>
<circle class="st13" cx="53.68" cy="30.78" r="0.5"/>
<circle class="st13" cx="39.98" cy="30.78" r="0.5"/>
<circle class="st13" cx="25.05" cy="30.78" r="0.5"/>
<circle class="st13" cx="11.39" cy="30.78" r="0.5"/>
<circle class="st13" cx="64.68" cy="28.72" r="0.5"/>
<g>
	<path class="st24" d="M22.17,96.8l0.67,6.78c0.25,2.25,0.46,4.51,0.77,6.75c0.28,2.25,0.59,4.49,0.95,6.73
		c0.17,1.12,0.36,2.24,0.57,3.35c0.19,1.12,0.42,2.23,0.66,3.34c-0.77-2.14-1.3-4.37-1.77-6.59c-0.45-2.23-0.8-4.48-1.1-6.74
		c-0.26-2.26-0.49-4.53-0.61-6.8c-0.07-1.14-0.1-2.27-0.15-3.41C22.17,99.07,22.16,97.94,22.17,96.8z"/>
</g>
</svg>
